<?xml version="1.0" encoding="UTF-8" ?>
<!DOCTYPE svg PUBLIC "-//W3C//DTD SVG 1.1//EN" "http://www.w3.org/Graphics/SVG/1.1/DTD/svg11.dtd">
<svg width="1070pt" height="887pt" viewBox="0 0 1070 887" version="1.1" xmlns="http://www.w3.org/2000/svg">
<g id="#ffffffff">
<path fill="#ffffff" opacity="1.00" d=" M 489.79 8.57 C 491.34 5.14 494.26 2.06 498.20 1.70 C 505.43 1.05 512.71 0.59 519.98 0.46 C 523.90 0.38 527.08 3.16 528.97 6.36 C 536.11 6.30 543.24 6.39 550.38 6.62 C 552.34 3.23 555.89 0.55 559.97 0.84 C 567.03 1.18 574.10 1.72 581.13 2.50 C 585.14 2.92 588.17 6.13 589.53 9.76 C 596.57 10.68 603.60 11.70 610.59 12.94 C 613.04 9.76 617.01 7.48 621.13 8.42 C 628.11 9.77 635.09 11.23 641.96 13.05 C 645.84 14.07 648.23 17.73 649.08 21.45 C 655.88 23.34 662.66 25.30 669.38 27.49 C 672.21 24.62 676.46 22.88 680.44 24.33 C 687.30 26.70 694.16 29.12 700.83 31.98 C 704.50 33.61 705.98 37.60 706.57 41.29 C 712.92 44.21 719.36 46.95 725.64 50.03 C 728.78 47.62 733.14 46.38 736.87 48.27 C 743.25 51.42 749.52 54.82 755.68 58.39 C 759.36 60.45 760.84 64.85 760.46 68.87 C 766.45 72.49 772.36 76.24 778.19 80.11 C 781.63 78.18 786.06 77.43 789.53 79.77 C 795.57 83.89 801.51 88.21 807.23 92.77 C 810.41 95.38 811.03 99.82 810.16 103.65 C 815.61 107.98 820.89 112.53 826.13 117.12 C 829.82 115.57 834.41 115.53 837.53 118.33 C 842.81 123.10 847.93 128.08 852.89 133.19 C 855.93 136.22 856.17 140.98 854.58 144.80 C 859.34 149.86 863.99 155.05 868.52 160.33 C 872.18 159.32 876.53 159.69 879.28 162.58 C 883.12 166.84 886.50 171.50 890.05 176.00 C 892.05 178.68 894.61 181.38 894.73 184.93 C 894.99 187.34 893.92 189.56 892.96 191.68 C 896.91 197.31 900.85 202.96 904.46 208.82 C 908.37 208.43 912.80 209.28 915.15 212.76 C 918.27 217.43 920.95 222.38 923.78 227.23 C 925.43 230.26 927.68 233.36 927.23 237.02 C 927.12 239.39 925.76 241.41 924.51 243.33 C 927.70 249.46 930.72 255.67 933.65 261.92 C 937.89 261.81 942.36 263.87 944.04 267.97 C 946.83 274.29 949.45 280.69 951.87 287.17 C 953.57 291.30 951.77 295.89 948.64 298.77 C 950.93 305.29 953.10 311.86 955.10 318.48 C 958.92 318.92 962.79 320.99 964.21 324.75 C 965.69 329.05 966.63 333.52 967.81 337.91 C 987.21 337.91 1006.61 337.90 1026.00 337.91 C 1030.89 337.84 1035.61 339.74 1039.48 342.65 C 1047.76 349.02 1052.84 358.56 1056.78 368.03 C 1066.38 392.11 1068.89 418.28 1069.75 443.98 C 1068.97 468.63 1066.62 493.66 1058.06 516.97 C 1054.49 526.35 1049.98 535.69 1042.77 542.84 C 1038.31 547.23 1032.37 550.48 1025.97 550.40 C 1006.48 550.42 986.98 550.40 967.49 550.41 C 966.86 556.19 963.30 562.16 956.90 562.49 C 954.95 569.12 952.91 575.72 950.70 582.27 C 953.57 584.92 955.54 588.95 954.38 592.90 C 952.61 598.41 950.34 603.75 948.24 609.14 C 946.99 612.07 946.03 615.42 943.28 617.33 C 941.27 618.95 938.64 619.19 936.18 619.41 C 933.39 625.75 930.40 631.99 927.32 638.19 C 929.90 641.29 931.18 645.75 929.30 649.54 C 926.70 654.74 923.74 659.77 920.88 664.83 C 919.33 667.49 917.84 670.52 914.92 671.91 C 912.77 673.13 910.24 673.00 907.88 672.92 C 904.17 678.78 900.41 684.61 896.46 690.31 C 898.51 693.74 899.19 698.28 896.83 701.75 C 893.61 706.48 890.03 710.96 886.56 715.52 C 884.66 717.89 882.89 720.70 879.89 721.79 C 877.51 722.86 874.89 722.43 872.43 722.02 C 868.00 727.37 863.40 732.58 858.75 737.74 C 860.29 741.48 860.24 746.12 857.34 749.21 C 852.48 754.39 847.43 759.40 842.25 764.26 C 839.17 767.25 834.46 767.35 830.68 765.80 C 825.49 770.46 820.24 775.04 814.91 779.53 C 815.89 783.49 815.10 788.14 811.72 790.75 C 806.14 795.23 800.44 799.57 794.56 803.66 C 791.19 805.94 786.72 805.44 783.36 803.43 C 777.52 807.34 771.65 811.22 765.69 814.95 C 766.18 819.07 764.59 823.55 760.83 825.64 C 754.68 829.25 748.48 832.80 742.10 836.00 C 738.48 837.71 734.27 836.56 731.23 834.22 C 724.92 837.33 718.58 840.37 712.15 843.20 C 711.96 847.22 709.93 851.38 706.02 852.95 C 699.37 855.75 692.64 858.41 685.80 860.73 C 681.99 861.95 678.06 860.20 675.33 857.55 C 668.64 859.82 661.88 861.89 655.10 863.88 C 654.45 866.07 653.76 868.41 652.02 870.01 C 649.60 872.55 645.94 872.94 642.74 873.82 C 637.17 875.09 631.64 876.62 626.00 877.49 C 622.29 877.89 619.02 875.67 616.76 872.95 C 609.78 874.25 602.77 875.41 595.75 876.41 C 594.41 880.18 591.24 883.49 587.10 883.85 C 580.06 884.70 572.99 885.38 565.91 885.77 C 561.96 885.97 558.58 883.32 556.61 880.10 C 549.49 880.46 542.36 880.62 535.24 880.66 C 533.34 884.03 529.99 886.87 525.93 886.73 C 518.90 886.63 511.86 886.32 504.85 885.80 C 500.82 885.61 497.63 882.57 496.08 879.03 C 488.93 878.37 481.79 877.60 474.68 876.64 C 472.37 879.55 468.87 881.86 464.99 881.29 C 457.77 880.22 450.56 878.93 443.44 877.32 C 439.71 876.44 437.28 873.13 436.17 869.66 C 429.15 868.01 422.16 866.24 415.21 864.32 C 412.56 866.81 408.84 868.53 405.16 867.50 C 398.18 865.48 391.27 863.16 384.46 860.65 C 380.84 859.33 378.74 855.75 378.13 852.11 C 371.37 849.45 364.64 846.72 357.97 843.85 C 354.91 845.90 350.93 847.03 347.41 845.40 C 340.86 842.42 334.39 839.23 328.06 835.80 C 324.73 834.00 323.21 830.22 323.00 826.61 C 316.63 823.05 310.32 819.38 304.09 815.59 C 300.80 817.20 296.73 817.69 293.53 815.62 C 287.42 811.72 281.40 807.67 275.59 803.36 C 272.65 801.13 271.76 797.30 271.96 793.79 C 266.13 789.36 260.34 784.89 254.70 780.22 C 251.24 781.27 247.20 781.21 244.34 778.75 C 238.92 774.19 233.67 769.40 228.56 764.50 C 225.74 761.90 225.21 757.84 225.93 754.25 C 220.71 749.08 215.59 743.81 210.62 738.40 C 207.05 738.90 203.07 738.29 200.59 735.45 C 195.83 730.12 191.23 724.64 186.83 719.02 C 184.54 716.12 184.61 712.17 185.71 708.82 C 181.25 702.93 176.89 696.96 172.66 690.91 C 169.11 690.91 165.33 689.76 163.29 686.66 C 159.25 680.67 155.38 674.55 151.79 668.29 C 149.98 665.12 150.71 661.36 152.13 658.22 C 148.50 651.77 144.99 645.27 141.67 638.67 C 138.11 638.19 134.53 636.45 132.94 633.07 C 129.87 626.76 127.00 620.36 124.32 613.88 C 122.77 610.42 123.87 606.55 125.87 603.54 C 123.13 596.64 120.58 589.66 118.16 582.65 C 114.74 581.69 111.47 579.47 110.37 575.94 C 108.25 569.51 106.43 562.99 104.65 556.46 C 104.05 554.48 104.23 552.40 104.39 550.38 C 84.25 550.45 64.12 550.38 43.98 550.41 C 37.28 550.62 31.02 547.24 26.41 542.58 C 19.84 535.93 15.50 527.45 12.09 518.83 C 6.20 503.56 3.10 487.34 1.41 471.10 C -0.79 448.75 -0.34 426.11 3.14 403.91 C 5.56 389.08 9.24 374.28 15.96 360.77 C 19.74 353.39 24.53 346.14 31.58 341.53 C 35.25 339.13 39.61 337.77 44.02 337.90 C 63.60 337.91 83.18 337.90 102.76 337.91 C 104.57 330.82 106.38 323.73 108.63 316.77 C 109.73 313.36 112.92 311.29 116.19 310.29 C 118.50 303.22 120.99 296.21 123.59 289.24 C 121.53 286.27 120.44 282.38 121.93 278.92 C 124.57 272.33 127.34 265.78 130.40 259.37 C 131.95 256.06 135.46 254.38 138.91 253.84 C 142.19 247.20 145.61 240.63 149.12 234.10 C 147.57 230.90 146.90 227.00 148.80 223.77 C 152.25 217.65 155.92 211.63 159.75 205.73 C 161.73 202.50 165.56 201.13 169.21 201.14 C 173.38 195.03 177.64 188.99 182.03 183.04 C 180.82 179.52 180.82 175.36 183.32 172.38 C 187.70 166.77 192.13 161.18 196.88 155.87 C 199.30 153.21 203.09 152.70 206.50 153.10 C 211.46 147.66 216.47 142.27 221.63 137.02 C 220.92 133.55 221.29 129.61 223.92 126.99 C 228.92 121.98 234.15 117.16 239.47 112.48 C 242.31 109.85 246.45 109.62 250.01 110.68 C 255.63 105.97 261.33 101.36 267.13 96.87 C 266.80 93.16 267.88 89.13 271.05 86.89 C 276.76 82.65 282.57 78.52 288.54 74.66 C 291.71 72.63 295.68 73.15 298.94 74.64 C 305.10 70.77 311.31 66.99 317.65 63.42 C 317.81 59.71 319.35 55.82 322.78 53.99 C 328.92 50.59 335.18 47.39 341.52 44.38 C 345.04 42.59 349.17 43.59 352.31 45.70 C 358.93 42.73 365.59 39.87 372.32 37.18 C 372.93 33.53 374.92 29.89 378.55 28.52 C 385.30 25.91 392.14 23.51 399.05 21.40 C 402.74 20.28 406.49 21.96 409.20 24.42 C 416.12 22.40 423.09 20.52 430.09 18.78 C 431.16 15.09 433.82 11.66 437.75 10.87 C 444.79 9.28 451.88 7.78 459.02 6.71 C 462.79 6.20 466.18 8.46 468.49 11.24 C 475.57 10.20 482.67 9.30 489.79 8.57 M 414.01 71.88 C 352.03 92.08 295.39 128.18 250.70 175.60 C 207.50 221.26 175.48 277.41 158.35 337.90 C 160.58 337.90 162.81 337.90 165.03 337.90 C 177.40 295.12 197.27 254.53 223.45 218.51 C 259.76 168.41 308.24 127.19 363.61 99.54 C 413.28 74.61 468.44 60.77 523.98 59.13 C 569.38 57.71 615.04 64.27 658.13 78.67 C 717.24 98.31 771.32 132.67 814.42 177.61 C 857.63 222.52 889.79 278.00 907.04 337.90 C 909.26 337.90 911.49 337.90 913.72 337.90 C 898.13 282.88 870.26 231.42 832.79 188.22 C 791.76 140.76 739.24 103.28 680.90 80.15 C 596.52 46.40 500.32 43.52 414.01 71.88 M 354.95 118.85 C 298.16 150.03 249.77 196.29 216.01 251.58 C 219.64 250.55 223.19 248.76 227.05 248.94 C 230.03 249.08 232.55 250.80 235.09 252.16 C 236.78 250.80 238.30 249.21 239.17 247.20 C 244.47 236.62 249.60 225.57 258.45 217.41 C 261.73 214.01 266.09 211.44 270.91 211.25 C 276.48 211.14 282.36 210.85 287.52 213.34 C 292.05 215.30 294.68 219.71 297.77 223.31 C 301.60 228.41 306.63 232.37 311.19 236.77 C 316.31 241.02 320.92 245.89 326.36 249.76 C 333.54 255.05 341.29 259.86 347.11 266.73 C 349.17 269.04 350.44 272.97 354.09 273.01 C 358.44 270.51 362.27 267.19 366.75 264.91 C 369.93 263.32 373.57 263.75 377.01 263.51 C 381.25 263.32 385.70 262.46 389.78 264.10 C 393.18 265.25 396.22 267.87 400.02 267.42 C 404.49 267.24 408.84 268.51 412.92 270.23 C 417.05 266.20 420.65 261.67 424.97 257.84 C 428.64 254.29 433.92 253.19 437.62 249.66 C 444.08 244.10 450.97 237.70 460.01 237.46 C 463.35 237.21 466.47 239.67 469.76 238.84 C 475.49 233.47 479.21 226.37 484.98 221.03 C 488.64 215.69 492.68 210.60 496.04 205.06 C 498.54 201.29 501.75 198.06 504.29 194.33 C 507.53 189.63 511.80 185.74 514.86 180.91 C 518.03 175.83 522.89 172.10 526.02 166.98 C 529.55 163.35 533.53 159.25 538.90 158.85 C 544.53 157.88 550.32 157.90 555.88 156.46 C 564.83 154.58 574.00 155.93 583.01 156.54 C 588.16 156.25 593.77 156.51 597.99 159.87 C 606.03 166.51 612.29 175.11 620.78 181.25 C 629.07 187.59 637.06 194.33 645.50 200.50 C 653.65 206.69 658.63 215.98 666.71 222.22 C 673.16 227.78 678.17 234.83 684.91 240.08 C 689.05 243.31 693.34 247.50 698.96 247.47 C 704.28 247.51 709.60 248.70 714.91 248.23 C 717.82 246.46 719.15 242.94 721.97 240.98 C 726.46 237.76 730.98 234.58 735.25 231.05 C 739.51 227.68 745.58 228.20 749.99 231.00 C 755.13 233.69 759.79 237.15 764.46 240.56 C 769.10 242.26 774.14 242.95 778.54 245.36 C 786.46 249.49 792.16 256.73 799.64 261.47 C 806.89 264.18 814.65 265.23 822.07 267.44 C 827.85 269.33 834.21 266.88 839.86 269.39 C 844.80 271.69 849.07 275.20 852.95 278.99 C 857.75 284.76 865.85 285.22 872.35 288.09 C 842.25 223.48 793.11 167.95 732.76 130.04 C 673.99 92.84 604.56 72.88 535.02 72.94 C 472.40 72.71 409.78 88.57 354.95 118.85 M 557.52 166.75 C 551.46 168.37 545.07 167.97 539.00 169.51 C 536.80 171.06 534.53 172.69 533.06 174.99 C 530.21 179.41 525.93 182.66 523.17 187.13 C 519.99 192.20 515.51 196.26 512.15 201.19 C 510.41 203.76 508.30 206.04 506.39 208.48 C 500.59 216.59 495.61 225.42 488.48 232.47 C 484.59 237.55 480.88 242.88 476.07 247.14 C 471.34 250.82 465.13 249.35 459.89 247.86 C 450.66 249.34 445.61 258.45 437.52 262.26 C 428.98 265.65 424.88 274.67 417.53 279.68 C 414.80 281.44 411.26 281.28 408.47 279.75 C 405.22 278.03 401.54 277.63 397.92 277.79 C 394.17 277.99 390.91 275.93 387.62 274.46 C 384.02 272.53 379.89 274.10 376.05 273.94 C 367.23 272.89 362.58 283.52 353.94 283.36 C 348.94 283.35 344.13 280.75 341.42 276.54 C 335.33 267.19 324.88 262.31 316.55 255.31 C 309.41 249.19 302.42 242.88 295.55 236.45 C 291.60 232.68 288.55 228.11 284.88 224.09 C 282.65 221.67 279.07 221.68 276.03 221.59 C 273.30 221.60 270.20 221.11 267.91 222.95 C 258.23 230.62 253.42 242.30 247.87 252.95 C 245.77 257.25 241.92 260.51 237.63 262.51 C 233.46 264.20 229.79 260.91 226.26 259.22 C 219.38 261.52 211.76 263.18 206.42 268.41 C 194.23 290.41 184.67 313.85 177.33 337.91 C 415.36 337.90 653.39 337.91 891.42 337.90 C 887.50 325.02 882.91 312.34 877.66 299.95 C 872.71 299.01 867.84 297.71 863.15 295.89 C 857.09 293.79 850.35 292.11 846.13 286.89 C 841.90 283.05 837.29 277.74 830.99 278.57 C 820.94 279.23 811.52 274.90 801.79 273.12 C 791.56 271.30 785.20 262.46 777.18 256.76 C 773.05 253.47 767.79 252.37 762.81 251.06 C 758.23 249.89 755.04 246.20 751.15 243.79 C 748.24 241.95 745.31 240.12 742.11 238.83 C 738.36 241.88 734.59 244.92 730.54 247.57 C 726.21 250.12 724.44 255.56 719.63 257.48 C 713.06 260.28 705.83 257.78 698.99 257.87 C 690.30 258.09 683.23 252.30 676.99 246.98 C 670.15 241.52 665.10 234.20 658.29 228.71 C 650.87 222.76 646.25 214.08 638.62 208.33 C 629.40 201.56 620.69 194.14 611.55 187.27 C 604.41 181.48 598.70 174.16 591.73 168.19 C 590.39 167.14 588.65 166.85 587.00 166.88 C 577.18 167.28 567.27 164.51 557.52 166.75 M 42.08 347.14 C 34.30 348.45 29.44 355.64 25.71 361.96 C 18.08 375.83 14.38 391.46 11.92 406.99 C 8.40 430.84 8.33 455.20 11.60 479.08 C 13.86 494.46 17.36 509.89 24.37 523.85 C 27.59 529.91 31.45 536.10 37.53 539.65 C 41.29 541.92 45.83 541.11 50.00 541.25 C 374.97 541.25 699.94 541.24 1024.91 541.26 C 1028.76 541.53 1032.43 539.83 1035.25 537.30 C 1040.94 532.25 1044.57 525.36 1047.59 518.49 C 1053.43 504.69 1056.50 489.89 1058.38 475.08 C 1061.32 450.20 1060.84 424.86 1056.38 400.19 C 1053.55 385.70 1049.62 371.03 1041.60 358.47 C 1037.84 352.84 1032.42 346.67 1025.01 347.03 C 836.35 347.04 647.69 347.03 459.03 347.03 C 320.05 347.11 181.06 346.88 42.08 347.14 M 161.19 542.06 C 182.46 623.34 230.73 697.18 296.55 749.37 C 347.32 789.90 408.40 817.44 472.47 828.33 C 540.85 840.06 612.38 833.26 677.16 808.33 C 733.75 786.70 785.02 751.51 825.81 706.74 C 868.41 660.14 899.52 603.13 915.57 542.06 C 913.35 542.05 911.15 542.06 908.95 542.06 C 890.16 612.40 850.92 677.07 797.30 726.30 C 751.05 768.99 694.16 800.11 633.15 815.64 C 562.42 833.76 486.48 831.11 417.26 807.86 C 356.89 787.73 301.87 752.07 258.54 705.50 C 215.56 659.51 184.09 602.87 167.82 542.06 C 165.61 542.05 163.40 542.05 161.19 542.06 M 197.08 552.07 C 195.20 555.29 191.37 555.83 188.06 556.53 C 191.91 569.68 196.79 582.54 202.93 594.80 C 205.56 599.95 207.45 605.46 210.48 610.41 C 212.61 609.02 214.58 607.23 217.04 606.44 C 219.24 605.98 221.63 606.02 223.55 604.66 C 233.48 598.79 242.85 592.04 252.37 585.55 C 269.35 573.76 286.48 562.17 303.48 550.40 C 270.62 550.42 237.76 550.39 204.90 550.42 C 202.20 550.38 199.61 551.23 197.08 552.07 M 313.98 552.12 C 298.85 562.63 283.50 572.83 268.47 583.48 C 255.06 592.77 241.11 601.30 228.09 611.14 C 225.27 612.83 224.98 616.50 222.48 618.48 C 220.79 619.89 218.81 620.87 216.99 622.09 C 226.64 639.22 236.38 656.59 249.81 671.10 C 252.04 668.28 254.86 666.06 258.52 665.59 C 270.01 655.08 280.67 643.68 291.70 632.70 C 318.75 605.28 345.78 577.83 372.83 550.40 C 354.54 550.43 336.24 550.39 317.95 550.41 C 316.38 550.20 315.20 551.35 313.98 552.12 M 383.32 550.41 C 353.35 580.73 323.43 611.09 293.56 641.50 C 283.89 651.52 273.28 660.71 264.49 671.52 C 263.79 675.48 261.28 678.55 258.32 681.11 C 270.40 696.88 285.48 710.02 300.27 723.18 C 302.46 721.34 304.35 719.17 306.46 717.25 C 308.21 715.67 311.02 716.40 312.67 714.65 C 316.63 711.30 320.29 707.62 324.03 704.04 C 373.32 655.33 422.25 606.25 471.55 557.55 C 473.86 555.90 473.58 552.86 474.20 550.41 C 443.91 550.40 413.61 550.40 383.32 550.41 M 489.40 550.41 C 486.34 553.64 482.89 556.52 480.07 559.94 C 477.31 572.94 475.16 586.08 472.63 599.14 C 481.10 586.66 489.31 574.01 497.83 561.58 C 498.23 557.87 497.90 554.12 497.99 550.40 C 495.12 550.40 492.26 550.40 489.40 550.41 M 514.21 550.41 C 511.38 554.62 508.56 558.84 505.75 563.08 C 506.09 621.04 506.34 679.01 506.72 736.98 C 506.93 755.66 506.82 774.34 507.52 793.01 C 507.27 795.90 509.94 798.00 509.72 800.89 C 509.80 803.41 509.73 805.95 509.80 808.49 C 521.81 809.73 533.92 809.62 545.99 809.54 C 553.76 809.32 561.59 809.37 569.29 808.14 C 569.61 804.36 568.90 800.01 571.84 797.07 C 572.34 792.39 572.31 787.69 572.43 783.00 C 572.71 761.00 572.67 739.00 572.75 717.01 C 572.77 667.34 573.10 617.66 572.91 568.00 C 569.13 561.98 564.89 556.24 560.83 550.40 C 545.29 550.43 529.75 550.40 514.21 550.41 M 569.89 550.41 C 570.83 551.83 571.78 553.26 572.74 554.69 C 572.80 553.25 572.87 551.82 572.94 550.40 C 572.18 550.40 570.65 550.41 569.89 550.41 M 580.53 550.41 C 580.53 555.47 580.54 560.54 580.53 565.61 C 588.19 576.95 596.02 588.18 603.74 599.48 C 601.03 585.11 598.07 570.79 595.26 556.44 C 594.98 553.72 592.37 552.27 590.71 550.41 C 587.31 550.41 583.92 550.40 580.53 550.41 M 602.10 550.44 C 614.80 563.88 628.33 576.54 641.37 589.66 C 673.74 621.64 706.08 653.66 738.43 685.67 C 748.24 695.22 757.68 705.17 767.99 714.19 C 772.39 713.72 775.00 717.80 777.97 720.31 C 784.88 715.22 790.99 709.16 797.10 703.16 C 804.90 695.25 812.87 687.43 819.71 678.65 C 818.18 676.38 816.11 674.59 814.31 672.57 C 812.76 670.78 813.51 667.95 811.74 666.30 C 807.43 661.30 802.71 656.67 798.12 651.94 C 764.49 617.94 730.52 584.27 696.76 550.41 C 665.21 550.43 633.65 550.36 602.10 550.44 M 707.44 550.40 C 736.07 579.17 764.75 607.89 793.25 636.79 C 801.67 645.05 809.49 653.99 818.50 661.63 C 822.74 661.80 825.84 664.54 828.50 667.58 C 840.35 652.17 851.97 636.32 860.25 618.65 C 858.32 617.27 856.12 616.22 854.50 614.46 C 853.23 612.45 852.82 609.80 850.43 608.73 C 821.21 589.19 791.91 569.75 762.48 550.54 C 744.14 550.22 725.79 550.51 707.44 550.40 M 776.26 550.40 C 803.20 568.22 829.85 586.52 857.03 603.96 C 860.65 602.21 863.82 604.47 866.33 606.93 C 868.39 604.59 869.60 601.69 870.92 598.90 C 878.06 584.00 883.85 568.45 888.63 552.65 C 885.61 552.32 882.82 551.05 879.89 550.44 C 845.35 550.36 810.80 550.44 776.26 550.40 M 604.30 564.07 C 607.63 580.09 610.73 596.16 614.35 612.12 C 615.07 615.99 617.68 619.08 619.72 622.33 C 649.01 665.06 678.52 707.65 707.67 750.47 C 709.09 753.18 712.69 753.10 714.45 755.47 C 716.15 757.60 717.53 759.98 719.14 762.19 C 727.28 757.92 734.92 752.77 742.60 747.73 C 751.13 741.91 759.76 736.18 767.64 729.48 C 765.15 726.98 761.33 724.45 762.62 720.36 C 760.01 717.31 757.19 714.47 754.35 711.65 C 704.33 662.46 654.66 612.91 604.30 564.07 M 409.30 630.22 C 381.05 658.34 352.46 686.12 324.53 714.54 C 321.75 717.86 317.72 720.52 316.62 724.92 C 315.73 727.78 312.98 729.42 310.97 731.45 C 315.38 735.65 320.37 739.17 325.34 742.67 C 336.09 750.92 348.15 757.24 360.09 763.57 C 361.91 760.30 364.70 757.84 367.89 755.99 C 376.12 745.67 382.98 734.31 390.41 723.42 C 413.92 687.65 437.70 652.06 461.30 616.36 C 462.19 615.13 462.34 613.60 462.65 612.18 C 465.25 597.77 467.98 583.39 470.69 569.00 C 450.22 589.41 429.87 609.93 409.30 630.22 M 470.35 616.37 C 469.65 617.42 468.96 618.51 468.79 619.79 C 462.24 654.80 455.78 689.83 449.20 724.84 C 445.63 744.49 441.29 764.03 438.53 783.82 C 442.12 787.28 439.39 792.18 439.22 796.38 C 457.79 802.52 477.16 806.03 496.65 807.50 C 496.93 803.41 494.80 797.55 499.58 795.33 C 499.14 721.95 498.74 648.57 497.73 575.19 C 488.59 588.92 479.51 602.67 470.35 616.37 M 580.90 579.33 C 580.62 635.90 580.40 692.47 580.22 749.04 C 580.28 764.40 579.96 779.77 580.56 795.13 C 580.44 797.30 582.16 798.87 582.71 800.86 C 582.98 802.85 582.79 804.86 582.81 806.88 C 595.00 805.45 607.14 803.60 619.09 800.82 C 626.33 799.07 633.78 797.82 640.63 794.80 C 639.48 791.22 638.89 787.30 640.87 783.91 C 639.46 770.76 636.12 757.85 633.56 744.88 C 624.86 702.98 616.67 660.96 607.95 619.08 C 600.77 607.80 593.14 596.75 585.03 586.11 C 583.69 583.82 582.33 581.55 580.90 579.33 M 618.73 634.24 C 625.41 668.35 632.44 702.38 639.32 736.45 C 642.61 751.80 644.76 767.42 648.96 782.56 C 652.55 783.74 653.04 787.65 653.50 790.86 C 669.45 786.17 684.66 779.42 699.82 772.67 C 702.33 771.40 705.02 770.31 707.00 768.23 C 704.70 764.98 703.07 761.37 702.51 757.43 C 696.51 746.45 689.01 736.36 682.00 726.01 C 660.83 695.48 639.65 664.95 618.73 634.24 M 390.86 735.85 C 385.08 743.76 380.37 752.37 374.74 760.37 C 376.85 763.99 373.87 767.44 371.91 770.30 C 388.75 780.49 407.59 786.74 426.36 792.37 C 426.57 788.63 427.12 784.36 430.66 782.26 C 432.61 775.24 433.72 768.02 435.13 760.88 C 442.75 718.96 450.48 677.05 458.19 635.14 C 435.69 668.67 413.36 702.32 390.86 735.85 Z" />
<path fill="#ffffff" opacity="1.00" d=" M 58.87 364.80 C 64.79 358.48 73.68 356.05 82.10 355.83 C 90.33 355.71 98.56 355.81 106.78 355.78 C 106.78 364.70 106.79 373.62 106.78 382.55 C 100.18 382.52 93.60 381.95 87.01 381.93 C 83.91 381.89 80.25 382.78 78.76 385.81 C 76.87 390.11 77.49 394.95 77.38 399.53 C 87.18 399.53 96.98 399.53 106.79 399.53 C 106.78 408.12 106.78 416.72 106.79 425.31 C 97.00 425.32 87.20 425.31 77.41 425.32 C 77.41 437.93 77.41 450.54 77.41 463.16 C 68.34 463.16 59.28 463.16 50.21 463.16 C 50.23 439.10 50.18 415.04 50.24 390.98 C 50.36 381.71 52.30 371.76 58.87 364.80 Z" />
<path fill="#ffffff" opacity="1.00" d=" M 206.41 463.16 C 206.40 427.37 206.40 391.57 206.41 355.78 C 214.78 355.78 223.16 355.78 231.53 355.78 C 231.53 367.08 231.55 378.38 231.52 389.68 C 238.59 386.94 246.57 385.27 253.95 387.80 C 264.81 391.45 271.98 402.75 272.06 414.01 C 272.15 430.39 272.07 446.77 272.09 463.16 C 263.72 463.16 255.34 463.16 246.97 463.16 C 246.95 448.43 246.99 433.71 246.95 418.99 C 247.25 414.60 243.27 410.70 238.95 410.78 C 235.42 410.55 231.60 413.25 231.58 416.99 C 231.46 432.37 231.57 447.77 231.53 463.16 C 223.16 463.16 214.78 463.15 206.41 463.16 Z" />
<path fill="#ffffff" opacity="1.00" d=" M 527.06 355.78 C 535.33 355.78 543.60 355.78 551.88 355.78 C 551.86 379.18 551.91 402.58 551.86 425.98 C 551.83 435.51 548.86 445.25 542.40 452.40 C 530.82 465.69 510.37 468.86 494.44 462.35 C 482.21 456.98 472.61 445.46 470.32 432.20 C 468.67 423.22 469.74 413.47 474.66 405.63 C 481.02 395.46 491.99 388.03 504.02 386.81 C 509.83 386.04 515.67 387.05 521.31 388.41 C 521.32 396.25 521.29 404.09 521.33 411.92 C 514.95 409.02 506.79 408.33 500.98 412.85 C 493.87 417.86 492.38 429.18 498.33 435.64 C 503.14 441.45 512.20 443.80 518.86 439.84 C 524.78 436.08 527.13 428.65 527.06 421.94 C 527.06 399.89 527.06 377.83 527.06 355.78 Z" />
<path fill="#ffffff" opacity="1.00" d=" M 641.48 359.61 C 652.38 354.35 664.75 356.06 676.44 355.78 C 676.44 364.69 676.44 373.61 676.44 382.52 C 666.84 382.70 656.33 382.55 648.01 388.04 C 640.96 392.83 639.00 402.00 639.48 410.02 C 639.67 418.30 642.19 427.76 649.94 432.08 C 658.04 436.34 667.51 436.31 676.45 436.47 C 676.43 445.36 676.44 454.26 676.44 463.16 C 666.03 462.92 655.31 464.15 645.25 460.86 C 632.81 457.10 622.80 447.42 617.11 435.92 C 612.24 426.05 610.58 414.83 611.16 403.91 C 612.21 385.12 624.55 367.59 641.48 359.61 Z" />
<path fill="#ffffff" opacity="1.00" d=" M 844.06 370.03 C 852.14 370.02 860.23 370.03 868.31 370.03 C 868.31 375.93 868.31 381.84 868.31 387.75 C 873.98 387.75 879.64 387.75 885.31 387.75 C 885.31 395.54 885.31 403.33 885.31 411.12 C 879.54 411.12 873.77 411.13 868.00 411.12 C 868.04 417.79 867.92 424.46 868.05 431.13 C 868.01 434.18 869.45 437.46 872.42 438.69 C 876.58 440.49 881.25 439.83 885.66 439.78 C 885.66 447.57 885.65 455.36 885.66 463.16 C 878.72 462.98 871.74 463.54 864.83 462.82 C 853.34 460.78 843.92 449.82 844.07 438.07 C 844.04 415.39 844.06 392.71 844.06 370.03 Z" />
<path fill="#ffffff" opacity="1.00" d=" M 777.89 396.85 C 789.01 383.43 811.84 382.51 824.10 394.86 C 830.35 400.77 833.85 409.30 833.83 417.88 C 833.87 432.97 833.83 448.07 833.85 463.16 C 825.76 463.15 817.68 463.16 809.59 463.16 C 809.57 448.79 809.63 434.43 809.57 420.06 C 809.67 415.37 806.19 410.03 801.01 410.50 C 796.33 410.69 794.12 415.90 794.18 419.98 C 794.12 434.37 794.17 448.76 794.16 463.16 C 786.17 463.16 778.19 463.16 770.22 463.16 C 770.22 448.43 770.21 433.71 770.22 418.99 C 770.19 411.04 772.60 402.91 777.89 396.85 Z" />
<path fill="#ffffff" opacity="1.00" d=" M 136.05 390.15 C 144.36 385.90 154.06 385.99 163.07 387.44 C 172.37 389.00 181.55 392.97 188.13 399.88 C 193.52 405.49 196.25 413.31 196.21 421.03 C 196.23 435.07 196.21 449.11 196.22 463.16 C 187.84 463.16 179.47 463.16 171.09 463.16 C 171.08 450.77 171.12 438.39 171.08 426.01 C 171.20 420.12 168.16 413.96 162.64 411.46 C 156.66 408.82 148.88 409.29 144.00 413.95 C 136.18 421.13 138.13 436.58 148.45 440.41 C 154.35 442.18 160.89 441.51 166.59 439.28 C 166.53 446.39 166.59 453.49 166.55 460.60 C 159.90 465.21 151.29 465.67 143.55 464.34 C 133.78 462.57 125.48 455.94 120.21 447.70 C 114.59 439.05 112.85 428.18 114.65 418.09 C 116.89 406.11 125.28 395.66 136.05 390.15 Z" />
<path fill="#ffffff" opacity="1.00" d=" M 406.74 387.80 C 413.70 385.93 421.05 386.40 428.10 387.53 C 437.76 389.26 447.34 393.60 453.79 401.19 C 458.42 406.64 460.70 413.83 460.71 420.95 C 460.74 435.01 460.71 449.08 460.72 463.16 C 452.35 463.16 443.97 463.16 435.59 463.16 C 435.56 450.53 435.65 437.90 435.55 425.27 C 435.47 419.53 432.31 413.69 426.91 411.36 C 421.06 408.89 413.58 409.32 408.74 413.72 C 400.69 420.77 402.48 436.41 412.82 440.35 C 418.73 442.21 425.35 441.53 431.07 439.28 C 431.02 445.90 431.11 452.53 431.05 459.16 C 431.45 460.95 429.46 461.49 428.32 462.23 C 421.92 465.38 414.42 465.51 407.53 464.24 C 396.16 461.94 386.90 453.23 382.09 442.92 C 376.75 431.02 377.13 416.33 384.20 405.20 C 389.40 397.06 397.30 390.33 406.74 387.80 Z" />
<path fill="#ffffff" opacity="1.00" d=" M 704.77 390.84 C 717.03 384.26 733.07 385.24 744.36 393.41 C 750.53 397.81 755.10 404.04 758.72 410.62 C 746.31 419.27 733.87 427.88 721.44 436.50 C 718.25 431.34 715.05 426.19 711.86 421.03 C 718.25 416.74 724.69 412.53 731.05 408.19 C 726.62 406.26 721.17 404.99 716.82 407.78 C 707.11 414.29 705.36 429.99 713.82 438.23 C 718.32 443.05 725.93 443.27 731.61 440.56 C 737.82 437.64 741.89 431.78 745.19 426.00 C 751.24 429.12 757.32 432.20 763.38 435.32 C 758.57 445.74 750.89 455.14 740.60 460.50 C 729.38 466.46 715.03 466.65 704.07 459.98 C 695.04 454.47 687.29 445.95 684.68 435.50 C 680.61 418.33 689.32 399.27 704.77 390.84 Z" />
<path fill="#ffffff" opacity="1.00" d=" M 913.44 390.31 C 925.70 384.26 941.38 385.48 952.38 393.69 C 958.37 398.07 962.83 404.18 966.35 410.64 C 953.94 419.27 941.51 427.88 929.10 436.50 C 925.89 431.34 922.69 426.19 919.50 421.03 C 925.89 416.74 932.32 412.53 938.68 408.20 C 934.30 406.28 928.94 405.01 924.60 407.69 C 914.69 414.17 912.94 430.20 921.66 438.40 C 926.23 443.08 933.79 443.25 939.42 440.49 C 945.53 437.53 949.56 431.74 952.82 426.00 C 958.88 429.11 964.96 432.20 971.02 435.32 C 966.05 446.11 957.96 455.81 947.14 461.05 C 936.13 466.46 922.36 466.44 911.77 460.01 C 902.30 454.26 894.19 445.14 892.00 434.03 C 888.67 416.84 897.82 398.20 913.44 390.31 Z" />
<path fill="#ffffff" opacity="1.00" d=" M 281.16 388.37 C 288.57 388.37 295.99 388.37 303.41 388.38 C 303.40 391.69 303.44 395.00 303.35 398.32 C 305.34 394.82 307.94 391.44 311.71 389.77 C 315.63 387.81 320.11 388.17 324.34 388.32 C 324.35 396.00 324.34 403.68 324.35 411.37 C 319.62 411.52 314.46 411.45 310.38 414.23 C 307.26 416.40 306.30 420.39 306.30 424.00 C 306.26 437.05 306.29 450.10 306.28 463.16 C 297.90 463.16 289.53 463.15 281.15 463.16 C 281.15 438.23 281.15 413.30 281.16 388.37 Z" />
<path fill="#ffffff" opacity="1.00" d=" M 330.62 388.38 C 338.04 388.37 345.46 388.37 352.87 388.37 C 352.88 391.67 352.89 394.97 352.85 398.27 C 354.85 394.68 357.58 391.28 361.46 389.64 C 365.32 387.82 369.67 388.17 373.81 388.32 C 373.83 396.00 373.80 403.68 373.83 411.36 C 369.17 411.52 364.15 411.47 360.08 414.06 C 356.83 416.19 355.72 420.28 355.76 423.97 C 355.73 437.03 355.76 450.09 355.75 463.16 C 347.38 463.16 339.00 463.16 330.62 463.16 C 330.62 438.23 330.62 413.30 330.62 388.38 Z" />
<path fill="#ffffff" opacity="1.00" d=" M 977.03 388.37 C 984.45 388.37 991.86 388.37 999.28 388.38 C 999.27 391.69 999.31 395.00 999.22 398.32 C 1001.15 394.99 1003.56 391.71 1007.13 390.00 C 1011.13 387.81 1015.81 388.16 1020.20 388.30 C 1020.24 395.99 1020.20 403.67 1020.22 411.36 C 1015.48 411.53 1010.31 411.45 1006.25 414.24 C 1003.18 416.40 1002.17 420.33 1002.18 423.90 C 1002.12 436.99 1002.17 450.07 1002.16 463.16 C 993.78 463.16 985.40 463.16 977.03 463.16 C 977.03 438.23 977.02 413.30 977.03 388.37 Z" />
<path fill="#ffffff" opacity="1.00" d=" M 562.81 414.81 C 575.76 414.81 588.71 414.81 601.66 414.81 C 601.66 421.95 601.66 429.08 601.66 436.22 C 588.71 436.22 575.76 436.22 562.81 436.22 C 562.81 429.08 562.81 421.95 562.81 414.81 Z" />
<path fill="#ffffff" opacity="1.00" d=" M 314.24 474.23 C 317.88 470.03 323.58 468.28 328.99 468.14 C 334.29 468.01 339.60 468.18 344.91 468.12 C 344.93 473.85 344.88 479.58 344.87 485.31 C 339.91 485.44 334.91 484.45 329.99 485.18 C 325.84 486.43 326.93 491.67 326.69 494.99 C 332.74 495.02 338.79 495.01 344.85 495.07 C 344.86 500.58 344.81 506.09 344.81 511.60 C 338.78 511.59 332.75 511.57 326.73 511.53 C 326.68 519.30 326.66 527.07 326.66 534.85 C 320.82 534.86 314.99 534.79 309.16 534.81 C 309.16 520.23 309.21 505.64 309.24 491.06 C 309.23 485.16 310.24 478.82 314.24 474.23 Z" />
<path fill="#ffffff" opacity="1.00" d=" M 462.41 468.40 C 467.80 468.39 473.20 468.41 478.60 468.44 C 478.62 479.80 478.47 491.16 478.56 502.52 C 484.71 500.72 485.04 493.27 487.21 488.27 C 492.76 488.31 498.31 488.31 503.87 488.31 C 501.71 493.98 500.86 500.30 497.32 505.34 C 496.52 506.77 494.17 507.56 494.63 509.45 L 495.42 508.36 C 498.52 510.07 501.59 512.49 502.38 516.14 C 503.79 522.42 502.82 528.91 503.09 535.29 C 497.83 535.26 492.57 535.24 487.32 535.24 C 487.28 530.04 488.93 524.41 486.50 519.53 C 484.89 516.64 481.17 517.61 478.48 517.37 C 478.48 523.32 478.43 529.27 478.44 535.23 C 473.04 535.17 467.64 535.19 462.25 535.19 C 462.28 512.93 462.35 490.66 462.41 468.40 Z" />
<path fill="#ffffff" opacity="1.00" d=" M 615.28 487.01 C 615.17 478.26 622.07 469.78 630.99 469.05 C 638.34 468.60 645.73 468.93 653.09 468.88 C 653.09 474.41 653.11 479.94 653.05 485.48 C 646.29 485.46 638.89 483.56 632.62 486.92 C 635.28 491.36 640.17 493.54 644.13 496.60 C 649.72 500.51 655.30 505.53 656.75 512.51 C 657.81 518.60 656.58 525.55 651.98 529.98 C 647.79 534.05 641.76 535.43 636.08 535.57 C 629.28 535.64 622.48 535.55 615.68 535.53 C 615.68 529.97 615.68 524.41 615.72 518.85 C 622.44 519.43 629.38 520.08 636.00 518.42 C 637.29 518.11 639.39 516.64 637.94 515.23 C 633.10 508.64 625.34 505.10 619.70 499.32 C 616.46 496.06 615.69 491.38 615.28 487.01 Z" />
<path fill="#ffffff" opacity="1.00" d=" M 350.39 502.09 C 353.90 493.95 361.90 487.46 370.96 487.15 C 379.00 486.84 387.56 488.77 393.71 494.23 C 397.91 497.87 400.14 503.44 400.03 508.96 C 400.03 517.65 399.97 526.34 399.97 535.03 C 394.55 535.04 389.13 535.01 383.71 534.99 C 383.74 527.31 383.81 519.62 383.77 511.94 C 383.87 508.42 382.13 504.71 378.84 503.17 C 375.01 501.41 369.89 501.91 367.04 505.24 C 363.20 509.67 364.45 517.93 370.13 520.22 C 373.91 521.52 378.06 520.73 381.73 519.42 C 381.63 524.07 381.76 528.73 381.61 533.38 C 374.52 537.64 364.89 536.78 358.39 531.77 C 349.42 525.16 346.11 512.30 350.39 502.09 Z" />
<path fill="#ffffff" opacity="1.00" d=" M 405.08 507.93 C 406.61 496.88 416.66 487.29 427.99 487.25 C 435.96 487.11 444.39 489.16 450.36 494.72 C 454.29 498.32 456.36 503.67 456.28 508.98 C 456.29 517.70 456.23 526.43 456.21 535.16 C 450.81 535.15 445.40 535.17 440.00 535.12 C 439.97 527.40 440.07 519.67 440.03 511.95 C 440.12 508.36 438.21 504.60 434.81 503.16 C 431.46 501.79 427.26 501.99 424.39 504.33 C 419.26 508.36 420.22 517.97 426.48 520.39 C 430.24 521.63 434.35 520.86 438.00 519.56 C 437.93 524.13 437.88 528.70 438.01 533.27 C 431.92 537.41 423.49 536.99 417.18 533.56 C 408.31 528.61 403.47 517.89 405.08 507.93 Z" />
<path fill="#ffffff" opacity="1.00" d=" M 507.24 509.87 C 508.27 497.64 519.42 486.66 531.99 487.50 C 541.78 487.40 549.99 494.38 554.19 502.78 C 546.32 508.22 538.45 513.66 530.57 519.08 C 528.15 515.32 526.15 511.23 522.98 508.02 C 522.77 511.84 523.02 516.16 525.91 519.04 C 528.52 522.15 533.22 522.48 536.73 520.79 C 540.65 519.00 543.09 515.25 545.23 511.68 C 549.15 513.72 553.08 515.74 557.01 517.77 C 552.97 526.74 545.10 534.66 535.04 536.15 C 520.35 538.89 504.99 524.85 507.24 509.87 M 528.82 500.83 C 526.29 501.89 524.99 504.45 523.60 506.64 C 523.95 507.39 524.30 508.14 524.67 508.90 C 528.23 506.01 532.28 503.82 535.97 501.10 C 533.64 500.56 531.11 499.73 528.82 500.83 Z" />
<path fill="#ffffff" opacity="1.00" d=" M 660.47 511.04 C 661.11 498.25 672.87 486.64 685.97 487.90 C 695.51 488.06 703.37 494.97 707.50 503.14 C 699.63 508.58 691.76 514.02 683.88 519.45 C 681.95 516.33 680.05 513.19 678.03 510.13 L 678.97 510.11 C 678.27 509.90 676.88 509.47 676.19 509.26 C 676.15 512.88 676.57 516.89 679.34 519.55 C 682.19 522.77 687.23 522.81 690.78 520.78 C 694.30 518.86 696.52 515.39 698.53 512.05 C 702.46 514.09 706.41 516.11 710.34 518.16 C 706.21 527.19 698.25 535.18 688.06 536.57 C 673.74 539.02 658.84 525.65 660.47 511.04 M 682.18 501.18 C 679.11 502.45 677.78 505.73 676.30 508.43 C 677.21 508.80 678.38 509.13 679.19 508.29 C 682.50 505.96 685.96 503.84 689.27 501.49 C 686.96 500.95 684.46 500.07 682.18 501.18 Z" />
<path fill="#ffffff" opacity="1.00" d=" M 711.80 511.02 C 712.51 498.38 724.10 486.88 737.07 488.01 C 746.68 488.09 754.67 495.01 758.82 503.26 C 750.96 508.71 743.08 514.13 735.21 519.57 C 733.10 516.18 731.00 512.79 728.91 509.40 C 732.80 506.80 736.76 504.31 740.59 501.62 C 738.26 501.04 735.70 500.20 733.41 501.34 C 725.62 505.27 725.57 518.88 734.15 521.91 C 741.19 523.93 746.92 517.83 749.85 512.17 C 753.79 514.22 757.75 516.22 761.67 518.30 C 757.60 527.10 749.97 534.93 740.08 536.58 C 725.52 539.56 710.04 525.93 711.80 511.02 Z" />
<path fill="#ffffff" opacity="1.00" d=" M 559.94 488.65 C 564.76 488.64 569.58 488.70 574.40 488.69 C 574.37 490.35 574.35 492.03 574.31 493.70 C 577.11 489.33 582.40 487.97 587.32 488.67 C 587.31 493.63 587.25 498.59 587.29 503.56 C 584.31 503.78 581.04 503.57 578.46 505.33 C 576.35 506.79 576.07 509.57 576.09 511.93 C 576.09 519.76 576.07 527.60 576.04 535.44 C 570.64 535.45 565.24 535.42 559.84 535.40 C 559.86 519.82 559.92 504.24 559.94 488.65 Z" />
</g>
<g id="#050505ff">
<path fill="#050505" opacity="1.00" d=" M 414.01 71.88 C 500.32 43.52 596.52 46.40 680.90 80.15 C 739.24 103.28 791.76 140.76 832.79 188.22 C 870.26 231.42 898.13 282.88 913.72 337.90 C 911.49 337.90 909.26 337.90 907.04 337.90 C 889.79 278.00 857.63 222.52 814.42 177.61 C 771.32 132.67 717.24 98.31 658.13 78.67 C 615.04 64.27 569.38 57.71 523.98 59.13 C 468.44 60.77 413.28 74.61 363.61 99.54 C 308.24 127.19 259.76 168.41 223.45 218.51 C 197.27 254.53 177.40 295.12 165.03 337.90 C 162.81 337.90 160.58 337.90 158.35 337.90 C 175.48 277.41 207.50 221.26 250.70 175.60 C 295.39 128.18 352.03 92.08 414.01 71.88 Z" />
<path fill="#050505" opacity="1.00" d=" M 161.19 542.06 C 163.40 542.05 165.61 542.05 167.82 542.06 C 184.09 602.87 215.56 659.51 258.54 705.50 C 301.87 752.07 356.89 787.73 417.26 807.86 C 486.48 831.11 562.42 833.76 633.15 815.64 C 694.16 800.11 751.05 768.99 797.30 726.30 C 850.92 677.07 890.16 612.40 908.95 542.06 C 911.15 542.06 913.35 542.05 915.57 542.06 C 899.52 603.13 868.41 660.14 825.81 706.74 C 785.02 751.51 733.75 786.70 677.16 808.33 C 612.38 833.26 540.85 840.06 472.47 828.33 C 408.40 817.44 347.32 789.90 296.55 749.37 C 230.73 697.18 182.46 623.34 161.19 542.06 Z" />
</g>
</svg>
