<?xml version="1.0" encoding="UTF-8" ?>
<!DOCTYPE svg PUBLIC "-//W3C//DTD SVG 1.1//EN" "http://www.w3.org/Graphics/SVG/1.1/DTD/svg11.dtd">
<svg width="456pt" height="261pt" viewBox="0 0 456 261" version="1.1" xmlns="http://www.w3.org/2000/svg">
<g id="#ffffffff">
<path fill="#ffffff" opacity="1.00" d=" M 171.85 1.97 C 180.52 0.82 189.34 1.60 198.03 0.57 C 217.34 0.59 236.65 0.51 255.96 0.60 C 264.38 1.58 272.90 0.94 281.31 1.84 C 301.22 3.41 321.90 6.30 339.30 16.83 C 351.28 24.27 361.08 35.19 367.20 47.90 C 374.51 63.43 377.38 80.95 376.02 98.01 C 374.92 115.27 369.98 132.66 359.87 146.86 C 354.00 154.96 346.31 161.81 337.39 166.40 C 325.24 172.80 311.62 175.67 298.12 177.47 C 296.37 188.08 292.06 198.91 295.33 209.68 C 296.22 211.75 297.47 213.64 298.53 215.63 C 299.77 215.86 301.02 216.10 302.26 216.35 C 301.41 218.04 300.37 219.95 298.20 219.92 C 295.17 217.69 293.22 214.38 291.62 211.04 C 289.47 214.28 286.12 217.23 282.00 217.07 C 276.63 216.85 272.38 211.20 273.59 205.99 C 274.58 200.02 278.52 194.91 282.83 190.85 C 284.27 189.27 286.90 190.73 288.35 189.31 C 289.05 184.93 290.60 180.47 289.18 176.08 C 290.54 173.00 291.82 169.91 291.64 166.46 C 293.91 165.61 296.34 165.44 298.64 166.32 C 298.77 168.02 298.83 169.72 298.86 171.43 C 316.55 169.07 335.34 164.38 348.29 151.27 C 363.04 136.59 369.12 115.30 370.13 94.98 C 370.79 75.04 366.16 54.16 353.70 38.19 C 344.71 26.57 331.73 18.42 317.71 14.30 C 295.77 7.78 272.68 7.41 249.99 6.81 C 226.15 6.74 202.28 6.43 178.47 7.67 C 159.05 9.21 138.84 11.06 121.37 20.42 C 109.03 26.97 99.16 37.68 92.95 50.13 C 82.19 72.48 81.43 98.83 88.84 122.31 C 92.60 133.37 98.18 144.13 106.91 152.11 C 117.29 162.41 131.70 166.99 145.68 169.93 C 163.59 173.27 181.85 173.84 200.01 174.23 C 225.68 174.27 251.38 174.79 277.03 173.46 C 279.39 173.36 281.82 173.08 284.09 173.94 C 283.95 175.77 284.41 178.76 281.84 178.93 C 267.30 180.12 252.69 180.06 238.12 180.02 C 239.90 187.51 239.74 195.22 239.54 202.85 C 240.70 207.59 240.03 212.60 241.63 217.25 C 243.30 222.17 244.50 227.23 246.10 232.17 C 244.63 232.17 243.29 231.57 242.70 230.18 C 239.43 224.90 236.63 219.35 234.15 213.66 C 231.86 214.32 229.54 214.84 227.20 215.27 C 226.78 220.24 226.80 225.35 225.37 230.17 C 224.78 232.42 221.12 233.76 219.87 231.35 C 218.26 225.69 219.50 219.71 219.56 213.94 C 217.81 211.56 218.80 209.13 220.32 206.98 C 222.07 197.94 223.40 188.81 225.35 179.81 C 205.22 180.27 185.04 180.20 164.97 178.48 C 145.65 176.55 125.37 173.30 109.15 161.86 C 93.30 150.67 84.01 132.27 80.12 113.63 C 76.05 94.27 77.08 73.69 83.98 55.08 C 90.11 38.48 102.06 24.06 117.53 15.40 C 134.06 6.19 153.24 3.33 171.85 1.97 M 227.88 204.92 C 228.82 204.94 230.69 204.98 231.63 205.00 C 231.07 200.27 230.12 195.61 229.23 190.94 C 228.33 195.54 228.09 200.24 227.88 204.92 M 282.07 209.46 C 286.04 206.78 286.18 201.04 287.16 196.71 C 282.66 199.11 280.73 204.65 282.07 209.46 Z" />
<path fill="#ffffff" opacity="1.00" d=" M 201.45 39.49 C 203.48 39.22 206.14 38.55 207.58 40.48 C 210.63 43.09 212.39 46.73 214.45 50.09 C 217.06 47.33 218.56 43.79 220.75 40.73 C 222.73 38.27 228.86 38.58 227.70 42.78 C 225.62 47.58 222.29 51.72 219.39 56.04 C 224.19 63.03 228.88 70.12 234.30 76.65 C 241.34 86.60 248.74 96.29 255.93 106.13 C 258.90 110.10 262.08 113.97 264.41 118.37 C 255.60 118.77 246.77 118.45 237.96 118.34 C 230.01 108.91 222.40 99.20 214.55 89.69 C 213.20 90.60 212.11 91.83 211.17 93.15 C 204.97 101.64 198.55 109.98 191.86 118.07 L 191.09 118.49 C 182.09 118.48 173.07 118.50 164.07 118.36 C 165.40 115.72 167.23 113.40 169.02 111.06 C 179.27 97.32 189.47 83.56 199.78 69.86 C 203.05 65.21 206.80 60.90 209.79 56.05 C 206.82 51.80 203.74 47.63 200.65 43.47 C 200.14 42.17 199.93 40.21 201.45 39.49 Z" />
<path fill="#ffffff" opacity="1.00" d=" M 137.47 46.62 C 142.47 45.08 147.51 43.47 152.74 42.89 C 154.31 47.37 155.45 52.00 157.46 56.32 C 155.90 56.91 154.25 58.77 152.54 57.56 C 147.31 54.35 142.22 50.91 136.88 47.87 C 137.03 47.56 137.32 46.94 137.47 46.62 Z" />
<path fill="#ffffff" opacity="1.00" d=" M 158.74 42.54 C 162.23 42.52 165.75 42.47 169.16 43.34 C 168.59 47.14 166.93 50.64 165.88 54.31 C 165.07 54.40 163.45 54.58 162.65 54.67 C 161.18 50.68 159.47 46.75 158.74 42.54 Z" />
<path fill="#ffffff" opacity="1.00" d=" M 280.28 56.31 C 284.90 50.95 289.78 44.80 297.09 43.27 C 302.59 41.38 308.33 43.20 313.74 44.52 C 321.41 46.65 327.60 53.13 328.82 61.05 C 332.09 63.64 337.14 62.65 340.02 65.98 C 343.53 69.77 346.90 74.58 346.52 79.99 C 346.17 87.79 342.15 95.31 335.82 99.91 C 330.53 103.14 324.14 103.12 318.24 104.37 C 318.64 109.12 318.79 113.89 318.82 118.66 C 313.85 118.67 308.89 118.53 303.93 118.53 C 303.63 114.18 303.39 109.82 303.31 105.46 C 297.88 105.15 292.31 104.69 287.38 102.16 C 288.03 103.10 289.55 104.69 287.73 105.40 C 281.55 109.81 275.12 113.84 268.86 118.12 C 267.57 115.86 264.60 113.72 264.75 111.11 C 271.00 106.47 277.69 102.44 284.17 98.12 C 282.98 96.47 281.82 94.81 280.69 93.12 C 274.09 97.58 267.60 102.19 260.92 106.52 C 258.41 105.56 257.47 102.13 255.81 100.04 C 262.34 95.40 269.19 91.22 275.84 86.76 C 274.63 85.19 273.47 83.59 272.28 82.00 C 265.54 86.71 258.86 91.54 251.85 95.83 C 250.38 93.56 248.90 91.31 247.45 89.03 C 254.01 84.20 261.12 80.16 267.70 75.36 C 266.46 74.33 265.70 72.45 264.01 72.12 C 257.37 75.84 251.30 80.53 244.52 84.01 C 244.49 80.29 244.49 76.57 244.48 72.85 C 249.09 69.65 253.68 66.13 258.83 63.79 C 260.85 65.93 262.68 68.24 264.31 70.70 C 265.64 67.44 266.75 63.81 269.60 61.52 C 272.70 58.90 276.94 58.44 280.28 56.31 M 309.29 51.79 C 309.17 56.03 310.40 60.14 310.95 64.31 C 312.29 71.70 312.31 79.20 312.35 86.68 C 308.45 85.80 306.41 81.86 303.96 79.03 C 298.86 72.71 297.61 64.45 295.00 57.00 C 292.54 63.37 296.89 69.62 298.35 75.71 C 291.95 74.22 286.92 69.87 281.69 66.18 C 284.70 73.44 293.01 75.99 299.19 79.86 C 303.17 84.40 307.07 89.07 310.52 94.03 C 310.37 98.03 307.75 101.47 307.02 105.39 C 309.42 105.46 311.83 105.54 314.23 105.56 C 315.79 101.13 314.67 94.92 319.37 92.31 C 324.39 88.39 329.42 83.26 330.14 76.62 C 325.94 80.85 323.85 88.36 316.80 88.71 C 316.46 78.28 317.05 67.48 313.34 57.54 C 312.32 55.44 311.51 52.92 309.29 51.79 Z" />
<path fill="#ffffff" opacity="1.00" d=" M 174.80 44.01 C 178.02 44.52 181.06 45.66 184.10 46.79 C 182.48 50.78 179.05 53.58 176.24 56.70 C 174.85 55.95 173.46 55.22 172.06 54.50 C 172.79 50.96 173.82 47.48 174.80 44.01 Z" />
<path fill="#ffffff" opacity="1.00" d=" M 244.44 45.73 C 246.74 46.58 247.89 48.83 249.35 50.62 C 251.39 53.36 253.63 55.97 255.34 58.94 C 251.94 61.59 248.40 64.07 244.66 66.21 C 244.55 59.39 244.26 52.56 244.44 45.73 Z" />
<path fill="#ffffff" opacity="1.00" d=" M 118.22 64.34 C 121.15 58.87 124.44 52.08 130.88 50.42 C 137.05 54.37 143.24 58.33 149.69 61.83 C 149.52 62.50 149.19 63.84 149.02 64.52 C 138.75 64.62 128.49 64.31 118.22 64.34 Z" />
<path fill="#ffffff" opacity="1.00" d=" M 188.49 50.48 C 191.78 50.25 193.88 54.17 196.27 56.04 C 191.40 58.14 186.58 60.81 181.30 61.63 C 182.42 57.29 185.94 54.06 188.49 50.48 Z" />
<path fill="#ffffff" opacity="1.00" d=" M 228.25 64.09 C 232.29 60.23 234.31 54.40 239.31 51.60 C 239.22 60.19 239.74 68.80 239.17 77.38 C 234.94 73.47 231.70 68.66 228.25 64.09 Z" />
<path fill="#ffffff" opacity="1.00" d=" M 160.60 58.72 C 166.30 58.15 172.80 57.65 177.66 61.29 C 180.04 62.88 181.44 66.12 180.17 68.82 C 176.58 73.94 169.61 74.36 163.92 74.17 C 159.56 73.40 153.59 71.91 152.51 66.95 C 151.85 62.17 156.88 59.95 160.60 58.72 Z" />
<path fill="#ffffff" opacity="1.00" d=" M 185.64 66.25 C 189.85 64.79 193.77 62.37 198.26 61.80 C 197.84 65.30 195.18 67.80 193.23 70.53 C 190.73 69.09 187.37 68.78 185.64 66.25 Z" />
<path fill="#ffffff" opacity="1.00" d=" M 117.10 69.61 C 128.00 69.75 138.90 69.28 149.79 69.76 C 149.83 70.56 149.92 72.15 149.96 72.95 C 144.89 76.29 139.56 79.21 134.30 82.24 C 131.33 83.88 128.63 86.07 125.35 87.07 C 123.33 84.56 121.06 82.24 119.19 79.61 C 118.08 76.38 117.47 73.00 117.10 69.61 Z" />
<path fill="#ffffff" opacity="1.00" d=" M 181.74 71.86 C 184.58 72.41 187.33 73.32 190.00 74.43 C 189.16 76.16 187.95 79.00 185.56 78.40 C 183.73 76.61 182.58 74.25 181.74 71.86 Z" />
<path fill="#ffffff" opacity="1.00" d=" M 177.53 87.65 C 176.70 83.49 174.30 79.17 175.80 74.92 C 178.49 77.28 180.87 79.98 182.80 83.00 C 181.05 84.40 180.18 88.34 177.53 87.65 Z" />
<path fill="#ffffff" opacity="1.00" d=" M 143.67 82.60 C 146.74 80.78 149.58 78.35 153.22 77.79 C 152.58 82.45 149.27 86.04 147.01 89.99 C 145.66 91.99 144.83 94.46 142.96 96.03 C 138.76 94.72 134.97 92.39 130.88 90.79 C 134.88 87.66 139.44 85.38 143.67 82.60 Z" />
<path fill="#ffffff" opacity="1.00" d=" M 160.08 77.54 C 160.72 77.47 161.99 77.33 162.62 77.26 C 161.83 84.27 159.18 90.88 157.88 97.80 C 155.01 98.67 152.08 98.04 149.24 97.40 C 152.87 90.79 156.17 83.99 160.08 77.54 Z" />
<path fill="#ffffff" opacity="1.00" d=" M 168.47 80.55 C 168.79 80.34 169.44 79.92 169.77 79.71 C 170.95 84.49 172.27 89.24 173.49 94.01 C 171.77 97.40 167.47 98.38 163.91 97.68 C 165.29 91.94 166.56 86.14 168.47 80.55 Z" />
<path fill="#ffffff" opacity="1.00" d=" M 117.01 105.78 C 121.77 107.71 126.69 110.58 132.03 109.16 C 135.13 108.78 137.65 106.14 140.75 106.16 C 144.25 107.99 147.91 109.95 152.01 109.70 C 156.16 110.01 159.60 107.19 163.63 106.75 C 163.52 112.74 157.97 117.86 152.01 117.60 C 146.90 117.82 141.53 114.42 140.27 109.36 C 138.39 114.23 133.35 117.98 127.99 117.35 C 122.02 117.14 116.52 111.95 117.01 105.78 Z" />
<path fill="#ffffff" opacity="1.00" d=" M 118.93 125.73 C 122.42 126.82 125.43 129.16 129.07 129.76 C 135.63 131.70 142.74 129.42 148.00 125.35 C 153.61 129.51 161.02 131.94 167.91 129.83 C 171.20 129.26 173.78 126.98 176.87 125.91 C 181.30 128.13 185.88 130.60 190.98 130.58 C 196.15 130.75 201.22 128.71 205.14 125.41 C 211.06 129.51 218.69 132.12 225.80 129.71 C 228.79 129.08 231.09 126.82 233.98 125.98 C 237.82 127.85 241.60 130.24 245.99 130.54 C 251.76 131.15 257.72 129.27 262.09 125.45 C 268.10 130.16 276.48 132.36 283.78 129.48 C 286.36 128.70 288.45 126.77 291.04 126.11 C 294.37 127.56 297.39 129.87 301.05 130.48 C 304.22 130.89 307.46 130.88 310.63 130.36 C 313.98 129.52 316.76 127.31 320.01 126.18 C 320.75 133.94 313.64 140.79 306.05 140.70 C 299.32 141.24 292.75 136.71 290.81 130.25 C 288.79 136.41 282.61 141.15 276.00 140.55 C 270.02 140.54 264.59 136.56 262.28 131.13 C 259.70 136.13 254.93 140.46 249.03 140.47 C 242.50 141.02 236.22 136.89 233.77 130.89 C 231.27 135.78 226.75 140.06 221.01 140.35 C 214.34 141.20 208.07 136.92 205.24 131.05 C 203.30 135.00 200.11 138.70 195.68 139.78 C 188.10 142.17 179.05 137.82 176.68 130.11 C 174.59 136.14 168.57 140.97 162.00 140.39 C 155.84 140.37 150.33 136.20 147.92 130.65 C 145.80 134.80 142.39 138.62 137.70 139.76 C 128.96 142.41 118.09 135.35 118.93 125.73 Z" />
<path fill="#ffffff" opacity="1.00" d=" M 444.30 147.96 C 444.42 145.73 444.41 143.44 445.58 141.45 C 447.82 141.95 450.98 140.50 452.33 142.98 C 453.03 153.21 449.03 162.97 447.70 172.99 C 447.27 178.97 447.97 185.44 451.51 190.47 C 452.29 192.08 454.32 191.23 455.71 191.55 C 455.53 193.98 453.60 196.37 450.95 195.74 C 448.07 193.56 446.25 190.38 444.67 187.20 C 443.32 190.02 440.76 192.15 437.66 192.72 C 431.96 194.28 425.94 188.81 426.61 183.00 C 426.98 177.24 430.69 172.52 434.15 168.20 C 435.88 165.83 438.87 165.42 441.60 165.63 C 442.28 159.71 443.31 153.84 444.30 147.96 M 435.37 185.15 C 435.70 184.99 436.36 184.65 436.69 184.49 C 438.78 180.91 439.72 176.75 440.15 172.65 C 436.14 175.41 434.31 180.43 435.37 185.15 Z" />
<path fill="#ffffff" opacity="1.00" d=" M 422.93 149.92 C 423.41 147.65 426.53 148.07 426.86 150.22 C 427.31 157.06 423.32 163.03 421.73 169.49 C 419.45 177.60 417.50 187.47 423.22 194.63 C 424.72 194.67 426.22 194.73 427.72 194.81 C 426.70 195.99 425.92 198.15 423.97 197.73 C 418.36 197.58 415.70 191.60 414.62 186.89 C 412.57 174.03 417.20 161.22 422.93 149.92 Z" />
<path fill="#ffffff" opacity="1.00" d=" M 381.10 167.22 C 381.60 167.10 382.59 166.88 383.08 166.76 C 381.11 176.41 380.27 186.26 377.96 195.84 C 377.23 199.09 375.29 203.74 371.11 202.26 C 365.82 199.20 365.64 192.21 364.22 186.92 C 362.83 192.99 364.12 199.40 361.95 205.34 C 358.80 205.81 356.36 203.22 355.57 200.40 C 353.38 193.46 352.57 186.11 352.54 178.85 C 353.49 176.25 356.59 177.44 357.28 179.55 C 358.09 182.76 358.31 186.09 359.25 189.28 C 360.14 185.37 360.83 179.60 366.01 179.51 C 371.72 182.52 370.09 189.97 371.96 195.13 C 375.79 186.10 376.65 176.01 381.10 167.22 Z" />
<path fill="#ffffff" opacity="1.00" d=" M 398.67 173.60 C 400.06 172.44 402.03 171.96 403.71 172.79 C 405.51 173.65 407.97 173.38 409.31 175.02 C 410.80 182.84 405.64 190.44 407.58 198.26 C 408.21 199.85 409.79 200.75 410.98 201.89 C 409.18 202.95 406.97 204.78 404.89 203.21 C 400.96 200.22 400.27 194.74 400.22 190.13 C 397.65 194.01 395.24 198.23 390.94 200.45 C 388.06 200.71 383.99 200.07 383.27 196.71 C 382.44 192.44 383.89 187.98 386.74 184.74 C 390.29 180.62 394.31 176.86 398.67 173.60 M 389.96 193.10 C 394.83 188.71 398.92 183.38 401.99 177.58 C 396.69 181.43 391.30 186.40 389.96 193.10 Z" />
<path fill="#ffffff" opacity="1.00" d=" M 332.56 188.50 C 333.07 186.07 333.72 182.15 337.07 182.59 C 337.63 183.44 338.16 184.31 338.66 185.22 C 342.29 183.48 346.97 182.99 350.14 185.94 C 351.46 187.20 350.29 188.91 350.07 190.37 C 346.87 189.56 342.99 188.73 340.49 191.54 C 335.82 196.76 337.61 204.21 336.50 210.51 C 335.48 211.14 334.38 211.60 333.29 212.07 C 332.38 210.75 331.32 209.51 330.69 208.03 C 330.75 201.48 331.62 194.97 332.56 188.50 Z" />
<path fill="#ffffff" opacity="1.00" d=" M 316.56 186.46 C 318.24 185.02 320.52 185.71 322.50 185.84 C 322.66 188.32 323.01 190.91 322.17 193.31 C 318.53 199.06 313.60 203.97 307.72 207.40 C 313.76 209.69 320.17 207.88 326.27 206.91 C 326.04 207.55 325.58 208.81 325.34 209.44 C 320.10 213.16 313.44 214.99 307.04 214.18 C 302.79 212.57 300.03 207.60 300.99 203.18 C 303.84 195.90 310.14 190.57 316.56 186.46 M 308.31 200.15 C 312.67 198.54 315.73 194.79 318.03 190.90 C 314.08 193.14 310.37 196.00 308.31 200.15 Z" />
<path fill="#ffffff" opacity="1.00" d=" M 255.52 195.55 C 257.29 194.51 259.00 193.33 260.94 192.61 C 262.82 192.79 264.66 193.26 266.48 193.78 C 268.68 195.04 268.70 197.72 268.82 199.97 C 268.51 204.31 267.43 208.65 268.08 213.03 C 268.15 216.52 270.61 219.24 272.06 222.25 C 269.92 222.62 267.20 223.39 265.61 221.39 C 260.31 215.97 261.02 207.77 260.71 200.79 C 260.04 200.74 258.71 200.65 258.05 200.61 C 255.96 203.56 256.08 207.53 255.04 210.93 C 253.79 214.85 254.00 219.26 251.67 222.78 C 249.00 222.98 245.24 221.17 246.07 218.00 C 247.02 211.21 247.19 204.29 248.72 197.61 C 249.65 194.58 253.17 195.70 255.52 195.55 Z" />
<path fill="#ffffff" opacity="1.00" d=" M 189.15 205.20 C 192.08 204.01 195.40 203.74 198.51 203.06 C 199.32 213.28 198.37 223.61 196.81 233.72 C 196.45 235.97 194.71 237.56 193.44 239.33 C 188.82 240.81 183.40 239.47 180.63 235.32 C 177.99 232.46 178.02 228.35 178.46 224.73 C 182.62 228.10 185.37 234.13 191.48 234.09 C 191.66 229.14 191.18 224.21 191.01 219.27 C 188.57 219.92 184.95 221.18 183.26 218.57 C 181.05 213.48 185.40 208.27 189.15 205.20 M 188.30 215.97 C 190.75 214.33 192.16 211.72 192.75 208.89 C 190.07 210.30 189.19 213.30 188.30 215.97 Z" />
<path fill="#ffffff" opacity="1.00" d=" M 20.60 208.65 C 24.15 203.88 32.94 208.06 31.89 213.85 C 31.95 216.71 28.39 216.99 26.99 218.93 C 22.22 226.59 17.17 234.19 13.86 242.63 C 13.45 245.80 12.11 250.37 15.48 252.38 C 19.33 253.93 23.45 253.04 27.42 252.67 C 27.42 253.51 27.42 255.19 27.43 256.03 C 22.57 258.70 16.68 259.70 11.28 258.33 C 6.49 256.86 1.98 253.12 1.14 247.96 C -0.42 240.70 2.65 233.48 6.36 227.39 C 10.32 220.59 14.99 214.17 20.60 208.65 Z" />
<path fill="#ffffff" opacity="1.00" d=" M 138.41 207.50 C 140.25 207.13 142.11 207.05 143.98 207.19 C 144.33 209.47 145.18 213.07 141.92 213.48 C 138.55 213.95 137.74 210.02 138.41 207.50 Z" />
<path fill="#ffffff" opacity="1.00" d=" M 160.80 211.19 C 162.23 209.57 163.98 208.27 166.06 207.64 C 168.49 207.42 170.80 208.40 173.16 208.83 C 176.23 214.99 172.71 221.64 173.88 228.06 C 174.06 231.54 176.35 234.29 177.70 237.36 C 175.38 237.51 172.61 238.17 171.01 235.98 C 165.63 230.41 166.95 222.25 166.04 215.24 C 165.38 215.29 164.06 215.41 163.40 215.46 C 161.27 222.09 160.15 228.99 158.45 235.72 C 157.89 239.02 152.50 237.66 151.72 234.99 C 151.72 231.89 151.93 228.78 152.47 225.73 C 153.33 220.71 153.11 215.51 154.81 210.65 C 156.83 210.44 159.01 209.90 160.80 211.19 Z" />
<path fill="#ffffff" opacity="1.00" d=" M 106.48 215.51 C 107.23 213.80 107.60 210.82 110.05 211.03 C 113.43 210.76 114.31 214.62 116.39 216.47 C 120.03 216.67 124.35 215.97 127.11 218.96 C 132.45 222.82 132.96 231.59 127.72 235.77 C 123.54 240.49 116.63 239.99 110.96 239.24 C 109.73 246.53 110.62 254.33 106.98 261.00 L 103.98 261.00 C 103.31 259.92 102.61 258.84 102.21 257.63 C 100.16 247.84 103.52 237.84 102.17 228.04 C 103.97 223.99 105.30 219.78 106.48 215.51 M 117.49 225.50 C 114.86 226.42 114.31 229.42 113.91 231.83 C 116.82 232.86 119.86 232.06 122.29 230.28 C 124.04 227.45 120.28 223.94 117.49 225.50 Z" />
<path fill="#ffffff" opacity="1.00" d=" M 141.25 218.26 C 144.28 217.57 146.25 221.34 145.42 223.93 C 144.50 227.56 144.01 231.29 144.31 235.04 C 146.11 234.71 147.91 234.33 149.71 233.98 C 149.51 237.99 146.02 240.52 142.99 242.55 C 139.74 242.96 136.42 240.74 135.48 237.62 C 133.59 232.37 135.51 226.70 137.79 221.89 C 138.71 220.50 139.25 218.30 141.25 218.26 Z" />
<path fill="#ffffff" opacity="1.00" d=" M 89.09 222.98 C 92.65 220.68 97.34 223.02 98.23 227.02 C 98.20 233.65 93.03 238.65 92.10 245.08 C 90.84 248.84 91.82 252.94 90.78 256.65 C 90.32 256.72 89.42 256.87 88.96 256.95 C 85.86 249.40 87.34 241.02 88.59 233.23 C 86.09 237.70 86.08 243.45 82.15 247.09 C 80.73 248.88 77.84 249.63 76.02 247.99 C 71.77 245.41 72.89 239.81 71.82 235.66 C 69.27 240.74 68.59 246.44 67.14 251.88 C 65.48 254.82 62.31 252.69 60.52 251.13 C 60.99 242.74 62.59 234.47 65.72 226.65 C 69.02 226.48 71.18 223.95 73.94 222.54 C 76.60 222.68 79.34 224.49 80.18 227.08 C 80.56 231.16 78.70 235.00 78.26 239.01 C 81.66 233.57 83.74 226.92 89.09 222.98 Z" />
<path fill="#ffffff" opacity="1.00" d=" M 34.55 239.58 C 38.84 235.04 43.43 230.59 48.89 227.48 C 51.21 228.84 54.21 228.79 56.35 230.24 C 58.30 237.18 53.95 243.93 54.25 250.92 C 53.84 253.67 56.13 255.63 58.10 257.09 C 56.70 258.39 55.13 259.92 53.03 259.34 C 48.35 256.69 47.84 250.68 47.34 245.90 C 44.89 249.54 42.72 253.80 38.50 255.69 C 35.97 256.19 32.68 255.95 31.02 253.71 C 29.00 248.81 31.14 243.30 34.55 239.58 M 37.66 248.23 C 42.50 243.78 46.32 238.28 49.81 232.74 C 44.58 236.63 38.63 241.36 37.66 248.23 Z" />
</g>
</svg>
