<?xml version="1.0" encoding="UTF-8" ?>
<!DOCTYPE svg PUBLIC "-//W3C//DTD SVG 1.1//EN" "http://www.w3.org/Graphics/SVG/1.1/DTD/svg11.dtd">
<svg width="879pt" height="482pt" viewBox="0 0 879 482" version="1.1" xmlns="http://www.w3.org/2000/svg">
<g id="#fcfbfaff">
<path fill="#fcfbfa" opacity="1.00" d=" M 257.54 0.00 L 594.79 0.00 C 599.18 0.54 603.90 0.12 608.05 1.99 C 616.79 5.42 622.74 14.59 622.38 23.97 C 622.38 137.64 622.37 251.30 622.38 364.97 C 622.74 374.39 616.78 383.64 607.96 387.02 C 603.25 389.08 598.03 388.60 593.03 388.63 C 480.71 388.61 368.39 388.65 256.07 388.61 C 244.24 388.54 233.86 377.86 234.02 366.05 C 233.97 252.05 234.02 138.04 233.99 24.03 C 233.82 17.92 236.09 11.78 240.36 7.38 C 244.74 2.59 251.20 0.45 257.54 0.00 M 249.40 23.04 C 249.33 89.69 249.40 156.34 249.37 222.98 C 255.91 223.25 262.49 223.48 269.03 223.02 C 275.23 222.55 278.80 216.78 282.84 212.81 C 296.56 198.75 310.14 184.45 321.76 168.57 C 329.24 158.82 334.86 147.82 342.17 137.96 C 348.52 129.37 356.51 121.19 366.99 117.98 C 376.03 115.05 385.63 116.48 394.91 116.98 C 402.39 117.56 409.56 114.92 416.92 114.15 C 422.77 113.47 429.13 113.65 434.21 117.00 C 443.24 122.77 448.79 132.27 456.20 139.75 C 464.53 147.77 473.04 155.59 481.51 163.45 C 495.82 176.57 511.85 187.60 528.07 198.18 C 532.21 200.74 535.97 204.68 541.06 205.10 C 551.96 204.31 562.36 200.53 572.43 196.49 C 583.28 192.15 595.94 190.87 607.01 195.05 C 607.00 139.36 606.99 83.68 607.01 28.00 C 606.94 24.64 607.57 20.66 604.90 18.06 C 602.42 15.25 598.38 15.61 595.00 15.61 C 482.65 15.65 370.29 15.61 257.95 15.63 C 253.67 15.20 249.36 18.64 249.40 23.04 M 396.98 132.39 C 389.29 132.44 381.55 130.68 373.91 132.08 C 367.33 133.28 362.11 137.97 357.89 142.88 C 350.92 151.17 345.80 160.78 339.80 169.75 C 327.01 188.60 311.60 205.49 295.66 221.68 C 289.94 227.67 284.50 234.78 276.19 237.20 C 267.47 239.51 258.30 238.47 249.39 238.36 C 249.38 280.88 249.35 323.40 249.40 365.91 C 249.36 369.89 253.02 373.47 257.01 373.24 C 370.99 373.26 484.98 373.24 598.96 373.25 C 603.46 373.69 607.39 369.47 607.00 365.05 C 607.00 315.13 607.00 265.21 607.00 215.30 C 604.58 213.04 602.42 210.42 599.57 208.70 C 592.36 207.01 584.70 208.04 577.90 210.87 C 566.39 215.55 554.41 219.59 541.93 220.46 C 535.86 220.72 530.05 218.26 525.13 214.87 C 515.28 207.98 505.04 201.65 495.37 194.50 C 483.86 186.21 473.09 176.94 462.84 167.15 C 454.17 158.84 444.80 151.15 437.36 141.64 C 434.16 137.85 431.07 133.87 427.14 130.78 C 425.75 129.60 423.93 129.06 422.12 129.15 C 413.64 129.47 405.51 132.72 396.98 132.39 Z" />
<path fill="#fcfbfa" opacity="1.00" d=" M 494.08 301.21 C 498.89 299.63 504.06 304.09 503.04 309.09 C 502.75 314.31 496.05 316.90 491.97 314.00 C 487.28 310.94 488.38 302.40 494.08 301.21 Z" />
<path fill="#fcfbfa" opacity="1.00" d=" M 331.87 304.50 C 336.29 304.50 340.71 304.50 345.13 304.50 C 345.12 313.94 345.13 323.38 345.12 332.83 C 349.36 328.44 353.42 323.87 357.74 319.57 C 362.79 319.08 367.93 319.52 373.02 319.37 C 368.10 324.55 363.19 329.73 358.28 334.92 C 363.27 343.11 368.25 351.30 373.23 359.50 C 367.99 359.50 362.76 359.50 357.52 359.50 C 354.72 354.51 351.95 349.50 349.13 344.52 C 347.77 345.91 346.43 347.31 345.11 348.74 C 345.13 352.33 345.12 355.91 345.12 359.50 C 340.71 359.50 336.29 359.50 331.87 359.50 C 331.87 341.17 331.88 322.83 331.87 304.50 Z" />
<path fill="#fcfbfa" opacity="1.00" d=" M 263.50 359.50 C 263.50 341.17 263.50 322.83 263.50 304.50 C 267.91 304.50 272.32 304.51 276.73 304.49 C 276.76 322.83 276.78 341.17 276.72 359.52 C 272.31 359.49 267.91 359.50 263.50 359.50 Z" />
<path fill="#fcfbfa" opacity="1.00" d=" M 439.24 359.49 C 439.27 341.16 439.23 322.82 439.26 304.49 C 443.67 304.50 448.08 304.50 452.50 304.50 C 452.48 311.10 452.55 317.70 452.46 324.30 C 458.94 316.38 472.51 317.57 478.50 325.47 C 485.17 334.50 484.66 349.44 475.47 356.61 C 468.67 361.55 458.08 361.21 452.45 354.61 C 452.48 356.23 452.50 357.86 452.52 359.50 C 448.09 359.50 443.66 359.51 439.24 359.49 M 456.51 330.73 C 451.89 334.00 451.38 341.13 454.29 345.69 C 456.78 349.62 462.83 350.33 466.27 347.29 C 470.06 344.03 470.38 338.03 468.25 333.77 C 466.17 329.60 460.35 328.06 456.51 330.73 Z" />
<path fill="#fcfbfa" opacity="1.00" d=" M 513.12 304.50 C 517.54 304.50 521.95 304.50 526.38 304.50 C 526.38 313.92 526.37 323.33 526.38 332.75 C 530.76 328.39 534.65 323.50 539.29 319.44 C 544.25 319.25 549.22 319.43 554.18 319.39 C 549.29 324.57 544.38 329.74 539.49 334.92 C 544.45 343.12 549.46 351.30 554.43 359.50 C 549.19 359.50 543.95 359.50 538.71 359.50 C 535.94 354.49 533.11 349.52 530.36 344.51 C 529.05 345.86 527.73 347.21 526.39 348.54 C 526.36 352.19 526.37 355.84 526.38 359.50 C 521.96 359.50 517.54 359.50 513.12 359.50 C 513.12 341.17 513.12 322.83 513.12 304.50 Z" />
<path fill="#fcfbfa" opacity="1.00" d=" M 286.44 323.26 C 294.66 319.49 304.19 317.44 313.06 319.96 C 318.45 321.51 322.63 326.51 322.70 332.19 C 322.82 341.29 322.71 350.40 322.75 359.50 C 318.41 359.50 314.06 359.50 309.72 359.50 C 309.74 358.08 309.77 356.67 309.81 355.26 C 304.84 360.65 296.15 361.52 289.79 358.25 C 284.01 355.11 282.41 347.01 285.47 341.45 C 287.58 337.78 291.87 336.03 295.91 335.57 C 300.59 335.13 305.30 335.51 310.00 335.32 C 309.54 333.05 308.71 330.48 306.24 329.74 C 300.82 327.94 295.11 330.08 290.12 332.22 C 288.91 329.23 287.68 326.24 286.44 323.26 M 298.94 342.94 C 295.57 343.92 295.72 349.25 298.86 350.44 C 304.00 352.74 311.14 348.57 309.84 342.52 C 306.22 342.65 302.49 342.07 298.94 342.94 Z" />
<path fill="#fcfbfa" opacity="1.00" d=" M 377.20 326.24 C 381.14 321.15 387.77 318.76 394.08 318.97 C 399.80 318.84 405.87 320.80 409.53 325.41 C 413.60 330.27 414.40 336.88 414.14 343.00 C 404.82 343.04 395.50 342.92 386.19 343.06 C 387.29 345.54 388.76 348.15 391.45 349.17 C 396.10 351.11 401.29 349.10 404.83 345.89 C 407.15 348.22 409.49 350.54 411.80 352.90 C 406.01 359.10 396.91 361.04 388.77 359.47 C 382.43 358.37 376.55 354.07 374.37 347.89 C 371.87 340.82 372.53 332.29 377.20 326.24 M 385.86 335.81 C 391.06 335.92 396.26 335.90 401.47 335.83 C 401.17 331.95 398.33 328.03 394.07 328.34 C 389.65 327.97 386.91 332.06 385.86 335.81 Z" />
<path fill="#fcfbfa" opacity="1.00" d=" M 489.62 319.38 C 494.00 319.37 498.37 319.37 502.75 319.37 C 502.75 332.75 502.75 346.12 502.75 359.50 C 498.37 359.50 494.00 359.50 489.62 359.50 C 489.62 346.13 489.63 332.75 489.62 319.38 Z" />
<path fill="#fcfbfa" opacity="1.00" d=" M 557.87 326.94 C 561.66 321.46 568.52 318.80 575.04 318.97 C 580.79 318.81 586.95 320.69 590.66 325.32 C 594.77 330.19 595.58 336.84 595.40 342.99 C 586.05 343.04 576.71 342.93 567.36 343.05 C 568.53 345.79 570.34 348.58 573.38 349.45 C 577.92 350.92 582.67 348.90 586.05 345.87 C 588.38 348.19 590.71 350.50 593.01 352.86 C 587.92 358.33 580.21 360.60 572.89 359.86 C 566.11 359.47 559.23 355.82 556.27 349.51 C 552.98 342.40 553.40 333.45 557.87 326.94 M 567.06 335.82 C 572.26 335.91 577.47 335.90 582.67 335.83 C 582.38 331.85 579.38 327.90 575.03 328.34 C 570.70 328.11 568.11 332.16 567.06 335.82 Z" />
<path fill="#fcfbfa" opacity="1.00" d=" M 422.39 347.55 C 426.65 345.78 431.91 349.28 431.26 354.02 C 431.38 358.70 425.74 361.63 421.80 359.42 C 417.13 357.20 417.39 349.21 422.39 347.55 Z" />
<path fill="#fcfbfa" opacity="1.00" d=" M 626.21 379.69 C 706.13 375.93 786.04 372.00 865.95 368.26 C 871.37 367.88 876.42 372.52 876.55 377.94 C 877.44 394.47 878.08 411.00 879.00 427.52 L 879.00 431.43 C 878.18 436.31 873.80 440.23 868.80 440.18 C 583.50 453.87 298.20 467.46 12.91 481.20 C 7.73 481.10 2.99 476.70 2.87 471.45 C 1.99 454.30 1.18 437.13 0.39 419.98 C -0.09 414.15 5.15 408.94 10.92 409.17 C 104.96 404.67 198.99 400.17 293.02 395.66 C 301.67 395.32 310.32 394.61 318.99 394.75 C 414.34 394.75 509.70 394.75 605.05 394.74 C 614.43 394.79 622.82 388.24 626.21 379.69 M 836.94 392.01 C 832.10 395.19 832.33 403.63 837.52 406.35 C 841.55 408.79 846.60 408.25 850.68 410.52 C 852.97 412.03 852.49 415.82 850.04 416.93 C 845.39 419.09 840.09 416.99 836.22 414.16 C 835.19 415.54 834.15 416.91 833.15 418.30 C 838.80 422.68 847.19 424.53 853.57 420.67 C 858.33 417.93 859.10 410.50 855.10 406.81 C 851.12 403.47 845.56 403.90 841.02 401.87 C 838.24 400.73 838.31 396.17 841.19 395.19 C 845.16 393.56 849.57 394.92 853.21 396.81 C 854.04 395.46 854.89 394.11 855.74 392.77 C 850.23 389.30 842.53 388.13 836.94 392.01 M 803.05 392.36 C 803.50 403.04 804.07 413.71 804.55 424.38 C 806.30 424.28 808.07 424.18 809.85 424.10 C 809.69 420.95 809.54 417.81 809.40 414.67 C 813.88 414.41 818.59 414.68 822.81 412.85 C 831.42 409.44 830.15 394.16 820.94 392.41 C 815.05 391.16 809.00 392.33 803.05 392.36 M 777.02 393.65 C 777.54 404.30 778.05 414.96 778.54 425.62 C 785.19 425.28 791.84 424.96 798.50 424.66 C 798.40 422.98 798.33 421.30 798.25 419.63 C 793.36 419.88 788.48 420.12 783.59 420.32 C 783.19 411.33 782.72 402.33 782.32 393.34 C 780.54 393.45 778.78 393.54 777.02 393.65 M 740.07 427.44 C 741.93 427.35 743.80 427.27 745.68 427.19 C 746.62 424.69 747.58 422.19 748.58 419.70 C 753.96 419.48 759.35 419.18 764.74 418.96 C 765.92 421.35 767.11 423.72 768.30 426.11 C 770.17 426.00 772.04 425.90 773.93 425.80 C 768.66 415.40 763.49 404.95 758.27 394.53 C 756.38 394.61 754.49 394.70 752.62 394.80 C 748.44 405.68 744.25 416.55 740.07 427.44 M 700.30 397.30 C 700.80 407.96 701.35 418.62 701.82 429.28 C 709.47 428.92 717.13 428.54 724.79 428.19 C 724.71 426.52 724.64 424.86 724.58 423.20 C 718.68 423.50 712.79 423.79 706.90 424.04 C 706.73 421.14 706.60 418.23 706.49 415.32 C 711.61 415.11 716.72 414.84 721.85 414.61 C 721.78 413.08 721.73 411.55 721.67 410.03 C 716.52 410.03 711.39 410.43 706.26 410.66 C 706.09 407.78 705.96 404.90 705.84 402.02 C 711.55 401.73 717.26 401.44 722.98 401.22 C 722.87 399.54 722.78 397.86 722.69 396.19 C 715.23 396.63 707.76 396.93 700.30 397.30 M 685.96 398.01 C 686.18 402.65 686.43 407.29 686.61 411.93 C 681.25 412.14 675.90 412.42 670.55 412.68 C 670.34 408.03 670.11 403.39 669.90 398.74 C 668.12 398.84 666.35 398.93 664.59 399.03 C 665.12 409.68 665.64 420.33 666.12 430.99 C 667.88 430.90 669.64 430.81 671.42 430.72 C 671.22 426.34 670.98 421.97 670.82 417.59 C 676.16 417.34 681.51 417.08 686.86 416.84 C 687.09 421.21 687.28 425.58 687.49 429.95 C 689.25 429.87 691.02 429.78 692.80 429.70 C 692.25 419.04 691.79 408.38 691.24 397.72 C 689.47 397.81 687.71 397.90 685.96 398.01 M 633.83 400.49 C 633.90 402.09 633.97 403.70 634.05 405.31 C 637.30 405.15 640.55 405.00 643.81 404.85 C 644.21 413.90 644.69 422.94 645.08 432.00 C 646.85 431.90 648.63 431.82 650.41 431.71 C 649.93 422.67 649.50 413.63 649.11 404.59 C 652.34 404.44 655.56 404.28 658.80 404.13 C 658.73 402.51 658.66 400.91 658.61 399.30 C 650.35 399.69 642.09 400.08 633.83 400.49 M 596.52 402.27 C 597.03 412.94 597.55 423.60 598.05 434.27 C 599.81 434.17 601.57 434.07 603.35 433.98 C 603.12 429.58 602.92 425.18 602.71 420.78 C 607.45 420.53 612.20 420.30 616.96 420.09 C 616.86 418.45 616.77 416.82 616.70 415.19 C 611.95 415.43 607.20 415.70 602.45 415.85 C 602.32 412.87 602.19 409.89 602.05 406.91 C 607.37 406.71 612.68 406.40 618.00 406.19 C 617.92 404.54 617.85 402.89 617.82 401.25 C 610.71 401.58 603.61 401.93 596.52 402.27 M 567.41 403.63 C 557.45 406.82 553.36 420.10 559.38 428.53 C 564.72 436.77 577.43 438.13 584.67 431.67 C 590.91 426.59 592.09 416.81 587.77 410.15 C 583.60 403.49 574.66 400.93 567.41 403.63 M 531.00 405.40 C 531.24 410.04 531.45 414.69 531.68 419.33 C 526.32 419.58 520.96 419.84 515.61 420.10 C 515.38 415.46 515.15 410.82 514.95 406.18 C 513.17 406.26 511.40 406.34 509.64 406.42 C 510.16 417.08 510.67 427.75 511.18 438.42 C 512.94 438.33 514.70 438.24 516.46 438.16 C 516.26 433.78 516.05 429.40 515.84 425.03 C 521.20 424.75 526.57 424.50 531.94 424.26 C 532.10 428.64 532.33 433.03 532.55 437.41 C 534.30 437.30 536.05 437.21 537.82 437.12 C 537.35 426.46 536.78 415.81 536.32 405.15 C 534.54 405.23 532.77 405.32 531.00 405.40 M 478.88 407.91 C 478.93 409.50 478.99 411.09 479.06 412.70 C 482.32 412.58 485.58 412.43 488.85 412.25 C 489.28 421.30 489.68 430.36 490.16 439.41 C 491.91 439.33 493.65 439.25 495.41 439.18 C 495.01 430.12 494.57 421.07 494.11 412.02 C 497.37 411.86 500.63 411.69 503.89 411.55 C 503.78 409.93 503.69 408.32 503.61 406.71 C 495.37 407.12 487.12 407.50 478.88 407.91 M 467.97 408.40 C 468.22 414.92 468.75 421.44 468.82 427.97 C 468.82 432.17 465.45 436.31 461.04 436.15 C 456.74 436.69 453.00 433.03 452.56 428.90 C 451.93 422.36 451.91 415.77 451.48 409.21 C 449.72 409.29 447.97 409.38 446.22 409.47 C 446.73 416.80 446.48 424.22 447.65 431.48 C 449.12 438.70 457.31 442.67 464.15 440.74 C 469.64 439.67 473.92 434.59 474.07 429.00 C 474.19 422.06 473.47 415.14 473.29 408.21 C 471.51 408.27 469.74 408.34 467.97 408.40 M 420.09 410.11 C 411.55 411.49 405.24 420.38 406.88 428.92 C 407.93 438.62 418.69 445.09 427.89 442.40 C 435.90 440.63 441.67 432.24 440.27 424.10 C 439.44 414.61 429.21 407.88 420.09 410.11 M 381.71 413.71 C 376.80 416.80 376.90 425.21 381.99 428.06 C 385.94 430.48 390.86 430.12 394.98 432.12 C 397.49 433.33 397.33 437.40 394.89 438.62 C 390.21 441.03 384.81 438.79 380.85 435.99 C 379.82 437.36 378.80 438.72 377.77 440.10 C 381.33 442.69 385.53 444.60 390.01 444.53 C 394.29 444.71 399.09 443.16 401.28 439.21 C 403.15 435.61 402.52 430.34 398.94 428.01 C 395.08 425.38 390.19 425.54 385.98 423.84 C 383.22 422.99 382.71 418.57 385.35 417.26 C 389.35 415.23 394.09 416.62 397.82 418.64 C 398.66 417.29 399.51 415.93 400.36 414.59 C 394.91 411.11 387.31 409.95 381.71 413.71 M 336.46 414.72 C 336.96 425.38 337.46 436.04 338.00 446.70 C 345.65 446.35 353.30 445.95 360.95 445.62 C 360.87 443.95 360.79 442.28 360.73 440.62 C 354.83 440.94 348.93 441.17 343.03 441.50 C 342.90 438.59 342.76 435.68 342.60 432.77 C 347.74 432.50 352.88 432.28 358.03 432.02 C 357.93 430.45 357.85 428.90 357.77 427.35 C 352.64 427.54 347.52 427.86 342.40 428.04 C 342.25 425.16 342.12 422.29 341.97 419.41 C 347.69 419.18 353.41 418.90 359.13 418.59 C 359.04 416.94 358.95 415.29 358.86 413.65 C 351.40 414.02 343.93 414.35 336.46 414.72 M 322.09 415.41 C 322.36 420.05 322.55 424.69 322.80 429.33 C 317.43 429.58 312.07 429.85 306.72 430.10 C 306.48 425.47 306.26 420.84 306.05 416.20 C 304.28 416.27 302.51 416.34 300.75 416.41 C 301.28 427.08 301.76 437.75 302.30 448.42 C 304.05 448.33 305.80 448.25 307.55 448.17 C 307.39 443.79 307.14 439.41 306.96 435.03 C 312.31 434.75 317.66 434.52 323.01 434.24 C 323.24 438.63 323.42 443.02 323.66 447.41 C 325.41 447.30 327.16 447.21 328.92 447.11 C 328.47 436.46 327.88 425.82 327.43 415.17 C 325.64 415.24 323.87 415.33 322.09 415.41 M 269.98 417.91 C 270.04 419.51 270.11 421.12 270.17 422.73 C 273.44 422.58 276.70 422.44 279.97 422.26 C 280.36 431.31 280.80 440.36 281.27 449.42 C 283.02 449.33 284.77 449.25 286.53 449.18 C 286.10 440.13 285.68 431.08 285.22 422.03 C 288.47 421.85 291.73 421.69 294.99 421.58 C 294.89 419.95 294.80 418.32 294.71 416.70 C 286.47 417.15 278.22 417.49 269.98 417.91 M 230.36 419.80 C 230.91 430.46 231.38 441.12 231.91 451.79 C 239.58 451.42 247.25 451.03 254.92 450.69 C 254.81 449.03 254.71 447.37 254.62 445.71 C 248.73 445.99 242.84 446.31 236.95 446.54 C 236.81 443.63 236.68 440.73 236.56 437.83 C 241.67 437.60 246.79 437.35 251.91 437.09 C 251.84 435.52 251.78 433.96 251.73 432.41 C 246.59 432.66 241.44 432.88 236.29 433.16 C 236.18 430.28 236.04 427.40 235.90 424.53 C 241.61 424.23 247.31 423.96 253.02 423.71 C 252.96 422.05 252.89 420.40 252.84 418.75 C 245.34 419.06 237.85 419.46 230.36 419.80 M 194.45 421.54 C 194.96 432.20 195.46 442.86 195.99 453.51 C 202.87 452.86 210.26 453.86 216.62 450.60 C 227.14 445.16 226.46 426.97 215.41 422.50 C 208.75 419.76 201.40 421.51 194.45 421.54 M 180.11 422.21 C 180.65 432.87 181.12 443.53 181.65 454.18 C 183.41 454.09 185.18 454.01 186.94 453.93 C 186.41 443.27 185.94 432.61 185.39 421.95 C 183.62 422.03 181.86 422.13 180.11 422.21 M 146.68 423.79 C 147.17 434.45 147.69 445.12 148.20 455.79 C 149.96 455.70 151.72 455.63 153.48 455.56 C 153.33 451.95 153.14 448.35 152.97 444.76 C 155.38 444.63 157.80 444.50 160.22 444.39 C 162.94 447.86 165.68 451.31 168.36 454.80 C 170.59 454.71 172.81 454.62 175.03 454.51 C 172.15 450.77 169.22 447.08 166.21 443.45 C 168.80 442.10 171.51 440.29 172.22 437.26 C 173.56 432.43 172.29 425.65 166.82 424.06 C 160.25 422.28 153.37 423.84 146.68 423.79 M 37.75 425.84 C 38.28 426.47 39.34 427.71 39.87 428.33 L 39.55 426.49 C 40.80 426.85 42.02 427.32 43.22 427.84 C 43.67 426.89 43.82 425.89 43.67 424.84 C 41.85 426.10 39.71 425.13 37.75 425.84 M 119.22 425.34 C 119.31 428.02 119.42 430.69 119.53 433.38 C 116.48 430.92 114.99 425.47 110.54 425.59 C 110.69 429.69 110.95 433.78 111.05 437.89 C 111.72 437.90 113.05 437.94 113.71 437.96 C 113.61 435.29 113.50 432.63 113.37 429.97 C 116.33 432.55 117.86 437.87 122.38 437.65 C 122.21 433.50 122.00 429.34 121.80 425.19 C 121.15 425.23 119.87 425.30 119.22 425.34 M 96.66 426.41 C 96.86 430.49 97.03 434.58 97.26 438.66 C 100.25 438.51 103.25 438.37 106.24 438.22 C 106.20 437.65 106.12 436.50 106.08 435.93 C 103.99 436.02 101.90 436.12 99.80 436.23 C 99.75 435.56 99.65 434.23 99.59 433.56 C 101.66 433.04 105.77 434.55 105.33 431.07 C 103.40 431.12 101.48 431.21 99.56 431.29 C 99.51 430.63 99.42 429.31 99.37 428.64 C 101.41 428.53 103.45 428.43 105.50 428.33 C 105.50 427.75 105.51 426.59 105.52 426.00 C 102.56 426.14 99.61 426.29 96.66 426.41 M 82.65 427.09 C 82.64 427.65 82.62 428.78 82.61 429.35 C 83.81 429.30 85.01 429.25 86.21 429.21 C 86.34 432.52 86.51 435.83 86.67 439.15 C 87.32 439.13 88.63 439.09 89.29 439.08 C 89.14 435.73 88.96 432.38 88.83 429.04 C 89.69 429.01 91.40 428.95 92.26 428.92 C 92.26 428.35 92.25 427.20 92.24 426.63 C 89.04 426.79 85.85 426.95 82.65 427.09 M 51.71 428.55 C 51.89 432.64 52.07 436.72 52.31 440.81 C 52.97 440.78 54.28 440.72 54.94 440.69 C 54.86 439.31 54.78 437.94 54.71 436.57 C 58.42 436.08 58.73 442.16 62.93 440.45 C 61.91 439.09 60.87 437.76 59.82 436.44 C 61.78 434.67 62.68 431.39 60.66 429.32 C 58.05 427.56 54.66 428.68 51.71 428.55 M 66.85 427.70 C 67.03 431.82 67.27 435.94 67.41 440.06 C 68.07 440.04 69.39 439.99 70.05 439.97 C 69.94 437.35 69.82 434.73 69.72 432.12 C 72.68 434.66 74.21 439.84 78.65 439.82 C 78.60 435.66 78.32 431.52 78.12 427.37 C 77.47 427.38 76.16 427.38 75.50 427.38 C 75.63 430.10 75.77 432.83 75.91 435.55 C 73.62 433.05 71.70 430.19 69.21 427.89 C 68.62 427.84 67.44 427.74 66.85 427.70 M 39.95 429.15 C 38.38 433.37 36.69 437.56 35.26 441.84 C 37.49 442.07 38.57 440.66 39.17 438.78 C 40.84 438.68 42.52 438.60 44.19 438.52 C 44.97 440.37 46.17 441.72 48.39 441.11 C 46.48 437.07 44.43 433.09 42.54 429.04 C 41.89 429.06 40.59 429.12 39.95 429.15 M 21.34 430.05 C 21.57 434.13 21.76 438.21 21.93 442.29 C 22.56 442.25 23.81 442.17 24.43 442.13 C 24.51 440.36 24.31 438.50 25.44 437.00 C 26.85 438.57 28.19 440.20 29.49 441.86 C 30.51 441.82 31.54 441.79 32.57 441.77 C 30.83 439.56 29.09 437.36 27.37 435.15 C 28.93 433.24 30.49 431.34 31.99 429.40 C 28.07 428.80 26.55 432.78 24.23 435.05 C 24.14 433.33 24.06 431.61 23.98 429.90 C 23.32 429.94 22.00 430.01 21.34 430.05 M 24.89 444.74 C 23.54 444.75 22.22 445.07 20.98 445.60 C 22.65 445.73 24.32 445.72 25.98 445.64 C 58.96 443.98 91.94 442.55 124.91 440.83 C 123.15 439.62 120.99 440.23 119.01 440.24 C 87.64 441.77 56.26 443.27 24.89 444.74 M 100.73 445.79 C 100.83 447.51 100.92 449.24 101.02 450.97 C 99.31 451.04 97.60 451.11 95.90 451.19 C 95.85 449.46 95.79 447.74 95.74 446.02 C 95.07 446.06 93.72 446.13 93.05 446.17 C 93.25 450.25 93.42 454.33 93.66 458.41 C 94.31 458.39 95.61 458.34 96.27 458.32 C 96.19 456.67 96.12 455.03 96.05 453.38 C 97.74 453.32 99.42 453.25 101.11 453.19 C 101.18 454.79 101.26 456.39 101.33 458.00 C 101.99 458.00 103.31 458.00 103.97 458.00 C 103.79 453.89 103.58 449.78 103.39 445.67 C 102.50 445.70 101.62 445.74 100.73 445.79 M 116.12 445.03 C 114.57 449.26 112.92 453.46 111.43 457.71 C 113.69 458.05 114.82 456.66 115.37 454.67 C 117.07 454.60 118.77 454.54 120.47 454.51 C 121.08 456.55 122.55 457.42 124.65 457.14 C 122.71 453.06 120.68 449.02 118.71 444.95 C 118.06 444.97 116.77 445.01 116.12 445.03 M 81.31 446.70 C 81.28 447.24 81.21 448.32 81.18 448.86 C 82.40 448.87 83.63 448.87 84.85 448.89 C 85.01 452.15 85.19 455.42 85.29 458.69 C 85.95 458.73 87.27 458.81 87.94 458.85 C 87.83 455.44 87.66 452.05 87.47 448.65 C 88.32 448.63 90.01 448.60 90.85 448.58 C 90.91 448.01 91.01 446.87 91.06 446.30 C 87.81 446.38 84.56 446.55 81.31 446.70 M 106.57 445.58 C 106.78 449.67 106.94 453.77 107.20 457.86 C 107.85 457.79 109.14 457.65 109.78 457.59 C 109.60 453.49 109.40 449.39 109.20 445.30 C 108.54 445.37 107.23 445.51 106.57 445.58 M 61.95 447.67 C 62.13 451.76 62.33 455.84 62.55 459.93 C 63.20 459.89 64.50 459.83 65.15 459.79 C 64.98 455.68 64.77 451.57 64.58 447.47 C 63.70 447.53 62.83 447.60 61.95 447.67 M 76.46 446.89 C 76.58 449.60 76.69 452.31 76.80 455.03 C 74.54 452.52 72.59 449.73 70.15 447.39 C 69.56 447.34 68.37 447.24 67.77 447.19 C 67.94 451.31 68.17 455.43 68.32 459.55 C 68.97 459.57 70.25 459.62 70.89 459.64 C 70.87 456.96 70.75 454.27 70.62 451.60 C 73.64 454.08 75.11 459.62 79.66 459.26 C 79.49 455.13 79.26 451.00 79.08 446.87 C 78.43 446.88 77.12 446.89 76.46 446.89 M 49.06 448.24 C 49.22 452.34 49.42 456.45 49.64 460.56 C 50.51 460.49 51.38 460.43 52.25 460.38 C 52.21 458.96 52.17 457.55 52.16 456.14 C 54.71 455.96 55.61 458.59 57.05 460.13 C 57.85 460.11 59.45 460.06 60.25 460.03 C 59.20 458.68 58.15 457.34 57.10 455.99 C 59.41 454.34 60.12 450.39 57.58 448.66 C 54.91 447.45 51.88 448.28 49.06 448.24 M 25.13 450.14 C 21.49 452.46 21.60 458.51 25.33 460.68 C 28.09 462.57 31.54 461.46 33.98 459.61 C 33.62 458.95 33.25 458.29 32.88 457.64 C 31.32 458.27 29.79 459.56 27.99 459.16 C 24.71 458.51 24.12 453.35 27.09 451.90 C 29.38 450.10 32.45 454.26 33.91 450.90 C 31.47 448.93 27.78 448.10 25.13 450.14 M 34.83 461.27 C 35.54 461.22 36.95 461.11 37.65 461.06 C 37.89 460.39 38.37 459.07 38.61 458.40 C 40.38 458.29 42.15 458.19 43.93 458.09 C 44.36 458.97 44.80 459.86 45.23 460.75 C 45.92 460.71 47.29 460.64 47.98 460.60 C 45.99 456.63 44.23 452.53 42.03 448.67 C 41.47 448.65 40.34 448.62 39.77 448.61 C 37.80 452.69 36.53 457.07 34.83 461.27 Z" />
<path fill="#fcfbfa" opacity="1.00" d=" M 808.56 396.91 C 812.69 396.92 817.29 395.72 821.08 397.93 C 824.00 400.51 823.83 406.34 820.48 408.52 C 816.96 410.12 812.93 409.52 809.19 409.94 C 808.94 405.59 808.74 401.25 808.56 396.91 Z" />
<path fill="#fcfbfa" opacity="1.00" d=" M 755.74 400.97 C 757.93 405.38 760.15 409.78 762.34 414.19 C 758.37 414.35 754.41 414.56 750.45 414.74 C 752.21 410.15 754.00 405.57 755.74 400.97 Z" />
<path fill="#fcfbfa" opacity="1.00" d=" M 569.18 408.21 C 575.65 405.43 583.68 409.93 584.69 416.88 C 586.13 423.14 581.54 430.20 575.03 430.80 C 569.02 431.87 562.92 427.16 562.19 421.16 C 561.13 415.91 564.17 410.16 569.18 408.21 Z" />
<path fill="#fcfbfa" opacity="1.00" d=" M 420.13 415.10 C 426.39 412.94 433.67 417.36 434.74 423.86 C 436.34 430.18 431.69 437.36 425.10 437.98 C 419.01 439.07 412.92 434.18 412.25 428.14 C 411.23 422.64 414.71 416.66 420.13 415.10 Z" />
<path fill="#fcfbfa" opacity="1.00" d=" M 199.97 426.15 C 205.31 425.98 211.75 424.76 215.97 428.93 C 219.50 433.09 219.82 440.05 216.39 444.36 C 212.50 448.62 206.26 447.92 201.04 448.29 C 200.66 440.91 200.34 433.53 199.97 426.15 Z" />
<path fill="#fcfbfa" opacity="1.00" d=" M 152.22 428.34 C 155.85 428.23 159.49 427.74 163.12 428.16 C 168.50 428.43 168.80 437.73 163.85 438.98 C 160.24 439.95 156.44 439.67 152.74 439.93 C 152.57 436.07 152.34 432.21 152.22 428.34 Z" />
<path fill="#fcfbfa" opacity="1.00" d=" M 54.46 430.55 C 55.90 430.93 59.08 429.84 59.07 432.05 C 59.70 434.76 56.25 434.28 54.62 434.60 C 54.56 433.24 54.51 431.89 54.46 430.55 Z" />
<path fill="#fcfbfa" opacity="1.00" d=" M 41.39 432.53 C 42.01 433.75 42.62 434.98 43.24 436.22 C 42.12 436.28 41.01 436.37 39.90 436.46 C 40.40 435.15 40.89 433.83 41.39 432.53 Z" />
<path fill="#fcfbfa" opacity="1.00" d=" M 116.08 452.36 C 116.59 451.04 117.09 449.72 117.60 448.40 C 118.21 449.66 118.83 450.93 119.44 452.20 C 118.31 452.24 117.19 452.30 116.08 452.36 Z" />
<path fill="#fcfbfa" opacity="1.00" d=" M 51.78 450.31 C 53.39 450.47 56.59 449.49 56.49 452.06 C 56.72 454.60 53.57 453.87 51.97 454.27 C 51.90 452.94 51.84 451.62 51.78 450.31 Z" />
<path fill="#fcfbfa" opacity="1.00" d=" M 41.00 452.04 C 41.61 453.30 42.22 454.57 42.84 455.84 C 41.74 455.90 40.64 455.97 39.54 456.04 C 40.03 454.70 40.51 453.36 41.00 452.04 Z" />
</g>
</svg>
