<?xml version="1.0" encoding="UTF-8" ?>
<!DOCTYPE svg PUBLIC "-//W3C//DTD SVG 1.1//EN" "http://www.w3.org/Graphics/SVG/1.1/DTD/svg11.dtd">
<svg width="213pt" height="150pt" viewBox="0 0 213 150" version="1.1" xmlns="http://www.w3.org/2000/svg">
<g id="#fefefefe">
<path fill="#fefefe" opacity="1.00" d=" M 48.99 58.05 C 48.84 55.49 48.98 51.56 52.12 50.89 C 55.84 50.43 60.75 50.31 62.76 54.18 C 64.27 57.83 64.15 62.04 63.51 65.88 C 62.95 68.21 60.36 68.77 58.46 69.58 C 60.13 78.74 62.02 87.86 63.71 97.02 C 63.83 99.10 62.00 99.23 60.44 98.82 C 57.98 89.63 56.63 80.17 54.74 70.86 C 54.68 69.68 53.37 69.27 52.70 68.50 C 52.15 78.60 52.93 88.82 51.83 98.84 C 51.14 98.84 49.75 98.83 49.06 98.83 C 47.93 95.70 48.71 92.26 48.49 89.00 C 48.90 78.69 48.63 68.36 48.99 58.05 M 52.80 54.55 C 52.75 58.21 52.81 61.87 52.48 65.51 C 54.72 65.49 56.97 65.60 59.20 65.29 C 60.70 62.42 60.09 58.79 59.17 55.80 C 57.40 54.25 54.98 54.51 52.80 54.55 Z" />
<path fill="#fefefe" opacity="1.00" d=" M 82.11 51.23 C 84.64 50.84 87.33 50.66 89.83 51.33 C 92.32 51.99 93.72 54.53 93.91 56.96 C 94.39 65.29 94.39 73.66 94.01 82.00 C 93.83 86.18 94.50 90.50 93.28 94.58 C 91.52 99.49 84.56 100.30 80.63 97.77 C 79.47 94.65 79.78 91.26 79.74 87.99 C 79.84 76.63 79.51 65.26 80.04 53.90 C 79.91 52.61 80.85 51.45 82.11 51.23 M 83.77 54.61 C 84.09 68.08 83.07 81.55 83.81 95.00 C 85.27 95.00 86.74 95.00 88.20 95.00 C 90.72 92.29 90.16 88.35 90.26 84.94 C 90.10 75.96 90.51 66.96 90.05 57.99 C 90.43 54.45 86.08 54.87 83.77 54.61 Z" />
<path fill="#fefefe" opacity="1.00" d=" M 100.86 55.06 C 101.82 50.15 108.17 50.24 112.02 51.02 C 113.95 51.02 113.96 53.72 112.62 54.59 C 110.11 54.79 107.50 54.10 105.07 55.07 C 103.92 58.30 104.73 61.87 104.51 65.23 C 106.52 65.37 109.95 64.02 110.55 66.89 C 110.41 70.04 106.29 68.72 104.23 69.05 C 104.30 76.05 104.20 83.06 104.27 90.06 C 104.47 91.74 104.13 93.90 105.79 94.97 C 108.19 95.11 110.58 94.69 112.98 94.82 C 114.03 96.35 113.69 98.14 111.74 98.46 C 108.74 99.12 105.16 99.50 102.58 97.48 C 100.23 95.80 100.59 92.60 100.48 90.06 C 100.63 78.39 100.19 66.72 100.86 55.06 Z" />
<path fill="#fefefe" opacity="1.00" d=" M 69.59 52.82 C 69.92 52.44 70.59 51.66 70.92 51.27 C 73.90 51.71 73.15 54.88 73.27 57.05 C 73.18 70.73 73.27 84.42 73.42 98.09 C 72.76 98.38 71.43 98.97 70.77 99.26 C 68.80 95.09 69.69 90.38 69.50 85.94 C 69.05 74.91 69.16 63.85 69.59 52.82 Z" />
<path fill="#fefefe" opacity="1.00" d=" M 16.75 63.80 C 17.79 62.87 18.53 61.21 20.13 61.24 C 22.39 62.95 23.94 65.39 25.49 67.72 C 25.16 68.24 24.52 69.28 24.20 69.80 C 23.11 68.49 22.05 67.16 21.00 65.82 C 21.00 66.63 21.00 68.25 21.00 69.05 C 22.94 71.21 25.02 73.30 26.41 75.87 C 26.06 76.32 25.36 77.21 25.01 77.66 C 23.54 76.22 22.29 74.58 21.00 72.98 C 21.00 74.33 21.00 75.69 21.00 77.04 C 22.79 79.57 24.73 82.05 26.00 84.91 C 25.54 85.29 24.63 86.06 24.18 86.44 C 23.10 84.85 22.06 83.24 21.01 81.63 C 20.84 87.13 21.25 92.66 20.97 98.15 C 20.44 98.15 19.37 98.15 18.84 98.15 C 17.68 93.06 18.48 87.78 18.25 82.61 C 17.37 84.06 16.55 85.54 15.59 86.94 C 14.72 86.76 13.87 86.54 13.04 86.26 C 14.36 83.22 16.29 80.52 18.25 77.86 C 18.25 76.28 18.24 74.69 18.24 73.10 C 17.07 74.63 15.96 76.22 14.71 77.68 C 14.28 77.27 13.42 76.45 12.99 76.04 C 14.49 72.49 18.69 70.31 18.49 66.10 C 17.09 67.02 16.22 69.85 14.15 68.72 C 13.77 66.67 15.67 65.28 16.75 63.80 Z" />
<path fill="#fefefe" opacity="1.00" d=" M 121.37 68.34 C 122.57 64.78 128.88 66.14 128.64 69.71 C 127.03 69.87 125.69 68.80 124.26 68.28 C 121.92 71.70 122.73 76.12 122.50 80.04 C 122.75 84.87 121.83 89.94 123.41 94.60 C 124.64 97.55 127.59 94.76 129.55 94.31 C 130.26 98.00 124.26 99.53 122.25 96.89 C 120.10 94.14 120.64 90.38 120.28 87.12 C 120.33 80.87 119.79 74.44 121.37 68.34 Z" />
<path fill="#fefefe" opacity="1.00" d=" M 135.46 66.62 C 137.39 66.06 140.06 65.67 141.52 67.43 C 142.99 69.96 142.34 72.96 142.46 75.73 C 142.65 82.14 142.33 88.55 142.16 94.96 C 141.87 99.56 133.30 99.34 133.32 94.58 C 132.97 86.62 133.54 78.65 133.27 70.68 C 133.49 69.17 133.73 67.15 135.46 66.62 M 135.88 68.43 C 135.18 77.61 135.43 86.89 135.74 96.08 C 137.18 96.00 138.62 95.90 140.05 95.78 C 140.41 87.15 140.26 78.50 140.16 69.88 C 140.36 67.61 137.20 68.57 135.88 68.43 Z" />
<path fill="#fefefe" opacity="1.00" d=" M 146.81 69.06 C 146.68 67.66 147.60 66.59 148.37 65.56 C 150.34 68.33 150.75 71.76 151.73 74.93 C 152.88 71.98 153.24 68.66 155.11 66.05 C 157.02 66.38 156.75 68.51 156.77 69.95 C 156.34 78.94 156.42 87.95 156.72 96.93 C 156.27 97.37 155.37 98.25 154.92 98.69 C 154.44 96.15 154.46 93.56 154.49 90.99 C 154.65 85.16 153.77 79.31 154.70 73.51 C 153.91 75.23 153.21 77.01 152.17 78.61 C 149.34 78.59 149.75 74.59 148.64 72.69 C 148.97 80.94 149.61 89.21 149.08 97.45 C 148.67 97.74 147.86 98.32 147.45 98.61 C 147.13 88.77 146.54 78.91 146.81 69.06 Z" />
<path fill="#fefefe" opacity="1.00" d=" M 178.36 66.41 C 179.77 65.72 181.32 66.27 182.77 66.48 C 183.81 69.43 183.51 72.59 183.45 75.66 C 183.94 75.93 184.91 76.46 185.39 76.73 C 184.95 77.21 184.06 78.19 183.61 78.67 C 183.12 85.38 184.06 92.15 183.09 98.82 C 181.89 97.80 181.36 96.52 181.49 95.00 C 181.48 89.41 181.51 83.82 181.49 78.23 C 180.13 78.25 178.77 78.27 177.42 78.30 C 176.98 85.02 177.54 91.76 177.05 98.47 C 176.57 98.17 175.59 97.57 175.11 97.27 C 174.81 88.69 174.96 80.06 175.81 71.51 C 176.15 69.68 176.33 67.18 178.36 66.41 M 177.44 76.31 C 178.80 76.18 180.16 76.05 181.52 75.92 C 181.33 73.31 182.02 70.49 180.82 68.06 C 176.96 68.43 178.27 73.61 177.44 76.31 Z" />
<path fill="#fefefe" opacity="1.00" d=" M 189.50 67.10 C 189.92 66.77 190.74 66.12 191.15 65.80 C 194.41 72.84 195.14 80.75 196.79 88.27 C 197.41 81.10 196.45 73.93 197.06 66.77 C 197.54 66.61 198.50 66.28 198.98 66.11 C 198.78 76.98 199.64 87.83 199.08 98.69 C 196.37 98.22 196.40 95.32 195.82 93.24 C 194.25 86.43 192.95 79.56 191.31 72.77 C 191.22 81.49 192.76 90.41 191.02 98.99 C 189.09 96.75 189.89 93.71 189.75 91.02 C 189.65 83.05 188.77 75.07 189.50 67.10 Z" />
<path fill="#fefefe" opacity="1.00" d=" M 203.13 66.13 C 203.65 66.29 204.69 66.61 205.20 66.77 C 206.68 70.01 207.81 73.42 209.37 76.63 C 209.96 72.91 210.20 69.12 211.15 65.47 C 211.55 65.84 212.35 66.59 212.75 66.96 C 211.59 77.11 210.26 87.27 208.67 97.35 C 208.20 97.70 207.27 98.39 206.80 98.73 C 206.87 92.50 208.26 86.38 208.92 80.20 C 206.41 75.79 204.14 71.13 203.13 66.13 Z" />
<path fill="#fefefe" opacity="1.00" d=" M 161.39 68.14 C 162.04 65.82 165.09 66.16 166.97 66.31 C 171.92 66.91 172.34 73.82 170.10 77.20 C 168.09 78.57 165.47 78.07 163.17 78.20 C 163.29 84.74 162.82 91.28 163.00 97.82 C 162.50 97.82 161.50 97.82 161.00 97.82 C 160.93 87.92 161.04 78.02 161.39 68.14 M 163.34 68.43 C 163.23 70.97 163.24 73.52 163.25 76.06 C 165.05 75.99 166.88 76.08 168.66 75.68 C 169.20 73.85 169.10 71.90 168.85 70.03 C 167.96 67.83 165.19 68.57 163.34 68.43 Z" />
<path fill="#fefefe" opacity="1.00" d=" M 0.74 73.99 C 2.52 71.67 4.09 68.28 7.15 67.62 C 9.15 69.51 10.78 71.78 12.22 74.11 C 11.43 77.98 8.85 73.56 7.72 72.15 C 7.74 73.19 7.76 74.23 7.77 75.28 C 9.59 77.47 11.58 79.54 13.11 81.95 C 12.84 82.50 12.32 83.58 12.05 84.12 C 10.43 82.71 9.12 81.00 7.76 79.35 C 7.80 84.90 7.61 90.46 7.96 96.01 C 8.34 97.41 6.62 98.42 5.53 97.55 C 4.48 91.63 5.22 85.57 5.00 79.59 C 3.69 81.32 2.40 83.09 0.64 84.41 C -1.48 79.40 6.25 77.36 5.17 72.27 C 4.10 73.53 3.04 74.80 1.97 76.06 C 1.66 75.54 1.05 74.51 0.74 73.99 Z" />
<path fill="#fefefe" opacity="1.00" d=" M 32.20 72.99 C 35.24 73.27 36.73 76.99 38.61 79.12 C 38.28 79.68 37.63 80.79 37.30 81.35 C 36.27 80.10 35.27 78.82 34.26 77.55 C 34.25 78.28 34.24 79.74 34.23 80.47 C 36.05 82.68 37.96 84.84 39.43 87.31 C 39.27 87.79 38.96 88.73 38.81 89.21 C 36.46 88.81 35.73 86.14 34.24 84.61 C 34.22 88.69 34.27 92.78 34.35 96.86 C 34.00 97.44 33.29 98.61 32.94 99.20 C 30.37 94.84 31.90 89.58 31.51 84.80 C 30.21 86.39 28.93 87.99 27.53 89.48 C 27.21 88.92 26.59 87.80 26.28 87.24 C 27.84 84.95 29.67 82.85 31.48 80.75 C 31.51 79.99 31.57 78.46 31.60 77.70 C 30.34 78.79 28.46 83.07 27.08 79.75 C 28.38 77.23 30.16 74.95 32.20 72.99 Z" />
<path fill="#fefefe" opacity="1.00" d=" M 114.81 93.62 C 116.16 93.47 117.51 93.47 118.84 93.74 C 118.80 95.01 118.65 96.26 118.41 97.51 C 117.41 97.75 116.40 97.79 115.39 97.62 C 115.11 96.30 114.92 94.97 114.81 93.62 Z" />
</g>
</svg>
