<?xml version="1.0" encoding="UTF-8" ?>
<!DOCTYPE svg PUBLIC "-//W3C//DTD SVG 1.1//EN" "http://www.w3.org/Graphics/SVG/1.1/DTD/svg11.dtd">
<svg width="374pt" height="146pt" viewBox="0 0 374 146" version="1.1" xmlns="http://www.w3.org/2000/svg">
<g id="#ffffffff">
<path fill="#ffffff" opacity="1.00" d=" M 0.00 0.00 L 374.00 0.00 L 374.00 146.00 L 0.00 146.00 L 0.00 0.00 M 94.14 34.65 C 94.22 54.10 94.16 73.55 94.17 92.99 C 94.06 97.13 95.41 101.66 99.00 104.06 C 102.66 106.75 107.48 106.07 111.74 106.19 C 111.73 104.09 111.73 101.99 111.72 99.90 C 109.30 99.78 106.78 100.20 104.44 99.44 C 102.00 98.35 101.17 95.53 101.27 93.05 C 101.25 73.58 101.25 54.11 101.27 34.64 C 98.89 34.64 96.52 34.65 94.14 34.65 M 128.60 38.48 C 124.07 43.71 125.71 50.98 125.48 57.28 C 123.38 57.27 121.28 57.27 119.19 57.29 C 119.20 59.10 119.20 60.91 119.20 62.72 C 121.29 62.73 123.38 62.72 125.47 62.71 C 125.40 77.20 125.48 91.69 125.42 106.18 C 127.83 106.18 130.25 106.17 132.66 106.18 C 132.59 91.69 132.68 77.20 132.61 62.71 C 136.13 62.73 139.65 62.73 143.17 62.73 C 143.16 60.91 143.16 59.09 143.17 57.27 C 139.65 57.26 136.13 57.26 132.62 57.29 C 132.88 52.97 132.02 48.48 133.28 44.28 C 134.89 40.35 139.70 40.74 143.16 40.80 C 143.16 38.68 143.16 36.56 143.17 34.44 C 138.06 34.15 132.23 34.31 128.60 38.48 M 159.06 38.07 C 154.15 43.22 155.73 50.85 155.54 57.28 C 153.45 57.28 151.36 57.28 149.28 57.29 C 149.28 59.09 149.28 60.90 149.28 62.71 C 151.36 62.72 153.45 62.72 155.54 62.72 C 155.46 77.20 155.54 91.69 155.50 106.18 C 157.91 106.17 160.32 106.17 162.74 106.18 C 162.68 91.69 162.75 77.20 162.70 62.72 C 166.21 62.73 169.73 62.73 173.25 62.73 C 173.24 60.91 173.24 59.09 173.24 57.27 C 169.73 57.27 166.22 57.27 162.71 57.28 C 162.92 52.95 162.16 48.48 163.33 44.26 C 164.99 40.37 169.75 40.76 173.24 40.79 C 173.23 38.67 173.24 36.55 173.24 34.43 C 168.31 34.21 162.75 34.22 159.06 38.07 M 42.87 65.01 C 37.18 75.27 37.18 88.58 43.21 98.68 C 47.93 106.06 57.68 107.79 65.75 106.33 C 70.71 105.64 74.77 102.49 78.42 99.29 C 76.76 97.77 75.05 96.31 73.29 94.91 C 68.33 100.72 59.18 102.27 52.60 98.44 C 47.51 95.30 46.16 88.95 46.06 83.38 C 57.13 83.46 68.21 83.40 79.28 83.42 C 79.42 76.34 78.63 68.63 73.99 62.94 C 66.37 53.30 49.01 54.16 42.87 65.01 M 295.56 69.71 C 290.88 73.29 289.41 79.40 288.82 84.97 C 287.09 85.64 285.67 86.83 284.43 88.17 C 285.46 88.09 287.53 87.93 288.57 87.85 C 287.61 95.89 287.16 103.98 286.17 112.02 C 285.79 114.89 285.03 118.03 282.58 119.86 C 280.60 121.60 277.81 120.77 275.48 120.57 C 274.48 121.54 273.50 122.53 272.55 123.54 C 277.19 124.40 282.08 122.68 285.18 119.13 C 288.48 115.61 289.43 110.66 289.85 106.02 C 290.37 100.03 291.02 94.06 291.57 88.07 C 294.28 87.91 297.15 87.45 299.72 88.60 C 299.34 89.35 298.57 90.85 298.18 91.60 C 299.86 90.11 301.44 88.50 303.31 87.24 C 303.30 93.19 301.44 98.96 301.32 104.90 C 301.72 106.41 303.54 106.08 304.64 105.64 C 307.14 104.21 308.97 101.77 309.94 99.08 C 308.07 100.53 306.64 102.51 304.55 103.69 C 304.77 97.32 306.97 91.09 306.28 84.69 C 304.10 84.97 302.09 85.87 300.77 87.68 C 300.33 86.87 299.89 86.06 299.48 85.24 C 296.93 85.40 294.39 85.47 291.85 85.47 C 292.62 80.93 292.13 75.80 294.98 71.89 C 296.84 69.41 300.25 69.87 302.92 70.36 C 303.99 69.39 305.06 68.41 306.10 67.41 C 302.46 67.05 298.52 67.35 295.56 69.71 M 306.34 77.74 C 305.65 79.32 304.95 80.89 304.33 82.50 C 307.13 80.52 310.11 78.34 311.01 74.83 C 309.44 75.77 307.87 76.73 306.34 77.74 M 194.21 81.92 C 194.18 82.75 194.13 84.39 194.10 85.21 C 192.01 85.40 190.33 86.50 189.02 88.11 C 190.19 88.10 192.52 88.08 193.68 88.07 C 193.19 93.03 192.34 97.98 192.38 102.97 C 192.27 104.61 193.37 106.10 195.04 106.28 C 198.08 105.91 200.78 103.70 201.59 100.72 C 199.72 101.56 197.60 105.36 195.61 102.97 C 195.09 97.99 196.44 93.04 196.75 88.09 C 200.19 88.11 204.13 88.75 206.50 85.58 C 203.31 85.49 200.13 85.52 196.95 85.50 C 197.23 83.77 197.49 82.04 197.75 80.32 C 196.57 80.86 195.39 81.40 194.21 81.92 M 180.30 85.41 C 173.92 88.40 169.70 96.44 171.68 103.34 C 172.86 106.80 177.41 106.81 180.05 105.08 C 185.50 101.47 188.98 94.36 187.18 87.86 C 186.27 84.99 182.77 84.53 180.30 85.41 M 214.36 85.43 C 208.90 87.93 205.35 94.05 205.29 99.99 C 205.23 102.43 206.10 105.68 208.94 106.08 C 213.03 106.90 216.53 103.75 218.68 100.62 C 221.21 96.95 222.72 92.11 221.21 87.75 C 220.24 84.93 216.81 84.55 214.36 85.43 M 225.01 105.71 C 221.86 108.72 218.45 112.30 218.36 116.94 C 218.11 120.92 222.03 124.52 226.00 123.74 C 232.76 122.85 238.77 116.96 239.43 110.09 C 240.41 101.95 240.28 93.67 241.98 85.61 C 230.90 82.36 220.57 95.62 225.01 105.71 M 249.32 85.23 C 246.73 86.46 244.71 88.75 243.75 91.45 C 245.71 90.30 247.03 88.33 249.10 87.34 C 248.84 93.60 247.85 99.79 247.19 106.02 C 248.01 105.71 249.66 105.10 250.48 104.79 C 250.83 100.14 251.27 95.14 254.43 91.43 C 255.77 89.30 258.02 87.91 260.59 88.51 C 261.62 87.41 262.64 86.28 263.62 85.13 C 257.54 83.44 254.07 89.65 251.40 93.91 C 251.74 91.58 252.35 89.27 252.27 86.90 C 252.64 85.29 250.47 84.30 249.32 85.23 M 271.35 86.24 C 264.95 89.45 260.99 97.23 262.74 104.26 C 263.10 106.07 265.40 106.56 266.87 105.78 C 270.83 104.12 273.30 100.35 275.83 97.09 C 275.89 99.90 273.10 104.00 275.88 106.14 C 279.56 105.85 282.19 102.29 283.18 98.98 C 281.48 100.61 279.98 102.48 277.94 103.70 C 278.60 97.61 279.17 91.48 280.58 85.51 C 277.51 85.15 274.22 84.85 271.35 86.24 M 319.06 85.95 C 314.40 89.32 311.07 95.13 311.49 100.98 C 311.55 103.72 314.01 106.38 316.85 106.13 C 320.82 105.72 323.20 102.17 326.08 99.85 C 325.83 99.49 325.31 98.77 325.06 98.41 C 323.16 100.50 321.29 103.78 317.97 103.26 C 315.50 103.03 314.98 100.20 314.29 98.31 C 319.24 97.12 323.01 93.60 325.58 89.33 C 325.62 88.30 325.67 87.28 325.73 86.25 C 323.71 84.94 321.12 84.35 319.06 85.95 Z" />
<path fill="#ffffff" opacity="1.00" d=" M 49.15 67.15 C 53.57 61.09 63.59 60.82 68.42 66.51 C 71.30 69.64 71.81 74.03 71.96 78.10 C 63.34 78.09 54.72 78.08 46.10 78.11 C 46.32 74.31 46.64 70.23 49.15 67.15 Z" />
<path fill="#ffffff" opacity="1.00" d=" M 178.21 88.10 C 180.17 86.60 183.10 87.76 183.83 90.02 C 185.18 94.35 184.58 99.90 180.87 102.93 C 178.88 104.74 175.53 103.47 174.94 100.93 C 173.75 96.56 174.39 91.01 178.21 88.10 Z" />
<path fill="#ffffff" opacity="1.00" d=" M 212.22 88.16 C 214.21 86.57 217.30 87.72 217.94 90.13 C 219.17 94.42 218.65 99.94 214.98 102.92 C 213.03 104.72 209.56 103.48 209.03 100.92 C 208.04 96.56 208.38 91.09 212.22 88.16 Z" />
<path fill="#ffffff" opacity="1.00" d=" M 232.23 88.14 C 234.24 86.88 236.52 87.85 238.56 88.43 C 237.94 94.44 234.98 101.03 229.00 103.31 C 226.86 102.39 227.50 99.93 227.51 98.09 C 227.77 94.40 228.99 90.29 232.23 88.14 Z" />
<path fill="#ffffff" opacity="1.00" d=" M 269.79 88.67 C 271.75 86.75 274.54 87.55 276.87 88.14 C 276.63 93.47 274.18 98.61 269.97 101.92 C 268.91 102.89 267.39 102.71 266.08 102.90 C 265.27 97.99 266.02 92.24 269.79 88.67 Z" />
<path fill="#ffffff" opacity="1.00" d=" M 318.44 88.15 C 319.85 87.03 322.74 87.96 322.45 90.00 C 322.37 94.01 317.80 96.05 314.28 95.70 C 315.20 93.01 315.90 89.83 318.44 88.15 Z" />
<path fill="#ffffff" opacity="1.00" d=" M 226.33 106.40 C 231.50 105.53 234.70 101.15 237.55 97.17 C 236.59 103.37 236.93 109.79 235.20 115.86 C 233.80 120.96 226.43 123.34 222.79 119.19 C 219.14 115.14 222.55 108.96 226.33 106.40 Z" />
</g>
<g id="#222221ff">
<path fill="#222221" opacity="1.00" d=" M 94.14 34.65 C 96.52 34.65 98.89 34.64 101.27 34.64 C 101.25 54.11 101.25 73.58 101.27 93.05 C 101.17 95.53 102.00 98.35 104.44 99.44 C 106.78 100.20 109.30 99.78 111.72 99.90 C 111.73 101.99 111.73 104.09 111.74 106.19 C 107.48 106.07 102.66 106.75 99.00 104.06 C 95.41 101.66 94.06 97.13 94.17 92.99 C 94.16 73.55 94.22 54.10 94.14 34.65 Z" />
<path fill="#222221" opacity="1.00" d=" M 42.87 65.01 C 49.01 54.16 66.37 53.30 73.99 62.94 C 78.63 68.63 79.42 76.34 79.28 83.42 C 68.21 83.40 57.13 83.46 46.06 83.38 C 46.16 88.95 47.51 95.30 52.60 98.44 C 59.18 102.27 68.33 100.72 73.29 94.91 C 75.05 96.31 76.76 97.77 78.42 99.29 C 74.77 102.49 70.71 105.64 65.75 106.33 C 57.68 107.79 47.93 106.06 43.21 98.68 C 37.18 88.58 37.18 75.27 42.87 65.01 M 49.15 67.15 C 46.64 70.23 46.32 74.31 46.10 78.11 C 54.72 78.08 63.34 78.09 71.96 78.10 C 71.81 74.03 71.30 69.64 68.42 66.51 C 63.59 60.82 53.57 61.09 49.15 67.15 Z" />
</g>
<g id="#090b0bff">
<path fill="#090b0b" opacity="1.00" d=" M 128.60 38.48 C 132.23 34.31 138.06 34.15 143.17 34.44 C 143.16 36.56 143.16 38.68 143.16 40.80 C 139.70 40.74 134.89 40.35 133.28 44.28 C 132.02 48.48 132.88 52.97 132.62 57.29 C 136.13 57.26 139.65 57.26 143.17 57.27 C 143.16 59.09 143.16 60.91 143.17 62.73 C 139.65 62.73 136.13 62.73 132.61 62.71 C 132.68 77.20 132.59 91.69 132.66 106.18 C 130.25 106.17 127.83 106.18 125.42 106.18 C 125.48 91.69 125.40 77.20 125.47 62.71 C 123.38 62.72 121.29 62.73 119.20 62.72 C 119.20 60.91 119.20 59.10 119.19 57.29 C 121.28 57.27 123.38 57.27 125.48 57.28 C 125.71 50.98 124.07 43.71 128.60 38.48 Z" />
</g>
<g id="#a02c22ff">
<path fill="#a02c22" opacity="1.00" d=" M 159.06 38.07 C 162.75 34.22 168.31 34.21 173.24 34.43 C 173.24 36.55 173.23 38.67 173.24 40.79 C 169.75 40.76 164.99 40.37 163.33 44.26 C 162.16 48.48 162.92 52.95 162.71 57.28 C 166.22 57.27 169.73 57.27 173.24 57.27 C 173.24 59.09 173.24 60.91 173.25 62.73 C 169.73 62.73 166.21 62.73 162.70 62.72 C 162.75 77.20 162.68 91.69 162.74 106.18 C 160.32 106.17 157.91 106.17 155.50 106.18 C 155.54 91.69 155.46 77.20 155.54 62.72 C 153.45 62.72 151.36 62.72 149.28 62.71 C 149.28 60.90 149.28 59.09 149.28 57.29 C 151.36 57.28 153.45 57.28 155.54 57.28 C 155.73 50.85 154.15 43.22 159.06 38.07 Z" />
<path fill="#a02c22" opacity="1.00" d=" M 295.56 69.71 C 298.52 67.35 302.46 67.05 306.10 67.41 C 305.06 68.41 303.99 69.39 302.92 70.36 C 300.25 69.87 296.84 69.41 294.98 71.89 C 292.13 75.80 292.62 80.93 291.85 85.47 C 294.39 85.47 296.93 85.40 299.48 85.24 C 299.89 86.06 300.33 86.87 300.77 87.68 C 302.09 85.87 304.10 84.97 306.28 84.69 C 306.97 91.09 304.77 97.32 304.55 103.69 C 306.64 102.51 308.07 100.53 309.94 99.08 C 308.97 101.77 307.14 104.21 304.64 105.64 C 303.54 106.08 301.72 106.41 301.32 104.90 C 301.44 98.96 303.30 93.19 303.31 87.24 C 301.44 88.50 299.86 90.11 298.18 91.60 C 298.57 90.85 299.34 89.35 299.72 88.60 C 297.15 87.45 294.28 87.91 291.57 88.07 C 291.02 94.06 290.37 100.03 289.85 106.02 C 289.43 110.66 288.48 115.61 285.18 119.13 C 282.08 122.68 277.19 124.40 272.55 123.54 C 273.50 122.53 274.48 121.54 275.48 120.57 C 277.81 120.77 280.60 121.60 282.58 119.86 C 285.03 118.03 285.79 114.89 286.17 112.02 C 287.16 103.98 287.61 95.89 288.57 87.85 C 287.53 87.93 285.46 88.09 284.43 88.17 C 285.67 86.83 287.09 85.64 288.82 84.97 C 289.41 79.40 290.88 73.29 295.56 69.71 Z" />
<path fill="#a02c22" opacity="1.00" d=" M 306.34 77.74 C 307.87 76.73 309.44 75.77 311.01 74.83 C 310.11 78.34 307.13 80.52 304.33 82.50 C 304.95 80.89 305.65 79.32 306.34 77.74 Z" />
<path fill="#a02c22" opacity="1.00" d=" M 194.21 81.92 C 195.39 81.40 196.57 80.86 197.75 80.32 C 197.49 82.04 197.23 83.77 196.95 85.50 C 200.13 85.52 203.31 85.49 206.50 85.58 C 204.13 88.75 200.19 88.11 196.75 88.09 C 196.44 93.04 195.09 97.99 195.61 102.97 C 197.60 105.36 199.72 101.56 201.59 100.72 C 200.78 103.70 198.08 105.91 195.04 106.28 C 193.37 106.10 192.27 104.61 192.38 102.97 C 192.34 97.98 193.19 93.03 193.68 88.07 C 192.52 88.08 190.19 88.10 189.02 88.11 C 190.33 86.50 192.01 85.40 194.10 85.21 C 194.13 84.39 194.18 82.75 194.21 81.92 Z" />
<path fill="#a02c22" opacity="1.00" d=" M 180.30 85.41 C 182.77 84.53 186.27 84.99 187.18 87.86 C 188.98 94.36 185.50 101.47 180.05 105.08 C 177.41 106.81 172.86 106.80 171.68 103.34 C 169.70 96.44 173.92 88.40 180.30 85.41 M 178.21 88.10 C 174.39 91.01 173.75 96.56 174.94 100.93 C 175.53 103.47 178.88 104.74 180.87 102.93 C 184.58 99.90 185.18 94.35 183.83 90.02 C 183.10 87.76 180.17 86.60 178.21 88.10 Z" />
<path fill="#a02c22" opacity="1.00" d=" M 214.36 85.43 C 216.81 84.55 220.24 84.93 221.21 87.75 C 222.72 92.11 221.21 96.95 218.68 100.62 C 216.53 103.75 213.03 106.90 208.94 106.08 C 206.10 105.68 205.23 102.43 205.29 99.99 C 205.35 94.05 208.90 87.93 214.36 85.43 M 212.22 88.16 C 208.38 91.09 208.04 96.56 209.03 100.92 C 209.56 103.48 213.03 104.72 214.98 102.92 C 218.65 99.94 219.17 94.42 217.94 90.13 C 217.30 87.72 214.21 86.57 212.22 88.16 Z" />
<path fill="#a02c22" opacity="1.00" d=" M 225.01 105.71 C 220.57 95.62 230.90 82.36 241.98 85.61 C 240.28 93.67 240.41 101.95 239.43 110.09 C 238.77 116.96 232.76 122.85 226.00 123.74 C 222.03 124.52 218.11 120.92 218.36 116.94 C 218.45 112.30 221.86 108.72 225.01 105.71 M 232.23 88.14 C 228.99 90.29 227.77 94.40 227.51 98.09 C 227.50 99.93 226.86 102.39 229.00 103.31 C 234.98 101.03 237.94 94.44 238.56 88.43 C 236.52 87.85 234.24 86.88 232.23 88.14 M 226.33 106.40 C 222.55 108.96 219.14 115.14 222.79 119.19 C 226.43 123.34 233.80 120.96 235.20 115.86 C 236.93 109.79 236.59 103.37 237.55 97.17 C 234.70 101.15 231.50 105.53 226.33 106.40 Z" />
<path fill="#a02c22" opacity="1.00" d=" M 249.32 85.23 C 250.47 84.30 252.64 85.29 252.27 86.90 C 252.35 89.27 251.74 91.58 251.40 93.91 C 254.07 89.65 257.54 83.44 263.62 85.13 C 262.64 86.28 261.62 87.41 260.59 88.51 C 258.02 87.91 255.77 89.30 254.43 91.43 C 251.27 95.14 250.83 100.14 250.48 104.79 C 249.66 105.10 248.01 105.71 247.19 106.02 C 247.85 99.79 248.84 93.60 249.10 87.34 C 247.03 88.33 245.71 90.30 243.75 91.45 C 244.71 88.75 246.73 86.46 249.32 85.23 Z" />
<path fill="#a02c22" opacity="1.00" d=" M 271.35 86.24 C 274.22 84.85 277.51 85.15 280.58 85.51 C 279.17 91.48 278.60 97.61 277.94 103.70 C 279.98 102.48 281.48 100.61 283.18 98.98 C 282.19 102.29 279.56 105.85 275.88 106.14 C 273.10 104.00 275.89 99.90 275.83 97.09 C 273.30 100.35 270.83 104.12 266.87 105.78 C 265.40 106.56 263.10 106.07 262.74 104.26 C 260.99 97.23 264.95 89.45 271.35 86.24 M 269.79 88.67 C 266.02 92.24 265.27 97.99 266.08 102.90 C 267.39 102.71 268.91 102.89 269.97 101.92 C 274.18 98.61 276.63 93.47 276.87 88.14 C 274.54 87.55 271.75 86.75 269.79 88.67 Z" />
<path fill="#a02c22" opacity="1.00" d=" M 319.06 85.95 C 321.12 84.35 323.71 84.94 325.73 86.25 C 325.67 87.28 325.62 88.30 325.58 89.33 C 323.01 93.60 319.24 97.12 314.29 98.31 C 314.98 100.20 315.50 103.03 317.97 103.26 C 321.29 103.78 323.16 100.50 325.06 98.41 C 325.31 98.77 325.83 99.49 326.08 99.85 C 323.20 102.17 320.82 105.72 316.85 106.13 C 314.01 106.38 311.55 103.72 311.49 100.98 C 311.07 95.13 314.40 89.32 319.06 85.95 M 318.44 88.15 C 315.90 89.83 315.20 93.01 314.28 95.70 C 317.80 96.05 322.37 94.01 322.45 90.00 C 322.74 87.96 319.85 87.03 318.44 88.15 Z" />
</g>
</svg>
