<?xml version="1.0" encoding="UTF-8" ?>
<!DOCTYPE svg PUBLIC "-//W3C//DTD SVG 1.1//EN" "http://www.w3.org/Graphics/SVG/1.1/DTD/svg11.dtd">
<svg width="1041pt" height="756pt" viewBox="0 0 1041 756" version="1.1" xmlns="http://www.w3.org/2000/svg">
<g id="#ffffffff">
<path fill="#ffffff" opacity="1.00" d=" M 17.68 66.70 C 329.49 50.36 641.30 34.01 953.11 17.68 C 955.75 68.49 958.48 119.29 961.09 170.10 C 969.44 330.22 977.88 490.34 986.27 650.46 C 685.15 666.22 384.03 682.04 82.91 697.77 C 72.22 698.41 61.52 698.88 50.83 699.46 C 39.78 488.54 28.72 277.62 17.68 66.70 M 331.93 84.01 C 330.43 87.89 331.34 92.20 330.23 96.15 C 326.06 106.81 320.63 117.37 320.23 129.04 C 320.03 131.98 322.38 134.20 322.81 137.00 C 323.39 140.20 323.49 143.47 324.34 146.63 C 327.16 146.02 328.86 143.75 329.10 140.94 C 329.95 140.04 330.81 139.14 331.67 138.25 C 331.54 137.39 331.28 135.68 331.15 134.82 C 332.57 134.10 333.92 132.38 335.66 133.20 C 337.93 136.68 339.14 140.68 339.44 144.81 C 340.97 149.01 344.93 151.75 348.73 153.78 C 349.54 151.35 350.41 148.94 351.18 146.50 C 352.03 144.70 352.56 142.78 352.97 140.83 C 351.76 140.41 350.56 140.00 349.37 139.59 C 348.16 138.40 346.85 137.29 345.79 135.96 C 345.30 133.72 345.52 131.41 345.54 129.14 C 346.88 127.29 348.50 125.43 348.77 123.07 C 349.29 119.00 347.67 114.97 348.32 110.90 C 348.48 109.30 348.98 107.71 348.82 106.09 C 347.03 102.44 344.46 99.05 341.00 96.84 C 337.80 95.03 338.26 90.91 337.41 87.83 C 336.51 85.31 338.17 83.05 338.73 80.68 C 335.98 78.90 333.01 81.54 331.93 84.01 M 755.30 81.36 C 756.19 84.55 757.03 87.76 757.94 90.94 C 758.42 90.10 759.38 88.40 759.87 87.56 C 762.65 88.21 764.68 89.82 764.48 92.97 C 763.84 92.37 762.55 91.18 761.90 90.58 C 760.58 92.14 759.12 93.57 757.79 95.12 C 757.63 98.25 758.16 101.41 759.62 104.21 C 759.47 104.85 759.17 106.13 759.02 106.78 C 759.79 109.06 760.39 111.39 760.96 113.74 C 760.42 114.22 759.35 115.17 758.82 115.65 C 760.84 118.36 760.90 121.66 761.23 124.88 C 763.18 126.88 766.23 127.50 767.78 129.99 C 766.14 131.13 764.54 132.29 762.96 133.49 C 763.47 136.49 765.34 139.06 765.87 142.03 C 765.15 145.33 763.38 148.52 763.97 152.00 C 764.98 159.30 764.82 166.69 765.70 174.01 C 766.02 176.30 764.81 178.39 764.33 180.57 C 763.22 184.31 764.01 188.22 764.72 191.96 C 762.02 189.45 758.46 187.54 757.18 183.87 C 755.06 179.13 752.40 174.66 749.64 170.28 C 745.22 163.24 745.07 154.59 741.62 147.15 C 740.63 143.89 738.11 141.48 735.35 139.66 C 731.40 143.14 726.33 146.37 725.45 152.00 C 725.51 155.34 727.67 158.12 729.23 160.93 C 727.89 163.33 726.58 165.74 725.14 168.08 C 722.63 172.24 722.75 177.27 722.24 181.94 C 720.39 183.22 718.47 184.40 716.46 185.38 C 715.85 189.33 716.25 193.32 716.43 197.28 C 714.26 202.25 713.09 207.68 712.82 213.09 C 712.70 215.62 710.44 217.35 709.90 219.77 C 708.95 223.04 708.28 227.19 711.21 229.65 C 711.78 228.51 712.36 227.36 712.94 226.21 C 714.29 226.20 715.66 226.17 717.03 226.14 C 719.19 227.70 721.60 228.25 723.67 226.10 C 722.68 225.53 720.70 224.38 719.71 223.80 C 723.30 223.52 726.90 223.97 730.50 223.63 C 729.55 222.71 728.59 221.80 727.65 220.91 C 732.21 219.61 733.08 214.63 734.08 210.68 C 735.78 206.85 736.50 202.62 735.12 198.57 C 737.30 197.51 740.08 195.39 742.15 197.86 C 744.67 200.84 746.20 204.63 747.49 208.30 C 746.21 207.62 744.95 206.93 743.71 206.23 C 742.50 207.14 740.52 207.46 740.19 209.16 C 742.16 212.32 746.36 212.30 749.54 213.41 C 749.61 214.09 749.76 215.44 749.83 216.11 C 750.38 216.24 751.48 216.51 752.03 216.64 C 754.17 218.88 756.38 221.09 758.90 222.92 C 759.96 222.73 761.02 222.49 762.08 222.22 C 764.88 222.29 767.68 222.09 770.49 222.16 C 776.58 218.68 772.38 210.12 777.55 205.84 C 778.30 200.07 781.66 195.02 781.97 189.11 C 783.68 186.87 784.21 184.11 784.48 181.37 C 783.79 180.93 782.41 180.05 781.72 179.61 C 783.09 177.97 785.37 176.55 784.99 174.08 C 784.90 168.03 783.67 161.77 785.89 155.93 C 785.57 155.45 784.93 154.47 784.61 153.99 C 785.47 150.61 785.68 146.96 783.44 144.05 C 785.02 139.81 783.47 135.33 783.56 130.97 C 783.83 127.77 780.44 126.43 778.26 124.98 C 779.52 123.93 780.86 122.95 782.03 121.77 C 781.45 118.74 779.77 115.97 779.83 112.82 C 779.96 110.03 778.59 107.53 777.19 105.21 C 776.13 101.93 774.41 98.90 773.69 95.50 C 772.94 91.52 769.51 89.02 767.74 85.56 C 766.63 84.17 765.57 82.75 764.55 81.31 C 761.48 81.26 758.23 80.14 755.30 81.36 M 352.22 146.18 C 353.49 146.81 354.76 147.43 356.06 148.00 C 355.86 147.35 355.47 146.03 355.27 145.38 C 354.23 145.58 353.22 145.85 352.22 146.18 M 652.83 151.33 C 646.73 151.30 641.65 155.10 636.07 157.02 C 631.70 158.30 629.39 162.51 626.41 165.59 C 624.18 167.91 623.38 171.38 625.02 174.27 C 626.53 174.47 628.06 174.62 629.61 174.71 C 625.81 182.01 622.09 189.34 619.13 197.03 C 619.48 197.73 620.17 199.13 620.51 199.83 C 617.32 205.50 618.18 212.13 616.25 218.15 C 615.54 222.94 618.56 227.15 619.96 231.54 C 621.47 232.91 622.79 234.48 623.70 236.32 C 625.19 237.19 626.65 238.12 628.09 239.10 C 631.07 239.20 632.65 241.59 634.08 243.87 C 635.18 243.85 636.29 243.84 637.41 243.83 C 637.96 245.19 638.38 246.65 639.15 247.93 C 642.19 250.52 646.30 247.07 649.67 248.42 C 650.99 249.08 652.09 250.09 653.26 251.00 C 655.12 250.71 656.99 250.43 658.88 250.21 C 660.72 247.51 663.64 245.98 666.93 246.79 C 668.00 244.63 670.01 244.04 672.31 244.35 C 675.96 240.69 680.28 237.55 682.50 232.71 C 684.01 232.77 685.52 232.77 687.04 232.72 C 687.07 231.15 686.58 229.64 686.21 228.14 C 687.15 226.75 688.05 225.35 688.97 223.94 C 686.64 224.07 684.48 224.96 682.24 225.43 C 679.98 225.34 677.74 224.99 675.49 224.86 C 674.12 225.83 673.05 227.93 671.13 227.66 C 663.56 226.34 655.99 230.09 648.51 228.41 C 645.33 226.39 641.90 224.89 638.48 223.38 C 637.01 220.78 636.41 217.75 635.63 214.89 C 636.01 211.60 637.48 208.57 638.51 205.46 C 642.38 206.39 646.43 205.96 650.31 206.96 C 652.65 207.51 654.53 205.00 656.93 205.46 C 662.92 205.24 668.22 208.48 674.02 209.34 C 675.97 209.00 676.42 206.77 677.38 205.37 C 679.16 207.41 681.62 207.68 684.17 207.15 C 686.29 207.28 688.52 207.50 690.50 206.51 C 692.88 205.76 693.46 202.99 694.74 201.14 C 693.00 198.37 691.88 195.30 690.60 192.32 C 688.68 192.31 686.80 192.79 684.88 192.79 C 682.87 192.56 681.66 190.77 680.47 189.36 C 676.84 189.17 673.10 188.65 669.95 186.74 C 666.90 186.15 663.85 185.63 660.83 184.99 C 660.12 185.67 659.43 186.35 658.74 187.04 C 658.12 186.44 657.51 185.85 656.91 185.26 C 656.24 185.32 654.92 185.44 654.25 185.50 C 653.16 184.84 652.08 184.18 651.00 183.52 C 646.75 183.91 643.37 186.49 639.84 188.61 C 640.46 185.05 641.32 181.53 641.69 177.94 C 642.99 176.81 644.23 175.54 645.79 174.76 C 648.43 174.71 651.08 174.86 653.73 174.93 C 654.14 174.55 654.96 173.80 655.37 173.42 C 656.06 173.42 657.44 173.42 658.13 173.42 C 658.57 172.97 659.47 172.05 659.91 171.59 C 662.59 171.74 665.27 171.80 667.96 171.89 C 670.84 173.86 674.06 172.59 675.93 169.93 C 678.20 169.72 680.48 169.65 682.76 169.63 C 683.27 170.17 684.29 171.24 684.80 171.78 C 686.56 170.84 688.25 169.74 690.10 168.96 C 692.82 168.61 695.57 168.44 698.30 168.07 C 697.75 166.89 697.19 165.72 696.62 164.56 C 696.97 163.78 697.33 163.01 697.70 162.24 C 696.92 160.34 696.24 158.40 695.62 156.46 C 695.18 156.22 694.31 155.75 693.88 155.51 C 691.58 152.00 687.11 150.99 683.54 153.21 C 679.77 152.20 676.00 151.00 672.06 151.13 C 670.49 150.43 668.81 150.27 667.13 150.32 C 662.34 150.20 657.62 151.28 652.83 151.33 M 585.07 155.02 C 580.35 156.12 575.47 154.74 570.77 155.78 C 562.20 159.24 557.68 168.14 549.80 172.67 C 548.95 173.33 546.60 174.36 548.04 175.67 C 550.46 177.76 553.49 178.99 556.08 180.86 C 559.26 181.16 562.44 181.48 565.63 181.77 C 565.32 186.06 566.52 190.59 564.53 194.62 C 563.63 198.63 563.00 202.85 563.85 206.94 C 564.25 211.67 566.95 216.02 566.45 220.86 C 565.86 225.04 568.02 229.15 571.53 231.38 C 571.69 231.96 572.02 233.12 572.19 233.70 C 574.42 234.74 576.49 236.09 578.35 237.72 C 579.05 237.54 580.44 237.18 581.13 237.00 C 581.74 237.37 582.97 238.12 583.58 238.49 C 588.64 234.24 588.14 227.04 586.50 221.28 C 586.22 216.44 587.03 211.49 585.44 206.77 C 587.40 203.02 585.81 198.70 586.30 194.68 C 586.03 194.19 585.49 193.21 585.22 192.72 C 585.86 190.51 586.66 188.21 585.88 185.91 C 585.81 184.46 584.74 182.60 586.09 181.42 C 588.14 178.80 592.15 179.73 594.52 177.57 C 595.78 176.52 596.72 175.03 598.22 174.30 C 602.30 174.51 606.38 174.76 610.48 174.65 C 611.59 172.67 612.76 170.73 613.98 168.81 C 612.62 167.21 611.25 165.62 609.99 163.94 C 608.70 162.83 607.44 161.67 606.19 160.51 C 605.40 160.72 603.82 161.13 603.02 161.34 C 602.07 159.56 601.59 157.40 600.04 156.03 C 595.45 153.37 590.03 154.05 585.07 155.02 M 379.92 162.79 C 375.97 165.25 375.35 170.06 373.96 174.10 C 372.91 177.01 374.83 179.84 375.24 182.69 C 374.77 183.19 373.83 184.17 373.36 184.66 C 373.82 195.15 375.90 205.48 376.42 215.96 C 376.13 223.61 376.46 231.29 375.60 238.92 C 375.83 247.51 374.72 256.28 376.96 264.69 C 378.79 264.49 380.62 264.13 382.24 263.22 C 385.20 261.66 388.56 261.25 391.70 260.19 C 388.86 259.45 386.44 258.03 386.28 254.82 C 387.26 254.95 389.23 255.20 390.21 255.32 C 391.39 252.58 393.00 249.97 393.49 246.99 C 392.78 244.56 390.89 242.78 389.32 240.89 C 393.10 237.55 392.79 232.33 391.45 227.89 C 391.90 227.49 392.80 226.68 393.25 226.27 C 392.97 222.76 390.48 218.30 394.08 215.76 C 396.93 218.74 396.46 223.06 397.54 226.77 C 398.31 228.02 399.03 229.31 399.70 230.62 C 405.24 236.63 404.64 245.90 410.52 251.60 C 414.37 257.82 417.46 264.90 423.47 269.38 C 425.78 272.56 430.28 272.60 433.75 271.76 C 434.13 272.25 434.88 273.22 435.26 273.71 C 437.59 273.15 439.92 272.50 442.04 271.35 C 442.87 271.44 444.53 271.61 445.36 271.69 C 446.92 269.88 447.33 267.43 448.13 265.24 C 448.55 264.84 449.39 264.05 449.81 263.65 C 450.33 260.75 451.29 257.97 452.00 255.12 C 451.41 251.51 452.70 247.87 451.84 244.29 C 451.16 241.16 450.99 237.96 451.04 234.77 C 446.23 238.42 446.20 245.20 442.00 249.39 C 438.83 248.98 437.00 246.13 435.07 243.94 C 430.05 237.63 425.28 231.13 420.92 224.35 C 421.39 223.45 421.87 222.56 422.35 221.67 C 417.80 216.93 413.29 211.67 412.37 204.89 C 414.86 204.80 417.36 204.74 419.85 204.55 C 419.03 203.12 418.12 201.74 417.34 200.29 C 419.15 200.02 421.00 200.00 422.81 199.65 C 424.48 198.04 426.02 196.28 427.84 194.82 C 428.87 193.58 429.95 192.38 431.07 191.20 C 430.15 188.81 431.70 186.93 433.03 185.13 C 432.45 181.29 435.67 177.45 433.06 173.96 C 432.95 170.38 429.41 168.96 427.24 166.72 C 424.51 165.69 422.17 163.24 419.09 163.52 C 416.42 163.99 414.40 162.02 412.05 161.21 C 410.59 161.58 409.21 162.18 407.82 162.71 C 405.54 161.44 403.48 159.76 401.02 158.86 C 397.87 157.97 395.19 160.27 392.57 161.59 C 391.50 160.34 390.44 159.08 389.43 157.79 C 385.19 155.90 383.15 161.06 379.92 162.79 M 209.67 163.69 C 207.84 165.47 205.47 166.86 204.30 169.21 C 203.92 172.34 205.36 175.48 204.54 178.61 C 203.29 183.72 203.80 189.02 202.63 194.13 C 200.23 205.91 200.00 217.96 199.32 229.92 C 198.96 239.41 201.75 248.77 200.26 258.24 C 199.87 264.79 198.89 271.91 202.11 277.95 C 202.92 278.78 203.43 281.65 205.02 280.30 C 210.86 278.41 212.09 271.92 214.00 266.90 C 218.47 257.26 224.65 248.36 232.00 240.70 C 235.45 243.19 236.92 247.32 239.32 250.66 C 244.81 257.28 250.26 264.09 254.00 271.89 C 255.48 274.76 258.31 276.68 261.05 278.22 C 263.25 278.45 265.50 278.13 267.64 277.58 C 268.35 276.21 268.52 274.66 268.82 273.18 C 267.49 272.47 266.17 271.77 264.85 271.06 C 266.23 269.23 269.33 267.75 268.44 265.02 C 267.44 261.97 266.17 259.03 265.42 255.91 C 264.37 253.44 262.70 251.22 262.39 248.47 C 262.15 244.77 258.76 242.68 257.38 239.48 C 254.33 233.23 249.97 227.78 246.32 221.91 C 248.27 219.06 250.23 216.14 252.86 213.87 C 256.20 211.14 257.85 206.82 261.59 204.51 C 264.16 202.82 265.30 199.80 267.50 197.78 C 269.92 196.71 272.70 196.48 274.94 194.98 C 275.38 193.04 275.43 191.05 275.59 189.08 C 278.01 190.97 281.06 191.18 283.91 190.12 C 287.50 189.17 286.82 184.65 288.34 181.99 C 287.17 180.38 286.06 178.73 284.76 177.23 C 283.00 178.13 283.60 180.44 283.03 181.99 C 280.18 179.23 276.31 178.82 272.56 179.40 C 272.46 178.82 272.26 177.66 272.15 177.08 C 269.34 178.91 265.66 178.78 263.11 181.06 C 261.23 182.58 259.07 183.68 257.10 185.06 C 256.40 186.24 256.23 187.64 255.81 188.93 C 255.09 188.78 253.65 188.47 252.93 188.32 C 249.87 191.14 247.65 194.75 244.31 197.29 C 240.75 200.23 238.58 204.33 235.75 207.87 C 234.31 207.56 232.94 207.03 231.56 206.56 C 232.05 205.88 233.04 204.51 233.53 203.83 C 233.14 203.33 232.36 202.32 231.98 201.82 C 229.95 204.04 228.16 206.54 227.49 209.53 C 225.93 214.32 226.51 219.98 222.95 223.94 C 221.55 225.79 219.01 228.16 216.82 225.99 C 217.31 223.36 218.77 220.95 218.65 218.21 C 218.89 201.83 217.90 185.34 214.34 169.31 C 213.99 165.38 215.08 161.42 214.17 157.50 C 212.77 159.63 211.68 162.04 209.67 163.69 M 519.43 161.38 C 518.20 164.18 518.58 168.16 515.02 169.18 C 513.44 170.86 511.67 172.44 510.57 174.49 C 509.39 179.15 511.73 183.67 512.25 188.26 C 511.07 189.67 508.95 190.83 509.07 192.93 C 509.07 197.66 510.51 202.41 508.98 207.05 C 508.90 212.83 511.36 218.67 509.09 224.39 C 509.30 224.86 509.72 225.80 509.93 226.26 C 509.73 229.64 509.85 233.03 509.37 236.38 C 506.74 231.32 505.25 225.71 502.05 220.94 C 500.66 216.36 498.73 211.97 495.98 208.03 C 496.16 207.19 496.50 205.51 496.67 204.68 C 496.16 204.31 495.13 203.57 494.62 203.20 C 493.01 193.71 486.91 185.71 485.43 176.17 C 484.83 171.94 483.57 167.37 479.64 165.04 C 477.13 166.71 474.23 167.48 471.38 168.28 C 472.13 171.37 470.78 174.12 469.64 176.88 C 471.60 183.19 470.60 190.02 468.03 196.01 C 466.92 198.27 467.75 200.72 468.07 203.05 C 466.89 204.47 465.26 205.85 465.71 207.93 C 466.05 212.46 461.97 215.91 462.59 220.51 C 461.09 223.37 458.77 226.45 460.09 229.84 C 461.10 232.88 460.38 236.02 459.58 239.02 C 455.77 243.91 458.54 250.49 457.23 256.07 C 456.15 258.53 459.51 259.49 460.98 257.89 C 463.12 255.67 464.26 252.65 466.36 250.36 C 471.02 245.21 471.48 237.89 474.99 232.11 C 477.61 227.86 477.55 222.67 479.28 218.08 C 481.30 221.03 482.35 224.49 483.11 227.94 C 483.56 230.91 486.49 232.51 487.81 235.02 C 488.28 237.59 488.15 240.23 488.56 242.82 C 488.81 244.84 490.85 245.82 492.22 247.05 C 494.63 251.40 497.56 256.41 502.84 257.48 C 504.61 258.74 505.42 261.06 506.87 262.69 C 508.11 262.53 509.35 262.37 510.59 262.21 C 511.24 263.02 511.90 263.83 512.56 264.64 C 515.26 264.52 519.03 266.64 520.66 263.56 C 524.37 258.98 524.45 252.80 524.31 247.21 C 526.25 240.46 525.61 233.31 527.27 226.52 C 527.02 226.02 526.52 225.03 526.27 224.53 C 527.54 219.11 527.56 213.48 527.24 207.94 C 526.93 204.87 528.76 202.09 528.70 199.03 C 529.02 189.49 532.57 179.73 528.89 170.41 C 528.26 170.17 526.98 169.71 526.34 169.47 C 526.43 168.93 526.62 167.84 526.71 167.30 C 525.37 165.22 524.45 162.89 522.96 160.92 C 522.06 159.64 520.16 160.32 519.43 161.38 M 322.86 171.88 C 311.35 189.09 297.83 204.84 285.54 221.48 C 283.50 224.41 281.64 227.51 279.18 230.13 C 277.58 231.07 275.71 231.40 273.97 232.01 C 274.54 234.25 275.45 236.60 274.64 238.91 C 273.94 243.09 270.36 246.61 271.32 251.05 C 271.57 253.98 272.75 256.71 273.76 259.45 C 275.18 258.96 276.62 258.47 278.05 257.99 C 279.27 259.58 280.25 261.42 281.89 262.66 C 285.56 260.94 287.66 257.33 289.89 254.15 C 290.39 251.79 291.20 249.52 292.13 247.30 C 291.82 245.95 291.44 244.62 291.29 243.25 C 293.85 240.24 297.72 242.85 300.96 242.57 C 307.93 241.84 315.16 241.32 321.99 243.30 C 322.87 242.61 323.75 241.92 324.65 241.24 C 329.40 243.72 334.95 243.35 339.93 241.80 C 340.99 243.50 342.10 245.18 343.28 246.80 C 343.54 250.55 344.39 254.23 344.97 257.94 C 346.17 261.21 348.45 263.93 350.04 267.01 C 353.16 266.26 356.13 265.03 359.22 264.18 C 360.56 262.69 361.87 261.18 363.09 259.59 C 362.86 258.74 362.39 257.04 362.16 256.18 C 363.64 250.78 362.48 245.03 360.28 240.00 C 361.31 238.87 362.34 237.75 363.37 236.62 C 361.55 235.49 359.67 234.48 357.78 233.50 C 358.54 229.08 357.89 224.20 355.14 220.56 C 354.75 218.23 354.69 215.85 354.17 213.54 C 353.19 211.24 351.17 209.45 350.57 206.97 C 349.66 202.70 349.66 198.29 348.65 194.04 C 348.28 191.87 345.75 191.36 344.19 190.30 C 344.75 189.48 345.30 188.65 345.87 187.82 C 344.12 181.86 342.16 175.92 341.30 169.74 C 341.04 167.16 339.59 164.88 337.81 163.07 C 331.78 163.34 326.34 167.10 322.86 171.88 M 738.39 198.62 C 737.46 199.02 737.11 199.74 737.33 200.77 C 738.77 200.84 740.21 200.82 741.66 200.70 C 740.62 200.04 739.90 197.49 738.39 198.62 M 699.99 199.16 C 699.41 200.79 699.94 201.37 701.56 200.91 C 702.12 199.28 701.60 198.70 699.99 199.16 M 694.88 207.75 C 696.17 207.50 697.49 207.28 698.76 206.87 C 699.17 204.56 696.33 205.09 694.94 204.51 C 694.91 205.59 694.89 206.67 694.88 207.75 M 768.33 223.25 C 766.73 223.15 766.37 225.86 768.11 225.87 C 769.70 226.01 770.02 223.25 768.33 223.25 M 549.63 274.75 C 547.95 275.23 546.28 275.73 544.62 276.26 C 543.24 275.87 541.71 274.39 540.28 275.37 C 539.39 276.41 538.74 277.62 538.03 278.77 C 537.63 278.09 536.84 276.72 536.45 276.04 C 535.27 276.18 534.11 276.31 532.94 276.45 C 526.93 274.29 520.44 276.73 514.23 276.17 C 509.76 275.31 505.41 277.36 500.94 276.70 C 498.42 276.34 496.02 277.30 493.68 278.04 C 493.23 277.55 492.34 276.56 491.90 276.06 C 490.74 277.32 489.63 278.62 488.54 279.95 C 483.54 277.77 478.10 279.31 472.86 279.27 C 469.86 279.56 467.02 278.10 464.02 278.33 C 460.20 278.34 456.48 280.05 452.68 278.85 C 452.14 279.04 451.07 279.41 450.54 279.60 C 442.57 279.82 434.67 281.12 426.69 280.88 C 426.43 281.25 425.90 282.00 425.64 282.38 C 421.96 281.27 418.12 281.92 414.83 283.78 C 412.42 285.38 410.21 282.78 407.92 282.16 C 400.78 285.18 392.57 282.38 385.65 286.37 C 382.29 285.80 378.88 286.08 375.60 286.97 C 374.87 286.65 374.15 286.33 373.42 286.02 C 373.05 286.35 372.31 287.01 371.94 287.34 C 368.95 287.64 365.99 288.16 363.06 288.76 C 358.66 289.88 353.73 287.44 349.83 290.52 C 344.91 289.43 339.83 289.99 334.91 290.74 C 329.87 291.45 325.40 294.35 320.27 294.62 C 319.57 294.97 318.87 295.32 318.18 295.68 C 317.24 295.42 316.30 295.17 315.37 294.92 C 306.21 297.65 296.29 296.32 287.16 299.15 C 285.08 298.95 283.01 298.84 280.93 298.80 C 280.34 299.58 279.74 300.36 279.15 301.14 C 274.53 300.12 269.63 301.10 265.50 303.33 C 264.86 303.21 263.56 302.96 262.92 302.83 C 262.41 303.17 261.40 303.85 260.89 304.18 C 257.52 303.86 254.12 303.61 250.75 304.14 C 250.39 305.20 250.04 306.28 249.68 307.35 C 246.27 305.07 242.48 306.49 239.18 308.11 C 238.62 307.87 237.51 307.40 236.95 307.16 C 232.17 310.08 226.39 308.82 221.16 310.08 C 217.25 311.09 212.80 310.15 209.25 312.27 C 209.13 315.43 211.63 319.08 215.03 319.15 C 221.67 319.61 228.35 319.27 235.00 319.17 C 239.37 319.40 243.59 317.90 247.97 318.02 C 255.65 318.22 263.15 316.44 270.76 315.74 C 271.48 315.28 272.22 314.82 272.95 314.37 C 276.30 314.23 279.62 314.75 282.97 314.81 C 285.16 314.69 285.92 312.16 287.12 310.74 C 290.62 311.48 294.12 313.34 297.77 312.46 C 301.85 311.51 306.08 311.29 310.10 310.01 C 313.69 309.64 317.37 309.91 320.90 308.96 C 326.17 307.46 331.71 307.67 337.10 308.16 C 344.88 304.38 353.67 305.74 361.98 304.51 C 369.10 304.27 375.96 302.02 383.09 301.94 C 387.33 301.91 391.47 300.45 395.72 300.77 C 401.87 302.07 407.80 298.69 413.98 299.07 C 419.31 299.53 424.56 298.30 429.89 298.44 C 435.94 298.51 441.94 296.84 448.00 297.82 C 452.74 297.63 457.63 297.37 462.17 295.86 C 466.63 295.55 471.56 297.93 475.44 294.84 C 480.42 294.81 485.64 295.95 490.32 293.67 C 490.93 293.88 492.16 294.32 492.77 294.53 C 500.26 293.60 508.44 296.98 515.32 292.61 C 521.46 293.89 527.75 293.48 533.97 293.13 C 538.04 293.22 542.16 293.47 546.16 292.43 C 552.08 292.93 558.33 293.37 564.10 291.63 C 568.38 293.61 573.16 292.58 577.27 290.69 C 581.23 293.49 586.93 293.39 590.96 290.74 C 592.67 290.77 594.41 290.72 596.13 290.59 C 596.47 290.81 597.16 291.25 597.50 291.47 C 598.94 291.19 600.38 290.92 601.83 290.67 C 602.58 290.01 603.34 289.36 604.10 288.71 C 604.71 289.73 605.32 290.74 605.94 291.76 C 609.94 291.33 613.97 291.02 617.96 291.70 C 620.12 292.29 621.96 291.02 623.65 289.88 C 624.01 290.22 624.74 290.90 625.10 291.24 C 627.10 290.55 629.14 290.90 631.14 291.43 C 631.33 290.91 631.70 289.86 631.89 289.33 C 633.28 289.34 634.69 289.34 636.09 289.33 C 636.40 290.42 636.72 291.52 637.05 292.62 C 637.98 292.48 639.85 292.20 640.79 292.06 C 639.66 290.88 638.55 289.69 637.44 288.51 C 638.61 288.52 639.87 288.23 641.00 288.69 C 641.85 289.88 642.65 291.10 643.42 292.36 C 645.14 291.34 646.70 290.08 648.07 288.61 C 648.43 289.73 648.84 290.85 649.25 291.97 C 651.39 291.23 653.58 290.64 655.84 290.33 C 656.72 290.96 657.61 291.59 658.50 292.22 C 662.51 289.27 668.57 293.07 671.48 288.32 C 673.20 290.65 675.85 292.16 678.80 292.05 C 679.69 290.36 680.33 288.55 681.18 286.84 C 682.04 288.54 682.46 290.38 682.11 292.27 C 684.54 290.77 687.22 289.74 690.08 289.41 C 690.43 288.82 690.80 288.24 691.17 287.66 C 692.88 288.39 694.62 289.10 696.38 289.76 C 696.49 290.91 696.65 292.06 696.85 293.20 C 703.76 293.74 710.14 287.23 716.87 290.78 C 719.44 288.09 722.97 290.00 726.13 289.32 C 730.27 289.02 734.40 290.05 738.19 291.67 C 738.04 290.73 737.73 288.83 737.57 287.89 C 738.94 288.65 740.32 289.42 741.71 290.19 C 746.33 287.87 752.96 286.61 756.26 291.72 C 756.09 291.13 755.75 289.94 755.59 289.35 C 758.08 289.29 760.55 288.83 763.05 288.69 C 765.69 288.71 769.08 290.97 770.90 287.97 C 772.62 287.87 774.36 287.76 776.10 287.59 C 776.38 283.59 772.65 281.95 769.27 281.67 C 768.90 281.29 768.18 280.53 767.81 280.14 C 766.92 280.48 766.03 280.82 765.16 281.15 C 763.61 280.75 761.93 279.47 760.35 280.44 C 759.21 281.20 758.26 282.21 757.26 283.13 C 754.59 282.42 751.99 281.46 749.84 279.69 C 748.78 280.27 747.74 280.86 746.71 281.46 C 745.92 280.80 745.14 280.16 744.36 279.52 C 743.55 279.63 741.93 279.86 741.12 279.98 C 740.43 279.08 739.74 278.19 739.07 277.30 C 738.16 277.92 737.26 278.55 736.37 279.18 C 735.66 278.40 734.95 277.63 734.25 276.86 C 730.93 278.38 727.43 278.11 724.08 276.89 C 718.61 277.03 713.04 277.98 707.70 276.23 C 704.58 276.86 701.47 277.77 698.28 277.76 C 692.87 276.72 687.48 275.25 681.91 275.37 C 674.25 275.44 666.58 273.95 658.96 275.13 C 656.26 274.70 653.53 274.19 650.82 274.77 C 645.55 275.75 640.35 273.58 635.09 274.48 C 628.66 274.15 622.30 276.48 615.94 274.82 C 611.75 273.78 607.46 274.35 603.21 274.36 C 598.22 275.66 593.22 272.10 588.37 274.56 C 579.57 273.31 570.71 275.27 561.86 274.82 C 561.36 275.11 560.36 275.67 559.87 275.95 C 559.08 275.21 558.29 274.46 557.51 273.72 C 554.99 275.05 552.34 276.77 549.63 274.75 M 791.27 282.25 C 789.92 283.27 791.52 285.82 792.99 284.76 C 794.26 283.71 792.74 281.14 791.27 282.25 M 693.36 290.95 C 692.83 292.57 693.39 293.13 695.03 292.65 C 695.55 291.03 694.99 290.47 693.36 290.95 M 581.71 352.46 C 582.85 374.06 583.98 395.67 585.11 417.28 C 587.42 417.16 589.73 417.04 592.06 416.92 C 591.66 408.28 591.05 399.64 590.76 390.99 C 590.72 386.26 591.52 380.61 595.85 377.83 C 599.69 375.51 604.61 374.98 608.92 376.19 C 613.02 377.42 614.64 381.99 614.77 385.89 C 615.35 395.81 615.80 405.73 616.34 415.65 C 618.65 415.52 620.97 415.40 623.29 415.28 C 622.73 405.14 622.28 394.99 621.67 384.86 C 621.40 379.73 619.56 373.95 614.62 371.54 C 606.28 367.72 594.81 369.53 589.71 377.71 C 589.82 369.16 589.00 360.63 588.66 352.09 C 586.34 352.21 584.02 352.33 581.71 352.46 M 476.04 357.99 C 477.18 379.60 478.30 401.21 479.44 422.82 C 481.75 422.69 484.07 422.57 486.39 422.46 C 485.26 400.85 484.12 379.24 482.99 357.63 C 480.67 357.75 478.35 357.87 476.04 357.99 M 456.05 359.04 C 457.18 380.65 458.31 402.26 459.44 423.87 C 461.76 423.75 464.07 423.62 466.39 423.51 C 465.26 401.90 464.13 380.29 462.99 358.68 C 460.67 358.80 458.36 358.92 456.05 359.04 M 438.31 362.37 C 435.39 363.31 435.26 367.19 436.45 369.52 C 438.15 372.63 443.64 371.56 443.91 367.96 C 444.90 364.64 441.76 360.91 438.31 362.37 M 412.42 392.17 C 409.92 400.78 407.01 409.31 405.50 418.18 C 404.10 413.49 402.49 408.88 400.59 404.37 C 395.37 391.81 390.15 379.25 384.94 366.69 C 382.42 366.82 379.91 366.95 377.40 367.09 C 385.74 387.01 394.09 406.93 402.42 426.85 C 404.76 426.73 407.10 426.61 409.45 426.49 C 415.71 405.81 421.96 385.12 428.21 364.43 C 425.66 364.56 423.11 364.69 420.56 364.82 C 417.84 373.93 415.13 383.05 412.42 392.17 M 548.68 376.70 C 542.40 382.20 541.27 391.28 542.14 399.14 C 542.71 406.05 545.77 413.35 552.10 416.83 C 559.30 420.67 568.15 419.61 575.40 416.46 C 575.30 414.37 575.19 412.28 575.10 410.19 C 569.27 412.50 562.34 414.74 556.35 411.76 C 550.87 408.71 549.38 401.87 549.13 396.09 C 548.90 390.56 549.62 383.99 554.44 380.45 C 559.62 376.80 566.35 377.99 572.07 379.54 C 572.67 377.50 573.26 375.47 573.86 373.43 C 565.60 371.02 555.55 370.76 548.68 376.70 M 498.83 379.06 C 499.63 380.81 500.43 382.56 501.23 384.32 C 506.87 381.61 513.55 378.60 519.79 381.15 C 524.14 383.32 524.12 388.80 524.51 392.98 C 516.36 393.81 507.49 393.63 500.43 398.39 C 493.74 402.78 493.73 413.48 499.31 418.75 C 503.90 422.77 510.65 422.57 516.23 421.13 C 520.31 420.11 523.16 416.83 525.78 413.77 C 526.32 415.95 526.88 418.13 527.45 420.31 C 529.17 420.21 530.89 420.12 532.62 420.03 C 532.02 409.33 531.57 398.63 530.91 387.94 C 530.66 382.88 528.35 377.27 523.17 375.57 C 515.05 372.87 506.16 375.12 498.83 379.06 M 437.02 379.25 C 437.81 394.47 438.61 409.69 439.41 424.92 C 441.72 424.80 444.03 424.67 446.35 424.55 C 445.56 409.33 444.76 394.11 443.96 378.88 C 441.64 379.00 439.33 379.12 437.02 379.25 M 587.46 452.33 C 579.07 457.87 579.85 471.69 587.80 477.25 C 594.41 482.21 603.29 482.32 610.03 487.00 C 615.50 490.92 614.42 500.68 608.06 503.14 C 599.98 506.47 590.84 504.90 582.72 502.52 C 582.84 504.82 582.97 507.12 583.10 509.43 C 592.92 512.10 604.33 512.59 613.42 507.41 C 622.19 502.51 623.30 488.59 615.64 482.24 C 609.02 476.89 599.96 476.64 592.87 472.22 C 587.27 468.90 587.21 459.15 593.41 456.42 C 600.28 453.27 608.15 455.02 615.08 457.08 C 615.70 454.97 616.32 452.86 616.94 450.75 C 607.48 447.81 596.12 446.58 587.46 452.33 M 437.58 453.87 C 438.72 475.48 439.84 497.09 440.98 518.69 C 443.27 518.57 445.55 518.45 447.84 518.34 C 447.54 512.64 447.24 506.95 446.95 501.25 C 448.60 499.67 450.25 498.09 451.90 496.51 C 457.64 503.42 463.39 510.32 469.13 517.22 C 471.93 517.07 474.74 516.92 477.55 516.78 C 470.50 508.38 463.45 500.00 456.39 491.61 C 462.22 484.80 468.05 477.99 473.88 471.17 C 471.12 471.32 468.36 471.46 465.60 471.61 C 459.14 479.47 452.09 486.86 446.29 495.25 C 446.26 481.32 445.01 467.42 444.45 453.51 C 442.15 453.62 439.87 453.74 437.58 453.87 M 681.16 465.13 C 675.54 471.80 675.06 481.28 676.66 489.50 C 678.04 496.76 683.40 503.34 690.70 505.21 C 698.37 507.11 706.56 505.66 713.66 502.39 C 713.56 500.31 713.46 498.24 713.38 496.18 C 706.55 499.01 698.55 501.58 691.33 498.68 C 685.70 496.32 683.75 489.97 683.02 484.42 C 693.56 483.77 704.11 483.31 714.65 482.72 C 714.37 478.54 714.32 474.25 712.79 470.31 C 710.94 465.27 706.83 460.97 701.60 459.48 C 694.48 457.54 685.97 459.23 681.16 465.13 M 633.34 468.47 C 628.39 475.11 628.01 484.03 629.52 491.89 C 630.85 498.91 635.85 505.35 642.82 507.45 C 650.67 509.73 659.20 508.21 666.53 504.88 C 666.44 502.80 666.33 500.73 666.25 498.66 C 659.34 501.51 651.25 504.10 643.98 501.05 C 638.46 498.60 636.66 492.33 635.87 486.86 C 646.42 486.29 656.98 485.75 667.53 485.19 C 667.27 479.26 666.87 472.85 663.06 467.99 C 656.20 458.45 640.07 459.14 633.34 468.47 M 305.55 464.71 C 306.62 485.02 307.68 505.32 308.75 525.63 C 311.11 525.50 313.48 525.37 315.86 525.25 C 315.40 516.58 314.95 507.90 314.49 499.23 C 322.90 498.79 331.32 498.35 339.73 497.90 C 339.62 495.79 339.51 493.68 339.40 491.59 C 330.99 492.02 322.57 492.47 314.16 492.91 C 313.78 485.49 313.39 478.08 313.00 470.66 C 321.95 470.19 330.90 469.72 339.86 469.26 C 339.74 467.14 339.63 465.04 339.53 462.93 C 328.20 463.52 316.88 464.12 305.55 464.71 M 541.33 468.28 C 537.92 470.14 535.77 473.48 533.72 476.65 C 533.31 473.79 532.89 470.95 532.48 468.10 C 530.56 468.20 528.65 468.30 526.74 468.41 C 527.54 483.63 528.33 498.85 529.13 514.07 C 531.44 513.95 533.76 513.83 536.08 513.71 C 535.69 506.11 535.29 498.50 534.86 490.90 C 534.24 485.23 535.85 479.02 540.52 475.41 C 543.80 472.53 548.36 472.72 552.44 472.94 C 552.64 470.80 552.84 468.66 553.05 466.54 C 549.10 466.40 544.84 466.14 541.33 468.28 M 483.29 476.35 C 478.30 483.03 477.97 492.03 479.52 499.93 C 480.89 506.87 485.84 513.19 492.72 515.30 C 500.59 517.60 509.12 516.08 516.48 512.76 C 516.39 510.67 516.29 508.58 516.20 506.50 C 509.35 509.37 501.32 511.92 494.08 508.98 C 488.48 506.58 486.60 500.23 485.82 494.72 C 496.37 494.15 506.93 493.62 517.48 493.05 C 517.22 487.16 516.83 480.82 513.09 475.96 C 506.28 466.32 490.03 466.96 483.29 476.35 M 394.35 478.38 C 395.13 480.14 395.93 481.90 396.73 483.66 C 402.41 480.92 409.18 477.88 415.44 480.56 C 419.65 482.81 419.62 488.18 420.01 492.32 C 412.03 493.12 403.42 492.98 396.40 497.40 C 389.09 501.73 389.03 513.41 395.38 518.57 C 400.06 522.13 406.50 521.85 411.91 520.41 C 415.91 519.37 418.70 516.12 421.24 513.07 C 421.80 515.26 422.37 517.45 422.95 519.64 C 424.67 519.54 426.39 519.45 428.12 519.37 C 427.59 509.22 427.06 499.08 426.53 488.93 C 426.30 484.86 425.61 480.41 422.61 477.39 C 419.60 474.41 415.12 473.72 411.05 473.74 C 405.16 473.72 399.50 475.68 394.35 478.38 M 348.38 480.81 C 349.18 482.56 349.98 484.31 350.79 486.06 C 356.37 483.36 362.92 480.45 369.12 482.79 C 373.65 484.85 373.68 490.47 374.09 494.71 C 365.95 495.57 357.07 495.36 350.01 500.11 C 343.38 504.44 343.27 514.95 348.65 520.30 C 353.25 524.53 360.20 524.36 365.89 522.84 C 369.92 521.81 372.71 518.57 375.29 515.53 C 375.86 517.70 376.44 519.87 377.02 522.04 C 378.73 521.95 380.45 521.86 382.17 521.78 C 381.68 512.18 381.15 502.57 380.68 492.97 C 380.47 488.93 380.20 484.60 377.81 481.17 C 375.66 478.01 371.78 476.59 368.10 476.28 C 361.22 475.56 354.39 477.58 348.38 480.81 M 662.40 539.58 C 657.11 540.93 651.96 544.57 650.46 550.04 C 648.94 556.11 650.61 563.36 655.80 567.22 C 662.31 572.35 671.17 572.53 678.03 576.99 C 681.05 578.85 682.23 582.60 681.87 585.99 C 681.64 590.12 678.12 593.24 674.31 594.25 C 666.66 596.31 658.56 595.06 651.10 592.78 C 651.23 595.10 651.37 597.43 651.52 599.77 C 659.07 601.95 667.18 602.16 674.87 600.55 C 680.80 599.21 686.73 595.34 688.45 589.21 C 689.99 583.53 688.95 576.63 684.24 572.70 C 677.67 567.22 668.57 566.95 661.41 562.60 C 655.72 559.35 655.52 549.53 661.74 546.73 C 668.61 543.52 676.53 545.29 683.48 547.36 C 684.09 545.24 684.72 543.13 685.34 541.02 C 677.98 538.65 669.98 537.73 662.40 539.58 M 496.26 544.65 C 497.39 566.26 498.52 587.87 499.66 609.48 C 501.97 609.36 504.28 609.23 506.61 609.11 C 506.21 600.39 505.57 591.68 505.32 582.96 C 505.30 578.37 506.08 572.99 510.15 570.19 C 514.09 567.68 519.25 567.12 523.70 568.47 C 527.45 569.73 529.05 573.86 529.27 577.52 C 529.90 587.62 530.32 597.74 530.89 607.85 C 533.20 607.72 535.52 607.60 537.84 607.48 C 537.38 598.64 536.90 589.81 536.47 580.98 C 536.28 574.94 535.65 567.56 529.89 564.14 C 521.49 559.73 509.48 561.55 504.23 569.95 C 504.41 561.38 503.53 552.84 503.21 544.29 C 500.89 544.40 498.57 544.52 496.26 544.65 M 748.67 556.53 C 743.96 563.01 743.59 571.60 744.94 579.23 C 746.17 586.33 751.04 592.94 758.05 595.16 C 765.95 597.57 774.58 596.06 781.98 592.72 C 781.93 590.62 781.86 588.53 781.81 586.45 C 774.85 589.31 766.63 591.97 759.34 588.78 C 753.93 586.27 752.15 580.09 751.42 574.67 C 761.96 574.08 772.51 573.56 783.05 572.99 C 782.80 566.95 782.34 560.40 778.35 555.51 C 771.31 546.16 755.22 547.07 748.67 556.53 M 393.28 552.38 C 388.66 553.59 389.96 562.20 394.98 561.44 C 400.98 561.09 399.24 550.28 393.28 552.38 M 701.74 558.74 C 696.78 565.37 696.40 574.31 697.92 582.17 C 699.25 589.21 704.27 595.67 711.28 597.74 C 719.12 599.98 727.65 598.50 734.94 595.12 C 734.83 593.05 734.73 590.98 734.64 588.92 C 727.78 591.77 719.79 594.32 712.54 591.40 C 706.95 589.02 705.02 582.69 704.29 577.18 C 714.83 576.51 725.38 576.06 735.92 575.46 C 735.66 569.61 735.28 563.30 731.58 558.45 C 724.82 548.74 708.51 549.34 701.74 558.74 M 610.32 558.23 C 606.60 560.05 604.23 563.59 602.08 566.97 C 601.71 564.10 601.29 561.24 600.88 558.38 C 598.96 558.47 597.04 558.57 595.13 558.68 C 595.93 573.90 596.73 589.13 597.53 604.35 C 599.84 604.23 602.15 604.10 604.47 603.99 C 604.08 595.66 603.53 587.34 603.20 579.01 C 602.83 573.12 605.81 566.88 611.23 564.24 C 614.21 562.72 617.64 563.16 620.85 563.29 C 621.03 561.11 621.23 558.95 621.42 556.79 C 617.70 556.73 613.72 556.40 610.32 558.23 M 268.45 559.70 C 263.42 560.39 258.42 562.20 254.54 565.55 C 248.58 570.55 245.82 578.39 245.42 585.98 C 245.01 594.58 246.07 603.71 250.83 611.10 C 254.55 616.97 260.98 620.91 267.86 621.77 C 276.62 622.95 286.45 621.42 293.03 615.08 C 299.50 608.95 301.78 599.66 301.51 591.00 C 301.38 581.70 298.81 571.68 291.53 565.37 C 285.33 559.80 276.45 558.54 268.45 559.70 M 551.26 567.21 C 546.67 573.87 546.39 582.56 547.92 590.25 C 549.29 597.17 554.24 603.47 561.10 605.56 C 568.98 607.86 577.55 606.38 584.89 602.99 C 584.79 600.91 584.68 598.84 584.59 596.78 C 577.79 599.63 569.90 602.12 562.68 599.35 C 556.97 597.02 554.94 590.60 554.26 584.99 C 564.80 584.43 575.34 583.89 585.88 583.33 C 585.64 577.28 585.16 570.73 581.18 565.84 C 574.05 556.38 557.66 557.45 551.26 567.21 M 463.54 568.62 C 457.13 573.97 455.84 583.04 456.65 590.91 C 457.16 597.80 460.01 605.15 466.24 608.79 C 473.44 612.93 482.50 611.84 489.88 608.72 C 489.83 606.60 489.76 604.49 489.70 602.39 C 483.87 604.66 477.03 606.91 471.02 604.03 C 465.34 600.93 463.87 593.85 463.66 587.92 C 463.47 582.36 464.35 575.70 469.39 572.38 C 474.56 569.03 481.05 570.26 486.65 571.73 C 487.23 569.69 487.83 567.66 488.42 565.64 C 480.26 563.25 470.45 562.97 463.54 568.62 M 413.39 571.27 C 414.18 573.01 414.98 574.77 415.79 576.52 C 421.50 573.75 428.37 570.69 434.63 573.50 C 438.72 575.81 438.64 581.10 439.09 585.18 C 431.98 585.87 424.57 585.88 417.94 588.88 C 414.18 590.52 410.82 593.73 410.11 597.92 C 409.28 602.75 410.45 608.44 414.56 611.52 C 419.13 614.93 425.36 614.68 430.64 613.37 C 434.76 612.38 437.66 609.09 440.29 605.99 C 440.86 608.16 441.43 610.33 442.01 612.51 C 443.73 612.41 445.44 612.31 447.17 612.23 C 446.57 601.45 446.11 590.66 445.43 579.88 C 445.14 575.02 442.94 569.66 438.03 567.89 C 429.85 565.00 420.79 567.26 413.39 571.27 M 391.74 569.34 C 392.52 584.56 393.33 599.79 394.13 615.01 C 396.44 614.89 398.75 614.76 401.07 614.65 C 400.27 599.42 399.47 584.20 398.68 568.97 C 396.36 569.09 394.05 569.21 391.74 569.34 M 355.15 573.18 C 349.09 576.79 348.66 586.57 354.39 590.68 C 360.03 594.77 367.28 595.42 373.33 598.72 C 375.34 599.75 377.20 601.60 377.24 604.02 C 377.59 607.07 375.20 609.62 372.43 610.46 C 365.67 612.73 358.37 611.23 351.85 608.86 C 351.96 611.01 352.07 613.16 352.18 615.32 C 358.51 617.69 365.49 617.90 372.06 616.57 C 376.45 615.61 381.01 613.28 382.91 608.98 C 384.85 604.39 384.14 598.27 380.00 595.10 C 373.96 590.49 365.89 590.21 359.50 586.30 C 356.25 584.51 356.02 579.23 359.41 577.47 C 365.56 574.21 372.87 575.86 379.19 577.77 C 379.91 575.83 380.63 573.89 381.36 571.96 C 372.94 569.32 362.95 568.28 355.15 573.18 M 314.55 575.55 C 308.76 579.32 308.58 588.91 314.26 592.86 C 319.88 596.89 327.08 597.55 333.08 600.83 C 335.05 601.84 336.90 603.61 337.00 605.96 C 337.39 608.87 335.28 611.50 332.62 612.40 C 325.77 614.92 318.24 613.40 311.61 610.95 C 311.72 613.11 311.84 615.27 311.95 617.45 C 318.19 619.75 325.05 619.99 331.55 618.74 C 335.91 617.82 340.47 615.63 342.52 611.44 C 344.65 606.80 344.01 600.44 339.75 597.20 C 333.58 592.47 325.23 592.34 318.84 588.09 C 315.79 586.04 316.08 580.91 319.49 579.39 C 325.62 576.41 332.74 577.99 338.96 579.88 C 339.67 577.93 340.40 575.99 341.12 574.05 C 332.57 571.41 322.35 570.34 314.55 575.55 Z" />
<path fill="#ffffff" opacity="1.00" d=" M 403.16 179.20 C 404.42 180.19 405.70 181.17 407.00 182.11 C 401.76 187.55 397.74 194.08 393.54 200.36 C 392.39 199.92 391.26 199.47 390.13 199.02 C 390.24 198.47 390.47 197.38 390.59 196.83 C 390.84 194.80 391.51 192.86 392.27 190.97 C 390.84 188.89 389.20 186.97 387.54 185.08 C 388.75 183.91 389.98 182.76 391.26 181.66 C 392.14 182.69 393.02 183.73 393.91 184.77 C 397.24 183.35 400.73 182.02 403.16 179.20 Z" />
<path fill="#ffffff" opacity="1.00" d=" M 321.75 200.06 C 323.18 198.18 324.54 195.23 327.43 196.13 C 327.81 197.43 328.15 198.75 328.43 200.09 C 329.33 200.57 330.23 201.06 331.14 201.55 C 330.27 202.38 329.41 203.21 328.55 204.04 C 329.77 205.62 331.44 206.91 332.28 208.75 C 333.30 211.98 333.35 215.41 333.78 218.76 C 332.35 219.57 330.94 220.41 329.52 221.25 C 329.39 220.36 329.14 218.59 329.02 217.70 C 326.00 217.86 321.85 220.19 320.20 216.41 C 318.10 216.06 316.04 215.51 314.10 214.64 C 316.21 210.26 318.72 206.06 321.76 202.27 C 321.76 201.71 321.76 200.61 321.75 200.06 Z" />
<path fill="#ffffff" opacity="1.00" d=" M 506.41 401.46 C 511.94 398.44 518.47 398.66 524.57 397.97 C 524.69 402.22 525.26 406.92 522.73 410.65 C 519.47 415.55 512.71 417.16 507.25 415.71 C 501.23 413.81 501.04 404.26 506.41 401.46 Z" />
<path fill="#ffffff" opacity="1.00" d=" M 688.00 467.03 C 692.52 463.58 700.05 463.49 703.84 468.10 C 706.01 470.70 706.43 474.19 707.06 477.41 C 698.98 477.89 690.90 478.33 682.82 478.68 C 683.48 474.47 684.41 469.78 688.00 467.03 Z" />
<path fill="#ffffff" opacity="1.00" d=" M 640.66 469.68 C 645.10 466.08 652.66 465.89 656.56 470.39 C 658.85 473.00 659.31 476.57 659.93 479.85 C 651.87 480.41 643.80 480.74 635.73 481.18 C 636.33 477.04 637.22 472.46 640.66 469.68 Z" />
<path fill="#ffffff" opacity="1.00" d=" M 490.56 477.59 C 495.04 473.91 502.76 473.73 506.64 478.40 C 508.86 480.99 509.23 484.51 509.89 487.73 C 501.83 488.26 493.76 488.61 485.70 489.05 C 486.27 484.92 487.17 480.38 490.56 477.59 Z" />
<path fill="#ffffff" opacity="1.00" d=" M 401.80 500.87 C 407.34 497.76 413.93 498.03 420.06 497.29 C 420.20 501.59 420.75 506.39 418.13 510.13 C 414.89 514.84 408.42 516.39 403.07 515.14 C 396.84 513.53 396.41 503.79 401.80 500.87 Z" />
<path fill="#ffffff" opacity="1.00" d=" M 356.13 503.11 C 361.63 500.19 368.09 500.43 374.12 499.69 C 374.21 503.66 374.78 507.97 372.75 511.60 C 369.78 517.07 362.56 519.00 356.84 517.46 C 350.71 515.56 350.60 505.82 356.13 503.11 Z" />
<path fill="#ffffff" opacity="1.00" d=" M 754.01 559.93 C 757.33 554.65 765.26 553.27 770.37 556.65 C 773.99 559.09 774.78 563.70 775.46 567.69 C 767.39 568.15 759.32 568.63 751.25 568.93 C 751.79 565.84 752.21 562.59 754.01 559.93 Z" />
<path fill="#ffffff" opacity="1.00" d=" M 706.70 562.70 C 709.99 557.08 718.40 555.58 723.59 559.37 C 726.95 561.90 727.67 566.31 728.33 570.19 C 720.25 570.60 712.18 571.09 704.10 571.42 C 704.68 568.45 705.03 565.30 706.70 562.70 Z" />
<path fill="#ffffff" opacity="1.00" d=" M 557.08 569.93 C 560.47 564.98 568.01 563.72 573.02 566.85 C 576.77 569.27 577.64 573.97 578.27 578.06 C 570.20 578.47 562.13 578.94 554.06 579.29 C 554.68 576.08 555.07 572.64 557.08 569.93 Z" />
<path fill="#ffffff" opacity="1.00" d=" M 266.41 566.68 C 272.97 564.95 280.76 565.18 286.17 569.72 C 291.69 574.44 293.41 582.01 293.86 588.95 C 294.30 596.12 293.70 604.11 288.82 609.81 C 283.99 615.39 275.87 616.62 268.92 615.52 C 262.83 614.59 257.71 610.07 255.51 604.39 C 252.67 597.15 252.26 589.04 253.58 581.42 C 254.77 574.65 259.58 568.40 266.41 566.68 Z" />
<path fill="#ffffff" opacity="1.00" d=" M 420.73 593.80 C 426.29 590.62 432.94 590.91 439.11 590.15 C 439.24 594.26 439.78 598.77 437.52 602.45 C 434.43 607.59 427.57 609.35 422.01 607.97 C 415.92 606.28 415.51 596.77 420.73 593.80 Z" />
</g>
<g id="#0077c1ff">
<path fill="#0077c1" opacity="1.00" d=" M 331.93 84.01 C 333.01 81.54 335.98 78.90 338.73 80.68 C 338.17 83.05 336.51 85.31 337.41 87.83 C 338.26 90.91 337.80 95.03 341.00 96.84 C 344.46 99.05 347.03 102.44 348.82 106.09 C 348.98 107.71 348.48 109.30 348.32 110.90 C 347.67 114.97 349.29 119.00 348.77 123.07 C 348.50 125.43 346.88 127.29 345.54 129.14 C 345.52 131.41 345.30 133.72 345.79 135.96 C 346.85 137.29 348.16 138.40 349.37 139.59 C 350.56 140.00 351.76 140.41 352.97 140.83 C 352.56 142.78 352.03 144.70 351.18 146.50 C 350.41 148.94 349.54 151.35 348.73 153.78 C 344.93 151.75 340.97 149.01 339.44 144.81 C 339.14 140.68 337.93 136.68 335.66 133.20 C 333.92 132.38 332.57 134.10 331.15 134.82 C 331.28 135.68 331.54 137.39 331.67 138.25 C 330.81 139.14 329.95 140.04 329.10 140.94 C 328.86 143.75 327.16 146.02 324.34 146.63 C 323.49 143.47 323.39 140.20 322.81 137.00 C 322.38 134.20 320.03 131.98 320.23 129.04 C 320.63 117.37 326.06 106.81 330.23 96.15 C 331.34 92.20 330.43 87.89 331.93 84.01 Z" />
<path fill="#0077c1" opacity="1.00" d=" M 755.30 81.36 C 758.23 80.14 761.48 81.26 764.55 81.31 C 765.57 82.75 766.63 84.17 767.74 85.56 C 769.51 89.02 772.94 91.52 773.69 95.50 C 774.41 98.90 776.13 101.93 777.19 105.21 C 778.59 107.53 779.96 110.03 779.83 112.82 C 779.77 115.97 781.45 118.74 782.03 121.77 C 780.86 122.95 779.52 123.93 778.26 124.98 C 780.44 126.43 783.83 127.77 783.56 130.97 C 783.47 135.33 785.02 139.81 783.44 144.05 C 785.68 146.96 785.47 150.61 784.61 153.99 C 784.93 154.47 785.57 155.45 785.89 155.93 C 783.67 161.77 784.90 168.03 784.99 174.08 C 785.37 176.55 783.09 177.97 781.72 179.61 C 782.41 180.05 783.79 180.93 784.48 181.37 C 784.21 184.11 783.68 186.87 781.97 189.11 C 781.66 195.02 778.30 200.07 777.55 205.84 C 772.38 210.12 776.58 218.68 770.49 222.16 C 767.68 222.09 764.88 222.29 762.08 222.22 C 761.02 222.49 759.96 222.73 758.90 222.92 C 756.38 221.09 754.17 218.88 752.03 216.64 C 751.48 216.51 750.38 216.24 749.83 216.11 C 749.76 215.44 749.61 214.09 749.54 213.41 C 746.36 212.30 742.16 212.32 740.19 209.16 C 740.52 207.46 742.50 207.14 743.71 206.23 C 744.95 206.93 746.21 207.62 747.49 208.30 C 746.20 204.63 744.67 200.84 742.15 197.86 C 740.08 195.39 737.30 197.51 735.12 198.57 C 736.50 202.62 735.78 206.85 734.08 210.68 C 733.08 214.63 732.21 219.61 727.65 220.91 C 728.59 221.80 729.55 222.71 730.50 223.63 C 726.90 223.97 723.30 223.52 719.71 223.80 C 720.70 224.38 722.68 225.53 723.67 226.10 C 721.60 228.25 719.19 227.70 717.03 226.14 C 715.66 226.17 714.29 226.20 712.94 226.21 C 712.36 227.36 711.78 228.51 711.21 229.65 C 708.28 227.19 708.95 223.04 709.90 219.77 C 710.44 217.35 712.70 215.62 712.82 213.09 C 713.09 207.68 714.26 202.25 716.43 197.28 C 716.25 193.32 715.85 189.33 716.46 185.38 C 718.47 184.40 720.39 183.22 722.24 181.94 C 722.75 177.27 722.63 172.24 725.14 168.08 C 726.58 165.74 727.89 163.33 729.23 160.93 C 727.67 158.12 725.51 155.34 725.45 152.00 C 726.33 146.37 731.40 143.14 735.35 139.66 C 738.11 141.48 740.63 143.89 741.62 147.15 C 745.07 154.59 745.22 163.24 749.64 170.28 C 752.40 174.66 755.06 179.13 757.18 183.87 C 758.46 187.54 762.02 189.45 764.72 191.96 C 764.01 188.22 763.22 184.31 764.33 180.57 C 764.81 178.39 766.02 176.30 765.70 174.01 C 764.82 166.69 764.98 159.30 763.97 152.00 C 763.38 148.52 765.15 145.33 765.87 142.03 C 765.34 139.06 763.47 136.49 762.96 133.49 C 764.54 132.29 766.14 131.13 767.78 129.99 C 766.23 127.50 763.18 126.88 761.23 124.88 C 760.90 121.66 760.84 118.36 758.82 115.65 C 759.35 115.17 760.42 114.22 760.96 113.74 C 760.39 111.39 759.79 109.06 759.02 106.78 C 759.17 106.13 759.47 104.85 759.62 104.21 C 758.16 101.41 757.63 98.25 757.79 95.12 C 759.12 93.57 760.58 92.14 761.90 90.58 C 762.55 91.18 763.84 92.37 764.48 92.97 C 764.68 89.82 762.65 88.21 759.87 87.56 C 759.38 88.40 758.42 90.10 757.94 90.94 C 757.03 87.76 756.19 84.55 755.30 81.36 Z" />
<path fill="#0077c1" opacity="1.00" d=" M 352.22 146.18 C 353.22 145.85 354.23 145.58 355.27 145.38 C 355.47 146.03 355.86 147.35 356.06 148.00 C 354.76 147.43 353.49 146.81 352.22 146.18 Z" />
<path fill="#0077c1" opacity="1.00" d=" M 652.83 151.33 C 657.62 151.28 662.34 150.20 667.13 150.32 C 668.81 150.27 670.49 150.43 672.06 151.13 C 676.00 151.00 679.77 152.20 683.54 153.21 C 687.11 150.99 691.58 152.00 693.88 155.51 C 694.31 155.75 695.18 156.22 695.62 156.46 C 696.24 158.40 696.92 160.34 697.70 162.24 C 697.33 163.01 696.97 163.78 696.62 164.56 C 697.19 165.72 697.75 166.89 698.30 168.07 C 695.57 168.44 692.82 168.61 690.10 168.96 C 688.25 169.74 686.56 170.84 684.80 171.78 C 684.29 171.24 683.27 170.17 682.76 169.63 C 680.48 169.65 678.20 169.72 675.93 169.93 C 674.06 172.59 670.84 173.86 667.96 171.89 C 665.27 171.80 662.59 171.74 659.91 171.59 C 659.47 172.05 658.57 172.97 658.13 173.42 C 657.44 173.42 656.06 173.42 655.37 173.42 C 654.96 173.80 654.14 174.55 653.73 174.93 C 651.08 174.86 648.43 174.71 645.79 174.76 C 644.23 175.54 642.99 176.81 641.69 177.94 C 641.32 181.53 640.46 185.05 639.84 188.61 C 643.37 186.49 646.75 183.91 651.00 183.52 C 652.08 184.18 653.16 184.84 654.25 185.50 C 654.92 185.44 656.24 185.32 656.91 185.26 C 657.51 185.85 658.12 186.44 658.74 187.04 C 659.43 186.35 660.12 185.67 660.83 184.99 C 663.85 185.63 666.90 186.15 669.95 186.74 C 673.10 188.65 676.84 189.17 680.47 189.36 C 681.66 190.77 682.87 192.56 684.88 192.79 C 686.80 192.79 688.68 192.31 690.60 192.32 C 691.88 195.30 693.00 198.37 694.74 201.14 C 693.46 202.99 692.88 205.76 690.50 206.51 C 688.52 207.50 686.29 207.28 684.17 207.15 C 681.62 207.68 679.16 207.41 677.38 205.37 C 676.42 206.77 675.97 209.00 674.02 209.34 C 668.22 208.48 662.92 205.24 656.93 205.46 C 654.53 205.00 652.65 207.51 650.31 206.96 C 646.43 205.96 642.38 206.39 638.51 205.46 C 637.48 208.57 636.01 211.60 635.63 214.89 C 636.41 217.75 637.01 220.78 638.48 223.38 C 641.90 224.89 645.33 226.39 648.51 228.41 C 655.99 230.09 663.56 226.34 671.13 227.66 C 673.05 227.93 674.12 225.83 675.49 224.86 C 677.74 224.99 679.98 225.34 682.24 225.43 C 684.48 224.96 686.64 224.07 688.97 223.94 C 688.05 225.35 687.15 226.75 686.21 228.14 C 686.58 229.64 687.07 231.15 687.04 232.72 C 685.52 232.77 684.01 232.77 682.50 232.71 C 680.28 237.55 675.96 240.69 672.31 244.35 C 670.01 244.04 668.00 244.63 666.93 246.79 C 663.64 245.98 660.72 247.51 658.88 250.21 C 656.99 250.43 655.12 250.71 653.26 251.00 C 652.09 250.09 650.99 249.08 649.67 248.42 C 646.30 247.07 642.19 250.52 639.15 247.93 C 638.38 246.65 637.96 245.19 637.41 243.83 C 636.29 243.84 635.18 243.85 634.08 243.87 C 632.65 241.59 631.07 239.20 628.09 239.10 C 626.65 238.12 625.19 237.19 623.70 236.32 C 622.79 234.48 621.47 232.91 619.96 231.54 C 618.56 227.15 615.54 222.94 616.25 218.15 C 618.18 212.13 617.32 205.50 620.51 199.83 C 620.17 199.13 619.48 197.73 619.13 197.03 C 622.09 189.34 625.81 182.01 629.61 174.71 C 628.06 174.62 626.53 174.47 625.02 174.27 C 623.38 171.38 624.18 167.91 626.41 165.59 C 629.39 162.51 631.70 158.30 636.07 157.02 C 641.65 155.10 646.73 151.30 652.83 151.33 Z" />
<path fill="#0077c1" opacity="1.00" d=" M 585.07 155.02 C 590.03 154.05 595.45 153.37 600.04 156.03 C 601.59 157.40 602.07 159.56 603.02 161.34 C 603.82 161.13 605.40 160.72 606.19 160.51 C 607.44 161.67 608.70 162.83 609.99 163.94 C 611.25 165.62 612.62 167.21 613.98 168.81 C 612.76 170.73 611.59 172.67 610.48 174.65 C 606.38 174.76 602.30 174.51 598.22 174.30 C 596.72 175.03 595.78 176.52 594.52 177.57 C 592.15 179.73 588.14 178.80 586.09 181.42 C 584.74 182.60 585.81 184.46 585.88 185.91 C 586.66 188.21 585.86 190.51 585.22 192.72 C 585.49 193.21 586.03 194.19 586.30 194.68 C 585.81 198.70 587.40 203.02 585.44 206.77 C 587.03 211.49 586.22 216.44 586.50 221.28 C 588.14 227.04 588.64 234.24 583.58 238.49 C 582.97 238.12 581.74 237.37 581.13 237.00 C 580.44 237.18 579.05 237.54 578.35 237.72 C 576.49 236.09 574.42 234.74 572.19 233.70 C 572.02 233.12 571.69 231.96 571.53 231.38 C 568.02 229.15 565.86 225.04 566.45 220.86 C 566.95 216.02 564.25 211.67 563.85 206.94 C 563.00 202.85 563.63 198.63 564.53 194.62 C 566.52 190.59 565.32 186.06 565.63 181.77 C 562.44 181.48 559.26 181.16 556.08 180.86 C 553.49 178.99 550.46 177.76 548.04 175.67 C 546.60 174.36 548.95 173.33 549.80 172.67 C 557.68 168.14 562.20 159.24 570.77 155.78 C 575.47 154.74 580.35 156.12 585.07 155.02 Z" />
<path fill="#0077c1" opacity="1.00" d=" M 379.92 162.79 C 383.15 161.06 385.19 155.90 389.43 157.79 C 390.44 159.08 391.50 160.34 392.57 161.59 C 395.19 160.27 397.87 157.97 401.02 158.86 C 403.48 159.76 405.54 161.44 407.82 162.71 C 409.21 162.18 410.59 161.58 412.05 161.21 C 414.40 162.02 416.42 163.99 419.09 163.52 C 422.17 163.24 424.51 165.69 427.24 166.72 C 429.41 168.96 432.95 170.38 433.06 173.96 C 435.67 177.45 432.45 181.29 433.03 185.13 C 431.70 186.93 430.15 188.81 431.07 191.20 C 429.95 192.38 428.87 193.58 427.84 194.82 C 426.02 196.28 424.48 198.04 422.81 199.65 C 421.00 200.00 419.15 200.02 417.34 200.29 C 418.12 201.74 419.03 203.12 419.85 204.55 C 417.36 204.74 414.86 204.80 412.37 204.89 C 413.29 211.67 417.80 216.93 422.35 221.67 C 421.87 222.56 421.39 223.45 420.92 224.35 C 425.28 231.13 430.05 237.63 435.07 243.94 C 437.00 246.13 438.83 248.98 442.00 249.39 C 446.20 245.20 446.23 238.42 451.04 234.77 C 450.99 237.96 451.16 241.16 451.84 244.29 C 452.70 247.87 451.41 251.51 452.00 255.12 C 451.29 257.97 450.33 260.75 449.81 263.65 C 449.39 264.05 448.55 264.84 448.13 265.24 C 447.33 267.43 446.92 269.88 445.36 271.69 C 444.53 271.61 442.87 271.44 442.04 271.35 C 439.92 272.50 437.59 273.15 435.26 273.71 C 434.88 273.22 434.13 272.25 433.75 271.76 C 430.28 272.60 425.78 272.56 423.47 269.38 C 417.46 264.90 414.37 257.82 410.52 251.60 C 404.64 245.90 405.24 236.63 399.70 230.62 C 399.03 229.31 398.31 228.02 397.54 226.77 C 396.46 223.06 396.93 218.74 394.08 215.76 C 390.48 218.30 392.97 222.76 393.25 226.27 C 392.80 226.68 391.90 227.49 391.45 227.89 C 392.79 232.33 393.10 237.55 389.32 240.89 C 390.89 242.78 392.78 244.56 393.49 246.99 C 393.00 249.97 391.39 252.58 390.21 255.32 C 389.23 255.20 387.26 254.95 386.28 254.82 C 386.44 258.03 388.86 259.45 391.70 260.19 C 388.56 261.25 385.20 261.66 382.24 263.22 C 380.62 264.13 378.79 264.49 376.96 264.69 C 374.72 256.28 375.83 247.51 375.60 238.92 C 376.46 231.29 376.13 223.61 376.42 215.96 C 375.90 205.48 373.82 195.15 373.36 184.66 C 373.83 184.17 374.77 183.19 375.24 182.69 C 374.83 179.84 372.91 177.01 373.96 174.10 C 375.35 170.06 375.97 165.25 379.92 162.79 M 403.16 179.20 C 400.73 182.02 397.24 183.35 393.91 184.77 C 393.02 183.73 392.14 182.69 391.26 181.66 C 389.98 182.76 388.75 183.91 387.54 185.08 C 389.20 186.97 390.84 188.89 392.27 190.97 C 391.51 192.86 390.84 194.80 390.59 196.83 C 390.47 197.38 390.24 198.47 390.13 199.02 C 391.26 199.47 392.39 199.92 393.54 200.36 C 397.74 194.08 401.76 187.55 407.00 182.11 C 405.70 181.17 404.42 180.19 403.16 179.20 Z" />
<path fill="#0077c1" opacity="1.00" d=" M 209.67 163.69 C 211.68 162.04 212.77 159.63 214.17 157.50 C 215.08 161.42 213.99 165.38 214.34 169.31 C 217.90 185.34 218.89 201.83 218.65 218.21 C 218.77 220.95 217.31 223.36 216.82 225.99 C 219.01 228.16 221.55 225.79 222.95 223.94 C 226.51 219.98 225.93 214.32 227.49 209.53 C 228.16 206.54 229.95 204.04 231.98 201.82 C 232.36 202.32 233.14 203.33 233.53 203.83 C 233.04 204.51 232.05 205.88 231.56 206.56 C 232.94 207.03 234.31 207.56 235.75 207.87 C 238.58 204.33 240.75 200.23 244.31 197.29 C 247.65 194.75 249.87 191.14 252.93 188.32 C 253.65 188.47 255.09 188.78 255.81 188.93 C 256.23 187.64 256.40 186.24 257.10 185.06 C 259.07 183.68 261.23 182.58 263.11 181.06 C 265.66 178.78 269.34 178.91 272.15 177.08 C 272.26 177.66 272.46 178.82 272.56 179.40 C 276.31 178.82 280.18 179.23 283.03 181.99 C 283.60 180.44 283.00 178.13 284.76 177.23 C 286.06 178.73 287.17 180.38 288.34 181.99 C 286.82 184.65 287.50 189.17 283.91 190.12 C 281.06 191.18 278.01 190.97 275.59 189.08 C 275.43 191.05 275.38 193.04 274.94 194.98 C 272.70 196.48 269.92 196.71 267.50 197.78 C 265.30 199.80 264.16 202.82 261.59 204.51 C 257.85 206.82 256.20 211.14 252.86 213.87 C 250.23 216.14 248.27 219.06 246.32 221.91 C 249.97 227.78 254.33 233.23 257.38 239.48 C 258.76 242.68 262.15 244.77 262.39 248.47 C 262.70 251.22 264.37 253.44 265.42 255.91 C 266.17 259.03 267.44 261.97 268.44 265.02 C 269.33 267.75 266.23 269.23 264.85 271.06 C 266.17 271.77 267.49 272.47 268.82 273.18 C 268.52 274.66 268.35 276.21 267.64 277.58 C 265.50 278.13 263.25 278.45 261.05 278.22 C 258.31 276.68 255.48 274.76 254.00 271.89 C 250.26 264.09 244.81 257.28 239.32 250.66 C 236.92 247.32 235.45 243.19 232.00 240.70 C 224.65 248.36 218.47 257.26 214.00 266.90 C 212.09 271.92 210.86 278.41 205.02 280.30 C 203.43 281.65 202.92 278.78 202.11 277.95 C 198.89 271.91 199.87 264.79 200.26 258.24 C 201.75 248.77 198.96 239.41 199.32 229.92 C 200.00 217.96 200.23 205.91 202.63 194.13 C 203.80 189.02 203.29 183.72 204.54 178.61 C 205.36 175.48 203.92 172.34 204.30 169.21 C 205.47 166.86 207.84 165.47 209.67 163.69 Z" />
<path fill="#0077c1" opacity="1.00" d=" M 519.43 161.38 C 520.16 160.32 522.06 159.64 522.96 160.92 C 524.45 162.89 525.37 165.22 526.71 167.30 C 526.62 167.84 526.43 168.93 526.34 169.47 C 526.98 169.71 528.26 170.17 528.89 170.41 C 532.57 179.73 529.02 189.49 528.70 199.03 C 528.76 202.09 526.93 204.87 527.24 207.94 C 527.56 213.48 527.54 219.11 526.27 224.53 C 526.52 225.03 527.02 226.02 527.27 226.52 C 525.61 233.31 526.25 240.46 524.31 247.21 C 524.45 252.80 524.37 258.98 520.66 263.56 C 519.03 266.64 515.26 264.52 512.56 264.64 C 511.90 263.83 511.24 263.02 510.59 262.21 C 509.35 262.37 508.11 262.53 506.87 262.69 C 505.42 261.06 504.61 258.74 502.84 257.48 C 497.56 256.41 494.63 251.40 492.22 247.05 C 490.85 245.82 488.81 244.84 488.56 242.82 C 488.15 240.23 488.28 237.59 487.81 235.02 C 486.49 232.51 483.56 230.91 483.11 227.94 C 482.35 224.49 481.30 221.03 479.28 218.08 C 477.55 222.67 477.61 227.86 474.99 232.11 C 471.48 237.89 471.02 245.21 466.36 250.36 C 464.26 252.65 463.12 255.67 460.98 257.89 C 459.51 259.49 456.15 258.53 457.23 256.07 C 458.54 250.49 455.77 243.91 459.58 239.02 C 460.38 236.02 461.10 232.88 460.09 229.84 C 458.77 226.45 461.09 223.37 462.59 220.51 C 461.97 215.91 466.05 212.46 465.71 207.93 C 465.26 205.85 466.89 204.47 468.07 203.05 C 467.75 200.72 466.92 198.27 468.03 196.01 C 470.60 190.02 471.60 183.19 469.64 176.88 C 470.78 174.12 472.13 171.37 471.38 168.28 C 474.23 167.48 477.13 166.71 479.64 165.04 C 483.57 167.37 484.83 171.94 485.43 176.17 C 486.91 185.71 493.01 193.71 494.62 203.20 C 495.13 203.57 496.16 204.31 496.67 204.68 C 496.50 205.51 496.16 207.19 495.98 208.03 C 498.73 211.97 500.66 216.36 502.05 220.94 C 505.25 225.71 506.74 231.32 509.37 236.38 C 509.85 233.03 509.73 229.64 509.93 226.26 C 509.72 225.80 509.30 224.86 509.09 224.39 C 511.36 218.67 508.90 212.83 508.98 207.05 C 510.51 202.41 509.07 197.66 509.07 192.93 C 508.95 190.83 511.07 189.67 512.25 188.26 C 511.73 183.67 509.39 179.15 510.57 174.49 C 511.67 172.44 513.44 170.86 515.02 169.18 C 518.58 168.16 518.20 164.18 519.43 161.38 Z" />
<path fill="#0077c1" opacity="1.00" d=" M 322.86 171.88 C 326.34 167.10 331.78 163.34 337.81 163.07 C 339.59 164.88 341.04 167.16 341.30 169.74 C 342.16 175.92 344.12 181.86 345.87 187.82 C 345.30 188.65 344.75 189.48 344.19 190.30 C 345.75 191.36 348.28 191.87 348.65 194.04 C 349.66 198.29 349.66 202.70 350.57 206.97 C 351.17 209.45 353.19 211.24 354.17 213.54 C 354.69 215.85 354.75 218.23 355.14 220.56 C 357.89 224.20 358.54 229.08 357.78 233.50 C 359.67 234.48 361.55 235.49 363.37 236.62 C 362.34 237.75 361.31 238.87 360.28 240.00 C 362.48 245.03 363.64 250.78 362.16 256.18 C 362.39 257.04 362.86 258.74 363.09 259.59 C 361.87 261.18 360.56 262.69 359.22 264.18 C 356.13 265.03 353.16 266.26 350.04 267.01 C 348.45 263.93 346.17 261.21 344.97 257.94 C 344.39 254.23 343.54 250.55 343.28 246.80 C 342.10 245.18 340.99 243.50 339.93 241.80 C 334.95 243.35 329.40 243.72 324.65 241.24 C 323.75 241.92 322.87 242.61 321.99 243.30 C 315.16 241.32 307.93 241.84 300.96 242.57 C 297.72 242.85 293.85 240.24 291.29 243.25 C 291.44 244.62 291.82 245.95 292.13 247.30 C 291.20 249.52 290.39 251.79 289.89 254.15 C 287.66 257.33 285.56 260.94 281.89 262.66 C 280.25 261.42 279.27 259.58 278.05 257.99 C 276.62 258.47 275.18 258.96 273.76 259.45 C 272.75 256.71 271.57 253.98 271.32 251.05 C 270.36 246.61 273.94 243.09 274.64 238.91 C 275.45 236.60 274.54 234.25 273.97 232.01 C 275.71 231.40 277.58 231.07 279.18 230.13 C 281.64 227.51 283.50 224.41 285.54 221.48 C 297.83 204.84 311.35 189.09 322.86 171.88 M 321.75 200.06 C 321.76 200.61 321.76 201.71 321.76 202.27 C 318.72 206.06 316.21 210.26 314.10 214.64 C 316.04 215.51 318.10 216.06 320.20 216.41 C 321.85 220.19 326.00 217.86 329.02 217.70 C 329.14 218.59 329.39 220.36 329.52 221.25 C 330.94 220.41 332.35 219.57 333.78 218.76 C 333.35 215.41 333.30 211.98 332.28 208.75 C 331.44 206.91 329.77 205.62 328.55 204.04 C 329.41 203.21 330.27 202.38 331.14 201.55 C 330.23 201.06 329.33 200.57 328.43 200.09 C 328.15 198.75 327.81 197.43 327.43 196.13 C 324.54 195.23 323.18 198.18 321.75 200.06 Z" />
<path fill="#0077c1" opacity="1.00" d=" M 738.39 198.62 C 739.90 197.49 740.62 200.04 741.66 200.70 C 740.21 200.82 738.77 200.84 737.33 200.77 C 737.11 199.74 737.46 199.02 738.39 198.62 Z" />
<path fill="#0077c1" opacity="1.00" d=" M 699.99 199.16 C 701.60 198.70 702.12 199.28 701.56 200.91 C 699.94 201.37 699.41 200.79 699.99 199.16 Z" />
<path fill="#0077c1" opacity="1.00" d=" M 694.88 207.75 C 694.89 206.67 694.91 205.59 694.94 204.51 C 696.33 205.09 699.17 204.56 698.76 206.87 C 697.49 207.28 696.17 207.50 694.88 207.75 Z" />
<path fill="#0077c1" opacity="1.00" d=" M 768.33 223.25 C 770.02 223.25 769.70 226.01 768.11 225.87 C 766.37 225.86 766.73 223.15 768.33 223.25 Z" />
<path fill="#0077c1" opacity="1.00" d=" M 549.63 274.75 C 552.34 276.77 554.99 275.05 557.51 273.72 C 558.29 274.46 559.08 275.21 559.87 275.95 C 560.36 275.67 561.36 275.11 561.86 274.82 C 570.71 275.27 579.57 273.31 588.37 274.56 C 593.22 272.10 598.22 275.66 603.21 274.36 C 607.46 274.35 611.75 273.78 615.94 274.82 C 622.30 276.48 628.66 274.15 635.09 274.48 C 640.35 273.58 645.55 275.75 650.82 274.77 C 653.53 274.19 656.26 274.70 658.96 275.13 C 666.58 273.95 674.25 275.44 681.91 275.37 C 687.48 275.25 692.87 276.72 698.28 277.76 C 701.47 277.77 704.58 276.86 707.70 276.23 C 713.04 277.98 718.61 277.03 724.08 276.89 C 727.43 278.11 730.93 278.38 734.25 276.86 C 734.95 277.63 735.66 278.40 736.37 279.18 C 737.26 278.55 738.16 277.92 739.07 277.30 C 739.74 278.19 740.43 279.08 741.12 279.98 C 741.93 279.86 743.55 279.63 744.36 279.52 C 745.14 280.16 745.92 280.80 746.71 281.46 C 747.74 280.86 748.78 280.27 749.84 279.69 C 751.99 281.46 754.59 282.42 757.26 283.13 C 758.26 282.21 759.21 281.20 760.35 280.44 C 761.93 279.47 763.61 280.75 765.16 281.15 C 766.03 280.82 766.92 280.48 767.81 280.14 C 768.18 280.53 768.90 281.29 769.27 281.67 C 772.65 281.95 776.38 283.59 776.10 287.59 C 774.36 287.76 772.62 287.87 770.90 287.97 C 769.08 290.97 765.69 288.71 763.05 288.69 C 760.55 288.83 758.08 289.29 755.59 289.35 C 755.75 289.94 756.09 291.13 756.26 291.72 C 752.96 286.61 746.33 287.87 741.71 290.19 C 740.32 289.42 738.94 288.65 737.57 287.89 C 737.73 288.83 738.04 290.73 738.19 291.67 C 734.40 290.05 730.27 289.02 726.13 289.32 C 722.97 290.00 719.44 288.09 716.87 290.78 C 710.14 287.23 703.76 293.74 696.85 293.20 C 696.65 292.06 696.49 290.91 696.38 289.76 C 694.62 289.10 692.88 288.39 691.17 287.66 C 690.80 288.24 690.43 288.82 690.08 289.41 C 687.22 289.74 684.54 290.77 682.11 292.27 C 682.46 290.38 682.04 288.54 681.18 286.84 C 680.33 288.55 679.69 290.36 678.80 292.05 C 675.85 292.16 673.20 290.65 671.48 288.32 C 668.57 293.07 662.51 289.27 658.50 292.22 C 657.61 291.59 656.72 290.96 655.84 290.33 C 653.58 290.64 651.39 291.23 649.25 291.97 C 648.84 290.85 648.43 289.73 648.07 288.61 C 646.70 290.08 645.14 291.34 643.42 292.36 C 642.65 291.10 641.85 289.88 641.00 288.69 C 639.87 288.23 638.61 288.52 637.44 288.51 C 638.55 289.69 639.66 290.88 640.79 292.06 C 639.85 292.20 637.98 292.48 637.05 292.62 C 636.72 291.52 636.40 290.42 636.09 289.33 C 634.69 289.34 633.28 289.34 631.89 289.33 C 631.70 289.86 631.33 290.91 631.14 291.43 C 629.14 290.90 627.10 290.55 625.10 291.24 C 624.74 290.90 624.01 290.22 623.65 289.88 C 621.96 291.02 620.12 292.29 617.96 291.70 C 613.97 291.02 609.94 291.33 605.94 291.76 C 605.32 290.74 604.71 289.73 604.10 288.71 C 603.34 289.36 602.58 290.01 601.83 290.67 C 600.38 290.92 598.94 291.19 597.50 291.47 C 597.16 291.25 596.47 290.81 596.13 290.59 C 594.41 290.72 592.67 290.77 590.96 290.74 C 586.93 293.39 581.23 293.49 577.27 290.69 C 573.16 292.58 568.38 293.61 564.10 291.63 C 558.33 293.37 552.08 292.93 546.16 292.43 C 542.16 293.47 538.04 293.22 533.97 293.13 C 527.75 293.48 521.46 293.89 515.32 292.61 C 508.44 296.98 500.26 293.60 492.77 294.53 C 492.16 294.32 490.93 293.88 490.32 293.67 C 485.64 295.95 480.42 294.81 475.44 294.84 C 471.56 297.93 466.63 295.55 462.17 295.86 C 457.63 297.37 452.74 297.63 448.00 297.82 C 441.94 296.84 435.94 298.51 429.89 298.44 C 424.56 298.30 419.31 299.53 413.98 299.07 C 407.80 298.69 401.87 302.07 395.72 300.77 C 391.47 300.45 387.33 301.91 383.09 301.94 C 375.96 302.02 369.10 304.27 361.98 304.51 C 353.67 305.74 344.88 304.38 337.10 308.16 C 331.71 307.67 326.17 307.46 320.90 308.96 C 317.37 309.91 313.69 309.64 310.10 310.01 C 306.08 311.29 301.85 311.51 297.77 312.46 C 294.12 313.34 290.62 311.48 287.12 310.74 C 285.92 312.16 285.16 314.69 282.97 314.81 C 279.62 314.75 276.30 314.23 272.95 314.37 C 272.22 314.82 271.48 315.28 270.76 315.74 C 263.15 316.44 255.65 318.22 247.97 318.02 C 243.59 317.90 239.37 319.40 235.00 319.17 C 228.35 319.27 221.67 319.61 215.03 319.15 C 211.63 319.08 209.13 315.43 209.25 312.27 C 212.80 310.15 217.25 311.09 221.16 310.08 C 226.39 308.82 232.17 310.08 236.95 307.16 C 237.51 307.40 238.62 307.87 239.18 308.11 C 242.48 306.49 246.27 305.07 249.68 307.35 C 250.04 306.28 250.39 305.20 250.75 304.14 C 254.12 303.61 257.52 303.86 260.89 304.18 C 261.40 303.85 262.41 303.17 262.92 302.83 C 263.56 302.96 264.86 303.21 265.50 303.33 C 269.63 301.10 274.53 300.12 279.15 301.14 C 279.74 300.36 280.34 299.58 280.93 298.80 C 283.01 298.84 285.08 298.95 287.16 299.15 C 296.29 296.32 306.21 297.65 315.37 294.92 C 316.30 295.17 317.24 295.42 318.18 295.68 C 318.87 295.32 319.57 294.97 320.27 294.62 C 325.40 294.35 329.87 291.45 334.91 290.74 C 339.83 289.99 344.91 289.43 349.83 290.52 C 353.73 287.44 358.66 289.88 363.06 288.76 C 365.99 288.16 368.95 287.64 371.94 287.34 C 372.31 287.01 373.05 286.35 373.42 286.02 C 374.15 286.33 374.87 286.65 375.60 286.97 C 378.88 286.08 382.29 285.80 385.65 286.37 C 392.57 282.38 400.78 285.18 407.92 282.16 C 410.21 282.78 412.42 285.38 414.83 283.78 C 418.12 281.92 421.96 281.27 425.64 282.38 C 425.90 282.00 426.43 281.25 426.69 280.88 C 434.67 281.12 442.57 279.82 450.54 279.60 C 451.07 279.41 452.14 279.04 452.68 278.85 C 456.48 280.05 460.20 278.34 464.02 278.33 C 467.02 278.10 469.86 279.56 472.86 279.27 C 478.10 279.31 483.54 277.77 488.54 279.95 C 489.63 278.62 490.74 277.32 491.90 276.06 C 492.34 276.56 493.23 277.55 493.68 278.04 C 496.02 277.30 498.42 276.34 500.94 276.70 C 505.41 277.36 509.76 275.31 514.23 276.17 C 520.44 276.73 526.93 274.29 532.94 276.45 C 534.11 276.31 535.27 276.18 536.45 276.04 C 536.84 276.72 537.63 278.09 538.03 278.77 C 538.74 277.62 539.39 276.41 540.28 275.37 C 541.71 274.39 543.24 275.87 544.62 276.26 C 546.28 275.73 547.95 275.23 549.63 274.75 Z" />
<path fill="#0077c1" opacity="1.00" d=" M 791.27 282.25 C 792.74 281.14 794.26 283.71 792.99 284.76 C 791.52 285.82 789.92 283.27 791.27 282.25 Z" />
<path fill="#0077c1" opacity="1.00" d=" M 693.36 290.95 C 694.99 290.47 695.55 291.03 695.03 292.65 C 693.39 293.13 692.83 292.57 693.36 290.95 Z" />
<path fill="#0077c1" opacity="1.00" d=" M 581.71 352.46 C 584.02 352.33 586.34 352.21 588.66 352.09 C 589.00 360.63 589.82 369.16 589.71 377.71 C 594.81 369.53 606.28 367.72 614.62 371.54 C 619.56 373.95 621.40 379.73 621.67 384.86 C 622.28 394.99 622.73 405.14 623.29 415.28 C 620.97 415.40 618.65 415.52 616.34 415.65 C 615.80 405.73 615.35 395.81 614.77 385.89 C 614.64 381.99 613.02 377.42 608.92 376.19 C 604.61 374.98 599.69 375.51 595.85 377.83 C 591.52 380.61 590.72 386.26 590.76 390.99 C 591.05 399.64 591.66 408.28 592.06 416.92 C 589.73 417.04 587.42 417.16 585.11 417.28 C 583.98 395.67 582.85 374.06 581.71 352.46 Z" />
<path fill="#0077c1" opacity="1.00" d=" M 476.04 357.99 C 478.35 357.87 480.67 357.75 482.99 357.63 C 484.12 379.24 485.26 400.85 486.39 422.46 C 484.07 422.57 481.75 422.69 479.44 422.82 C 478.30 401.21 477.18 379.60 476.04 357.99 Z" />
<path fill="#0077c1" opacity="1.00" d=" M 456.05 359.04 C 458.36 358.92 460.67 358.80 462.99 358.68 C 464.13 380.29 465.26 401.90 466.39 423.51 C 464.07 423.62 461.76 423.75 459.44 423.87 C 458.31 402.26 457.18 380.65 456.05 359.04 Z" />
<path fill="#0077c1" opacity="1.00" d=" M 438.31 362.37 C 441.76 360.91 444.90 364.64 443.91 367.96 C 443.64 371.56 438.15 372.63 436.45 369.52 C 435.26 367.19 435.39 363.31 438.31 362.37 Z" />
<path fill="#0077c1" opacity="1.00" d=" M 412.42 392.17 C 415.13 383.05 417.84 373.93 420.56 364.82 C 423.11 364.69 425.66 364.56 428.21 364.43 C 421.96 385.12 415.71 405.81 409.45 426.49 C 407.10 426.61 404.76 426.73 402.42 426.85 C 394.09 406.93 385.74 387.01 377.40 367.09 C 379.91 366.95 382.42 366.82 384.94 366.69 C 390.15 379.25 395.37 391.81 400.59 404.37 C 402.49 408.88 404.10 413.49 405.50 418.18 C 407.01 409.31 409.92 400.78 412.42 392.17 Z" />
<path fill="#0077c1" opacity="1.00" d=" M 548.68 376.70 C 555.55 370.76 565.60 371.02 573.86 373.43 C 573.26 375.47 572.67 377.50 572.07 379.54 C 566.35 377.99 559.62 376.80 554.44 380.45 C 549.62 383.99 548.90 390.56 549.13 396.09 C 549.38 401.87 550.87 408.71 556.35 411.76 C 562.34 414.74 569.27 412.50 575.10 410.19 C 575.19 412.28 575.30 414.37 575.40 416.46 C 568.15 419.61 559.30 420.67 552.10 416.83 C 545.77 413.35 542.71 406.05 542.14 399.14 C 541.27 391.28 542.40 382.20 548.68 376.70 Z" />
<path fill="#0077c1" opacity="1.00" d=" M 498.83 379.06 C 506.16 375.12 515.05 372.87 523.17 375.57 C 528.35 377.27 530.66 382.88 530.91 387.94 C 531.57 398.63 532.02 409.33 532.62 420.03 C 530.89 420.12 529.17 420.21 527.45 420.31 C 526.88 418.13 526.32 415.95 525.78 413.77 C 523.16 416.83 520.31 420.11 516.23 421.13 C 510.65 422.57 503.90 422.77 499.31 418.75 C 493.73 413.48 493.74 402.78 500.43 398.39 C 507.49 393.63 516.36 393.81 524.51 392.98 C 524.12 388.80 524.14 383.32 519.79 381.15 C 513.55 378.60 506.87 381.61 501.23 384.32 C 500.43 382.56 499.63 380.81 498.83 379.06 M 506.41 401.46 C 501.04 404.26 501.23 413.81 507.25 415.71 C 512.71 417.16 519.47 415.55 522.73 410.65 C 525.26 406.92 524.69 402.22 524.57 397.97 C 518.47 398.66 511.94 398.44 506.41 401.46 Z" />
<path fill="#0077c1" opacity="1.00" d=" M 437.02 379.25 C 439.33 379.12 441.64 379.00 443.96 378.88 C 444.76 394.11 445.56 409.33 446.35 424.55 C 444.03 424.67 441.72 424.80 439.41 424.92 C 438.61 409.69 437.81 394.47 437.02 379.25 Z" />
<path fill="#0077c1" opacity="1.00" d=" M 587.46 452.33 C 596.12 446.58 607.48 447.81 616.94 450.75 C 616.32 452.86 615.70 454.97 615.08 457.08 C 608.15 455.02 600.28 453.27 593.41 456.42 C 587.21 459.15 587.27 468.90 592.87 472.22 C 599.96 476.64 609.02 476.89 615.64 482.24 C 623.30 488.59 622.19 502.51 613.42 507.41 C 604.33 512.59 592.92 512.10 583.10 509.43 C 582.97 507.12 582.84 504.82 582.72 502.52 C 590.84 504.90 599.98 506.47 608.06 503.14 C 614.42 500.68 615.50 490.92 610.03 487.00 C 603.29 482.32 594.41 482.21 587.80 477.25 C 579.85 471.69 579.07 457.87 587.46 452.33 Z" />
<path fill="#0077c1" opacity="1.00" d=" M 437.58 453.87 C 439.87 453.74 442.15 453.62 444.45 453.51 C 445.01 467.42 446.26 481.32 446.29 495.25 C 452.09 486.86 459.14 479.47 465.60 471.61 C 468.36 471.46 471.12 471.32 473.88 471.17 C 468.05 477.99 462.22 484.80 456.39 491.61 C 463.45 500.00 470.50 508.38 477.55 516.78 C 474.74 516.92 471.93 517.07 469.13 517.22 C 463.39 510.32 457.64 503.42 451.90 496.51 C 450.25 498.09 448.60 499.67 446.95 501.25 C 447.24 506.95 447.54 512.64 447.84 518.34 C 445.55 518.45 443.27 518.57 440.98 518.69 C 439.84 497.09 438.72 475.48 437.58 453.87 Z" />
<path fill="#0077c1" opacity="1.00" d=" M 681.16 465.13 C 685.97 459.23 694.48 457.54 701.60 459.48 C 706.83 460.97 710.94 465.27 712.79 470.31 C 714.32 474.25 714.37 478.54 714.65 482.72 C 704.11 483.31 693.56 483.77 683.02 484.42 C 683.75 489.97 685.70 496.32 691.33 498.68 C 698.55 501.58 706.55 499.01 713.38 496.18 C 713.46 498.24 713.56 500.31 713.66 502.39 C 706.56 505.66 698.37 507.11 690.70 505.21 C 683.40 503.34 678.04 496.76 676.66 489.50 C 675.06 481.28 675.54 471.80 681.16 465.13 M 688.00 467.03 C 684.41 469.78 683.48 474.47 682.82 478.68 C 690.90 478.33 698.98 477.89 707.06 477.41 C 706.43 474.19 706.01 470.70 703.84 468.10 C 700.05 463.49 692.52 463.58 688.00 467.03 Z" />
<path fill="#0077c1" opacity="1.00" d=" M 633.34 468.47 C 640.07 459.14 656.20 458.45 663.06 467.99 C 666.87 472.85 667.27 479.26 667.53 485.19 C 656.98 485.75 646.42 486.29 635.87 486.86 C 636.66 492.33 638.46 498.60 643.98 501.05 C 651.25 504.10 659.34 501.51 666.25 498.66 C 666.33 500.73 666.44 502.80 666.53 504.88 C 659.20 508.21 650.67 509.73 642.82 507.45 C 635.85 505.35 630.85 498.91 629.52 491.89 C 628.01 484.03 628.39 475.11 633.34 468.47 M 640.66 469.68 C 637.22 472.46 636.33 477.04 635.73 481.18 C 643.80 480.74 651.87 480.41 659.93 479.85 C 659.31 476.57 658.85 473.00 656.56 470.39 C 652.66 465.89 645.10 466.08 640.66 469.68 Z" />
<path fill="#0077c1" opacity="1.00" d=" M 305.55 464.71 C 316.88 464.12 328.20 463.52 339.53 462.93 C 339.63 465.04 339.74 467.14 339.86 469.26 C 330.90 469.72 321.95 470.19 313.00 470.66 C 313.39 478.08 313.78 485.49 314.16 492.91 C 322.57 492.47 330.99 492.02 339.40 491.59 C 339.51 493.68 339.62 495.79 339.73 497.90 C 331.32 498.35 322.90 498.79 314.49 499.23 C 314.95 507.90 315.40 516.58 315.86 525.25 C 313.48 525.37 311.11 525.50 308.75 525.63 C 307.68 505.32 306.62 485.02 305.55 464.71 Z" />
<path fill="#0077c1" opacity="1.00" d=" M 541.33 468.28 C 544.84 466.14 549.10 466.40 553.05 466.54 C 552.84 468.66 552.64 470.80 552.44 472.94 C 548.36 472.72 543.80 472.53 540.52 475.41 C 535.85 479.02 534.24 485.23 534.86 490.90 C 535.29 498.50 535.69 506.11 536.08 513.71 C 533.76 513.83 531.44 513.95 529.13 514.07 C 528.33 498.85 527.54 483.63 526.74 468.41 C 528.65 468.30 530.56 468.20 532.48 468.10 C 532.89 470.95 533.31 473.79 533.72 476.65 C 535.77 473.48 537.92 470.14 541.33 468.28 Z" />
<path fill="#0077c1" opacity="1.00" d=" M 483.29 476.35 C 490.03 466.96 506.28 466.32 513.09 475.96 C 516.83 480.82 517.22 487.16 517.48 493.05 C 506.93 493.62 496.37 494.15 485.82 494.72 C 486.60 500.23 488.48 506.58 494.08 508.98 C 501.32 511.92 509.35 509.37 516.20 506.50 C 516.29 508.58 516.39 510.67 516.48 512.76 C 509.12 516.08 500.59 517.60 492.72 515.30 C 485.84 513.19 480.89 506.87 479.52 499.93 C 477.97 492.03 478.30 483.03 483.29 476.35 M 490.56 477.59 C 487.17 480.38 486.27 484.92 485.70 489.05 C 493.76 488.61 501.83 488.26 509.89 487.73 C 509.23 484.51 508.86 480.99 506.64 478.40 C 502.76 473.73 495.04 473.91 490.56 477.59 Z" />
<path fill="#0077c1" opacity="1.00" d=" M 394.35 478.38 C 399.50 475.68 405.16 473.72 411.05 473.74 C 415.12 473.72 419.60 474.41 422.61 477.39 C 425.61 480.41 426.30 484.86 426.53 488.93 C 427.06 499.08 427.59 509.22 428.12 519.37 C 426.39 519.45 424.67 519.54 422.95 519.64 C 422.37 517.45 421.80 515.26 421.24 513.07 C 418.70 516.12 415.91 519.37 411.91 520.41 C 406.50 521.85 400.06 522.13 395.38 518.57 C 389.03 513.41 389.09 501.73 396.40 497.40 C 403.42 492.98 412.03 493.12 420.01 492.32 C 419.62 488.18 419.65 482.81 415.44 480.56 C 409.18 477.88 402.41 480.92 396.73 483.66 C 395.93 481.90 395.13 480.14 394.35 478.38 M 401.80 500.87 C 396.41 503.79 396.84 513.53 403.07 515.14 C 408.42 516.39 414.89 514.84 418.13 510.13 C 420.75 506.39 420.20 501.59 420.06 497.29 C 413.93 498.03 407.34 497.76 401.80 500.87 Z" />
<path fill="#0077c1" opacity="1.00" d=" M 348.38 480.81 C 354.39 477.58 361.22 475.56 368.10 476.28 C 371.78 476.59 375.66 478.01 377.81 481.17 C 380.20 484.60 380.47 488.93 380.68 492.97 C 381.15 502.57 381.68 512.18 382.17 521.78 C 380.45 521.86 378.73 521.95 377.02 522.04 C 376.44 519.87 375.86 517.70 375.29 515.53 C 372.71 518.57 369.92 521.81 365.89 522.84 C 360.20 524.36 353.25 524.53 348.65 520.30 C 343.27 514.95 343.38 504.44 350.01 500.11 C 357.07 495.36 365.95 495.57 374.09 494.71 C 373.68 490.47 373.65 484.85 369.12 482.79 C 362.92 480.45 356.37 483.36 350.79 486.06 C 349.98 484.31 349.18 482.56 348.38 480.81 M 356.13 503.11 C 350.60 505.82 350.71 515.56 356.84 517.46 C 362.56 519.00 369.78 517.07 372.75 511.60 C 374.78 507.97 374.21 503.66 374.12 499.69 C 368.09 500.43 361.63 500.19 356.13 503.11 Z" />
<path fill="#0077c1" opacity="1.00" d=" M 662.40 539.58 C 669.98 537.73 677.98 538.65 685.34 541.02 C 684.72 543.13 684.09 545.24 683.48 547.36 C 676.53 545.29 668.61 543.52 661.74 546.73 C 655.52 549.53 655.72 559.35 661.41 562.60 C 668.57 566.95 677.67 567.22 684.24 572.70 C 688.95 576.63 689.99 583.53 688.45 589.21 C 686.73 595.34 680.80 599.21 674.87 600.55 C 667.18 602.16 659.07 601.95 651.52 599.77 C 651.37 597.43 651.23 595.10 651.10 592.78 C 658.56 595.06 666.66 596.31 674.31 594.25 C 678.12 593.24 681.64 590.12 681.87 585.99 C 682.23 582.60 681.05 578.85 678.03 576.99 C 671.17 572.53 662.31 572.35 655.80 567.22 C 650.61 563.36 648.94 556.11 650.46 550.04 C 651.96 544.57 657.11 540.93 662.40 539.58 Z" />
<path fill="#0077c1" opacity="1.00" d=" M 496.26 544.65 C 498.57 544.52 500.89 544.40 503.21 544.29 C 503.53 552.84 504.41 561.38 504.23 569.95 C 509.48 561.55 521.49 559.73 529.89 564.14 C 535.65 567.56 536.28 574.94 536.47 580.98 C 536.90 589.81 537.38 598.64 537.84 607.48 C 535.52 607.60 533.20 607.72 530.89 607.85 C 530.32 597.74 529.90 587.62 529.27 577.52 C 529.05 573.86 527.45 569.73 523.70 568.47 C 519.25 567.12 514.09 567.68 510.15 570.19 C 506.08 572.99 505.30 578.37 505.32 582.96 C 505.57 591.68 506.21 600.39 506.61 609.11 C 504.28 609.23 501.97 609.36 499.66 609.48 C 498.52 587.87 497.39 566.26 496.26 544.65 Z" />
<path fill="#0077c1" opacity="1.00" d=" M 748.67 556.53 C 755.22 547.07 771.31 546.16 778.35 555.51 C 782.34 560.40 782.80 566.95 783.05 572.99 C 772.51 573.56 761.96 574.08 751.42 574.67 C 752.15 580.09 753.93 586.27 759.34 588.78 C 766.63 591.97 774.85 589.31 781.81 586.45 C 781.86 588.53 781.93 590.62 781.98 592.72 C 774.58 596.06 765.95 597.57 758.05 595.16 C 751.04 592.94 746.17 586.33 744.94 579.23 C 743.59 571.60 743.96 563.01 748.67 556.53 M 754.01 559.93 C 752.21 562.59 751.79 565.84 751.25 568.93 C 759.32 568.63 767.39 568.15 775.46 567.69 C 774.78 563.70 773.99 559.09 770.37 556.65 C 765.26 553.27 757.33 554.65 754.01 559.93 Z" />
<path fill="#0077c1" opacity="1.00" d=" M 393.28 552.38 C 399.24 550.28 400.98 561.09 394.98 561.44 C 389.96 562.20 388.66 553.59 393.28 552.38 Z" />
<path fill="#0077c1" opacity="1.00" d=" M 701.74 558.74 C 708.51 549.34 724.82 548.74 731.58 558.45 C 735.28 563.30 735.66 569.61 735.92 575.46 C 725.38 576.06 714.83 576.51 704.29 577.18 C 705.02 582.69 706.95 589.02 712.54 591.40 C 719.79 594.32 727.78 591.77 734.64 588.92 C 734.73 590.98 734.83 593.05 734.94 595.12 C 727.65 598.50 719.12 599.98 711.28 597.74 C 704.27 595.67 699.25 589.21 697.92 582.17 C 696.40 574.31 696.78 565.37 701.74 558.74 M 706.70 562.70 C 705.03 565.30 704.68 568.45 704.10 571.42 C 712.18 571.09 720.25 570.60 728.33 570.19 C 727.67 566.31 726.95 561.90 723.59 559.37 C 718.40 555.58 709.99 557.08 706.70 562.70 Z" />
<path fill="#0077c1" opacity="1.00" d=" M 610.32 558.23 C 613.72 556.40 617.70 556.73 621.42 556.79 C 621.23 558.95 621.03 561.11 620.85 563.29 C 617.64 563.16 614.21 562.72 611.23 564.24 C 605.81 566.88 602.83 573.12 603.20 579.01 C 603.53 587.34 604.08 595.66 604.47 603.99 C 602.15 604.10 599.84 604.23 597.53 604.35 C 596.73 589.13 595.93 573.90 595.13 558.68 C 597.04 558.57 598.96 558.47 600.88 558.38 C 601.29 561.24 601.71 564.10 602.08 566.97 C 604.23 563.59 606.60 560.05 610.32 558.23 Z" />
<path fill="#0077c1" opacity="1.00" d=" M 268.45 559.70 C 276.45 558.54 285.33 559.80 291.53 565.37 C 298.81 571.68 301.38 581.70 301.51 591.00 C 301.78 599.66 299.50 608.95 293.03 615.08 C 286.45 621.42 276.62 622.95 267.86 621.77 C 260.98 620.91 254.55 616.97 250.83 611.10 C 246.07 603.71 245.01 594.58 245.42 585.98 C 245.82 578.39 248.58 570.55 254.54 565.55 C 258.42 562.20 263.42 560.39 268.45 559.70 M 266.41 566.68 C 259.58 568.40 254.77 574.65 253.58 581.42 C 252.26 589.04 252.67 597.15 255.51 604.39 C 257.71 610.07 262.83 614.59 268.92 615.52 C 275.87 616.62 283.99 615.39 288.82 609.81 C 293.70 604.11 294.30 596.12 293.86 588.95 C 293.41 582.01 291.69 574.44 286.17 569.72 C 280.76 565.18 272.97 564.95 266.41 566.68 Z" />
<path fill="#0077c1" opacity="1.00" d=" M 551.26 567.21 C 557.66 557.45 574.05 556.38 581.18 565.84 C 585.16 570.73 585.64 577.28 585.88 583.33 C 575.34 583.89 564.80 584.43 554.26 584.99 C 554.94 590.60 556.97 597.02 562.68 599.35 C 569.90 602.12 577.79 599.63 584.59 596.78 C 584.68 598.84 584.79 600.91 584.89 602.99 C 577.55 606.38 568.98 607.86 561.10 605.56 C 554.24 603.47 549.29 597.17 547.92 590.25 C 546.39 582.56 546.67 573.87 551.26 567.21 M 557.08 569.93 C 555.07 572.64 554.68 576.08 554.06 579.29 C 562.13 578.94 570.20 578.47 578.27 578.06 C 577.64 573.97 576.77 569.27 573.02 566.85 C 568.01 563.72 560.47 564.98 557.08 569.93 Z" />
<path fill="#0077c1" opacity="1.00" d=" M 463.54 568.62 C 470.45 562.97 480.26 563.25 488.42 565.64 C 487.83 567.66 487.23 569.69 486.65 571.73 C 481.05 570.26 474.56 569.03 469.39 572.38 C 464.35 575.70 463.47 582.36 463.66 587.92 C 463.87 593.85 465.34 600.93 471.02 604.03 C 477.03 606.91 483.87 604.66 489.70 602.39 C 489.76 604.49 489.83 606.60 489.88 608.72 C 482.50 611.84 473.44 612.93 466.24 608.79 C 460.01 605.15 457.16 597.80 456.65 590.91 C 455.84 583.04 457.13 573.97 463.54 568.62 Z" />
<path fill="#0077c1" opacity="1.00" d=" M 413.39 571.27 C 420.79 567.26 429.85 565.00 438.03 567.89 C 442.94 569.66 445.14 575.02 445.43 579.88 C 446.11 590.66 446.57 601.45 447.17 612.23 C 445.44 612.31 443.73 612.41 442.01 612.51 C 441.43 610.33 440.86 608.16 440.29 605.99 C 437.66 609.09 434.76 612.38 430.64 613.37 C 425.36 614.68 419.13 614.93 414.56 611.52 C 410.45 608.44 409.28 602.75 410.11 597.92 C 410.82 593.73 414.18 590.52 417.94 588.88 C 424.57 585.88 431.98 585.87 439.09 585.18 C 438.64 581.10 438.72 575.81 434.63 573.50 C 428.37 570.69 421.50 573.75 415.79 576.52 C 414.98 574.77 414.18 573.01 413.39 571.27 M 420.73 593.80 C 415.51 596.77 415.92 606.28 422.01 607.97 C 427.57 609.35 434.43 607.59 437.52 602.45 C 439.78 598.77 439.24 594.26 439.11 590.15 C 432.94 590.91 426.29 590.62 420.73 593.80 Z" />
<path fill="#0077c1" opacity="1.00" d=" M 391.74 569.34 C 394.05 569.21 396.36 569.09 398.68 568.97 C 399.47 584.20 400.27 599.42 401.07 614.65 C 398.75 614.76 396.44 614.89 394.13 615.01 C 393.33 599.79 392.52 584.56 391.74 569.34 Z" />
<path fill="#0077c1" opacity="1.00" d=" M 355.15 573.18 C 362.95 568.28 372.94 569.32 381.36 571.96 C 380.63 573.89 379.91 575.83 379.19 577.77 C 372.87 575.86 365.56 574.21 359.41 577.47 C 356.02 579.23 356.25 584.51 359.50 586.30 C 365.89 590.21 373.96 590.49 380.00 595.10 C 384.14 598.27 384.85 604.39 382.91 608.98 C 381.01 613.28 376.45 615.61 372.06 616.57 C 365.49 617.90 358.51 617.69 352.18 615.32 C 352.07 613.16 351.96 611.01 351.85 608.86 C 358.37 611.23 365.67 612.73 372.43 610.46 C 375.20 609.62 377.59 607.07 377.24 604.02 C 377.20 601.60 375.34 599.75 373.33 598.72 C 367.28 595.42 360.03 594.77 354.39 590.68 C 348.66 586.57 349.09 576.79 355.15 573.18 Z" />
<path fill="#0077c1" opacity="1.00" d=" M 314.55 575.55 C 322.35 570.34 332.57 571.41 341.12 574.05 C 340.40 575.99 339.67 577.93 338.96 579.88 C 332.74 577.99 325.62 576.41 319.49 579.39 C 316.08 580.91 315.79 586.04 318.84 588.09 C 325.23 592.34 333.58 592.47 339.75 597.20 C 344.01 600.44 344.65 606.80 342.52 611.44 C 340.47 615.63 335.91 617.82 331.55 618.74 C 325.05 619.99 318.19 619.75 311.95 617.45 C 311.84 615.27 311.72 613.11 311.61 610.95 C 318.24 613.40 325.77 614.92 332.62 612.40 C 335.28 611.50 337.39 608.87 337.00 605.96 C 336.90 603.61 335.05 601.84 333.08 600.83 C 327.08 597.55 319.88 596.89 314.26 592.86 C 308.58 588.91 308.76 579.32 314.55 575.55 Z" />
</g>
<g id="#0c0a0b5a">
<path fill="#0c0a0b" opacity="0.35" d=" M 961.09 170.10 L 961.91 167.39 C 963.42 171.09 963.65 175.08 963.78 179.03 C 968.37 233.92 973.46 288.78 978.99 343.59 C 980.24 349.30 980.71 355.13 981.21 360.95 C 992.34 463.36 1004.60 565.64 1016.47 667.96 C 1017.19 672.75 1015.91 677.93 1012.10 681.13 C 1008.04 684.87 1002.13 684.54 997.00 684.57 C 988.01 684.33 979.01 684.79 970.03 684.33 C 958.41 682.86 946.69 683.77 935.03 683.51 C 924.55 683.25 914.02 684.14 903.59 682.77 C 897.73 682.25 891.84 682.61 885.96 682.54 C 834.63 682.47 783.29 682.50 731.95 682.53 C 725.62 682.31 719.31 682.64 713.03 683.38 C 698.83 683.86 684.60 683.08 670.41 683.77 C 658.02 685.52 645.46 683.54 633.06 685.16 C 624.40 686.14 615.65 684.82 607.00 686.03 C 599.70 687.04 592.30 685.98 585.01 687.06 C 521.28 690.36 457.60 695.51 394.02 701.32 C 303.86 709.46 213.82 718.89 123.87 729.01 C 115.63 729.90 107.31 731.30 99.02 730.31 C 94.85 729.80 91.75 726.31 90.41 722.53 C 88.69 718.15 88.83 713.39 88.11 708.83 C 87.43 704.73 84.99 701.26 82.91 697.77 C 384.03 682.04 685.15 666.22 986.27 650.46 C 977.88 490.34 969.44 330.22 961.09 170.10 Z" />
</g>
</svg>
