<?xml version="1.0" encoding="UTF-8" ?>
<!DOCTYPE svg PUBLIC "-//W3C//DTD SVG 1.1//EN" "http://www.w3.org/Graphics/SVG/1.1/DTD/svg11.dtd">
<svg width="140pt" height="170pt" viewBox="0 0 140 170" version="1.1" xmlns="http://www.w3.org/2000/svg">
<g id="#f29400ff">
<path fill="#f29400" opacity="1.00" d=" M 12.40 0.00 L 127.53 0.00 C 133.94 0.66 139.30 5.97 140.00 12.38 L 140.00 127.13 C 139.28 134.05 132.98 139.72 125.99 139.53 C 88.66 139.58 51.32 139.59 13.98 139.53 C 7.05 139.71 0.85 134.13 0.00 127.31 L 0.00 12.46 C 0.64 6.04 6.00 0.71 12.40 0.00 M 61.49 19.71 C 45.63 22.25 31.36 32.86 24.32 47.29 C 19.06 57.64 17.98 69.82 20.36 81.11 C 24.16 98.42 37.80 113.04 54.74 118.19 C 61.89 120.66 69.59 120.25 77.03 119.94 C 92.15 118.14 106.03 108.76 113.78 95.71 C 119.00 87.13 121.35 76.96 120.75 66.96 C 120.24 52.19 112.47 38.04 100.68 29.23 C 89.66 20.84 75.13 17.37 61.49 19.71 Z" />
<path fill="#f29400" opacity="1.00" d=" M 88.92 35.91 C 91.81 34.50 95.38 34.66 98.38 35.66 C 101.35 36.68 102.67 40.44 101.23 43.17 C 99.66 46.27 96.43 47.89 93.57 49.58 C 96.33 49.50 99.09 49.49 101.85 49.49 C 101.83 51.00 101.80 52.51 101.78 54.02 C 96.34 54.00 90.90 54.05 85.46 53.98 C 85.89 52.29 85.86 50.35 87.02 48.94 C 89.29 46.06 93.03 45.03 95.72 42.66 C 97.13 41.01 95.02 38.59 93.10 39.24 C 91.23 39.53 91.28 41.88 90.57 43.20 C 88.92 43.17 87.27 43.13 85.62 43.10 C 85.98 40.47 86.25 37.29 88.92 35.91 Z" />
<path fill="#f29400" opacity="1.00" d=" M 61.99 65.62 C 65.22 59.83 72.70 55.97 78.95 58.95 C 79.32 63.75 78.97 68.58 79.09 73.40 C 75.62 72.54 71.75 71.61 68.38 73.36 C 64.70 75.02 63.23 79.24 62.93 82.99 C 62.32 89.64 62.78 96.32 62.59 102.98 C 57.06 103.04 51.53 102.96 46.00 102.93 C 46.00 88.33 45.99 73.72 46.00 59.12 C 51.34 59.11 56.68 59.12 62.01 59.19 C 62.03 61.34 62.03 63.48 61.99 65.62 Z" />
</g>
<g id="#ffffffff">
<path fill="#ffffff" opacity="1.00" d=" M 61.49 19.71 C 75.13 17.37 89.66 20.84 100.68 29.23 C 112.47 38.04 120.24 52.19 120.75 66.96 C 121.35 76.96 119.00 87.13 113.78 95.71 C 106.03 108.76 92.15 118.14 77.03 119.94 C 69.59 120.25 61.89 120.66 54.74 118.19 C 37.80 113.04 24.16 98.42 20.36 81.11 C 17.98 69.82 19.06 57.64 24.32 47.29 C 31.36 32.86 45.63 22.25 61.49 19.71 M 88.92 35.91 C 86.25 37.29 85.98 40.47 85.62 43.10 C 87.27 43.13 88.92 43.17 90.57 43.20 C 91.28 41.88 91.23 39.53 93.10 39.24 C 95.02 38.59 97.13 41.01 95.72 42.66 C 93.03 45.03 89.29 46.06 87.02 48.94 C 85.86 50.35 85.89 52.29 85.46 53.98 C 90.90 54.05 96.34 54.00 101.78 54.02 C 101.80 52.51 101.83 51.00 101.85 49.49 C 99.09 49.49 96.33 49.50 93.57 49.58 C 96.43 47.89 99.66 46.27 101.23 43.17 C 102.67 40.44 101.35 36.68 98.38 35.66 C 95.38 34.66 91.81 34.50 88.92 35.91 M 61.99 65.62 C 62.03 63.48 62.03 61.34 62.01 59.19 C 56.68 59.12 51.34 59.11 46.00 59.12 C 45.99 73.72 46.00 88.33 46.00 102.93 C 51.53 102.96 57.06 103.04 62.59 102.98 C 62.78 96.32 62.32 89.64 62.93 82.99 C 63.23 79.24 64.70 75.02 68.38 73.36 C 71.75 71.61 75.62 72.54 79.09 73.40 C 78.97 68.58 79.32 63.75 78.95 58.95 C 72.70 55.97 65.22 59.83 61.99 65.62 Z" />
<path fill="#ffffff" opacity="1.00" d=" M 34.62 149.94 C 35.47 149.94 37.16 149.94 38.01 149.94 C 38.00 151.90 37.99 153.87 37.98 155.85 C 40.72 155.64 44.27 155.29 45.92 158.04 C 48.11 162.05 47.43 169.09 42.03 170.00 L 39.09 170.00 C 37.60 169.72 36.12 169.41 34.64 169.08 C 34.61 162.70 34.63 156.32 34.62 149.94 M 38.00 158.61 C 38.00 161.50 38.00 164.39 38.00 167.29 C 39.53 167.12 41.41 167.83 42.69 166.70 C 43.86 164.73 43.70 162.22 43.26 160.06 C 42.68 157.52 39.79 158.49 38.00 158.61 Z" />
<path fill="#ffffff" opacity="1.00" d=" M 49.32 149.95 C 50.58 149.94 51.85 149.94 53.12 149.93 C 53.12 151.16 53.12 152.40 53.13 153.63 C 51.85 153.63 50.59 153.62 49.32 153.62 C 49.31 152.39 49.31 151.17 49.32 149.95 Z" />
<path fill="#ffffff" opacity="1.00" d=" M 56.50 149.94 C 57.36 149.94 59.08 149.94 59.94 149.94 C 59.94 153.24 59.94 156.55 59.95 159.86 C 61.39 158.59 62.83 157.33 64.27 156.06 C 65.98 156.06 67.69 156.06 69.40 156.06 C 67.23 157.76 65.05 159.46 62.89 161.17 C 65.09 163.98 67.29 166.80 69.48 169.63 C 68.37 169.63 66.17 169.63 65.06 169.63 C 63.40 167.32 61.74 165.00 59.99 162.76 C 59.94 165.05 59.94 167.34 59.93 169.63 C 59.07 169.63 57.36 169.63 56.50 169.63 C 56.50 163.06 56.50 156.50 56.50 149.94 Z" />
<path fill="#ffffff" opacity="1.00" d=" M 9.70 156.83 C 10.08 152.71 14.12 150.09 18.09 151.12 C 22.38 151.44 23.97 157.29 21.12 160.18 C 18.78 162.52 15.80 164.13 13.66 166.70 C 15.56 166.78 17.45 166.82 19.35 166.85 C 19.36 166.34 19.38 165.32 19.39 164.81 C 20.18 164.81 21.77 164.81 22.57 164.81 C 22.56 166.41 22.56 168.02 22.56 169.62 C 18.29 169.62 14.01 169.65 9.74 169.60 C 10.07 166.33 11.61 163.20 14.46 161.43 C 16.38 159.77 20.10 158.28 18.94 155.10 C 17.28 152.27 13.17 154.08 12.65 156.91 C 11.91 156.89 10.44 156.85 9.70 156.83 Z" />
<path fill="#ffffff" opacity="1.00" d=" M 0.00 155.86 C 1.17 156.04 2.34 156.24 3.51 156.45 C 4.92 156.07 6.36 155.74 7.79 155.45 C 7.85 156.23 7.97 157.77 8.03 158.55 C 6.51 158.65 5.00 158.77 3.48 158.90 C 3.42 162.47 3.44 166.05 3.44 169.63 C 2.58 169.63 0.86 169.63 0.00 169.63 L 0.00 155.86 Z" />
<path fill="#ffffff" opacity="1.00" d=" M 49.50 156.06 C 50.36 156.06 52.08 156.06 52.94 156.06 C 52.94 160.58 52.94 165.10 52.94 169.63 C 52.08 169.63 50.36 169.63 49.50 169.63 C 49.50 165.10 49.50 160.58 49.50 156.06 Z" />
<path fill="#ffffff" opacity="1.00" d=" M 70.81 158.72 C 72.27 155.49 76.66 154.99 79.61 156.24 C 82.46 157.57 82.49 161.07 82.93 163.73 C 79.65 163.83 76.37 163.80 73.10 163.88 C 73.94 165.02 74.13 167.38 76.01 167.25 C 77.63 167.59 78.91 166.22 80.28 165.63 C 80.95 165.93 82.27 166.53 82.93 166.83 C 81.53 168.06 80.10 169.31 78.34 170.00 L 75.24 170.00 C 69.90 169.41 69.08 162.77 70.81 158.72 M 73.34 161.32 C 75.37 161.37 77.40 161.38 79.44 161.33 C 78.88 159.84 78.11 157.89 76.12 158.38 C 74.38 158.26 74.04 160.14 73.34 161.32 Z" />
<path fill="#ffffff" opacity="1.00" d=" M 92.92 158.09 C 95.78 154.09 102.49 155.15 104.67 159.39 C 101.65 161.08 99.08 157.17 96.21 158.89 C 94.93 161.27 94.86 164.48 96.30 166.81 C 99.07 168.20 101.68 165.01 104.60 166.24 C 103.40 167.88 101.97 169.46 99.93 170.00 L 96.83 170.00 C 91.37 169.14 90.83 162.11 92.92 158.09 Z" />
<path fill="#ffffff" opacity="1.00" d=" M 105.79 160.04 C 106.65 154.50 115.86 154.02 117.68 159.10 C 119.07 163.03 118.39 168.95 113.54 170.00 L 110.55 170.00 C 105.80 169.45 104.79 163.89 105.79 160.04 M 109.57 159.40 C 108.71 161.29 108.78 163.54 109.27 165.53 C 109.71 167.53 112.33 167.71 113.80 166.75 C 115.18 164.87 114.96 162.28 114.50 160.12 C 113.94 158.00 110.79 157.71 109.57 159.40 Z" />
<path fill="#ffffff" opacity="1.00" d=" M 120.77 155.81 C 121.67 156.00 123.49 156.38 124.39 156.57 C 126.74 155.46 129.23 155.54 131.51 156.80 C 134.52 155.06 139.17 155.13 140.00 159.25 L 140.00 169.63 C 139.16 169.63 137.47 169.63 136.63 169.63 C 136.63 165.81 136.76 161.98 136.27 158.19 C 134.90 158.43 133.53 158.69 132.17 158.97 C 132.11 162.52 132.12 166.08 132.13 169.63 C 131.27 169.63 129.55 169.63 128.69 169.63 C 128.68 165.78 128.85 161.91 128.31 158.09 C 126.94 158.45 125.59 158.82 124.24 159.23 C 124.17 162.69 124.19 166.16 124.19 169.63 C 123.33 169.63 121.61 169.63 120.75 169.63 C 120.75 165.02 120.74 160.41 120.77 155.81 Z" />
<path fill="#ffffff" opacity="1.00" d=" M 24.94 160.06 C 27.44 160.06 29.94 160.06 32.44 160.06 C 32.44 160.81 32.44 162.31 32.44 163.06 C 29.94 163.06 27.44 163.06 24.94 163.06 C 24.94 162.31 24.94 160.81 24.94 160.06 Z" />
<path fill="#ffffff" opacity="1.00" d=" M 85.31 165.75 C 86.28 165.75 88.22 165.75 89.19 165.75 C 89.19 166.72 89.19 168.66 89.19 169.63 C 88.22 169.63 86.28 169.63 85.31 169.62 C 85.31 168.66 85.31 166.72 85.31 165.75 Z" />
</g>
</svg>
