<?xml version="1.0" encoding="UTF-8" ?>
<!DOCTYPE svg PUBLIC "-//W3C//DTD SVG 1.1//EN" "http://www.w3.org/Graphics/SVG/1.1/DTD/svg11.dtd">
<svg width="1418pt" height="536pt" viewBox="0 0 1418 536" version="1.1" xmlns="http://www.w3.org/2000/svg">
<g id="#333333ff">
<path fill="#333333" opacity="1.00" d=" M 673.83 0.00 L 745.45 0.00 C 757.73 0.88 769.21 7.73 776.31 17.71 C 791.91 39.17 807.52 60.63 823.14 82.08 C 813.76 82.17 804.38 82.02 795.01 82.10 C 788.50 81.95 782.50 85.67 778.77 90.82 C 773.82 97.50 769.02 104.28 764.10 110.97 C 754.84 123.96 744.40 136.42 738.42 151.39 C 734.79 160.55 731.51 170.57 733.41 180.50 C 734.17 185.04 738.23 188.68 742.95 188.29 C 784.74 188.32 826.53 188.30 868.32 188.29 C 867.69 195.75 866.27 204.13 860.09 209.12 C 855.05 213.31 848.14 212.82 842.02 212.82 C 752.34 212.78 662.65 212.80 572.97 212.81 C 568.18 212.86 563.02 212.05 559.34 208.72 C 554.32 204.30 552.47 197.43 551.89 191.00 C 550.94 179.30 553.35 167.62 556.62 156.44 C 562.40 137.26 571.42 119.16 582.35 102.42 C 589.63 91.46 597.66 81.03 605.31 70.34 C 618.10 52.76 630.89 35.18 643.67 17.60 C 650.68 7.85 661.82 1.14 673.83 0.00 Z" />
<path fill="#333333" opacity="1.00" d=" M 164.02 259.23 C 175.78 259.02 187.55 259.14 199.31 259.16 C 199.78 298.07 199.32 337.01 199.54 375.93 C 199.59 380.16 201.38 384.53 204.98 386.95 C 208.60 389.55 213.50 389.06 217.45 387.52 C 221.34 386.05 224.07 382.80 227.02 380.02 C 231.74 388.19 235.96 396.63 240.47 404.91 C 232.72 411.98 223.39 417.80 212.86 419.39 C 199.71 421.47 185.51 417.59 175.99 408.08 C 167.30 399.95 163.64 387.74 163.86 376.09 C 163.99 337.14 163.67 298.18 164.02 259.23 Z" />
<path fill="#333333" opacity="1.00" d=" M 12.97 316.00 C 23.51 303.12 39.27 294.25 56.05 293.49 C 68.51 292.45 81.17 296.42 90.77 304.42 C 90.75 301.47 90.74 298.51 90.76 295.56 C 101.54 295.16 112.33 295.48 123.12 295.36 C 124.27 295.48 126.62 294.99 126.31 296.95 C 126.38 337.33 126.50 377.72 126.25 418.09 C 114.44 418.07 102.62 418.31 90.81 417.96 C 90.75 415.03 90.74 412.09 90.77 409.16 C 80.36 417.16 66.99 420.96 53.93 419.72 C 36.30 418.58 20.21 408.01 10.40 393.61 C 2.80 382.33 -0.20 368.49 0.10 355.03 C 0.09 341.12 4.07 326.88 12.97 316.00 M 56.34 324.51 C 48.90 326.87 43.02 332.80 39.50 339.63 C 35.57 347.45 34.94 356.61 36.45 365.14 C 38.10 374.27 44.11 382.44 52.28 386.82 C 60.12 390.93 70.27 390.68 77.65 385.66 C 84.31 381.13 88.84 373.78 90.35 365.91 C 92.92 353.01 89.97 338.16 79.67 329.29 C 73.48 323.64 64.25 322.00 56.34 324.51 Z" />
<path fill="#333333" opacity="1.00" d=" M 298.22 307.72 C 309.19 297.19 324.80 291.78 339.92 293.72 C 354.58 295.29 367.40 304.39 376.26 315.81 C 385.61 327.67 389.58 343.06 389.13 358.00 C 389.06 374.11 383.27 390.33 372.06 402.06 C 361.98 413.26 347.23 420.53 331.99 419.89 C 319.00 420.00 306.44 413.79 298.22 403.80 C 298.21 423.10 298.39 442.41 298.13 461.71 C 286.43 461.76 274.73 461.79 263.03 461.70 C 262.67 406.33 262.98 350.96 262.87 295.59 C 274.65 295.22 286.46 295.27 298.24 295.57 C 298.26 299.62 298.26 303.67 298.22 307.72 M 317.37 324.66 C 314.22 325.73 311.32 327.52 308.85 329.75 C 298.79 338.70 296.03 353.46 298.77 366.21 C 300.45 374.16 305.24 381.49 312.15 385.84 C 320.04 390.81 330.73 390.60 338.58 385.65 C 344.70 381.80 349.52 375.83 351.75 368.93 C 356.09 355.11 352.74 338.28 341.06 329.00 C 334.61 323.57 325.33 321.94 317.37 324.66 Z" />
<path fill="#333333" opacity="1.00" d=" M 802.37 454.46 C 807.43 451.97 814.04 456.36 813.27 462.07 C 813.27 468.23 804.98 471.46 800.59 467.40 C 796.33 464.07 797.34 456.51 802.37 454.46 Z" />
<path fill="#333333" opacity="1.00" d=" M 942.36 454.40 C 947.41 452.04 953.81 456.45 953.12 462.05 C 953.07 467.85 945.67 471.24 941.08 467.92 C 936.11 464.87 936.87 456.45 942.36 454.40 Z" />
<path fill="#333333" opacity="1.00" d=" M 1211.35 454.54 C 1216.39 451.91 1223.15 456.23 1222.45 462.00 C 1222.45 467.92 1214.83 471.30 1210.24 467.81 C 1205.59 464.74 1206.20 456.76 1211.35 454.54 Z" />
<path fill="#333333" opacity="1.00" d=" M 1296.24 454.31 C 1301.28 452.15 1307.47 456.54 1306.76 462.06 C 1306.76 468.07 1298.84 471.36 1294.35 467.64 C 1289.68 464.31 1290.78 456.16 1296.24 454.31 Z" />
<path fill="#333333" opacity="1.00" d=" M 881.13 455.13 C 885.50 455.12 889.87 455.12 894.24 455.13 C 894.23 462.19 894.31 469.26 894.19 476.33 C 897.80 473.34 902.26 471.15 907.06 471.35 C 916.32 471.00 924.65 478.24 927.01 486.96 C 929.07 494.71 928.00 503.62 922.88 510.00 C 918.91 515.11 912.67 518.84 906.02 518.26 C 901.39 518.22 897.42 515.57 894.18 512.52 C 894.20 514.21 894.24 515.91 894.27 517.62 C 889.89 517.63 885.50 517.63 881.13 517.61 C 881.13 496.78 881.12 475.96 881.13 455.13 M 900.39 483.41 C 891.44 487.89 891.99 504.03 902.10 506.69 C 909.42 508.48 915.65 500.79 914.65 493.89 C 914.72 486.94 907.30 479.89 900.39 483.41 Z" />
<path fill="#333333" opacity="1.00" d=" M 965.39 455.14 C 969.80 455.11 974.21 455.12 978.62 455.13 C 978.63 465.50 978.61 475.86 978.64 486.22 C 983.14 481.51 987.54 476.71 992.04 471.99 C 997.54 472.01 1003.05 471.96 1008.56 472.04 C 1002.99 478.38 997.04 484.37 991.33 490.57 C 997.28 499.57 1003.30 508.52 1009.19 517.55 C 1003.98 517.67 998.76 517.62 993.56 517.61 C 989.83 511.97 986.06 506.37 982.34 500.73 C 981.12 502.08 979.45 503.17 978.76 504.89 C 978.39 509.12 978.70 513.37 978.61 517.61 C 974.20 517.63 969.80 517.63 965.39 517.61 C 965.36 496.79 965.36 475.96 965.39 455.14 Z" />
<path fill="#333333" opacity="1.00" d=" M 1265.89 455.14 C 1270.29 455.12 1274.70 455.12 1279.11 455.13 C 1279.11 475.96 1279.17 496.79 1279.08 517.62 C 1274.68 517.62 1270.29 517.62 1265.90 517.62 C 1265.89 515.94 1265.89 514.27 1265.93 512.61 C 1262.90 515.43 1259.27 517.93 1255.00 518.19 C 1248.28 519.05 1241.74 515.56 1237.64 510.40 C 1232.19 503.87 1231.03 494.55 1233.33 486.54 C 1235.88 477.69 1244.63 470.60 1254.05 471.36 C 1258.51 471.36 1262.52 473.51 1265.93 476.22 C 1265.82 469.19 1265.88 462.16 1265.89 455.14 M 1252.27 483.30 C 1242.94 487.50 1243.28 503.53 1253.37 506.57 C 1260.78 508.89 1267.08 500.96 1266.09 494.02 C 1266.27 487.16 1259.24 479.98 1252.27 483.30 Z" />
<path fill="#333333" opacity="1.00" d=" M 704.13 458.65 C 708.58 458.61 713.03 458.61 717.48 458.64 C 717.51 463.13 717.50 467.63 717.51 472.12 C 721.08 472.12 724.66 472.12 728.24 472.13 C 728.25 475.58 728.25 479.04 728.25 482.49 C 724.66 482.50 721.08 482.50 717.50 482.50 C 717.57 488.99 717.37 495.49 717.56 501.97 C 717.44 504.09 718.91 506.41 721.14 506.63 C 723.82 507.05 725.82 504.95 727.81 503.54 C 729.43 506.65 731.10 509.75 732.73 512.86 C 728.84 515.98 724.20 518.73 719.01 518.27 C 711.30 518.27 704.36 511.63 704.25 503.86 C 703.95 488.80 704.21 473.72 704.13 458.65 Z" />
<path fill="#333333" opacity="1.00" d=" M 465.69 476.46 C 469.08 473.44 473.34 470.89 478.07 471.37 C 483.28 471.42 487.46 475.15 490.24 479.24 C 495.26 472.75 504.19 469.69 512.08 472.14 C 518.81 473.85 523.53 480.35 523.77 487.19 C 524.03 497.33 523.80 507.48 523.87 517.62 C 519.45 517.63 515.04 517.63 510.63 517.60 C 510.59 509.38 510.66 501.17 510.63 492.96 C 510.56 489.90 510.27 486.40 507.86 484.22 C 504.53 481.61 499.37 482.68 496.76 485.81 C 494.73 488.02 494.50 491.17 494.48 494.02 C 494.49 501.88 494.53 509.75 494.49 517.61 C 490.07 517.63 485.66 517.62 481.26 517.62 C 481.19 509.12 481.35 500.62 481.20 492.13 C 481.03 489.02 480.78 485.06 477.68 483.40 C 472.52 481.03 466.22 485.43 465.97 490.93 C 465.44 499.81 465.91 508.72 465.74 517.62 C 461.37 517.63 457.00 517.64 452.63 517.59 C 452.62 502.43 452.61 487.28 452.63 472.13 C 457.01 472.12 461.39 472.12 465.77 472.14 C 465.74 473.57 465.71 475.01 465.69 476.46 Z" />
<path fill="#333333" opacity="1.00" d=" M 661.84 476.35 C 665.82 473.11 670.78 470.70 676.05 471.41 C 684.47 471.90 691.16 479.77 691.19 488.06 C 691.36 497.90 691.18 507.74 691.26 517.59 C 686.88 517.64 682.51 517.63 678.14 517.61 C 678.08 509.06 678.17 500.51 678.12 491.97 C 678.03 488.63 677.61 484.47 674.32 482.70 C 669.11 480.11 662.36 484.25 662.06 489.99 C 661.60 499.18 662.03 508.40 661.86 517.61 C 657.45 517.63 653.04 517.63 648.63 517.60 C 648.63 502.44 648.59 487.29 648.65 472.13 C 653.06 472.12 657.47 472.12 661.88 472.13 C 661.86 473.53 661.85 474.94 661.84 476.35 Z" />
<path fill="#333333" opacity="1.00" d=" M 744.33 478.34 C 751.19 470.74 763.73 468.82 772.03 475.21 C 772.03 474.44 772.01 472.90 772.00 472.13 C 776.41 472.12 780.81 472.12 785.22 472.13 C 785.30 487.27 785.22 502.42 785.26 517.56 C 780.84 517.64 776.42 517.63 772.01 517.62 C 772.01 516.85 772.02 515.29 772.02 514.51 C 768.66 516.50 765.00 518.29 761.00 518.27 C 750.70 518.97 740.95 510.96 738.98 500.96 C 737.38 493.18 738.54 484.19 744.33 478.34 M 758.24 483.33 C 750.35 487.09 749.25 499.58 756.11 504.86 C 759.36 507.63 764.61 507.81 767.86 504.93 C 772.96 500.67 773.35 492.52 769.92 487.11 C 767.64 483.20 762.39 481.26 758.24 483.33 Z" />
<path fill="#333333" opacity="1.00" d=" M 1032.81 471.97 C 1040.83 470.19 1050.04 472.01 1055.81 478.14 C 1059.45 481.78 1060.86 486.94 1061.05 491.96 C 1051.07 496.14 1040.99 500.09 1031.09 504.47 C 1037.29 509.94 1046.74 506.87 1051.23 500.73 C 1053.79 503.45 1056.33 506.20 1058.86 508.95 C 1054.93 512.80 1050.38 516.30 1044.93 517.57 C 1036.79 519.43 1027.31 517.84 1021.38 511.59 C 1015.43 505.63 1013.76 496.44 1015.61 488.42 C 1017.56 480.23 1024.76 473.91 1032.81 471.97 M 1030.53 486.52 C 1028.24 488.69 1028.03 491.96 1027.66 494.89 C 1034.15 492.34 1040.61 489.71 1047.05 487.02 C 1043.69 481.00 1034.72 481.98 1030.53 486.52 Z" />
<path fill="#333333" opacity="1.00" d=" M 1099.55 477.49 C 1106.06 470.31 1117.85 469.33 1125.55 475.20 C 1125.54 474.44 1125.52 472.90 1125.51 472.14 C 1129.92 472.12 1134.33 472.12 1138.74 472.13 C 1138.74 485.11 1138.76 498.08 1138.75 511.05 C 1138.73 517.57 1136.81 524.39 1132.08 529.07 C 1125.95 535.26 1116.10 537.09 1108.01 534.02 C 1101.34 531.94 1096.46 526.32 1093.95 519.98 C 1097.72 518.32 1101.50 516.68 1105.29 515.05 C 1106.49 517.27 1107.53 519.69 1109.42 521.46 C 1113.26 525.02 1120.22 524.82 1123.42 520.49 C 1125.62 517.95 1125.95 514.49 1126.39 511.31 C 1123.03 513.70 1119.26 515.94 1114.98 515.77 C 1107.23 516.25 1099.58 511.80 1096.06 504.91 C 1091.59 496.25 1092.63 484.59 1099.55 477.49 M 1112.47 482.58 C 1105.26 486.12 1104.50 497.50 1110.58 502.46 C 1114.04 505.10 1119.51 504.67 1122.49 501.46 C 1126.22 497.47 1126.42 490.94 1123.67 486.36 C 1121.53 482.51 1116.49 480.92 1112.47 482.58 Z" />
<path fill="#333333" opacity="1.00" d=" M 1332.19 476.41 C 1335.84 473.50 1340.21 471.03 1345.06 471.35 C 1353.74 471.09 1361.16 478.79 1361.56 487.29 C 1361.99 497.38 1361.64 507.50 1361.73 517.61 C 1357.32 517.63 1352.91 517.63 1348.51 517.60 C 1348.48 509.39 1348.49 501.18 1348.52 492.98 C 1348.46 490.05 1348.40 486.84 1346.65 484.37 C 1344.10 481.05 1338.85 481.39 1335.81 483.83 C 1333.24 485.67 1332.31 488.94 1332.29 491.97 C 1332.14 500.52 1332.34 509.07 1332.21 517.63 C 1327.84 517.62 1323.48 517.62 1319.13 517.62 C 1319.12 502.46 1319.12 487.29 1319.13 472.13 C 1323.50 472.12 1327.88 472.12 1332.26 472.13 C 1332.22 473.55 1332.20 474.98 1332.19 476.41 Z" />
<path fill="#333333" opacity="1.00" d=" M 1374.14 484.21 C 1377.13 476.67 1384.81 471.13 1393.02 471.35 C 1397.21 471.09 1400.99 473.18 1404.57 475.10 C 1404.55 474.36 1404.50 472.87 1404.48 472.13 C 1408.98 472.11 1413.49 472.11 1418.00 472.20 L 1418.00 512.03 C 1417.27 517.92 1415.83 524.14 1411.58 528.55 C 1404.79 535.97 1393.04 537.41 1384.25 532.87 C 1378.81 530.38 1375.25 525.31 1372.88 520.02 C 1376.65 518.35 1380.44 516.71 1384.23 515.05 C 1385.36 517.08 1386.38 519.23 1387.95 520.98 C 1391.51 524.86 1398.46 525.01 1401.98 521.00 C 1404.48 518.43 1404.84 514.70 1405.50 511.37 C 1402.94 512.88 1400.45 514.66 1397.52 515.37 C 1390.74 516.77 1383.17 514.77 1378.43 509.59 C 1372.05 503.00 1370.86 492.55 1374.14 484.21 M 1391.42 482.59 C 1384.28 486.16 1383.50 497.45 1389.53 502.43 C 1393.18 505.25 1399.08 504.61 1401.95 500.95 C 1405.22 496.88 1405.30 490.74 1402.65 486.35 C 1400.50 482.49 1395.44 480.92 1391.42 482.59 Z" />
<path fill="#333333" opacity="1.00" d=" M 551.16 472.22 C 555.35 471.13 559.80 471.05 564.04 471.92 C 572.10 473.53 578.97 479.89 581.33 487.74 C 583.53 495.48 582.11 504.50 576.50 510.49 C 567.50 520.85 549.41 520.98 540.25 510.77 C 534.53 504.83 532.90 495.78 535.10 487.98 C 537.25 480.44 543.59 474.25 551.16 472.22 M 554.29 483.41 C 546.90 486.43 545.44 497.05 550.03 503.01 C 553.61 507.91 561.69 508.27 565.76 503.81 C 569.85 499.42 570.09 492.08 566.82 487.16 C 564.22 483.10 558.68 481.68 554.29 483.41 Z" />
<path fill="#333333" opacity="1.00" d=" M 592.63 472.13 C 597.04 472.12 601.45 472.12 605.87 472.13 C 605.91 480.42 605.83 488.72 605.88 497.01 C 605.94 500.33 606.48 504.48 609.80 506.16 C 614.86 508.59 621.37 504.64 621.81 499.11 C 622.29 490.13 621.84 481.13 622.02 472.14 C 626.42 472.11 630.83 472.12 635.24 472.13 C 635.27 487.28 635.23 502.43 635.26 517.59 C 630.84 517.63 626.42 517.63 622.01 517.60 C 622.01 515.97 622.01 514.34 622.04 512.72 C 615.63 520.74 602.21 519.77 596.12 511.89 C 593.26 508.25 592.55 503.47 592.60 498.97 C 592.63 490.02 592.61 481.07 592.63 472.13 Z" />
<path fill="#333333" opacity="1.00" d=" M 799.02 472.14 C 803.42 472.11 807.82 472.12 812.22 472.13 C 812.30 487.27 812.21 502.41 812.27 517.55 C 807.85 517.65 803.43 517.64 799.02 517.60 C 798.99 502.45 798.99 487.29 799.02 472.14 Z" />
<path fill="#333333" opacity="1.00" d=" M 825.63 472.13 C 830.00 472.12 834.38 472.12 838.76 472.13 C 838.73 473.55 838.72 474.97 838.71 476.39 C 842.00 473.87 845.69 471.49 849.98 471.38 C 855.92 470.80 862.01 473.71 865.21 478.77 C 867.64 482.34 868.26 486.75 868.26 490.98 C 868.26 499.84 868.23 508.70 868.27 517.55 C 863.85 517.65 859.43 517.64 855.02 517.60 C 854.93 508.70 855.08 499.80 854.97 490.90 C 854.90 487.68 853.97 483.74 850.64 482.44 C 845.51 480.44 839.33 484.42 838.99 489.90 C 838.41 499.12 838.92 508.38 838.74 517.62 C 834.37 517.62 829.99 517.63 825.63 517.61 C 825.63 502.45 825.61 487.29 825.63 472.13 Z" />
<path fill="#333333" opacity="1.00" d=" M 938.89 472.13 C 943.25 472.12 947.62 472.12 951.99 472.13 C 952.00 487.29 952.01 502.46 951.99 517.62 C 947.62 517.62 943.25 517.62 938.89 517.62 C 938.86 502.46 938.87 487.29 938.89 472.13 Z" />
<path fill="#333333" opacity="1.00" d=" M 1152.13 472.13 C 1156.53 472.12 1160.94 472.12 1165.35 472.13 C 1165.46 480.77 1165.26 489.42 1165.42 498.06 C 1165.51 501.20 1166.39 505.04 1169.66 506.32 C 1174.76 508.44 1181.01 504.39 1181.32 498.91 C 1181.78 490.00 1181.33 481.06 1181.52 472.14 C 1185.92 472.11 1190.33 472.12 1194.74 472.13 C 1194.75 487.29 1194.75 502.46 1194.74 517.62 C 1190.32 517.62 1185.90 517.64 1181.48 517.59 C 1181.49 515.95 1181.51 514.32 1181.56 512.69 C 1174.90 521.02 1160.71 519.70 1154.98 511.02 C 1152.00 506.60 1152.01 501.09 1152.11 495.98 C 1152.15 488.03 1152.10 480.08 1152.13 472.13 Z" />
<path fill="#333333" opacity="1.00" d=" M 1208.14 472.14 C 1212.54 472.11 1216.94 472.12 1221.35 472.13 C 1221.41 487.28 1221.36 502.44 1221.37 517.59 C 1216.95 517.64 1212.54 517.63 1208.14 517.61 C 1208.11 502.45 1208.11 487.30 1208.14 472.14 Z" />
<path fill="#333333" opacity="1.00" d=" M 1292.51 472.13 C 1296.91 472.12 1301.32 472.11 1305.73 472.14 C 1305.76 487.30 1305.76 502.45 1305.73 517.61 C 1301.32 517.63 1296.91 517.63 1292.51 517.60 C 1292.49 502.44 1292.49 487.28 1292.51 472.13 Z" />
</g>
<g id="#1a8bb6ff">
<path fill="#1a8bb6" opacity="1.00" d=" M 778.77 90.82 C 782.50 85.67 788.50 81.95 795.01 82.10 C 804.38 82.02 813.76 82.17 823.14 82.08 C 827.08 82.15 831.19 81.68 834.98 83.08 C 839.33 84.56 842.92 87.71 845.58 91.41 C 854.27 103.39 862.99 115.35 871.69 127.33 C 876.38 133.81 880.65 140.63 883.96 147.93 C 888.04 157.07 891.51 166.92 891.01 177.07 C 890.84 181.54 888.77 186.91 883.92 187.97 C 878.75 188.70 873.51 188.15 868.32 188.29 C 826.53 188.30 784.74 188.32 742.95 188.29 C 738.23 188.68 734.17 185.04 733.41 180.50 C 731.51 170.57 734.79 160.55 738.42 151.39 C 744.40 136.42 754.84 123.96 764.10 110.97 C 769.02 104.28 773.82 97.50 778.77 90.82 Z" />
<path fill="#1a8bb6" opacity="1.00" d=" M 418.80 249.62 C 430.56 249.41 442.34 249.44 454.10 249.60 C 454.13 268.94 454.15 288.28 454.09 307.61 C 462.43 299.02 474.05 293.91 486.01 293.46 C 500.37 292.40 514.86 297.81 525.26 307.71 C 535.60 316.95 542.29 329.95 544.22 343.66 C 546.70 360.66 544.12 378.95 534.36 393.39 C 526.81 404.46 516.07 413.86 503.10 417.85 C 491.16 421.41 477.66 420.49 466.77 414.21 C 461.94 411.49 457.80 407.73 454.10 403.64 C 454.14 408.44 454.14 413.25 454.09 418.05 C 442.33 418.11 430.57 418.29 418.82 417.96 C 418.69 361.84 418.72 305.73 418.80 249.62 M 473.41 324.62 C 469.75 325.83 466.47 328.01 463.75 330.72 C 454.02 340.23 451.82 355.28 455.15 368.04 C 458.01 378.92 467.40 388.67 479.02 389.39 C 491.50 390.60 503.08 381.49 507.26 370.12 C 512.25 356.07 508.97 338.55 496.98 329.01 C 490.57 323.59 481.34 321.96 473.41 324.62 Z" />
<path fill="#1a8bb6" opacity="1.00" d=" M 923.71 249.59 C 935.46 249.47 947.22 249.38 958.97 249.63 C 959.04 269.00 958.98 288.36 959.00 307.72 C 968.95 297.97 982.91 291.99 996.97 293.56 C 1014.63 294.71 1030.38 307.80 1035.66 324.54 C 1039.47 335.65 1038.33 347.53 1038.50 359.06 C 1038.39 378.74 1038.71 398.43 1038.34 418.10 C 1026.63 418.12 1014.92 418.18 1003.22 418.07 C 1003.00 399.06 1003.18 380.05 1003.13 361.05 C 1003.04 352.94 1003.65 344.60 1001.15 336.76 C 999.69 332.15 996.68 327.78 992.14 325.78 C 983.69 322.14 973.26 324.36 966.75 330.79 C 961.16 335.86 959.16 343.67 959.07 350.98 C 958.84 373.35 959.18 395.72 958.90 418.09 C 947.18 418.14 935.46 418.16 923.74 418.08 C 923.53 361.92 923.59 305.75 923.71 249.59 Z" />
<path fill="#1a8bb6" opacity="1.00" d=" M 825.60 259.16 C 837.30 259.21 849.03 258.89 860.73 259.31 C 861.37 271.30 860.81 283.36 861.00 295.38 C 870.53 295.51 880.08 295.12 889.59 295.55 L 890.13 296.01 C 890.41 305.09 890.22 314.19 890.19 323.27 C 880.46 323.49 870.73 323.32 861.00 323.37 C 860.98 340.25 861.02 357.13 860.98 374.01 C 860.81 378.50 861.95 383.42 865.66 386.33 C 869.34 389.62 874.87 389.19 879.16 387.43 C 882.90 385.96 885.57 382.87 888.29 380.05 C 893.41 388.00 897.31 396.66 901.94 404.91 C 892.74 413.45 880.88 419.98 868.05 419.90 C 855.24 420.29 842.38 414.66 834.31 404.65 C 828.00 396.98 825.35 386.86 825.37 377.06 C 825.38 344.70 825.37 312.34 825.37 279.98 C 825.47 273.04 825.13 266.09 825.60 259.16 Z" />
<path fill="#1a8bb6" opacity="1.00" d=" M 610.10 310.02 C 619.65 300.49 632.53 293.32 646.32 293.43 C 646.23 304.35 646.78 315.30 646.34 326.21 C 644.53 327.31 642.04 326.50 639.98 326.76 C 631.82 326.44 623.08 329.29 618.13 336.10 C 611.28 345.14 609.82 356.95 610.12 367.98 C 609.95 384.61 610.48 401.28 609.86 417.90 C 598.20 418.42 586.49 418.01 574.82 418.09 C 574.64 378.39 574.83 338.69 574.72 298.98 C 574.97 297.89 574.15 295.21 576.06 295.42 C 587.40 295.40 598.77 295.18 610.11 295.57 C 610.13 300.38 610.14 305.20 610.10 310.02 Z" />
<path fill="#1a8bb6" opacity="1.00" d=" M 717.38 294.59 C 732.71 291.92 749.17 293.45 763.01 300.91 C 778.86 309.53 791.11 325.09 794.60 342.92 C 797.21 356.40 796.18 370.82 790.45 383.39 C 783.21 398.99 769.33 411.48 752.90 416.69 C 740.63 420.54 727.34 420.85 714.80 418.18 C 697.71 414.52 682.70 403.01 674.08 387.90 C 666.20 374.05 664.55 357.22 667.86 341.78 C 673.02 318.08 693.50 298.69 717.38 294.59 M 723.52 324.74 C 713.94 327.12 706.51 335.21 703.65 344.48 C 701.46 351.74 701.32 359.60 703.07 366.97 C 705.13 375.55 710.99 383.31 719.08 387.02 C 725.88 390.01 733.82 390.23 740.86 387.92 C 749.74 384.89 756.40 376.94 758.86 368.01 C 762.25 355.32 760.13 340.08 750.01 330.94 C 743.09 324.28 732.63 322.50 723.52 324.74 Z" />
<path fill="#1a8bb6" opacity="1.00" d=" M 1079.76 317.76 C 1090.00 305.30 1104.79 296.36 1120.86 294.10 C 1139.58 291.45 1160.00 295.79 1174.22 308.78 C 1185.67 318.67 1191.79 333.96 1191.03 349.01 C 1164.34 360.05 1137.64 371.05 1110.97 382.12 C 1117.33 389.44 1127.70 391.72 1136.98 390.17 C 1148.27 388.56 1158.20 381.66 1164.89 372.60 C 1171.79 379.84 1178.49 387.26 1185.31 394.58 C 1177.98 402.39 1169.47 409.24 1159.71 413.77 C 1147.80 419.48 1134.22 420.93 1121.21 419.29 C 1106.26 417.65 1091.78 410.62 1082.08 398.99 C 1071.79 387.26 1067.01 371.46 1067.23 356.01 C 1067.04 342.36 1071.04 328.43 1079.76 317.76 M 1106.88 336.89 C 1102.66 342.63 1101.66 349.99 1101.95 356.94 C 1119.03 350.02 1136.11 343.09 1153.18 336.14 C 1151.97 333.40 1150.77 330.48 1148.32 328.62 C 1143.75 324.97 1137.62 324.25 1131.97 324.28 C 1122.28 324.37 1112.67 329.09 1106.88 336.89 Z" />
<path fill="#1a8bb6" opacity="1.00" d=" M 1254.87 309.99 C 1264.51 300.58 1277.28 293.33 1291.07 293.42 C 1291.23 304.51 1291.47 315.61 1291.23 326.70 C 1282.93 326.59 1273.72 326.43 1266.96 332.03 C 1258.26 339.26 1255.38 351.16 1254.99 362.00 C 1254.66 380.69 1255.07 399.38 1254.78 418.07 C 1243.08 418.18 1231.37 418.12 1219.67 418.10 C 1219.27 388.75 1219.61 359.38 1219.50 330.02 C 1219.63 318.48 1219.22 306.93 1219.72 295.40 C 1231.36 295.46 1243.02 295.15 1254.65 295.54 C 1255.15 300.34 1254.76 305.18 1254.87 309.99 Z" />
<path fill="#1a8bb6" opacity="1.00" d=" M 1326.66 306.66 C 1339.39 294.69 1358.18 291.76 1374.95 294.14 C 1387.22 296.02 1398.71 301.38 1408.90 308.33 C 1404.32 316.23 1400.20 324.41 1395.32 332.13 C 1386.34 326.07 1376.02 321.39 1365.02 321.14 C 1360.51 321.12 1355.61 321.19 1351.68 323.68 C 1348.69 325.52 1348.15 329.92 1350.14 332.69 C 1351.60 334.73 1353.95 335.84 1356.18 336.87 C 1369.16 342.56 1383.59 344.70 1395.83 352.12 C 1401.13 354.92 1405.72 359.27 1408.08 364.86 C 1411.59 373.16 1411.61 382.70 1409.27 391.31 C 1406.31 401.99 1397.77 410.33 1387.91 414.92 C 1372.75 421.91 1355.14 420.79 1339.42 416.38 C 1327.91 413.22 1317.09 407.68 1307.84 400.15 C 1313.17 392.72 1318.18 385.03 1323.77 377.78 C 1335.98 387.27 1351.27 393.61 1366.95 392.47 C 1371.33 392.10 1376.71 389.90 1377.43 384.99 C 1378.01 381.05 1374.69 378.09 1371.67 376.24 C 1361.43 370.08 1349.23 368.58 1338.65 363.14 C 1332.39 359.83 1325.83 356.38 1321.50 350.59 C 1311.99 337.45 1314.68 317.41 1326.66 306.66 Z" />
</g>
</svg>
