<?xml version="1.0" encoding="UTF-8" ?>
<!DOCTYPE svg PUBLIC "-//W3C//DTD SVG 1.1//EN" "http://www.w3.org/Graphics/SVG/1.1/DTD/svg11.dtd">
<svg width="680pt" height="426pt" viewBox="0 0 680 426" version="1.1" xmlns="http://www.w3.org/2000/svg">
<g id="#333333ff">
<path fill="#333333" opacity="1.00" d=" M 232.32 2.19 C 240.37 0.10 248.75 0.67 256.99 0.60 C 300.66 0.60 344.33 0.60 387.99 0.60 C 395.05 0.56 402.05 1.95 408.67 4.35 C 424.76 10.23 439.18 20.90 449.18 34.86 C 480.56 77.96 511.91 121.09 543.30 164.19 C 526.20 164.21 509.10 164.20 492.00 164.20 C 487.35 164.22 482.61 163.87 478.09 165.13 C 468.64 167.62 460.28 173.65 454.60 181.56 C 440.25 201.23 425.95 220.92 411.62 240.60 C 400.08 256.34 388.38 272.12 379.82 289.73 C 371.73 306.17 365.15 323.65 363.05 341.95 C 362.23 350.79 362.19 360.36 366.71 368.29 C 369.76 373.58 375.81 376.79 381.88 376.61 C 465.73 376.60 549.59 376.61 633.44 376.60 C 632.89 386.64 631.37 396.86 626.84 405.95 C 623.36 413.03 617.70 419.20 610.38 422.35 C 603.44 425.71 595.51 425.31 588.04 426.00 L 48.71 426.00 C 39.65 425.33 29.86 426.10 21.63 421.47 C 10.52 415.82 4.63 403.67 2.25 391.95 C -0.55 378.40 0.06 364.39 1.83 350.75 C 4.32 332.50 9.23 314.67 15.29 297.31 C 29.53 257.22 50.32 219.62 75.24 185.20 C 111.16 135.80 147.10 86.42 183.02 37.02 C 194.66 20.13 212.34 7.21 232.32 2.19 Z" />
</g>
<g id="#1a8bb6ff">
<path fill="#1a8bb6" opacity="1.00" d=" M 478.09 165.13 C 482.61 163.87 487.35 164.22 492.00 164.20 C 509.10 164.20 526.20 164.21 543.30 164.19 C 552.64 164.29 562.55 163.11 571.06 167.89 C 582.07 172.77 588.50 183.31 595.29 192.65 C 608.78 211.20 622.27 229.74 635.76 248.29 C 644.60 260.34 653.20 272.64 660.05 285.96 C 668.69 302.68 675.73 320.50 678.44 339.21 C 679.53 348.42 679.96 358.32 675.85 366.90 C 673.17 372.60 667.16 376.53 660.85 376.57 C 651.71 376.66 642.58 376.56 633.44 376.60 C 549.59 376.61 465.73 376.60 381.88 376.61 C 375.81 376.79 369.76 373.58 366.71 368.29 C 362.19 360.36 362.23 350.79 363.05 341.95 C 365.15 323.65 371.73 306.17 379.82 289.73 C 388.38 272.12 400.08 256.34 411.62 240.60 C 425.95 220.92 440.25 201.23 454.60 181.56 C 460.28 173.65 468.64 167.62 478.09 165.13 Z" />
</g>
</svg>
