<?xml version="1.0" encoding="UTF-8" ?>
<!DOCTYPE svg PUBLIC "-//W3C//DTD SVG 1.1//EN" "http://www.w3.org/Graphics/SVG/1.1/DTD/svg11.dtd">
<svg width="1034pt" height="453pt" viewBox="0 0 1034 453" version="1.1" xmlns="http://www.w3.org/2000/svg">
<g id="#333333ff">
<path fill="#333333" opacity="1.00" d=" M 491.69 0.00 L 547.48 0.00 C 555.76 1.26 563.45 5.79 568.38 12.58 C 579.85 28.44 591.49 44.18 602.87 60.10 C 595.56 60.27 588.24 59.90 580.93 60.23 C 576.13 60.45 572.23 63.80 569.57 67.55 C 563.31 76.25 556.97 84.89 550.69 93.57 C 544.16 102.62 538.80 112.84 537.03 123.96 C 536.55 127.99 536.25 132.67 538.97 136.02 C 540.43 137.81 542.89 137.96 545.03 138.03 C 575.40 138.06 605.77 138.02 636.14 138.04 C 635.50 142.99 634.83 148.41 631.22 152.19 C 628.65 155.04 624.68 155.96 620.98 155.91 C 553.63 155.90 486.27 155.91 418.91 155.91 C 414.53 156.07 409.88 154.39 407.49 150.54 C 403.37 144.18 403.80 136.15 404.51 128.92 C 406.68 113.49 412.76 98.86 420.27 85.29 C 426.62 73.68 434.87 63.28 442.56 52.55 C 450.69 41.37 458.83 30.20 466.95 19.01 C 470.16 14.61 473.14 9.91 477.50 6.52 C 481.58 3.17 486.60 1.24 491.69 0.00 Z" />
<path fill="#333333" opacity="1.00" d=" M 120.07 189.86 C 128.73 189.73 137.40 189.82 146.07 189.80 C 146.42 218.56 146.04 247.33 146.26 276.09 C 146.28 280.69 150.25 285.26 155.07 284.78 C 159.69 284.78 163.22 281.49 166.24 278.39 C 169.82 284.37 172.92 290.61 176.18 296.76 C 169.52 302.73 161.20 307.52 152.04 307.68 C 141.69 308.22 131.11 303.38 125.22 294.77 C 121.04 288.73 119.77 281.21 119.90 273.99 C 120.03 245.95 119.71 217.90 120.07 189.86 Z" />
<path fill="#333333" opacity="1.00" d=" M 5.80 236.78 C 13.84 222.92 29.83 213.87 45.93 214.93 C 53.40 215.21 60.43 218.32 66.37 222.70 C 66.39 220.60 66.42 218.51 66.46 216.41 C 75.14 216.39 83.82 216.20 92.49 216.48 C 92.57 246.43 92.86 276.38 92.41 306.32 C 83.78 306.37 75.14 306.45 66.50 306.29 C 66.44 304.23 66.39 302.16 66.35 300.10 C 52.66 310.23 32.66 310.19 19.00 300.07 C 7.62 292.37 0.94 279.16 0.00 265.61 L 0.00 257.30 C 0.53 250.17 2.21 243.02 5.80 236.78 M 43.15 237.30 C 37.38 238.45 32.58 242.57 29.67 247.57 C 26.06 253.71 25.45 261.26 26.85 268.14 C 28.75 277.11 36.63 285.05 46.04 285.44 C 52.46 285.90 58.65 282.40 62.22 277.17 C 68.72 267.60 68.21 253.80 61.36 244.54 C 57.31 238.88 50.01 235.81 43.15 237.30 Z" />
<path fill="#333333" opacity="1.00" d=" M 218.42 225.15 C 226.43 218.06 237.20 213.88 247.96 215.03 C 259.33 215.94 269.43 222.97 276.09 231.96 C 284.04 242.44 286.33 256.33 284.53 269.15 C 282.89 282.63 274.83 295.11 263.31 302.27 C 254.40 307.85 243.02 309.18 233.02 306.05 C 227.27 304.24 222.47 300.39 218.39 296.08 C 218.42 310.20 218.64 324.33 218.30 338.45 C 209.76 338.45 201.22 338.53 192.68 338.40 C 192.18 297.78 192.62 257.15 192.46 216.52 C 201.14 216.29 209.83 216.18 218.51 216.58 C 218.46 219.43 218.44 222.29 218.42 225.15 M 233.39 237.61 C 228.25 239.07 224.09 242.98 221.53 247.58 C 217.79 254.33 217.28 262.58 219.30 269.95 C 221.35 277.24 227.35 283.76 235.01 285.04 C 240.78 286.12 246.82 284.05 251.09 280.12 C 262.82 269.78 261.12 248.44 248.11 239.87 C 243.82 237.05 238.33 236.25 233.39 237.61 Z" />
<path fill="#333333" opacity="1.00" d=" M 786.39 322.51 C 786.40 322.49 786.41 322.44 786.42 322.42 C 786.41 322.44 786.40 322.49 786.39 322.51 Z" />
<path fill="#333333" opacity="1.00" d=" M 734.33 328.42 C 735.77 328.59 735.67 332.24 734.26 332.48 C 733.41 331.35 733.50 329.53 734.33 328.42 Z" />
<path fill="#333333" opacity="1.00" d=" M 590.10 338.64 C 589.17 335.75 589.73 332.76 590.47 329.91 C 590.63 333.17 590.64 336.45 590.37 339.71 L 590.10 338.64 Z" />
<path fill="#333333" opacity="1.00" d=" M 727.90 335.40 C 729.35 335.33 729.50 337.67 729.70 338.77 C 728.38 340.74 727.46 336.52 727.90 335.40 Z" />
<path fill="#333333" opacity="1.00" d=" M 642.97 344.05 C 644.86 340.95 645.74 346.50 642.95 344.75 L 642.97 344.05 Z" />
<path fill="#333333" opacity="1.00" d=" M 680.09 343.34 C 683.42 343.42 678.59 346.34 680.09 343.34 Z" />
<path fill="#333333" opacity="1.00" d=" M 755.99 350.75 C 755.99 350.63 755.97 350.39 755.97 350.28 L 755.99 350.75 Z" />
<path fill="#333333" opacity="1.00" d=" M 753.38 352.07 C 756.37 350.58 753.45 355.41 753.38 352.07 Z" />
<path fill="#333333" opacity="1.00" d=" M 576.43 357.78 C 577.45 358.50 578.48 359.24 579.51 359.97 C 579.33 361.02 579.17 362.07 579.03 363.12 C 578.23 362.90 577.44 362.69 576.66 362.48 C 576.71 363.47 576.75 364.47 576.78 365.47 C 576.36 365.83 575.53 366.55 575.11 366.91 C 575.43 363.85 575.94 360.81 576.43 357.78 Z" />
<path fill="#333333" opacity="1.00" d=" M 685.51 358.39 C 685.33 361.41 678.40 358.19 683.09 357.99 C 683.69 358.09 684.90 358.29 685.51 358.39 Z" />
<path fill="#333333" opacity="1.00" d=" M 638.91 361.15 C 638.89 361.26 638.83 361.48 638.81 361.59 L 638.91 361.15 Z" />
<path fill="#333333" opacity="1.00" d=" M 810.07 399.03 C 810.71 398.07 812.44 397.93 813.25 398.78 C 813.85 399.80 813.72 400.67 812.88 401.38 C 811.75 400.84 810.85 399.97 810.07 399.03 Z" />
<path fill="#333333" opacity="1.00" d=" M 646.36 399.02 C 646.75 399.03 647.52 399.06 647.90 399.07 L 647.89 399.92 L 647.06 400.36 L 646.29 399.85 L 646.36 399.02 Z" />
<path fill="#333333" opacity="1.00" d=" M 793.79 399.95 C 798.25 400.29 796.42 405.49 796.67 408.49 C 796.18 405.50 795.58 402.46 793.79 399.95 Z" />
<path fill="#333333" opacity="1.00" d=" M 667.01 412.05 C 667.06 409.43 670.20 412.34 667.55 412.58 L 667.01 412.05 Z" />
<path fill="#333333" opacity="1.00" d=" M 756.50 421.96 C 755.37 421.29 755.24 419.68 756.62 419.23 L 757.16 420.02 C 756.99 420.50 756.66 421.47 756.50 421.96 Z" />
<path fill="#333333" opacity="1.00" d=" M 672.33 421.08 L 672.89 421.20 C 673.50 422.29 673.11 424.90 671.62 424.87 C 671.03 423.68 671.40 422.00 672.33 421.08 Z" />
<path fill="#333333" opacity="1.00" d=" M 770.30 421.06 C 773.25 419.49 770.46 424.39 770.30 421.06 Z" />
<path fill="#333333" opacity="1.00" d=" M 711.60 424.44 C 709.27 423.72 710.87 421.80 712.61 421.87 C 712.36 422.51 711.85 423.80 711.60 424.44 Z" />
<path fill="#333333" opacity="1.00" d=" M 704.80 426.03 C 705.96 425.62 707.13 425.22 708.30 424.82 C 707.72 427.44 707.16 430.16 705.49 432.33 C 706.01 430.34 706.53 428.35 707.05 426.36 C 706.49 426.28 705.36 426.11 704.80 426.03 Z" />
<path fill="#333333" opacity="1.00" d=" M 671.15 426.49 C 672.50 426.72 672.72 427.43 671.82 428.61 C 670.45 428.37 670.23 427.66 671.15 426.49 Z" />
<path fill="#333333" opacity="1.00" d=" M 607.04 427.17 C 607.33 427.63 607.92 428.56 608.22 429.02 C 608.44 432.75 605.00 428.68 607.04 427.17 Z" />
<path fill="#333333" opacity="1.00" d=" M 686.35 429.07 C 689.33 427.54 686.47 432.41 686.35 429.07 Z" />
<path fill="#333333" opacity="1.00" d=" M 754.40 429.35 C 754.50 429.45 754.70 429.63 754.80 429.73 C 754.70 429.63 754.50 429.45 754.40 429.35 Z" />
<path fill="#333333" opacity="1.00" d=" M 606.34 434.23 C 606.83 434.73 606.83 434.73 606.34 434.23 Z" />
<path fill="#333333" opacity="1.00" d=" M 669.07 434.29 C 672.40 434.46 667.49 437.25 669.07 434.29 Z" />
<path fill="#333333" opacity="1.00" d=" M 581.00 439.74 C 579.82 437.70 583.09 437.67 581.95 439.73 L 581.00 439.74 Z" />
<path fill="#333333" opacity="1.00" d=" M 604.36 441.25 C 604.90 441.69 604.90 441.69 604.36 441.25 Z" />
</g>
<g id="#1a8bb6ff">
<path fill="#1a8bb6" opacity="1.00" d=" M 569.57 67.55 C 572.23 63.80 576.13 60.45 580.93 60.23 C 588.24 59.90 595.56 60.27 602.87 60.10 C 606.65 60.16 610.74 59.82 614.08 61.96 C 619.05 65.00 621.66 70.47 625.18 74.91 C 635.53 89.68 648.50 103.72 652.10 121.99 C 652.92 127.04 653.85 133.80 649.04 137.19 C 644.95 138.72 640.41 137.86 636.14 138.04 C 605.77 138.02 575.40 138.06 545.03 138.03 C 542.89 137.96 540.43 137.81 538.97 136.02 C 536.25 132.67 536.55 127.99 537.03 123.96 C 538.80 112.84 544.16 102.62 550.69 93.57 C 556.97 84.89 563.31 76.25 569.57 67.55 Z" />
<path fill="#1a8bb6" opacity="1.00" d=" M 306.67 182.88 C 315.34 182.69 324.02 182.60 332.70 182.92 C 332.62 196.97 332.69 211.01 332.66 225.05 C 340.35 217.51 351.43 213.87 362.10 215.06 C 374.65 216.06 385.86 224.09 392.46 234.57 C 399.34 245.65 400.66 259.49 398.14 272.11 C 395.59 284.93 387.22 296.39 375.94 302.94 C 366.48 308.47 354.28 309.42 344.30 304.73 C 339.80 302.76 336.03 299.54 332.65 296.04 C 332.69 299.48 332.70 302.92 332.51 306.36 C 323.93 306.28 315.35 306.44 306.77 306.24 C 306.53 265.12 306.73 224.00 306.67 182.88 M 347.45 237.66 C 336.64 241.00 331.33 253.36 332.46 263.99 C 332.83 273.47 339.26 283.17 348.95 285.00 C 357.74 286.81 366.65 281.21 370.48 273.43 C 375.52 263.01 373.40 249.09 364.43 241.45 C 359.89 237.42 353.28 235.96 347.45 237.66 Z" />
<path fill="#1a8bb6" opacity="1.00" d=" M 676.60 182.81 C 685.24 182.82 693.90 182.46 702.55 183.00 C 702.45 197.05 702.54 211.09 702.50 225.14 C 707.97 220.27 714.55 216.38 721.88 215.28 C 731.74 213.62 742.28 216.66 749.56 223.56 C 756.71 229.97 760.33 239.56 760.63 249.04 C 760.84 257.76 760.63 266.50 760.72 275.22 C 757.81 275.53 754.87 275.72 752.02 276.40 C 750.61 283.11 750.93 290.05 750.40 296.87 C 749.11 296.51 747.26 297.04 746.53 295.64 C 746.10 290.92 746.94 286.21 747.11 281.49 C 743.62 281.79 740.14 282.14 736.68 282.59 C 736.27 287.74 735.92 292.89 735.79 298.06 L 734.69 297.98 C 734.66 283.66 734.81 269.35 734.63 255.04 C 734.37 249.07 732.90 241.95 727.12 238.93 C 717.38 234.11 704.57 241.25 703.10 251.90 C 701.80 261.96 702.79 272.18 702.51 282.30 C 701.31 287.73 698.31 292.58 694.67 296.71 C 692.53 299.17 689.62 300.78 687.36 303.11 C 687.37 303.97 687.39 305.67 687.41 306.52 C 683.78 306.26 680.15 306.33 676.53 306.27 C 676.52 282.82 676.30 259.37 676.53 235.93 C 676.65 218.22 676.27 200.51 676.60 182.81 M 736.92 277.72 C 736.93 278.50 736.94 280.07 736.94 280.86 C 740.30 280.52 743.66 280.19 747.02 279.79 C 747.15 278.99 747.40 277.37 747.52 276.56 C 743.97 276.78 740.42 277.10 736.92 277.72 Z" />
<path fill="#1a8bb6" opacity="1.00" d=" M 604.70 189.79 C 613.34 189.92 622.01 189.51 630.64 190.05 C 630.70 198.83 630.65 207.60 630.67 216.37 C 637.76 216.41 644.84 216.24 651.93 216.42 C 652.31 223.23 652.07 230.05 652.09 236.87 C 644.95 237.04 637.81 236.93 630.68 236.96 C 630.69 249.65 630.62 262.34 630.70 275.02 C 630.46 279.70 633.85 284.83 638.89 284.79 C 643.79 285.10 647.65 281.66 650.80 278.35 C 654.17 284.24 657.36 290.25 660.45 296.30 C 659.41 298.53 656.73 299.77 654.99 301.55 C 654.53 301.71 653.62 302.03 653.16 302.20 C 652.25 302.81 651.37 303.44 650.51 304.11 C 645.83 304.49 641.02 305.65 636.38 304.36 C 631.41 303.03 626.31 304.79 621.27 304.57 C 614.32 301.24 608.66 295.11 606.28 287.74 C 603.74 280.43 604.68 272.59 604.51 265.01 C 604.63 239.94 604.26 214.86 604.70 189.79 Z" />
<path fill="#1a8bb6" opacity="1.00" d=" M 446.93 226.91 C 454.00 220.01 463.28 215.03 473.31 214.80 C 473.61 222.99 473.58 231.20 473.52 239.40 C 466.94 239.27 459.37 239.29 454.48 244.42 C 447.35 251.61 446.65 262.45 446.92 272.01 C 446.91 283.42 446.95 294.83 446.89 306.25 C 438.28 306.45 429.66 306.29 421.05 306.34 C 420.84 276.36 420.79 246.37 421.07 216.40 C 429.67 216.42 438.27 216.19 446.86 216.49 C 446.94 219.96 446.92 223.43 446.93 226.91 Z" />
<path fill="#1a8bb6" opacity="1.00" d=" M 525.62 215.74 C 536.48 213.95 548.07 214.89 557.99 219.93 C 569.97 226.10 579.32 237.63 581.99 250.93 C 584.32 262.38 582.96 274.85 576.89 284.97 C 570.22 296.29 558.55 304.59 545.56 306.81 C 533.32 308.93 520.01 307.40 509.39 300.61 C 499.24 294.24 491.52 283.83 489.07 272.03 C 486.49 259.89 488.24 246.56 495.14 236.10 C 501.97 225.57 513.18 217.83 525.62 215.74 M 528.24 238.49 C 517.04 242.51 512.36 255.87 514.60 266.86 C 515.94 276.42 524.09 284.99 534.02 285.26 C 542.41 286.09 550.75 281.15 554.28 273.55 C 558.76 263.76 557.68 250.87 549.89 243.02 C 544.40 237.37 535.54 235.97 528.24 238.49 Z" />
<path fill="#1a8bb6" opacity="1.00" d=" M 786.81 238.81 C 793.66 226.62 806.30 217.89 820.07 215.55 C 831.46 213.85 843.64 215.39 853.63 221.37 C 865.68 228.18 873.37 241.94 872.42 255.81 C 852.95 263.80 833.45 271.74 814.08 279.98 C 818.52 285.57 826.49 286.94 833.21 285.73 C 841.41 284.51 848.32 279.28 853.36 272.91 C 858.18 278.35 863.37 283.45 868.05 289.00 C 863.63 294.63 857.54 298.86 851.30 302.28 C 840.85 307.91 828.40 308.82 816.89 306.53 C 814.04 303.60 809.67 303.60 805.95 302.71 C 802.21 301.18 799.09 298.57 795.96 296.11 C 801.63 295.99 807.87 296.19 812.72 292.76 C 815.31 291.05 816.36 286.39 813.40 284.56 C 809.69 282.60 805.12 283.46 801.52 281.19 C 805.15 279.46 809.19 279.26 813.14 278.95 C 813.23 278.08 813.43 276.34 813.52 275.47 C 808.45 276.02 803.25 275.97 798.31 277.39 C 795.14 278.36 792.03 281.39 792.77 284.96 C 793.05 286.90 795.02 287.76 796.72 288.16 C 799.64 288.83 802.66 289.00 805.63 289.45 C 803.41 293.82 797.78 292.21 793.78 292.56 C 792.09 291.66 790.79 290.24 789.55 288.82 C 789.69 285.07 789.99 281.34 790.18 277.60 C 788.20 277.75 786.23 277.91 784.27 278.06 C 780.32 265.31 780.49 250.78 786.81 238.81 M 812.68 244.65 C 808.17 248.95 806.98 255.44 807.09 261.42 C 819.65 256.44 832.14 251.29 844.67 246.21 C 843.45 243.45 841.79 240.65 838.89 239.42 C 830.19 235.65 819.28 237.84 812.68 244.65 Z" />
<path fill="#1a8bb6" opacity="1.00" d=" M 919.12 226.97 C 926.33 220.24 935.54 214.69 945.74 215.04 C 945.75 223.15 946.08 231.26 945.78 239.37 C 939.79 239.38 933.11 239.18 928.20 243.19 C 921.98 248.24 919.75 256.57 919.34 264.27 C 918.95 278.27 919.41 292.27 919.16 306.28 C 910.58 306.44 902.01 306.24 893.44 306.40 C 892.86 281.28 893.40 256.15 893.17 231.02 C 893.15 226.15 893.14 221.28 893.36 216.42 C 901.90 216.33 910.44 216.26 918.98 216.44 C 919.34 219.94 919.25 223.46 919.12 226.97 Z" />
<path fill="#1a8bb6" opacity="1.00" d=" M 971.14 225.17 C 979.18 217.18 991.05 214.39 1002.09 214.97 C 1012.93 215.38 1023.19 219.84 1032.08 225.86 C 1028.71 231.67 1025.70 237.69 1022.07 243.35 C 1013.99 238.01 1004.30 234.05 994.46 235.63 C 991.88 236.06 988.62 237.15 988.18 240.13 C 987.62 242.81 989.73 245.05 992.01 246.07 C 1000.86 250.41 1010.84 251.86 1019.63 256.37 C 1024.06 258.62 1028.62 261.47 1030.86 266.11 C 1032.52 269.59 1033.45 273.39 1034.00 277.21 L 1034.00 279.68 C 1032.81 285.99 1030.93 292.54 1026.24 297.20 C 1019.29 304.52 1008.94 307.82 999.02 307.67 C 984.32 307.54 969.35 302.74 958.08 293.16 C 961.64 287.65 965.32 282.16 969.48 277.06 C 974.93 280.09 980.07 283.93 986.20 285.61 C 992.19 287.33 998.82 288.60 1004.89 286.60 C 1007.94 285.60 1010.18 281.77 1008.16 278.86 C 1005.29 275.07 1000.51 273.51 996.23 271.89 C 986.73 268.85 976.70 265.73 969.38 258.60 C 960.89 249.41 962.27 233.64 971.14 225.17 Z" />
<path fill="#1a8bb6" opacity="1.00" d=" M 689.97 306.23 C 694.98 303.20 698.84 298.75 702.46 294.23 C 702.47 298.26 702.42 302.30 702.38 306.33 C 698.24 306.33 694.10 306.42 689.97 306.23 Z" />
<path fill="#1a8bb6" opacity="1.00" d=" M 736.84 300.27 C 741.71 302.15 747.42 301.77 751.72 298.70 C 754.54 300.05 757.67 300.33 760.73 299.80 C 760.64 301.99 760.56 304.19 760.46 306.39 C 751.92 306.25 743.38 306.43 734.84 306.28 C 734.76 304.67 734.68 303.07 734.59 301.47 C 735.34 301.08 736.09 300.68 736.84 300.27 Z" />
<path fill="#1a8bb6" opacity="1.00" d=" M 735.27 324.35 C 735.86 324.77 735.86 324.77 735.27 324.35 Z" />
<path fill="#1a8bb6" opacity="1.00" d=" M 590.10 326.12 C 593.10 324.56 590.27 329.44 590.10 326.12 Z" />
<path fill="#1a8bb6" opacity="1.00" d=" M 690.12 365.41 C 693.43 365.71 688.42 368.30 690.12 365.41 Z" />
<path fill="#1a8bb6" opacity="1.00" d=" M 638.19 371.95 C 635.86 369.33 641.14 368.92 638.73 371.70 L 638.19 371.95 Z" />
<path fill="#1a8bb6" opacity="1.00" d=" M 756.28 406.32 C 756.75 406.79 756.75 406.79 756.28 406.32 Z" />
<path fill="#1a8bb6" opacity="1.00" d=" M 608.14 425.44 C 608.22 425.63 608.39 426.00 608.47 426.19 L 607.91 425.97 L 608.14 425.44 Z" />
</g>
<g id="#231f20ff">
<path fill="#231f20" opacity="1.00" d=" M 752.02 276.40 C 754.87 275.72 757.81 275.53 760.72 275.22 L 762.11 275.08 C 762.04 276.73 761.96 278.37 761.89 280.02 C 763.62 279.87 765.36 279.72 767.10 279.57 C 766.92 280.45 766.54 282.20 766.35 283.07 C 764.83 283.49 763.24 283.64 761.70 283.88 C 761.41 287.50 760.78 291.16 761.30 294.79 C 762.49 295.17 763.73 295.35 765.03 295.34 C 764.65 290.45 766.01 285.15 769.95 281.95 C 773.87 278.49 779.35 278.42 784.27 278.06 C 786.23 277.91 788.20 277.75 790.18 277.60 C 789.99 281.34 789.69 285.07 789.55 288.82 C 789.54 290.09 789.57 291.37 789.62 292.65 C 790.99 292.58 792.40 292.41 793.78 292.56 C 797.78 292.21 803.41 293.82 805.63 289.45 C 802.66 289.00 799.64 288.83 796.72 288.16 C 795.02 287.76 793.05 286.90 792.77 284.96 C 792.03 281.39 795.14 278.36 798.31 277.39 C 803.25 275.97 808.45 276.02 813.52 275.47 C 813.43 276.34 813.23 278.08 813.14 278.95 C 809.19 279.26 805.15 279.46 801.52 281.19 C 805.12 283.46 809.69 282.60 813.40 284.56 C 816.36 286.39 815.31 291.05 812.72 292.76 C 807.87 296.19 801.63 295.99 795.96 296.11 C 790.71 296.21 785.31 299.26 780.32 296.25 C 776.25 299.18 770.18 300.04 765.90 297.08 C 765.71 297.51 765.32 298.38 765.13 298.81 C 763.65 299.14 762.21 299.55 760.73 299.80 C 757.67 300.33 754.54 300.05 751.72 298.70 C 747.42 301.77 741.71 302.15 736.84 300.27 C 736.09 300.68 735.34 301.08 734.59 301.47 C 730.93 302.97 726.06 303.93 722.66 301.39 C 719.94 298.26 721.60 293.75 721.35 290.02 C 718.60 294.36 716.21 298.97 712.82 302.86 C 711.09 304.83 708.16 304.25 705.84 304.68 C 704.20 301.08 703.65 297.15 703.28 293.25 C 703.00 293.58 702.72 293.90 702.46 294.23 C 698.84 298.75 694.98 303.20 689.97 306.23 C 689.11 306.37 688.26 306.46 687.41 306.52 C 687.39 305.67 687.37 303.97 687.36 303.11 C 689.62 300.78 692.53 299.17 694.67 296.71 C 698.31 292.58 701.31 287.73 702.51 282.30 C 704.65 279.25 708.78 280.18 711.99 279.62 C 712.34 283.93 712.66 288.26 713.41 292.52 C 717.46 288.81 718.54 283.09 722.02 279.05 C 725.54 278.06 729.26 278.15 732.89 277.73 C 732.55 284.40 731.77 291.06 731.85 297.76 C 732.56 297.81 733.98 297.92 734.69 297.98 L 735.79 298.06 C 735.92 292.89 736.27 287.74 736.68 282.59 C 740.14 282.14 743.62 281.79 747.11 281.49 C 746.94 286.21 746.10 290.92 746.53 295.64 C 747.26 297.04 749.11 296.51 750.40 296.87 C 750.93 290.05 750.61 283.11 752.02 276.40 M 775.17 293.81 C 776.48 293.96 777.80 294.10 779.13 294.24 C 779.15 290.09 779.56 285.95 779.73 281.80 C 774.21 283.06 775.16 289.55 775.17 293.81 Z" />
<path fill="#231f20" opacity="1.00" d=" M 736.92 277.72 C 740.42 277.10 743.97 276.78 747.52 276.56 C 747.40 277.37 747.15 278.99 747.02 279.79 C 743.66 280.19 740.30 280.52 736.94 280.86 C 736.94 280.07 736.93 278.50 736.92 277.72 Z" />
<path fill="#231f20" opacity="1.00" d=" M 650.51 304.11 C 659.08 303.01 667.97 303.70 676.24 300.85 C 676.05 302.55 675.87 304.27 675.70 305.98 C 667.92 306.64 660.14 307.43 652.41 308.63 C 648.09 307.62 644.33 310.61 640.10 310.74 C 630.35 311.43 620.62 312.43 610.89 313.30 C 601.33 314.75 591.72 315.84 582.07 316.51 C 579.67 314.51 578.39 311.66 577.03 308.93 C 579.19 309.63 581.40 310.10 583.66 310.39 C 583.30 309.90 582.58 308.94 582.22 308.45 C 595.27 307.64 608.29 306.15 621.27 304.57 C 626.31 304.79 631.41 303.03 636.38 304.36 C 641.02 305.65 645.83 304.49 650.51 304.11 Z" />
<path fill="#231f20" opacity="1.00" d=" M 786.42 322.42 C 788.86 313.22 795.85 303.69 805.95 302.71 C 809.67 303.60 814.04 303.60 816.89 306.53 C 820.24 311.52 820.26 318.06 818.42 323.62 C 814.11 323.44 809.82 323.75 805.57 324.47 C 806.13 322.55 806.73 320.65 807.37 318.77 C 805.83 317.61 804.29 316.45 802.77 315.29 C 799.26 317.21 799.96 321.64 799.70 325.02 C 799.69 328.24 803.29 328.74 805.70 329.32 C 811.03 330.35 815.95 335.37 815.37 341.03 C 815.23 347.00 814.96 353.45 811.47 358.54 C 808.52 362.19 804.84 365.33 800.71 367.56 C 795.73 369.06 790.32 368.89 785.30 367.72 C 783.42 365.84 781.87 363.54 780.97 361.04 C 781.08 357.84 781.50 354.60 780.58 351.48 C 783.29 347.73 789.77 344.55 793.62 348.20 C 793.33 350.97 792.90 353.78 793.74 356.52 C 796.85 357.03 798.97 354.75 801.14 352.94 C 801.71 349.40 802.40 345.84 803.83 342.53 C 801.04 341.41 798.06 340.93 795.09 340.69 C 792.56 338.66 789.66 337.09 787.25 334.94 C 786.43 330.87 784.86 326.62 786.39 322.51 C 786.40 322.49 786.41 322.44 786.42 322.42 Z" />
<path fill="#231f20" opacity="1.00" d=" M 752.43 311.04 C 752.91 307.85 756.61 307.79 759.09 307.15 C 763.86 306.61 768.68 306.88 773.46 307.23 C 776.01 309.41 779.03 311.32 780.41 314.53 C 782.26 317.33 781.30 320.75 781.31 323.88 C 781.17 331.82 779.35 339.57 778.25 347.40 C 777.44 354.49 773.79 360.95 769.20 366.28 C 767.85 367.86 765.75 368.39 763.93 369.19 C 760.13 370.68 756.33 372.92 752.10 372.48 C 748.80 371.99 745.56 372.81 742.37 373.53 C 742.20 371.38 742.20 369.22 742.64 367.11 C 744.13 358.77 745.34 350.39 746.85 342.05 C 749.17 331.81 751.43 321.51 752.43 311.04 M 762.51 317.41 C 763.12 323.39 761.00 329.13 760.74 335.06 C 760.39 338.38 759.80 341.68 759.81 345.03 C 759.48 345.41 758.81 346.19 758.47 346.57 C 758.60 347.38 758.85 348.98 758.98 349.78 L 758.42 349.78 C 758.36 348.27 757.78 347.10 756.69 346.28 C 756.22 347.57 755.98 348.91 755.97 350.28 C 755.97 350.39 755.99 350.63 755.99 350.75 C 756.05 351.32 756.17 352.48 756.22 353.06 C 754.91 354.02 752.97 354.59 752.48 356.33 C 752.53 357.70 752.92 359.04 753.12 360.40 C 755.65 359.47 758.34 359.47 760.97 359.92 C 762.72 356.50 764.91 353.06 765.05 349.11 C 765.24 340.52 767.72 332.22 768.70 323.73 C 768.60 320.57 766.38 315.94 762.51 317.41 M 753.38 352.07 C 753.45 355.41 756.37 350.58 753.38 352.07 Z" />
<path fill="#231f20" opacity="1.00" d=" M 736.08 311.16 C 739.53 310.16 743.19 310.33 746.74 309.93 C 745.27 317.91 743.07 325.77 741.58 333.76 C 742.20 333.40 743.45 332.68 744.08 332.32 C 743.40 332.91 742.70 333.48 742.05 334.08 C 742.34 335.22 742.64 336.38 742.94 337.53 C 742.50 337.43 741.62 337.22 741.18 337.12 C 739.56 343.48 736.99 349.94 738.21 356.62 C 735.13 361.85 738.87 368.59 735.42 373.62 C 732.52 376.71 728.08 374.52 724.47 374.55 C 721.17 367.99 720.23 360.71 718.73 353.62 C 717.28 361.03 716.36 368.53 714.94 375.94 C 711.82 377.46 708.41 378.00 705.00 378.36 C 704.38 378.06 703.14 377.46 702.52 377.16 C 703.16 368.72 704.82 360.41 706.15 352.07 C 708.09 340.34 709.93 328.58 711.95 316.87 C 712.46 312.43 717.91 313.10 721.15 312.39 C 723.87 311.41 724.21 314.73 724.58 316.59 C 725.65 322.85 727.93 328.99 727.90 335.40 C 727.46 336.52 728.38 340.74 729.70 338.77 C 730.91 332.91 731.48 326.92 733.31 321.19 C 734.28 317.95 732.26 312.91 736.08 311.16 M 735.27 324.35 C 735.86 324.77 735.86 324.77 735.27 324.35 M 734.33 328.42 C 733.50 329.53 733.41 331.35 734.26 332.48 C 735.67 332.24 735.77 328.59 734.33 328.42 Z" />
<path fill="#231f20" opacity="1.00" d=" M 683.42 317.33 C 685.38 313.64 690.15 315.38 693.47 315.43 C 693.97 318.27 694.77 321.11 694.73 324.02 C 694.28 331.74 696.84 339.31 695.89 347.03 C 696.05 356.44 697.14 365.81 697.84 375.19 C 698.11 377.29 695.94 378.93 694.03 379.11 C 690.86 379.84 687.63 379.32 684.58 378.38 C 684.54 375.05 684.60 371.72 684.73 368.39 C 681.83 368.22 678.95 367.87 676.08 367.64 C 674.74 371.35 673.26 375.03 672.51 378.93 C 668.47 381.27 663.53 379.70 659.61 382.23 C 660.32 374.14 665.19 367.35 667.78 359.84 C 670.45 351.75 673.36 343.74 676.60 335.87 C 678.19 329.46 680.25 323.14 683.42 317.33 M 680.09 343.34 C 678.59 346.34 683.42 343.42 680.09 343.34 M 685.00 342.94 C 683.45 346.68 682.03 350.48 680.73 354.32 C 682.35 354.19 683.99 354.09 685.63 353.99 C 685.59 350.30 685.41 346.61 685.00 342.94 M 683.09 357.99 C 678.40 358.19 685.33 361.41 685.51 358.39 C 687.58 356.10 682.16 355.43 683.09 357.99 M 690.12 365.41 C 688.42 368.30 693.43 365.71 690.12 365.41 Z" />
<path fill="#231f20" opacity="1.00" d=" M 640.93 318.87 C 643.74 318.91 646.52 318.49 649.28 317.94 C 649.44 319.66 649.64 321.44 649.13 323.13 C 647.37 329.48 646.47 336.01 645.34 342.49 C 643.56 341.96 642.77 342.47 642.97 344.05 L 642.95 344.75 C 641.60 345.34 640.39 346.17 639.51 347.36 C 640.18 347.39 641.52 347.45 642.20 347.48 C 638.90 348.17 637.45 350.93 636.67 353.94 C 636.88 354.50 637.31 355.62 637.52 356.19 C 637.23 357.24 637.27 358.18 638.25 358.85 C 638.72 359.10 639.64 359.61 640.11 359.87 C 639.44 356.72 641.28 353.83 641.26 350.72 C 642.07 350.71 643.69 350.70 644.50 350.70 C 643.44 357.14 642.29 363.57 641.42 370.04 C 646.70 369.74 651.95 368.62 657.25 368.84 C 658.16 373.08 656.89 377.84 655.04 381.78 C 645.76 383.14 636.36 383.37 627.11 385.00 C 627.16 381.29 628.47 377.76 628.77 374.08 C 629.47 365.00 632.01 356.16 632.53 347.06 C 633.15 341.35 634.78 335.82 635.63 330.16 C 636.20 326.93 636.32 323.58 637.49 320.49 C 637.93 319.00 639.59 318.75 640.93 318.87 M 636.00 360.46 C 636.59 362.01 637.15 363.57 637.91 365.06 C 638.23 363.91 638.47 362.73 638.81 361.59 C 638.83 361.48 638.89 361.26 638.91 361.15 C 638.18 360.98 636.73 360.63 636.00 360.46 M 638.19 371.95 C 637.65 372.31 636.57 373.01 636.03 373.36 C 636.28 375.00 638.64 376.55 640.05 375.35 C 639.71 374.09 639.27 372.87 638.73 371.70 C 641.14 368.92 635.86 369.33 638.19 371.95 Z" />
<path fill="#231f20" opacity="1.00" d=" M 609.03 323.08 C 613.90 319.54 620.17 321.10 625.45 322.69 C 628.15 325.10 629.38 328.75 630.37 332.13 C 631.43 335.45 629.47 338.59 628.55 341.69 C 624.30 341.45 620.08 341.85 615.89 342.42 C 616.49 340.53 617.10 338.64 617.76 336.77 C 616.14 335.60 614.53 334.44 612.91 333.28 C 609.59 335.39 610.33 339.74 609.98 343.10 C 610.22 346.45 613.99 346.75 616.49 347.49 C 620.79 348.42 624.34 351.87 625.59 356.06 C 625.77 362.81 625.73 370.14 622.11 376.10 C 619.16 380.10 615.16 383.34 610.80 385.69 C 605.79 386.99 600.35 387.01 595.37 385.60 C 593.67 383.63 592.00 381.43 591.30 378.91 C 591.43 375.61 591.77 372.29 591.07 369.03 C 592.87 366.85 595.49 365.78 597.96 364.58 C 599.84 364.75 601.85 364.58 603.58 365.50 C 604.45 368.18 602.45 371.27 604.15 373.81 C 604.82 374.07 606.17 374.58 606.84 374.83 C 608.36 373.48 609.92 372.16 611.47 370.84 C 611.90 367.27 613.32 363.91 613.74 360.37 C 611.05 359.19 608.09 359.02 605.23 358.65 C 602.75 356.54 599.84 354.97 597.47 352.75 C 596.81 349.85 596.15 346.92 596.04 343.95 C 597.33 335.64 601.68 327.51 609.03 323.08 Z" />
<path fill="#231f20" opacity="1.00" d=" M 581.69 325.88 C 585.50 325.09 589.29 324.19 593.13 323.50 C 593.58 326.72 593.93 329.98 593.58 333.24 C 593.39 331.79 593.28 330.32 593.18 328.87 C 592.50 329.13 591.15 329.65 590.47 329.91 C 589.73 332.76 589.17 335.75 590.10 338.64 C 589.89 345.00 587.14 351.54 589.08 357.91 C 588.21 363.93 586.29 369.82 586.19 375.94 C 586.09 380.01 585.36 384.02 584.66 388.02 C 580.50 389.63 575.98 389.24 571.70 390.26 C 572.79 389.23 573.82 388.15 574.78 387.00 L 572.08 387.59 C 573.32 380.74 574.21 373.73 575.11 366.91 C 575.53 366.55 576.36 365.83 576.78 365.47 C 576.75 364.47 576.71 363.47 576.66 362.48 C 577.44 362.69 578.23 362.90 579.03 363.12 C 579.17 362.07 579.33 361.02 579.51 359.97 C 580.44 354.57 581.92 349.29 582.93 343.91 C 583.34 342.38 582.86 340.89 582.46 339.44 C 583.46 336.43 584.09 333.32 584.96 330.27 C 583.66 330.71 582.43 332.10 581.00 331.36 C 581.12 329.51 581.41 327.70 581.69 325.88 M 590.10 326.12 C 590.27 329.44 593.10 324.56 590.10 326.12 Z" />
<path fill="#231f20" opacity="1.00" d=" M 642.81 347.14 C 643.47 345.48 644.22 345.39 645.07 346.86 C 644.42 348.50 643.66 348.59 642.81 347.14 Z" />
<path fill="#231f20" opacity="1.00" d=" M 656.80 393.96 C 655.25 391.62 660.81 390.82 659.22 393.61 C 658.62 393.70 657.41 393.87 656.80 393.96 Z" />
<path fill="#231f20" opacity="1.00" d=" M 800.36 399.35 C 803.59 399.18 806.83 399.02 810.07 399.03 C 810.85 399.97 811.75 400.84 812.88 401.38 C 812.39 405.44 807.49 404.28 804.60 404.61 C 804.36 406.80 804.12 408.99 803.86 411.19 C 806.09 411.05 808.32 410.88 810.57 410.75 C 810.18 412.51 810.48 414.73 809.03 416.07 C 807.02 416.68 804.89 416.52 802.84 416.69 C 802.49 418.94 802.14 421.19 801.81 423.44 C 804.14 423.03 806.46 422.29 808.86 422.25 C 810.40 423.57 809.35 426.12 808.73 427.72 C 804.55 429.27 799.84 428.69 795.46 429.40 C 796.02 421.50 798.21 413.83 798.96 405.96 C 799.18 403.71 799.70 401.51 800.36 399.35 Z" />
<path fill="#231f20" opacity="1.00" d=" M 784.63 403.52 C 786.85 401.06 790.32 398.51 793.79 399.95 C 795.58 402.46 796.18 405.50 796.67 408.49 C 795.34 408.83 794.02 409.14 792.69 409.42 C 790.65 409.04 791.76 406.19 791.12 404.92 C 790.61 405.14 789.59 405.58 789.08 405.80 C 788.47 410.71 787.51 415.56 786.55 420.42 C 786.34 421.75 786.26 424.18 788.04 424.38 C 788.99 423.14 789.70 421.74 790.44 420.37 C 791.93 419.92 793.44 419.51 794.96 419.12 C 795.19 425.34 788.76 432.20 782.37 429.57 C 779.47 427.35 780.39 423.13 780.83 420.02 C 781.93 414.50 781.50 408.43 784.63 403.52 Z" />
<path fill="#231f20" opacity="1.00" d=" M 771.15 401.98 C 772.51 401.81 773.88 401.70 775.28 401.65 C 776.57 411.21 776.08 420.91 777.41 430.47 C 775.49 431.59 773.32 431.68 771.17 431.41 C 771.09 429.73 771.03 428.06 770.96 426.39 C 769.65 426.31 768.35 426.23 767.05 426.16 C 766.48 427.94 765.91 429.73 765.37 431.52 C 763.33 431.92 761.29 432.29 759.27 432.67 C 761.21 427.02 763.75 421.59 765.64 415.91 C 767.67 411.35 768.30 406.16 771.15 401.98 M 769.81 420.28 C 772.98 420.54 771.18 416.52 771.61 414.65 C 770.68 416.35 769.06 418.21 769.81 420.28 M 770.30 421.06 C 770.46 424.39 773.25 419.49 770.30 421.06 Z" />
<path fill="#231f20" opacity="1.00" d=" M 750.71 403.66 C 753.95 402.88 757.91 402.95 760.45 405.33 C 762.56 410.01 760.71 416.21 756.62 419.23 C 755.24 419.68 755.37 421.29 756.50 421.96 C 758.26 423.85 757.45 426.91 756.03 428.81 L 755.98 425.99 C 755.25 425.90 753.78 425.72 753.05 425.63 C 753.39 426.56 754.06 428.42 754.40 429.35 C 754.50 429.45 754.70 429.63 754.80 429.73 C 756.32 431.02 757.23 429.07 758.37 428.46 C 758.36 429.40 758.34 431.27 758.34 432.21 C 756.75 433.06 754.80 432.75 753.08 433.05 C 751.82 428.96 752.04 424.62 750.96 420.52 C 749.37 424.54 748.94 428.87 748.08 433.08 C 746.39 434.07 744.33 433.96 742.48 434.34 C 743.66 424.85 745.35 415.42 747.06 406.02 C 747.19 404.18 749.33 404.00 750.71 403.66 M 756.28 406.32 C 756.75 406.79 756.75 406.79 756.28 406.32 M 752.10 408.73 C 751.47 411.27 751.16 413.87 750.78 416.46 C 752.04 415.92 753.94 416.15 754.65 414.70 C 756.24 412.62 755.56 407.63 752.10 408.73 M 752.92 424.49 C 753.73 425.27 754.55 425.20 755.37 424.28 C 756.36 421.60 752.46 422.20 752.92 424.49 Z" />
<path fill="#231f20" opacity="1.00" d=" M 717.54 407.51 C 721.86 406.67 726.34 406.98 730.70 406.27 C 730.21 408.12 730.43 410.50 728.79 411.80 C 726.49 412.46 724.08 412.41 721.73 412.57 C 721.51 414.72 721.28 416.87 721.06 419.02 C 723.22 418.88 725.39 418.73 727.56 418.59 C 727.45 420.50 727.72 422.86 725.93 424.14 C 724.01 424.48 722.07 424.37 720.14 424.41 C 719.70 426.69 719.31 428.98 718.96 431.28 C 721.28 430.90 723.59 430.31 725.96 430.11 C 727.67 431.52 726.51 434.06 725.77 435.72 C 721.52 437.07 716.91 436.61 712.54 437.30 C 713.22 431.54 714.08 425.81 715.31 420.14 C 716.17 415.96 715.80 411.48 717.54 407.51 Z" />
<path fill="#231f20" opacity="1.00" d=" M 701.08 410.96 C 702.57 408.63 705.61 408.39 708.01 407.55 C 709.29 408.19 710.58 408.82 711.88 409.46 C 712.55 412.02 713.28 414.58 713.65 417.21 C 711.91 417.32 710.17 417.42 708.45 417.51 C 708.36 416.04 708.27 414.57 708.18 413.10 C 703.41 413.61 704.51 419.04 703.56 422.43 C 703.36 425.83 701.24 429.46 702.81 432.73 C 703.48 432.63 704.82 432.43 705.49 432.33 C 707.16 430.16 707.72 427.44 708.30 424.82 C 707.13 425.22 705.96 425.62 704.80 426.03 C 705.18 424.18 705.56 422.34 705.91 420.49 C 707.22 421.05 708.51 421.67 709.78 422.35 C 710.56 421.79 712.12 420.66 712.90 420.10 C 712.83 420.54 712.68 421.42 712.61 421.87 C 710.87 421.80 709.27 423.72 711.60 424.44 C 713.06 429.75 709.62 437.96 703.04 438.50 C 699.72 439.35 695.99 436.53 696.27 433.05 C 696.54 429.00 697.67 425.07 698.20 421.05 C 698.86 417.62 699.06 413.93 701.08 410.96 Z" />
<path fill="#231f20" opacity="1.00" d=" M 686.75 410.78 C 687.67 409.19 689.80 409.88 691.30 409.54 C 692.73 418.64 692.35 427.88 693.31 437.02 C 693.88 440.57 689.28 439.23 687.18 439.33 C 687.22 437.74 687.27 436.16 687.34 434.59 C 686.38 434.42 684.48 434.09 683.52 433.93 C 682.76 435.80 682.05 437.69 681.37 439.60 C 679.37 439.93 677.39 440.27 675.40 440.58 C 678.22 433.06 681.40 425.67 683.89 418.03 C 684.67 415.55 685.39 413.01 686.75 410.78 M 685.26 427.83 C 685.86 427.86 687.05 427.93 687.65 427.96 C 687.75 426.18 687.68 424.40 687.61 422.63 C 686.74 424.32 685.99 426.07 685.26 427.83 M 686.35 429.07 C 686.47 432.41 689.33 427.54 686.35 429.07 Z" />
<path fill="#231f20" opacity="1.00" d=" M 673.09 410.98 C 675.20 410.80 677.33 410.73 679.46 410.68 C 679.35 412.37 679.25 414.07 679.13 415.76 C 677.89 416.00 676.65 416.24 675.43 416.49 C 673.98 424.39 673.01 432.40 671.23 440.23 C 669.68 441.52 667.52 441.23 665.67 441.57 C 666.55 433.29 668.60 425.20 669.65 416.94 C 668.01 416.70 666.37 416.46 664.74 416.27 C 665.12 414.53 665.52 412.81 665.98 411.10 L 667.01 412.05 L 667.55 412.58 C 667.62 412.83 667.78 413.35 667.85 413.60 C 669.67 412.94 671.89 412.71 673.09 410.98 M 672.33 421.08 C 671.40 422.00 671.03 423.68 671.62 424.87 C 673.11 424.90 673.50 422.29 672.89 421.20 C 675.82 419.18 670.71 417.96 672.33 421.08 M 671.15 426.49 C 670.23 427.66 670.45 428.37 671.82 428.61 C 672.72 427.43 672.50 426.72 671.15 426.49 M 669.07 434.29 C 667.49 437.25 672.40 434.46 669.07 434.29 Z" />
<path fill="#231f20" opacity="1.00" d=" M 654.98 412.91 C 657.19 411.56 659.83 412.59 662.21 412.83 C 664.02 415.46 665.02 418.57 663.80 421.70 C 661.83 421.82 659.87 421.96 657.92 422.13 C 658.02 421.34 658.23 419.75 658.34 418.96 C 657.32 418.68 656.31 418.41 655.31 418.15 C 655.19 419.95 655.10 421.75 655.01 423.56 C 657.57 424.47 660.93 425.10 661.91 428.06 C 662.81 432.56 661.72 437.94 657.71 440.67 C 655.24 443.03 651.50 443.07 648.39 442.28 C 645.59 440.47 646.36 436.81 646.16 434.00 C 647.93 433.16 649.79 432.58 651.77 432.55 C 652.06 434.12 651.30 436.33 652.94 437.39 C 655.87 436.39 656.05 433.16 656.85 430.65 C 654.16 429.86 650.88 429.41 649.24 426.86 C 647.01 421.65 650.35 415.56 654.98 412.91 Z" />
<path fill="#231f20" opacity="1.00" d=" M 618.10 416.98 C 621.70 415.44 625.90 415.25 629.59 416.58 C 633.08 419.97 631.77 425.39 629.47 429.10 C 631.85 433.29 630.47 438.95 627.37 442.43 C 623.86 446.41 618.11 446.27 613.25 446.39 C 614.95 436.61 617.18 426.90 618.10 416.98 M 623.15 421.29 C 622.82 423.15 622.49 425.01 622.16 426.87 C 623.32 426.81 624.48 426.74 625.66 426.69 C 625.74 424.90 625.83 423.12 625.92 421.34 C 625.23 421.33 623.84 421.30 623.15 421.29 M 620.97 432.81 C 620.54 435.40 620.10 437.99 619.74 440.60 C 624.08 440.61 624.52 436.00 624.40 432.71 C 623.55 432.73 621.83 432.79 620.97 432.81 Z" />
<path fill="#231f20" opacity="1.00" d=" M 603.02 420.03 C 606.80 418.43 610.45 416.02 614.78 416.85 C 614.74 418.43 614.72 420.01 614.68 421.60 C 613.43 422.06 612.08 422.31 610.95 422.99 C 609.29 430.58 608.56 438.35 606.79 445.92 C 605.77 447.82 603.02 447.26 601.23 447.73 C 601.81 439.41 604.12 431.35 605.15 423.10 C 603.52 422.85 601.90 422.61 600.29 422.34 C 600.23 419.79 601.34 417.63 603.87 416.73 C 603.65 417.56 603.23 419.21 603.02 420.03 M 608.14 425.44 L 607.91 425.97 C 607.69 426.27 607.26 426.87 607.04 427.17 C 605.00 428.68 608.44 432.75 608.22 429.02 C 609.25 428.33 609.34 427.39 608.47 426.19 C 608.39 426.00 608.22 425.63 608.14 425.44 M 606.34 434.23 C 606.83 434.73 606.83 434.73 606.34 434.23 M 604.36 441.25 C 604.90 441.69 604.90 441.69 604.36 441.25 Z" />
<path fill="#231f20" opacity="1.00" d=" M 592.75 419.66 C 593.88 417.60 596.51 418.37 598.42 418.32 C 597.50 428.29 595.26 438.08 593.67 447.95 C 591.82 448.15 589.97 448.33 588.14 448.49 C 588.47 445.25 589.00 442.03 589.24 438.79 C 587.68 439.89 587.23 441.90 586.35 443.50 C 585.26 443.62 584.18 443.75 583.11 443.88 C 582.69 442.50 582.25 441.13 581.95 439.73 C 583.09 437.67 579.82 437.70 581.00 439.74 C 580.58 443.04 579.98 446.31 579.53 449.60 C 577.73 449.70 575.93 449.79 574.15 449.85 C 575.07 442.94 576.08 436.03 577.48 429.19 C 578.18 426.26 577.77 423.02 579.09 420.27 C 580.71 419.75 582.40 419.44 584.07 419.07 C 584.48 423.20 585.71 427.18 586.60 431.23 C 588.74 427.42 590.33 423.31 592.75 419.66 Z" />
</g>
<g id="#eb3d2bff">
<path fill="#eb3d2b" opacity="1.00" d=" M 538.55 310.48 C 543.05 309.43 547.38 307.62 552.03 307.23 C 552.25 308.88 552.55 310.55 553.30 312.07 C 551.99 315.56 551.07 319.22 549.29 322.53 C 540.92 339.61 532.94 356.88 525.27 374.29 C 521.96 381.86 518.24 389.26 515.42 397.04 C 514.09 400.58 512.91 404.22 510.88 407.44 C 514.92 406.61 519.08 406.02 523.08 407.44 C 523.43 405.59 523.79 403.74 524.19 401.90 C 523.79 401.52 522.98 400.77 522.58 400.39 C 524.34 391.64 525.47 382.78 527.06 374.00 C 527.42 371.57 529.24 369.76 530.55 367.80 C 538.06 368.40 544.65 363.44 552.22 364.07 C 552.41 365.68 553.32 367.27 552.99 368.94 C 552.39 370.24 551.24 371.36 551.22 372.87 C 550.01 383.40 549.34 394.01 546.94 404.37 C 550.43 403.45 553.80 402.10 557.38 401.49 C 556.45 408.34 555.12 415.13 554.11 421.98 C 553.26 422.68 552.41 423.39 551.57 424.11 C 552.11 426.27 550.56 427.79 549.35 429.32 C 547.39 429.43 545.46 429.60 543.52 429.75 C 543.34 430.85 543.17 431.95 543.00 433.05 C 543.60 437.11 542.30 441.10 541.72 445.08 C 541.56 446.69 540.33 447.81 539.44 449.05 C 537.85 449.07 536.46 449.83 535.00 450.31 C 532.60 449.76 530.53 451.40 528.19 451.51 C 523.23 452.00 518.25 452.40 513.30 452.91 C 512.74 445.41 514.75 438.23 516.87 431.12 C 504.48 431.65 492.48 436.07 480.02 435.90 C 480.03 430.21 479.43 424.32 481.62 418.91 C 483.44 414.44 482.85 409.37 484.87 404.96 C 492.96 386.39 500.99 367.80 509.05 349.22 C 513.02 340.22 516.70 331.09 521.12 322.30 C 522.96 318.84 523.38 314.27 526.96 312.04 C 530.33 309.54 534.73 311.31 538.55 310.48 M 550.21 407.71 C 550.53 408.78 550.81 409.87 551.19 410.95 C 553.00 410.37 554.21 408.92 555.08 407.30 C 553.45 407.41 551.83 407.56 550.21 407.71 Z" />
<path fill="#eb3d2b" opacity="1.00" d=" M 775.14 380.27 C 786.70 378.59 798.37 377.76 810.00 376.60 C 812.69 375.82 814.11 378.69 815.96 380.07 C 816.59 381.06 817.24 382.04 817.92 383.03 C 814.62 383.11 811.40 383.84 808.23 384.68 C 806.90 384.09 805.60 382.58 804.01 383.28 C 796.33 384.10 788.77 385.84 781.03 386.00 C 774.68 386.60 768.30 387.30 762.07 388.56 C 757.52 387.48 753.56 390.48 749.08 390.43 C 731.68 391.38 714.46 394.08 697.13 395.73 C 695.35 396.07 693.61 395.66 691.99 395.00 C 689.37 396.24 686.57 395.96 683.96 394.89 C 676.27 394.93 668.72 397.42 660.98 397.43 C 656.57 397.48 652.22 398.27 647.90 399.07 C 647.52 399.06 646.75 399.03 646.36 399.02 L 644.79 398.98 C 644.26 399.19 643.21 399.63 642.68 399.85 C 638.32 398.68 634.42 401.59 630.13 401.73 C 620.55 402.38 611.02 403.44 601.46 404.22 C 591.95 405.60 582.41 406.86 572.82 407.40 C 569.46 406.42 568.63 402.61 567.03 399.93 C 569.20 400.67 571.43 401.16 573.73 401.38 C 573.31 400.92 572.49 399.99 572.07 399.53 C 591.19 398.42 610.10 395.14 629.21 394.05 C 628.34 394.56 626.61 395.57 625.75 396.07 C 636.12 395.83 646.43 394.33 656.80 393.96 C 657.41 393.87 658.62 393.70 659.22 393.61 C 661.09 393.23 662.97 392.81 664.78 392.17 C 670.74 392.16 676.70 391.57 682.62 390.94 C 681.84 390.70 680.26 390.23 679.47 389.99 C 683.74 387.38 689.15 388.59 693.95 388.08 C 721.04 385.70 747.99 382.02 775.14 380.27 Z" />
</g>
</svg>
