<?xml version="1.0" encoding="UTF-8" ?>
<!DOCTYPE svg PUBLIC "-//W3C//DTD SVG 1.1//EN" "http://www.w3.org/Graphics/SVG/1.1/DTD/svg11.dtd">
<svg width="1946pt" height="322pt" viewBox="0 0 1946 322" version="1.1" xmlns="http://www.w3.org/2000/svg">
<g id="#000000ff">
<path fill="#000000" opacity="1.00" d=" M 255.63 0.00 L 258.71 0.00 C 267.43 1.82 271.78 13.26 266.40 20.36 C 263.31 24.15 262.20 29.84 264.92 34.13 C 266.78 37.11 268.88 40.29 268.57 43.98 C 268.54 50.27 263.53 56.44 257.06 56.75 C 248.37 57.41 240.03 47.76 243.37 39.32 C 244.80 35.15 250.61 33.71 250.70 29.00 C 251.76 23.01 243.93 21.33 243.07 15.91 C 241.20 8.07 248.10 0.83 255.63 0.00 M 248.68 13.86 C 249.77 15.24 250.74 16.76 252.09 17.91 C 254.70 19.85 258.82 19.39 260.83 16.77 C 262.25 15.11 261.89 12.76 262.12 10.75 C 262.37 9.76 262.64 8.78 262.92 7.79 C 259.40 8.12 256.15 6.14 252.60 6.55 C 250.96 8.80 249.64 11.26 248.68 13.86 M 252.37 38.41 C 247.93 40.49 248.31 47.28 252.60 49.29 C 256.90 52.13 262.86 47.83 261.92 42.90 C 261.50 38.50 256.03 36.11 252.37 38.41 Z" />
<path fill="#000000" opacity="1.00" d=" M 550.56 15.43 C 554.59 15.36 558.61 15.38 562.64 15.33 C 565.55 18.71 565.94 23.75 569.81 26.31 C 569.59 24.38 569.29 22.46 568.93 20.56 C 567.14 19.12 565.72 17.31 564.44 15.42 C 567.52 15.36 570.60 15.37 573.69 15.37 C 573.73 45.97 573.61 76.57 573.75 107.17 C 578.22 101.09 583.54 95.70 589.51 91.10 C 593.71 92.12 597.89 93.20 602.03 94.45 C 601.93 92.92 601.84 91.39 601.76 89.87 C 599.31 89.67 596.25 89.99 595.81 86.86 C 597.34 85.96 598.88 85.06 600.42 84.16 C 601.41 85.50 602.42 86.81 603.50 88.09 C 603.46 86.23 603.39 84.38 603.31 82.52 C 610.28 79.13 617.58 76.41 625.12 74.59 C 624.81 77.67 625.89 80.51 628.46 82.33 C 629.64 79.51 629.20 76.58 627.63 74.02 C 664.81 67.17 704.72 87.68 721.42 121.43 C 721.57 122.46 721.44 123.50 721.02 124.54 C 721.57 124.54 722.66 124.53 723.21 124.53 C 732.14 143.03 734.14 164.59 729.49 184.54 C 724.73 204.35 713.08 222.45 696.96 234.92 C 683.16 245.41 666.41 252.60 648.99 253.56 C 647.52 252.48 647.73 250.36 647.12 248.82 C 650.70 249.92 652.72 246.46 654.62 244.13 C 653.71 242.27 652.60 240.52 651.66 238.68 C 650.00 238.34 648.34 237.98 646.70 237.60 C 644.86 239.54 642.53 241.31 641.73 243.95 C 641.68 247.80 644.46 250.76 646.32 253.88 C 630.95 254.76 615.25 251.90 601.51 244.82 C 601.50 244.19 601.46 242.91 601.45 242.28 C 600.23 240.82 599.06 239.32 597.81 237.90 C 597.57 239.21 597.49 240.53 597.59 241.87 C 596.23 241.40 594.87 240.99 593.59 240.37 C 579.85 232.34 569.06 220.04 561.20 206.32 C 562.52 206.40 563.85 206.48 565.19 206.56 C 564.27 205.19 563.47 203.75 562.40 202.51 C 561.03 201.17 558.64 201.06 557.90 199.12 C 552.02 186.23 550.16 171.88 550.57 157.82 C 551.21 157.52 552.49 156.92 553.13 156.62 C 552.50 156.47 551.23 156.18 550.60 156.03 C 550.57 113.85 550.61 71.67 550.58 29.49 C 551.16 29.62 552.33 29.88 552.91 30.01 L 552.99 29.13 C 552.39 29.20 551.18 29.36 550.58 29.44 C 550.60 24.77 550.60 20.10 550.56 15.43 M 560.25 20.30 C 560.84 20.75 560.84 20.75 560.25 20.30 M 554.30 35.13 C 554.56 38.43 557.25 33.50 554.30 35.13 M 565.37 35.05 C 565.32 38.38 568.42 33.68 565.37 35.05 M 564.54 42.67 C 564.06 40.37 562.84 38.37 561.23 36.70 C 561.51 39.08 562.21 41.50 564.54 42.67 M 564.72 44.16 C 565.40 44.80 566.14 45.38 566.93 45.90 C 568.88 44.91 570.67 43.63 572.51 42.44 C 571.15 41.79 569.77 40.63 568.17 41.05 C 566.91 41.97 565.80 43.06 564.72 44.16 M 569.44 46.66 C 568.71 48.81 568.96 50.88 571.28 51.89 C 570.95 50.08 571.08 47.89 569.44 46.66 M 593.07 94.99 C 593.17 97.07 594.23 98.91 595.07 100.77 C 597.00 101.57 598.93 102.38 600.89 103.13 C 601.51 104.71 602.15 106.28 602.81 107.84 C 590.85 116.04 581.78 128.21 577.17 141.94 C 572.18 156.62 572.62 173.00 578.14 187.47 C 576.17 187.44 574.29 187.82 573.45 189.79 C 575.13 189.44 576.80 189.02 578.47 188.58 C 579.99 191.89 581.67 195.14 583.59 198.25 C 583.39 199.01 583.20 199.78 583.01 200.56 C 583.63 200.77 584.85 201.20 585.47 201.42 C 588.10 205.36 591.21 208.96 594.56 212.30 C 594.76 213.73 594.98 215.16 595.20 216.59 C 596.22 217.94 597.20 219.32 598.22 220.68 C 598.24 219.64 598.28 217.55 598.30 216.50 C 602.14 217.68 605.15 220.42 608.58 222.40 C 616.77 227.24 626.14 229.84 635.59 230.70 C 635.80 231.33 636.23 232.61 636.44 233.25 C 637.30 232.49 638.16 231.72 639.03 230.96 C 642.83 230.94 646.64 230.75 650.42 230.29 C 652.04 235.12 654.98 239.35 658.47 243.02 C 659.60 238.29 653.61 236.31 653.31 231.74 C 653.98 231.76 655.31 231.79 655.98 231.81 C 656.05 231.17 656.18 229.91 656.25 229.27 C 667.91 226.56 678.88 220.79 687.59 212.55 C 701.07 199.88 709.05 181.49 708.78 162.96 C 708.83 147.84 703.36 132.89 693.84 121.20 C 685.41 110.20 673.18 102.37 659.96 98.46 C 645.47 94.21 629.66 95.28 615.66 100.80 C 614.74 99.70 613.81 98.60 612.83 97.57 C 611.73 100.32 611.46 103.68 608.36 105.02 C 607.26 102.85 606.12 100.60 603.96 99.31 C 604.23 101.66 604.99 103.90 605.96 106.05 C 605.53 106.26 604.66 106.70 604.23 106.91 C 603.25 103.70 602.17 100.51 601.01 97.36 C 598.35 96.60 595.82 95.36 593.07 94.99 M 593.90 103.95 C 593.33 105.59 593.85 106.16 595.47 105.68 C 596.02 104.04 595.50 103.46 593.90 103.95 M 589.78 107.86 C 590.66 107.37 591.59 106.93 592.39 106.29 C 591.71 105.71 590.33 104.56 589.65 103.98 C 589.66 105.27 589.71 106.56 589.78 107.86 M 690.38 110.59 C 692.35 113.75 695.97 111.59 698.84 111.40 C 698.51 110.55 698.19 109.70 697.88 108.86 C 695.37 109.39 692.86 109.97 690.38 110.59 M 560.58 116.31 C 561.46 117.38 562.35 118.45 563.27 119.51 C 563.36 118.64 563.54 116.90 563.63 116.03 C 562.86 116.10 561.34 116.24 560.58 116.31 M 565.26 116.20 C 565.78 116.75 565.78 116.75 565.26 116.20 M 720.35 133.20 C 720.73 133.84 720.73 133.84 720.35 133.20 M 721.11 181.55 C 722.09 183.93 723.37 186.20 724.96 188.24 C 726.66 186.38 727.10 183.79 726.66 181.38 C 724.95 180.21 722.88 181.08 721.11 181.55 M 704.31 202.25 C 704.78 202.84 704.78 202.84 704.31 202.25 M 581.48 208.16 C 581.01 209.55 581.49 210.05 582.90 209.66 C 583.35 208.28 582.88 207.78 581.48 208.16 M 573.99 213.52 C 574.16 216.31 575.51 218.71 578.33 219.52 C 577.60 217.06 576.24 214.85 573.99 213.52 M 590.29 215.21 C 590.15 216.77 590.11 218.34 590.15 219.92 C 591.63 221.01 593.36 221.72 595.06 222.44 C 594.04 219.69 592.36 217.26 590.29 215.21 M 584.14 220.15 C 582.40 222.99 587.46 220.50 584.14 220.15 M 600.32 219.88 C 600.72 221.94 601.06 225.02 604.03 224.16 C 604.24 221.69 602.44 220.43 600.32 219.88 M 705.97 220.21 C 705.54 221.83 706.13 222.38 707.75 221.86 C 708.16 220.23 707.57 219.68 705.97 220.21 M 578.46 223.31 C 578.13 224.62 578.04 227.62 579.73 227.82 C 580.52 226.54 580.02 223.58 578.46 223.31 M 698.38 223.19 C 698.73 223.84 698.73 223.84 698.38 223.19 M 685.80 227.15 C 687.41 227.19 690.73 229.92 691.17 227.12 C 690.53 223.74 687.43 226.02 685.80 227.15 M 595.33 226.58 C 596.59 227.42 597.95 228.10 599.15 229.04 C 600.35 232.95 600.46 237.25 602.81 240.77 C 603.94 239.79 605.08 238.80 606.23 237.82 C 608.78 236.25 610.91 233.87 611.98 231.06 C 612.16 228.45 609.60 226.16 607.08 226.09 C 603.15 225.85 599.23 226.28 595.33 226.58 M 673.04 228.36 C 672.57 229.99 673.14 230.51 674.76 229.92 C 675.22 228.28 674.64 227.76 673.04 228.36 M 614.24 228.75 C 614.27 230.18 614.32 231.62 614.39 233.05 C 615.78 233.34 617.17 233.62 618.59 233.88 C 617.48 231.90 615.93 230.23 614.24 228.75 M 622.34 232.10 C 621.48 233.25 622.08 235.31 623.48 235.77 C 625.42 235.38 624.18 231.13 622.34 232.10 M 672.54 232.59 C 672.24 234.69 672.07 236.80 672.11 238.93 C 673.41 236.98 673.58 234.68 672.54 232.59 M 593.01 234.20 C 592.51 235.55 592.98 236.08 594.41 235.78 C 594.89 234.42 594.42 233.89 593.01 234.20 M 638.29 235.38 C 637.16 236.42 638.85 238.51 640.12 237.67 C 641.24 236.61 639.56 234.53 638.29 235.38 M 627.51 239.13 C 626.26 240.49 628.39 242.72 629.79 241.45 C 631.15 240.16 628.81 237.79 627.51 239.13 M 655.33 246.97 C 655.54 247.90 655.96 249.75 656.18 250.68 C 658.09 249.77 659.87 248.61 661.54 247.31 C 662.27 247.28 663.74 247.22 664.47 247.19 C 664.35 245.71 664.19 244.25 663.98 242.79 C 661.00 243.99 658.29 245.74 655.33 246.97 Z" />
<path fill="#000000" opacity="1.00" d=" M 1274.40 15.38 C 1282.30 15.36 1290.21 15.39 1298.11 15.36 C 1298.19 42.08 1298.17 68.80 1298.13 95.52 C 1310.73 79.96 1331.23 71.98 1351.01 72.78 C 1366.42 73.20 1381.41 79.11 1393.54 88.50 C 1406.80 98.79 1416.43 113.66 1420.45 129.95 C 1423.48 142.13 1422.14 154.77 1422.44 167.17 C 1415.41 166.57 1408.06 166.43 1401.46 169.29 C 1405.96 170.06 1410.42 171.22 1414.42 173.49 C 1415.61 171.92 1416.80 170.34 1417.99 168.76 C 1419.46 168.87 1420.94 168.97 1422.44 169.06 C 1422.44 186.71 1422.44 204.37 1422.44 222.02 C 1422.34 228.32 1422.72 234.63 1422.13 240.91 C 1422.28 242.65 1422.42 244.40 1422.59 246.15 C 1414.61 246.16 1406.63 246.15 1398.66 246.16 C 1398.66 219.42 1398.63 192.68 1398.68 165.95 C 1398.37 153.73 1399.87 141.07 1395.54 129.35 C 1393.76 125.05 1392.08 120.55 1388.74 117.19 C 1391.05 117.64 1393.37 117.94 1395.73 118.14 C 1393.30 115.29 1391.42 111.49 1387.63 110.27 C 1387.55 111.91 1387.50 113.55 1387.48 115.19 C 1375.94 101.04 1356.39 93.49 1338.42 97.61 C 1320.89 101.77 1306.67 115.92 1300.86 132.77 C 1298.54 139.25 1298.35 146.21 1298.49 153.02 C 1298.63 178.98 1298.25 204.95 1298.69 230.91 C 1297.23 228.02 1295.09 224.02 1291.17 225.30 C 1290.22 227.81 1293.88 227.70 1295.36 228.65 C 1295.67 230.78 1296.78 232.55 1298.49 233.84 C 1298.51 237.92 1298.49 242.01 1298.52 246.10 C 1290.49 246.22 1282.46 246.11 1274.44 246.17 C 1274.35 169.24 1274.44 92.31 1274.40 15.38 M 1288.32 53.99 C 1288.69 55.69 1289.05 57.39 1289.43 59.09 C 1290.54 59.15 1291.66 59.20 1292.80 59.25 C 1291.26 57.53 1289.79 55.75 1288.32 53.99 M 1281.17 58.15 C 1281.22 61.50 1284.12 56.66 1281.17 58.15 M 1290.14 112.05 C 1290.28 115.39 1293.07 110.48 1290.14 112.05 M 1406.28 118.25 C 1406.75 118.84 1406.75 118.84 1406.28 118.25 M 1286.07 130.18 C 1287.67 132.46 1290.49 132.31 1292.95 132.02 C 1291.40 129.59 1288.50 130.04 1286.07 130.18 M 1279.94 144.96 C 1280.58 147.31 1282.29 148.95 1284.68 149.57 C 1284.14 147.07 1282.17 145.74 1279.94 144.96 M 1411.59 201.01 C 1412.72 202.07 1414.26 202.43 1415.71 202.85 C 1415.34 201.47 1415.76 199.41 1414.00 198.88 C 1412.57 198.84 1411.76 199.55 1411.59 201.01 M 1407.65 202.58 C 1408.80 203.41 1409.99 204.25 1411.18 205.08 C 1410.96 203.34 1410.77 201.61 1410.48 199.90 C 1409.48 200.75 1408.56 201.67 1407.65 202.58 M 1404.39 201.33 C 1403.41 202.71 1406.49 204.72 1407.10 202.93 C 1407.01 201.73 1405.45 200.82 1404.39 201.33 M 1413.12 205.55 C 1413.13 208.60 1413.22 211.81 1415.16 214.34 C 1416.54 213.40 1417.94 212.45 1419.39 211.56 C 1419.47 210.18 1419.66 208.79 1419.60 207.41 C 1417.93 205.54 1415.45 205.23 1413.12 205.55 M 1279.31 216.53 C 1277.92 218.89 1282.48 218.80 1282.58 216.73 C 1282.38 215.13 1279.99 215.52 1279.31 216.53 M 1289.42 216.48 C 1288.22 217.61 1288.44 218.57 1290.06 219.37 C 1291.46 218.79 1293.99 218.43 1293.80 216.41 C 1292.34 216.18 1290.78 215.79 1289.42 216.48 M 1282.98 225.05 C 1283.30 227.10 1284.23 228.91 1286.09 229.98 C 1286.86 231.36 1287.70 232.72 1289.00 233.70 C 1288.83 229.80 1286.26 226.82 1282.98 225.05 M 1280.24 237.21 C 1280.79 237.78 1280.79 237.78 1280.24 237.21 Z" />
<path fill="#000000" opacity="1.00" d=" M 1148.81 15.69 C 1156.52 15.69 1164.23 15.68 1171.95 15.69 C 1171.92 33.41 1171.97 51.13 1171.92 68.86 C 1171.48 68.92 1170.59 69.05 1170.15 69.12 C 1170.54 69.49 1171.34 70.23 1171.73 70.60 C 1172.21 74.26 1171.86 77.96 1171.99 81.64 C 1186.35 81.61 1200.72 81.63 1215.09 81.63 C 1215.08 89.33 1215.11 97.03 1215.07 104.73 C 1200.69 104.71 1186.32 104.72 1171.94 104.73 C 1171.93 109.26 1171.92 113.79 1171.97 118.32 C 1171.28 118.26 1169.90 118.14 1169.22 118.09 C 1169.69 119.43 1170.16 120.78 1170.66 122.13 C 1169.36 123.17 1168.09 124.22 1166.83 125.27 C 1167.09 123.26 1167.40 121.26 1167.75 119.26 C 1164.12 119.63 1160.51 119.19 1157.02 118.22 C 1156.61 123.38 1159.14 127.90 1161.47 132.28 C 1164.70 130.89 1167.98 129.64 1171.27 128.38 C 1171.36 127.13 1171.49 125.87 1171.66 124.62 C 1172.30 148.96 1171.76 173.33 1171.94 197.68 C 1171.07 198.32 1170.22 198.96 1169.38 199.62 C 1170.03 199.64 1171.32 199.69 1171.96 199.72 C 1171.91 215.20 1171.95 230.68 1171.94 246.15 C 1164.23 246.16 1156.53 246.16 1148.83 246.15 C 1148.80 244.74 1148.78 243.34 1148.78 241.93 C 1149.30 241.06 1149.84 240.19 1150.39 239.33 C 1154.47 239.34 1158.55 239.34 1162.64 239.35 C 1162.67 238.37 1162.72 236.41 1162.74 235.42 C 1161.06 235.86 1159.39 236.29 1157.73 236.71 C 1158.19 234.19 1158.58 231.64 1159.27 229.16 C 1159.64 228.96 1160.38 228.56 1160.75 228.36 C 1160.09 228.41 1158.77 228.51 1158.11 228.56 C 1157.88 226.78 1157.68 225.01 1157.47 223.25 C 1154.58 223.19 1151.69 223.13 1148.82 223.06 C 1148.79 199.70 1148.84 176.33 1148.79 152.97 C 1148.76 148.28 1149.48 143.61 1148.89 138.94 C 1148.70 127.54 1148.85 116.14 1148.83 104.75 C 1143.22 104.71 1137.63 104.70 1132.03 104.75 C 1131.96 97.04 1132.01 89.33 1132.00 81.63 C 1137.60 81.62 1143.19 81.62 1148.80 81.64 C 1148.83 59.65 1148.80 37.67 1148.81 15.69 M 1166.19 54.57 C 1165.24 55.59 1165.59 57.78 1167.08 58.07 C 1169.13 57.81 1168.12 53.54 1166.19 54.57 M 1152.23 63.20 C 1151.30 64.20 1150.55 65.33 1149.80 66.45 C 1151.20 66.58 1152.60 66.68 1154.03 66.76 C 1153.46 65.57 1153.50 63.91 1152.23 63.20 M 1153.35 70.23 C 1155.23 70.52 1157.20 70.96 1158.95 69.84 C 1159.46 70.14 1159.97 70.43 1160.50 70.73 C 1162.42 70.42 1164.40 70.16 1166.32 69.71 C 1163.56 69.38 1160.80 69.21 1158.04 69.08 C 1157.82 68.64 1157.37 67.75 1157.15 67.30 C 1155.89 68.28 1154.55 69.24 1153.35 70.23 M 1205.95 96.90 C 1205.45 98.56 1206.00 99.12 1207.60 98.55 C 1208.06 96.88 1207.51 96.33 1205.95 96.90 M 1163.86 109.25 C 1162.85 111.71 1161.67 114.08 1160.79 116.59 C 1162.72 115.54 1164.35 114.07 1166.15 112.82 C 1167.91 113.32 1169.38 114.47 1171.02 115.29 C 1169.73 112.71 1168.39 110.16 1167.01 107.64 C 1165.93 108.17 1164.89 108.71 1163.86 109.25 M 1168.19 142.84 C 1168.08 141.52 1167.37 140.86 1166.06 140.85 C 1163.25 141.95 1167.21 145.63 1168.19 142.84 M 1154.51 143.00 C 1154.57 145.95 1156.28 148.51 1158.25 150.59 C 1158.16 147.61 1158.10 144.63 1158.06 141.65 C 1156.85 142.05 1155.66 142.50 1154.51 143.00 M 1159.13 154.30 C 1158.27 155.33 1158.97 157.22 1160.28 157.49 C 1162.24 157.17 1160.83 153.39 1159.13 154.30 M 1161.17 200.44 C 1163.73 200.66 1167.13 202.01 1168.75 199.13 C 1166.16 199.05 1163.29 198.59 1161.17 200.44 M 1156.27 201.03 C 1153.54 202.32 1156.88 203.83 1158.11 202.15 C 1159.41 200.98 1157.02 200.29 1156.27 201.03 M 1150.25 217.31 C 1153.07 218.02 1155.92 218.64 1158.81 219.06 C 1157.64 217.68 1156.36 216.43 1155.00 215.25 C 1153.40 215.92 1151.80 216.57 1150.25 217.31 M 1163.20 215.24 C 1159.49 216.57 1157.30 223.71 1162.45 224.64 C 1162.37 225.70 1162.31 226.76 1162.26 227.83 C 1162.58 227.81 1163.22 227.79 1163.53 227.77 C 1163.56 224.92 1163.63 222.06 1163.80 219.21 C 1164.63 218.99 1166.28 218.53 1167.11 218.31 C 1165.91 217.18 1165.34 214.32 1163.20 215.24 Z" />
<path fill="#000000" opacity="1.00" d=" M 252.09 59.26 C 255.56 59.95 259.10 59.80 262.57 59.09 C 262.55 60.91 262.54 62.73 262.55 64.56 C 259.15 63.57 255.62 63.45 252.16 64.19 C 252.15 62.54 252.12 60.90 252.09 59.26 Z" />
<path fill="#000000" opacity="1.00" d=" M 243.32 82.77 C 240.40 73.83 249.90 64.17 258.88 66.13 C 264.70 67.34 268.85 73.15 268.73 78.98 C 268.86 82.00 267.41 84.73 266.16 87.38 C 265.51 87.44 264.19 87.55 263.53 87.61 C 263.60 91.05 263.31 94.52 263.74 97.95 C 264.68 100.54 266.79 102.51 267.78 105.09 C 270.48 112.02 266.25 120.94 258.81 122.54 C 249.11 124.89 238.77 113.11 244.02 104.06 C 246.69 101.26 249.33 97.40 253.50 97.11 C 252.64 96.38 251.78 95.66 250.91 94.94 C 251.54 89.19 244.68 87.70 243.32 82.77 M 249.74 81.20 C 251.30 84.98 256.64 86.43 259.82 83.79 C 262.63 81.78 261.93 77.99 262.18 75.01 C 259.61 73.96 257.00 71.75 254.07 72.81 C 250.67 73.78 248.26 77.82 249.74 81.20 M 253.14 85.43 C 253.31 87.88 253.65 90.34 254.52 92.65 C 254.60 90.24 256.45 86.47 253.14 85.43 M 249.85 106.91 C 248.68 108.79 249.53 111.04 249.79 113.05 C 249.65 113.49 249.36 114.36 249.21 114.80 C 249.55 115.08 250.24 115.65 250.58 115.93 C 253.02 115.60 255.47 116.07 257.91 115.79 C 261.91 114.42 263.32 108.72 260.42 105.64 C 257.66 102.33 251.84 103.19 249.85 106.91 Z" />
<path fill="#000000" opacity="1.00" d=" M 65.91 75.89 C 69.82 68.56 81.14 67.12 86.72 73.28 C 93.09 80.12 89.08 93.11 79.96 95.15 C 77.61 95.51 74.03 95.80 73.14 92.99 C 71.21 88.55 67.71 85.13 63.71 82.51 C 65.22 85.50 66.31 88.67 66.73 92.00 C 64.83 93.20 61.88 93.67 61.24 96.16 C 60.10 99.39 59.14 103.08 56.04 105.02 C 48.32 110.12 36.10 104.27 35.55 94.93 C 35.04 88.30 40.50 82.19 46.95 81.28 C 50.02 80.78 52.99 82.02 56.01 82.25 C 60.00 81.60 64.11 79.74 65.91 75.89 M 72.77 77.83 C 69.57 80.90 71.61 85.66 72.14 89.40 C 75.37 90.07 78.62 90.73 81.92 91.03 C 81.78 89.85 81.64 88.68 81.49 87.50 C 82.72 85.27 84.29 82.71 83.17 80.09 C 81.87 75.80 75.78 74.65 72.77 77.83 M 87.16 83.25 C 87.73 83.81 87.73 83.81 87.16 83.25 M 61.42 86.90 C 60.61 88.14 62.35 90.39 63.71 89.53 C 64.63 88.27 62.80 85.97 61.42 86.90 M 46.24 88.33 C 42.38 89.74 40.90 95.22 43.83 98.23 C 46.61 101.79 53.09 101.21 54.52 96.70 C 56.66 91.80 51.25 85.90 46.24 88.33 Z" />
<path fill="#000000" opacity="1.00" d=" M 104.12 72.23 C 104.81 70.12 107.17 69.76 109.07 69.49 C 114.43 68.78 120.04 71.53 122.54 76.37 C 123.98 79.39 127.05 80.92 130.11 81.82 C 132.70 82.87 135.35 81.48 137.97 81.28 C 145.61 80.19 153.21 87.21 152.58 94.95 C 152.02 104.57 138.99 110.46 131.42 104.52 C 128.26 102.16 127.92 97.97 126.21 94.70 C 124.50 93.17 122.23 92.30 119.97 92.04 C 115.66 93.70 111.12 96.91 106.37 94.60 C 100.69 92.58 99.41 86.17 98.29 80.99 C 98.36 77.47 100.08 72.56 104.12 72.23 M 108.39 76.46 C 103.47 78.28 103.46 85.86 108.00 88.15 C 112.15 90.49 117.51 86.50 117.20 81.95 C 117.18 77.70 112.20 74.75 108.39 76.46 M 118.35 83.28 C 118.81 86.61 121.13 81.46 118.35 83.28 M 137.18 88.26 C 132.74 89.87 131.80 96.62 135.60 99.41 C 139.53 102.55 146.09 99.03 145.86 94.08 C 145.92 89.85 141.08 86.57 137.18 88.26 Z" />
<path fill="#000000" opacity="1.00" d=" M 385.20 73.26 C 390.37 67.87 400.33 68.10 404.86 74.22 C 407.28 77.12 407.07 81.08 407.50 84.61 C 406.04 85.06 404.47 85.29 403.18 86.14 C 404.25 86.54 405.51 86.21 406.50 86.87 C 405.23 88.67 404.32 91.31 402.06 92.05 C 400.11 91.53 398.29 90.65 396.42 89.93 C 396.94 92.00 398.52 93.22 400.37 94.09 C 397.72 94.94 394.85 96.01 392.11 94.89 C 388.83 93.83 385.52 90.68 382.01 92.98 C 377.25 94.27 378.31 100.28 375.29 103.28 C 369.54 109.80 358.07 106.86 354.24 99.66 C 351.40 94.65 353.13 87.97 357.49 84.40 C 360.46 81.69 364.61 81.06 368.49 80.98 C 368.22 81.98 367.96 82.98 367.70 83.98 C 368.46 83.17 369.23 82.37 370.06 81.62 C 373.70 83.16 377.50 81.28 380.59 79.38 C 382.47 77.63 383.40 75.10 385.20 73.26 M 392.33 76.41 C 387.35 77.96 386.96 85.32 391.37 87.79 C 395.04 90.54 400.52 87.49 400.80 83.09 C 401.66 78.54 396.56 74.54 392.33 76.41 M 405.13 81.30 C 403.81 81.98 403.80 82.65 405.11 83.33 C 406.42 82.65 406.42 81.97 405.13 81.30 M 363.33 88.43 C 359.18 90.10 358.25 96.29 361.91 98.97 C 365.10 102.02 371.15 100.53 372.02 96.06 C 373.64 91.13 368.06 85.90 363.33 88.43 Z" />
<path fill="#000000" opacity="1.00" d=" M 416.80 75.97 C 420.08 69.27 429.45 67.52 435.45 71.53 C 439.57 73.80 440.26 79.67 445.10 80.96 C 449.82 83.98 455.08 79.89 460.04 81.61 C 465.87 83.17 470.48 89.01 469.86 95.15 C 469.18 104.76 455.94 110.54 448.52 104.33 C 445.44 101.92 445.26 97.72 443.40 94.55 C 441.08 92.83 437.71 91.09 434.99 92.95 C 431.99 94.74 428.58 95.62 425.08 95.32 C 424.46 93.90 423.82 92.48 423.16 91.08 C 422.74 91.70 421.90 92.95 421.48 93.57 C 416.52 89.40 413.72 82.06 416.80 75.97 M 426.15 76.30 C 421.02 77.74 420.56 85.40 424.99 87.95 C 429.09 90.68 434.84 86.68 434.52 81.99 C 434.51 77.90 429.92 74.94 426.15 76.30 M 454.31 88.33 C 450.10 90.04 449.18 96.45 452.74 99.28 C 456.34 102.31 462.53 99.62 463.12 95.06 C 463.97 90.41 458.57 86.29 454.31 88.33 Z" />
<path fill="#000000" opacity="1.00" d=" M 823.40 94.44 C 838.55 81.41 858.00 72.48 878.25 72.68 C 877.17 81.14 876.06 89.61 874.96 98.07 C 867.04 98.19 859.10 99.56 851.81 102.74 C 851.56 102.72 851.04 102.68 850.78 102.66 C 844.84 106.71 838.71 110.53 833.52 115.56 C 832.37 117.07 830.45 116.05 828.93 116.08 C 829.40 116.63 830.34 117.73 830.82 118.28 C 817.63 131.07 809.60 148.87 807.86 167.08 C 807.51 179.53 807.86 191.99 807.66 204.44 C 805.90 201.25 804.25 197.85 800.93 196.01 C 800.04 197.35 799.94 199.71 797.99 199.97 C 794.43 199.81 790.91 197.40 787.44 199.33 C 790.47 200.03 793.80 199.77 796.53 201.50 C 797.72 201.24 798.90 200.95 800.12 200.78 C 802.14 202.97 800.78 205.88 800.23 208.36 C 802.06 212.34 805.64 215.22 807.57 219.11 C 807.98 228.10 807.57 237.12 807.74 246.12 C 800.01 246.19 792.29 246.14 784.56 246.15 C 784.40 242.62 784.63 239.09 785.56 235.67 C 784.31 230.36 784.27 224.74 785.77 219.47 C 786.67 220.21 787.57 220.96 788.47 221.72 C 788.35 220.29 788.24 218.86 788.14 217.44 C 786.99 217.54 785.84 217.64 784.71 217.76 C 784.64 216.11 784.57 214.46 784.52 212.81 C 785.21 212.73 786.58 212.57 787.27 212.49 C 786.57 212.43 785.18 212.33 784.49 212.28 L 784.63 211.27 C 786.68 210.96 787.74 209.51 788.22 207.64 C 787.28 207.36 785.40 206.82 784.46 206.55 C 785.05 205.52 785.76 204.58 786.42 203.60 C 785.85 202.91 785.27 202.24 784.69 201.59 C 784.44 161.51 784.69 121.43 784.57 81.35 C 792.28 81.26 800.00 81.33 807.72 81.31 C 807.77 91.67 807.61 102.03 807.81 112.39 C 810.25 109.23 812.68 106.05 815.20 102.95 C 815.55 103.15 816.26 103.55 816.62 103.76 C 816.97 99.56 820.57 97.07 823.40 94.44 M 791.42 111.01 C 790.46 111.83 789.88 113.45 790.63 114.58 C 792.61 115.58 793.91 109.96 791.42 111.01 M 815.26 110.55 C 816.22 112.68 816.14 115.91 818.95 116.60 C 818.37 114.25 817.67 111.64 815.26 110.55 M 798.47 126.38 C 798.47 127.32 798.67 128.24 798.82 129.16 C 800.23 127.62 801.71 126.14 803.29 124.76 C 801.65 124.98 799.23 124.47 798.47 126.38 M 795.64 141.75 C 793.91 142.35 793.00 144.28 792.86 146.00 C 792.17 148.19 792.83 148.88 794.82 148.09 C 796.07 146.11 798.26 143.84 797.61 141.35 C 797.11 141.45 796.13 141.65 795.64 141.75 M 794.52 177.08 C 794.17 177.26 793.49 177.61 793.15 177.78 C 795.50 179.04 799.88 179.70 801.43 177.06 C 799.20 176.30 796.71 176.22 794.52 177.08 M 802.39 181.09 C 803.78 181.85 805.17 182.60 806.59 183.33 C 806.43 181.29 806.98 177.94 804.08 177.74 C 803.47 178.83 802.90 179.95 802.39 181.09 M 789.35 205.24 C 791.44 206.84 793.94 207.75 796.55 208.10 C 795.13 205.26 792.29 204.58 789.35 205.24 M 796.22 227.31 C 796.80 227.76 796.80 227.76 796.22 227.31 Z" />
<path fill="#000000" opacity="1.00" d=" M 964.79 76.80 C 988.94 69.26 1016.26 72.16 1037.99 85.29 C 1037.84 86.84 1037.70 88.38 1037.57 89.93 C 1039.08 90.94 1040.68 91.88 1042.05 93.11 C 1041.67 95.72 1038.53 96.22 1036.81 97.70 C 1038.37 98.89 1040.08 99.91 1041.72 101.02 C 1041.68 102.19 1041.60 104.52 1041.56 105.69 C 1043.66 102.77 1045.17 99.50 1046.74 96.28 C 1046.21 94.48 1045.75 92.67 1045.36 90.84 C 1042.62 90.22 1040.04 88.99 1038.99 86.22 C 1043.29 88.47 1047.05 91.57 1050.94 94.44 C 1050.18 95.29 1049.41 96.14 1048.67 96.99 C 1051.35 98.40 1054.34 99.29 1056.80 101.10 C 1057.86 102.52 1058.46 104.21 1059.40 105.71 C 1060.49 106.10 1061.62 106.43 1062.79 106.71 C 1084.07 132.95 1088.78 171.47 1074.04 201.93 C 1062.32 227.25 1038.27 246.40 1010.95 252.11 C 991.98 256.03 971.68 254.10 954.10 245.82 C 937.12 238.03 922.66 224.89 913.37 208.67 C 904.62 193.76 900.49 176.28 901.38 159.03 C 902.12 138.95 910.16 119.39 923.23 104.20 C 934.18 91.44 948.78 81.90 964.79 76.80 M 997.12 88.17 C 997.66 88.89 998.28 89.55 998.98 90.15 C 999.96 89.21 1000.87 88.18 1001.81 87.17 C 1003.59 87.33 1006.59 89.60 1006.92 86.69 C 1003.67 86.75 999.73 85.68 997.12 88.17 M 1013.24 87.06 C 1013.55 90.40 1016.09 85.36 1013.24 87.06 M 992.66 89.73 C 992.21 91.79 992.04 93.90 991.31 95.88 C 968.65 95.80 946.50 108.29 934.67 127.58 C 926.83 140.01 923.27 155.01 924.70 169.64 C 923.12 169.43 921.54 169.21 919.96 169.17 C 920.19 171.56 923.22 170.81 924.90 171.40 C 927.51 195.74 944.62 217.91 967.64 226.33 C 966.63 228.35 965.95 230.50 965.60 232.73 C 968.30 232.03 970.37 230.20 972.07 228.06 C 997.13 235.83 1026.67 227.71 1043.19 207.08 C 1044.14 205.71 1045.66 205.06 1047.14 204.41 C 1047.12 203.86 1047.06 202.77 1047.04 202.22 C 1055.25 190.91 1059.66 176.97 1059.48 163.00 C 1059.53 144.36 1051.23 125.96 1037.45 113.45 C 1025.70 102.78 1010.13 96.28 994.22 95.90 C 993.98 93.78 993.67 91.64 992.66 89.73 M 1046.22 108.36 C 1045.72 110.01 1046.27 110.57 1047.89 110.03 C 1048.37 108.39 1047.82 107.84 1046.22 108.36 M 942.12 113.07 C 943.47 112.48 944.81 111.86 946.17 111.24 C 945.19 110.14 944.27 108.87 942.79 108.46 C 940.91 109.38 942.18 111.54 942.12 113.07 M 907.16 144.76 C 907.82 146.75 908.21 148.99 909.78 150.52 C 911.00 150.01 912.18 149.40 913.32 148.70 C 912.08 146.41 909.58 145.29 907.16 144.76 M 1073.54 153.32 C 1075.19 153.27 1076.85 153.16 1078.51 152.97 C 1076.82 151.16 1074.99 151.55 1073.54 153.32 M 907.62 152.89 C 909.49 153.94 911.46 154.81 913.53 155.42 C 912.21 153.28 910.06 152.35 907.62 152.89 M 1062.60 154.30 C 1065.39 155.60 1069.14 156.38 1070.75 152.91 C 1067.89 152.05 1064.99 152.52 1062.60 154.30 M 906.07 172.05 C 907.53 172.31 909.02 172.54 910.51 172.76 C 910.50 172.08 910.48 170.72 910.47 170.03 C 908.98 170.67 907.50 171.33 906.07 172.05 M 904.54 177.41 C 904.59 178.71 904.66 180.01 904.75 181.32 C 905.40 181.39 906.71 181.53 907.37 181.60 C 906.44 180.19 905.51 178.78 904.54 177.41 M 1057.22 196.30 C 1057.80 196.77 1057.80 196.77 1057.22 196.30 M 1067.24 197.19 C 1067.72 197.76 1067.72 197.76 1067.24 197.19 M 1047.37 208.28 C 1049.48 208.07 1051.60 207.60 1053.41 206.41 C 1051.11 206.25 1047.86 204.88 1047.37 208.28 M 1057.66 212.24 C 1057.44 213.65 1059.87 213.79 1060.51 212.82 C 1060.72 211.38 1058.26 211.28 1057.66 212.24 M 1045.94 215.46 C 1049.55 215.55 1053.08 214.75 1056.63 214.16 C 1053.37 212.67 1047.87 211.57 1045.94 215.46 M 1039.59 214.42 C 1041.21 216.05 1043.39 216.39 1044.80 214.20 C 1043.05 214.20 1041.31 214.27 1039.59 214.42 M 934.54 216.05 C 935.02 219.50 934.85 222.95 933.87 226.31 C 935.29 224.58 937.03 223.05 938.04 221.02 C 938.14 218.86 937.08 216.03 934.54 216.05 M 928.25 223.26 C 928.70 223.85 928.70 223.85 928.25 223.26 M 1025.36 225.83 C 1026.95 226.92 1028.57 227.99 1030.24 229.00 C 1030.41 227.12 1030.57 225.23 1030.74 223.35 C 1028.96 224.22 1027.14 225.03 1025.36 225.83 M 940.70 226.85 C 941.00 228.92 941.36 230.99 941.86 233.03 C 942.92 231.35 943.98 229.66 945.03 227.97 C 943.58 227.58 942.12 227.21 940.70 226.85 M 1021.98 227.96 C 1021.99 231.25 1023.10 234.43 1026.27 235.94 C 1026.54 234.17 1026.79 232.39 1027.06 230.62 C 1025.35 229.73 1023.68 228.82 1021.98 227.96 M 1002.16 231.32 C 1002.78 231.71 1002.78 231.71 1002.16 231.32 M 1005.34 231.24 C 1005.22 232.80 1005.12 234.37 1005.15 235.94 C 1006.07 236.24 1007.01 236.50 1007.98 236.74 C 1007.80 234.61 1007.29 232.42 1005.34 231.24 M 1041.31 235.29 C 1041.83 235.82 1041.83 235.82 1041.31 235.29 M 965.46 236.48 C 966.58 237.17 967.71 237.83 968.88 238.49 C 969.13 237.95 969.62 236.88 969.87 236.34 C 968.39 236.37 966.92 236.42 965.46 236.48 M 976.30 236.40 C 975.31 237.50 975.54 238.16 976.98 238.37 C 977.94 237.25 977.71 236.60 976.30 236.40 M 1021.86 240.42 C 1022.32 242.45 1022.77 244.58 1024.21 246.19 C 1026.43 245.35 1024.63 242.25 1024.87 240.45 C 1024.12 240.44 1022.61 240.43 1021.86 240.42 Z" />
<path fill="#000000" opacity="1.00" d=" M 1530.65 77.80 C 1551.04 70.88 1573.93 70.89 1593.98 79.03 C 1625.60 91.21 1649.09 122.60 1651.13 156.52 C 1621.77 156.56 1592.41 156.35 1563.05 156.63 C 1567.32 156.01 1571.62 155.24 1575.57 153.39 C 1569.78 153.00 1563.85 153.35 1558.40 155.44 C 1555.11 156.88 1551.48 156.62 1548.01 156.32 C 1543.33 155.74 1538.64 156.57 1533.96 156.51 C 1520.47 156.50 1506.98 156.50 1493.50 156.50 C 1492.08 172.63 1496.25 189.23 1505.71 202.43 C 1511.98 211.43 1520.64 218.71 1530.56 223.38 C 1530.47 223.73 1530.28 224.42 1530.19 224.77 C 1534.70 225.32 1538.78 227.45 1543.14 228.61 C 1559.44 233.03 1577.40 231.16 1592.31 223.16 C 1603.99 217.14 1613.62 207.48 1619.93 195.98 C 1628.39 196.03 1636.86 195.96 1645.33 196.02 C 1638.69 212.89 1627.05 227.80 1612.12 238.10 C 1595.26 249.76 1574.39 255.45 1553.94 253.81 C 1522.26 251.81 1492.73 231.43 1479.17 202.81 C 1472.47 189.38 1469.78 174.21 1470.24 159.28 C 1471.22 159.25 1473.19 159.19 1474.17 159.17 C 1472.96 158.22 1471.74 157.31 1470.52 156.43 C 1471.92 133.49 1483.04 111.76 1499.76 96.18 C 1500.13 97.53 1500.52 98.88 1500.95 100.22 C 1501.99 99.01 1503.01 97.78 1504.01 96.51 C 1503.19 95.68 1502.44 94.88 1501.67 94.05 C 1510.23 88.08 1518.90 82.11 1528.77 78.45 L 1529.59 80.75 C 1529.93 79.77 1530.29 78.79 1530.65 77.80 M 1548.13 75.20 C 1546.59 76.23 1548.47 78.56 1549.89 77.54 C 1551.40 76.52 1549.52 74.15 1548.13 75.20 M 1553.41 84.71 C 1555.42 84.45 1558.50 84.82 1558.06 81.76 C 1556.42 82.62 1554.84 83.56 1553.41 84.71 M 1558.15 87.54 C 1558.46 90.82 1560.52 93.39 1562.57 95.81 C 1554.40 95.76 1546.16 96.74 1538.43 99.47 C 1532.52 101.42 1527.18 104.64 1521.85 107.77 C 1511.58 115.66 1503.04 125.86 1498.18 137.95 C 1539.95 138.05 1581.72 137.99 1623.49 137.98 C 1617.77 123.89 1607.29 111.77 1593.95 104.41 C 1594.39 102.29 1594.66 100.13 1594.83 97.97 C 1592.68 98.64 1591.01 100.09 1589.99 102.08 C 1582.87 99.10 1575.38 97.01 1567.68 96.30 C 1566.33 94.91 1564.59 93.76 1563.83 91.93 C 1563.11 89.43 1563.96 86.86 1564.25 84.37 C 1562.23 85.47 1560.20 86.54 1558.15 87.54 M 1523.77 89.41 C 1524.60 92.56 1527.42 94.25 1529.55 96.45 C 1529.79 98.56 1529.60 100.73 1530.17 102.81 C 1530.87 97.93 1531.97 93.07 1531.86 88.11 C 1529.11 88.29 1526.41 88.70 1523.77 89.41 M 1599.16 96.86 C 1597.64 97.19 1598.14 99.67 1599.72 98.84 C 1601.23 98.53 1600.69 96.04 1599.16 96.86 M 1532.59 139.88 C 1534.52 142.27 1537.07 145.14 1540.49 144.30 C 1537.93 142.69 1535.39 141.01 1532.59 139.88 M 1552.91 148.58 C 1554.21 149.50 1555.67 150.16 1557.14 150.83 C 1556.17 149.10 1555.09 146.34 1552.91 148.58 M 1582.79 153.04 C 1590.62 153.44 1599.00 154.12 1606.23 150.46 C 1598.40 150.62 1590.13 149.75 1582.79 153.04 M 1483.66 164.94 C 1485.65 164.55 1487.59 163.90 1489.31 162.74 C 1487.08 162.35 1484.20 162.05 1483.66 164.94 M 1472.02 163.72 C 1472.07 163.99 1472.16 164.54 1472.21 164.82 C 1474.97 166.01 1477.87 167.01 1480.23 168.98 C 1479.64 170.50 1479.04 172.03 1478.52 173.57 C 1479.60 173.64 1480.69 173.67 1481.80 173.66 C 1482.69 171.30 1482.68 168.65 1482.13 166.23 C 1479.74 163.15 1475.55 162.45 1472.02 163.72 M 1526.44 226.16 C 1526.45 227.75 1526.48 229.35 1526.53 230.95 C 1528.48 231.34 1530.42 231.02 1532.27 230.30 C 1530.22 229.04 1528.30 227.64 1526.44 226.16 Z" />
<path fill="#000000" opacity="1.00" d=" M 1743.97 91.97 C 1758.67 80.38 1776.90 72.48 1795.86 72.67 C 1794.75 81.03 1793.85 89.43 1792.55 97.77 C 1784.80 98.63 1776.85 99.26 1769.70 102.67 C 1755.55 109.33 1743.77 120.70 1736.13 134.30 C 1734.82 134.54 1733.51 134.77 1732.25 134.99 C 1730.76 134.32 1729.32 132.84 1727.61 133.69 C 1723.24 135.07 1718.10 134.31 1714.52 137.62 C 1716.18 138.27 1717.94 138.83 1719.59 139.60 C 1719.39 141.30 1718.93 142.95 1718.66 144.63 C 1720.92 143.34 1723.08 141.89 1725.19 140.34 C 1726.12 142.19 1726.84 146.62 1729.79 144.84 C 1731.27 141.94 1730.91 137.74 1734.50 136.35 C 1729.97 146.73 1725.69 157.53 1725.39 169.01 C 1725.29 178.03 1725.34 187.05 1725.38 196.07 C 1725.04 196.56 1724.37 197.54 1724.04 198.04 C 1724.38 198.46 1725.07 199.30 1725.41 199.72 C 1725.22 213.16 1725.46 226.60 1725.29 240.05 C 1722.98 241.83 1725.01 244.09 1725.70 246.14 C 1717.88 246.17 1710.05 246.17 1702.24 246.13 C 1702.22 236.98 1702.32 227.82 1702.18 218.67 C 1706.44 220.10 1709.54 216.68 1712.03 213.75 C 1708.99 212.13 1705.54 211.88 1702.19 211.87 C 1702.20 210.62 1702.23 209.37 1702.28 208.12 C 1705.06 208.66 1707.85 209.22 1710.62 209.89 C 1710.51 206.22 1711.94 202.87 1714.00 199.91 C 1715.71 199.85 1717.45 199.74 1719.20 199.60 C 1713.88 197.15 1707.86 199.65 1702.25 199.30 C 1702.25 159.97 1702.24 120.64 1702.25 81.31 C 1709.95 81.34 1717.66 81.24 1725.38 81.37 C 1725.31 91.74 1725.36 102.10 1725.34 112.46 C 1730.91 105.09 1736.63 97.68 1743.97 91.97 M 1744.17 113.29 C 1742.19 113.33 1742.20 116.52 1744.36 115.67 C 1746.23 115.59 1746.24 112.54 1744.17 113.29 M 1722.48 126.01 C 1723.23 127.59 1723.71 130.12 1725.96 130.14 C 1727.89 129.70 1729.38 128.34 1731.02 127.29 C 1728.34 126.04 1725.36 125.91 1722.48 126.01 M 1733.25 129.04 C 1730.55 130.52 1734.44 132.55 1735.61 130.52 C 1736.74 129.05 1734.21 128.20 1733.25 129.04 M 1703.78 139.16 C 1706.15 139.36 1708.63 139.15 1710.24 137.14 C 1707.88 137.11 1705.67 137.81 1703.78 139.16 M 1715.66 183.27 C 1717.75 184.59 1720.17 184.85 1722.46 183.86 C 1720.22 183.28 1717.93 183.09 1715.66 183.27 M 1712.15 210.08 C 1710.90 211.63 1713.76 212.89 1714.71 211.53 C 1715.96 209.96 1713.06 208.82 1712.15 210.08 Z" />
<path fill="#000000" opacity="1.00" d=" M 1860.56 78.52 C 1877.81 70.51 1899.19 70.43 1915.72 80.30 C 1928.24 87.35 1937.90 99.50 1941.11 113.59 C 1932.87 113.68 1924.63 113.58 1916.40 113.66 C 1914.20 108.30 1911.16 103.03 1906.20 99.80 C 1891.87 89.72 1870.68 93.13 1858.99 105.74 C 1855.67 105.77 1852.36 105.80 1849.06 105.95 C 1850.65 108.42 1853.31 109.55 1856.03 110.34 C 1855.78 110.65 1855.29 111.28 1855.04 111.60 C 1852.43 112.30 1850.30 113.91 1848.54 115.88 C 1850.29 115.79 1852.09 115.67 1853.88 115.51 C 1853.76 117.70 1853.68 119.88 1853.67 122.07 C 1852.27 122.81 1850.88 123.55 1849.51 124.29 C 1846.75 123.74 1844.27 124.69 1842.33 126.61 C 1843.85 126.74 1845.40 126.86 1846.97 126.96 C 1847.52 126.28 1848.10 125.59 1848.70 124.90 C 1850.49 124.75 1852.30 124.57 1854.12 124.35 C 1857.29 134.68 1867.69 140.15 1877.02 143.97 C 1893.84 149.83 1911.82 153.98 1926.39 164.74 C 1933.45 169.76 1938.47 177.07 1942.07 184.85 C 1944.27 190.13 1944.97 195.87 1946.00 201.46 L 1946.00 208.18 C 1944.82 213.40 1943.98 218.80 1941.65 223.67 C 1937.70 230.98 1932.81 238.07 1925.78 242.74 C 1911.43 252.54 1893.12 255.72 1876.09 253.20 C 1858.39 250.51 1841.49 240.24 1832.70 224.39 C 1827.59 215.87 1825.73 205.84 1825.76 196.01 C 1833.42 195.99 1841.09 196.00 1848.76 196.00 C 1849.06 203.09 1850.66 210.34 1854.88 216.18 C 1861.13 225.19 1872.06 229.88 1882.75 230.71 C 1891.88 231.41 1901.75 230.73 1909.57 225.48 C 1916.20 220.85 1921.31 213.33 1921.41 205.04 C 1921.58 197.21 1919.98 188.59 1914.01 183.02 C 1908.88 178.46 1902.45 175.31 1895.70 174.11 C 1896.00 172.99 1896.32 171.88 1896.69 170.77 C 1896.50 170.55 1896.10 170.10 1895.90 169.88 C 1895.47 171.08 1895.09 172.28 1894.73 173.49 C 1877.87 167.59 1858.98 165.00 1845.07 152.89 C 1836.77 145.93 1831.47 135.73 1830.78 124.89 C 1834.05 124.27 1837.30 123.57 1840.54 122.72 C 1837.17 122.21 1833.78 122.87 1830.44 123.17 C 1830.37 118.50 1831.00 113.86 1832.14 109.34 C 1833.09 108.82 1834.07 108.29 1835.07 107.77 C 1834.58 107.42 1833.60 106.72 1833.12 106.37 C 1838.21 93.96 1848.43 84.05 1860.56 78.52 M 1843.04 92.31 C 1842.56 93.94 1843.13 94.46 1844.77 93.87 C 1845.21 92.23 1844.64 91.72 1843.04 92.31 M 1920.28 101.13 C 1919.27 101.06 1917.44 102.66 1919.07 103.23 C 1920.68 104.05 1923.01 100.73 1920.28 101.13 M 1837.22 108.32 C 1837.70 108.87 1837.70 108.87 1837.22 108.32 M 1919.27 108.21 C 1919.74 108.78 1919.74 108.78 1919.27 108.21 M 1844.30 115.87 C 1842.45 116.27 1842.85 119.45 1844.88 118.69 C 1846.80 118.36 1846.37 114.99 1844.30 115.87 M 1843.48 128.69 C 1844.24 131.13 1846.09 132.27 1848.65 131.79 C 1847.08 130.51 1845.29 129.53 1843.48 128.69 M 1850.06 132.63 C 1850.12 133.50 1850.24 135.25 1850.30 136.12 C 1852.01 135.91 1853.72 135.67 1855.47 135.40 C 1853.70 134.40 1851.87 133.49 1850.06 132.63 M 1857.40 139.29 C 1856.10 139.52 1855.18 141.87 1856.91 142.18 C 1859.09 142.72 1860.17 138.39 1857.40 139.29 M 1850.18 150.59 C 1851.80 152.83 1853.91 154.95 1853.96 157.94 C 1855.53 157.25 1857.19 156.66 1858.69 155.73 C 1859.17 153.50 1859.03 151.20 1859.11 148.93 C 1855.98 148.36 1852.62 148.21 1850.18 150.59 Z" />
<path fill="#000000" opacity="1.00" d=" M 91.17 75.52 C 93.08 75.53 94.99 75.53 96.90 75.53 C 96.50 77.41 96.12 79.30 95.76 81.19 C 94.55 80.77 93.35 80.35 92.15 79.94 C 91.82 78.46 91.50 76.99 91.17 75.52 Z" />
<path fill="#000000" opacity="1.00" d=" M 408.62 75.51 C 410.44 75.53 412.27 75.55 414.10 75.56 C 413.24 78.98 413.18 82.53 413.85 85.99 C 412.20 85.95 410.56 85.92 408.92 85.90 C 409.62 82.45 409.52 78.92 408.62 75.51 Z" />
<path fill="#000000" opacity="1.00" d=" M 89.82 95.82 C 91.90 94.00 95.32 94.57 97.80 95.25 C 100.08 98.60 99.37 103.15 101.15 106.76 C 103.41 108.20 106.26 108.49 108.88 108.43 C 111.74 105.70 113.12 101.80 116.00 99.10 C 118.66 98.78 121.27 100.20 123.37 101.72 C 124.11 105.80 121.85 109.78 122.05 113.89 C 123.68 115.75 125.82 117.15 128.09 118.11 C 132.24 117.37 134.98 113.35 139.07 112.28 C 141.46 113.51 143.51 115.50 144.61 117.97 C 143.19 121.62 140.31 124.45 138.70 128.01 C 139.32 132.05 142.44 135.28 146.60 135.58 C 147.14 135.61 148.21 135.66 148.75 135.68 C 148.39 135.27 147.68 134.46 147.33 134.05 C 149.94 133.95 152.70 132.77 155.26 133.62 C 156.63 135.69 158.17 138.23 157.74 140.78 C 155.21 143.71 151.33 145.01 148.65 147.78 C 148.09 150.41 148.71 153.55 150.22 155.78 C 153.79 157.24 157.80 157.14 161.34 158.68 C 162.63 161.10 162.30 164.16 161.57 166.72 C 157.95 168.62 153.61 168.23 149.92 169.96 C 148.83 172.31 148.28 174.97 148.45 177.57 C 151.16 180.60 155.35 181.85 157.95 185.01 C 157.70 187.56 156.82 190.26 154.99 192.12 C 150.96 192.78 147.01 190.54 142.94 190.77 C 141.07 192.50 139.63 194.68 138.64 197.02 C 139.80 201.10 143.67 203.86 144.51 208.03 C 143.21 210.19 141.39 212.13 139.11 213.27 C 137.40 212.76 135.84 211.83 134.25 211.04 C 135.07 210.39 135.90 209.76 136.75 209.16 C 136.24 208.81 135.74 208.46 135.25 208.11 C 134.50 208.87 133.77 209.65 133.00 210.40 C 131.77 209.31 130.49 208.29 129.21 207.28 C 128.48 207.42 127.02 207.71 126.29 207.85 C 126.22 206.90 126.09 205.00 126.03 204.05 C 127.49 204.58 128.94 205.13 130.39 205.67 C 128.89 203.84 127.39 202.01 126.14 199.99 C 135.45 191.51 141.90 179.74 142.83 167.08 C 144.53 149.99 136.31 132.47 122.20 122.73 C 109.50 113.59 92.36 111.44 77.67 116.72 C 67.90 119.93 59.90 126.80 53.62 134.77 C 49.50 141.88 46.01 149.57 45.37 157.87 C 44.30 168.24 46.65 178.96 52.22 187.80 C 53.79 190.11 54.63 192.78 55.56 195.40 C 56.31 195.54 57.08 195.66 57.84 195.75 C 66.35 205.10 78.46 210.89 91.06 211.71 C 91.42 212.03 92.14 212.66 92.50 212.98 C 96.59 211.20 101.16 211.51 105.42 210.36 C 104.49 212.66 106.42 212.58 108.17 212.53 C 108.26 211.79 108.45 210.31 108.54 209.58 C 112.68 208.23 116.59 206.32 120.41 204.25 C 120.94 208.91 121.07 214.32 117.01 217.54 C 117.40 219.78 115.99 223.18 118.03 224.61 C 118.98 223.38 119.82 222.06 120.68 220.76 C 121.88 221.50 123.06 222.26 124.26 223.03 C 121.87 224.73 119.20 226.93 116.07 226.53 C 113.12 223.82 111.75 219.82 108.78 217.13 C 106.27 217.01 103.75 217.60 101.43 218.51 C 99.42 222.06 99.86 226.45 98.17 230.15 C 95.63 231.20 92.39 231.36 89.92 230.04 C 88.43 226.48 88.49 222.48 87.09 218.90 C 84.81 217.47 81.90 217.00 79.24 217.20 C 76.42 219.88 75.04 223.70 72.24 226.40 C 69.64 227.02 66.92 225.40 64.91 223.90 C 63.90 221.51 65.29 218.78 65.49 216.29 C 67.48 215.94 69.47 215.61 71.46 215.27 C 70.07 213.69 68.16 212.91 66.12 212.57 C 65.94 211.92 65.75 211.27 65.56 210.62 C 65.97 208.47 65.24 206.39 64.28 204.50 C 64.22 206.39 64.33 208.27 64.51 210.16 C 63.01 209.19 61.56 208.15 59.94 207.40 C 55.86 208.41 53.12 212.22 49.03 213.28 C 46.75 212.12 44.89 210.19 43.62 207.99 C 44.53 203.84 48.34 201.07 49.50 197.01 C 48.46 194.65 47.05 192.35 45.01 190.71 C 40.97 190.68 37.03 192.78 33.01 192.11 C 31.54 190.17 30.38 187.82 30.29 185.36 C 31.49 182.89 34.27 181.86 36.36 180.28 C 37.74 179.14 40.27 178.25 39.73 176.02 C 39.51 173.90 39.19 171.68 38.08 169.83 C 34.46 168.42 30.46 168.39 26.85 166.97 C 26.61 164.22 26.73 161.46 26.88 158.72 C 30.48 156.89 34.99 157.55 38.36 155.32 C 39.29 152.49 41.31 148.05 37.76 146.28 C 35.32 144.35 32.25 143.12 30.31 140.63 C 30.29 138.05 31.38 135.11 33.33 133.43 C 37.25 132.89 41.08 134.94 45.03 134.85 C 46.60 133.74 47.63 132.06 48.59 130.44 C 50.84 127.12 46.88 123.98 45.25 121.33 C 45.61 121.21 46.34 120.97 46.70 120.85 C 45.11 120.49 43.57 119.87 43.59 117.95 C 44.55 115.34 47.05 113.78 49.03 112.00 C 49.80 112.80 50.56 113.59 51.32 114.40 C 51.69 114.32 52.42 114.17 52.79 114.09 C 55.11 115.52 57.22 117.74 60.00 118.11 C 62.29 117.19 64.43 115.77 66.07 113.93 C 66.18 109.91 64.43 106.08 64.54 102.06 C 66.50 100.20 69.27 98.95 72.00 99.03 C 75.76 102.30 76.92 108.30 82.38 109.46 C 83.96 108.37 85.73 107.52 87.19 106.25 C 88.52 102.90 88.45 99.16 89.82 95.82 M 90.01 100.74 C 90.66 102.94 92.00 104.80 93.79 106.21 C 93.69 103.71 92.10 101.91 90.01 100.74 M 41.62 137.52 C 42.17 138.67 42.71 139.82 43.37 140.91 C 44.94 141.21 45.22 139.22 46.07 138.33 C 44.59 138.05 43.11 137.77 41.62 137.52 M 52.12 197.56 C 51.17 198.60 51.74 200.72 53.19 200.97 C 55.32 200.69 54.01 196.52 52.12 197.56 M 72.99 213.63 C 71.74 215.10 74.39 217.02 75.60 215.68 C 76.95 214.17 74.20 212.53 72.99 213.63 Z" />
<path fill="#000000" opacity="1.00" d=" M 406.93 95.96 C 409.42 94.50 414.36 93.50 415.92 96.69 C 415.72 97.21 415.31 98.25 415.10 98.77 C 416.65 101.23 417.42 104.03 418.40 106.73 C 420.51 108.31 423.42 108.37 425.97 108.47 C 428.89 105.76 430.29 101.82 433.19 99.08 C 436.46 98.95 442.28 100.79 440.56 105.11 C 440.12 108.01 439.21 110.85 439.20 113.81 C 440.97 115.79 443.31 117.66 445.99 118.14 C 449.60 116.70 452.29 113.53 456.03 112.38 C 458.53 113.23 460.79 115.51 461.67 118.01 C 460.25 121.99 457.03 125.05 455.49 129.00 C 454.24 129.35 453.00 129.70 451.76 130.06 C 452.12 131.52 452.48 132.98 452.85 134.45 C 454.52 133.96 456.19 133.47 457.84 132.90 C 461.67 136.98 467.11 132.75 471.76 133.25 C 473.90 134.97 475.18 138.13 474.91 140.84 C 472.24 143.80 468.22 145.12 465.55 148.10 C 465.59 150.69 465.86 153.48 467.29 155.71 C 470.58 157.34 474.49 157.05 477.91 158.39 C 479.69 160.46 479.50 163.44 479.07 165.95 C 478.36 167.90 476.05 167.43 474.43 167.68 C 471.98 168.54 469.33 168.89 467.03 170.13 C 466.05 172.48 465.09 175.34 465.85 177.83 C 468.09 180.11 471.09 181.42 473.55 183.44 C 476.75 185.51 473.89 190.12 471.98 192.26 C 468.56 192.58 465.32 190.89 461.92 190.75 C 459.96 190.29 458.81 192.32 457.44 193.27 C 455.41 192.44 453.41 191.50 451.45 190.52 C 451.98 192.26 452.54 193.99 453.11 195.72 C 453.77 195.60 455.10 195.36 455.76 195.24 C 455.89 199.97 459.92 203.02 461.61 207.13 C 461.41 210.23 458.15 211.98 455.76 213.47 C 454.41 210.90 452.82 208.45 451.64 205.79 C 450.76 202.44 450.61 198.95 450.21 195.52 C 449.89 195.15 449.25 194.42 448.92 194.05 C 451.20 191.16 452.81 187.72 455.54 185.20 C 456.33 180.74 458.42 176.64 459.26 172.19 C 460.12 168.05 460.11 163.80 460.41 159.59 C 464.27 161.24 468.45 161.68 472.61 161.46 C 471.76 159.99 470.98 158.36 469.45 157.50 C 465.85 155.40 462.68 152.61 458.85 150.91 C 454.62 134.39 441.49 120.42 424.99 115.80 C 410.38 111.35 394.01 114.61 381.85 123.74 C 379.76 122.06 377.08 122.69 374.65 122.76 C 374.79 124.89 375.08 127.03 374.88 129.17 C 374.35 131.04 372.87 132.43 371.81 134.00 C 362.03 146.81 359.66 164.68 365.30 179.72 C 367.42 185.63 370.88 190.95 374.92 195.72 C 374.06 196.02 372.34 196.62 371.48 196.92 C 373.33 197.35 375.20 197.70 377.08 198.03 C 385.03 204.85 394.59 210.16 405.13 211.37 C 414.96 212.66 425.02 210.69 433.87 206.33 C 434.41 206.85 435.48 207.89 436.02 208.41 C 435.60 207.82 434.75 206.65 434.33 206.06 C 438.94 203.44 443.14 200.17 446.95 196.48 C 448.31 199.31 449.44 202.28 449.52 205.46 C 451.45 207.02 452.32 209.31 452.64 211.72 C 451.27 210.39 450.00 208.97 448.77 207.52 C 445.02 207.15 441.22 208.88 439.15 212.02 C 439.15 215.94 441.22 219.75 440.58 223.64 C 438.95 225.51 436.28 226.19 433.94 226.68 C 430.19 224.68 429.23 219.73 425.91 217.14 C 423.14 217.44 418.39 216.97 417.70 220.52 C 416.79 223.74 416.65 227.20 415.24 230.28 C 412.81 231.15 410.05 231.13 407.60 230.44 C 405.19 227.03 405.94 222.39 404.12 218.69 C 401.73 217.58 399.01 216.93 396.37 217.23 C 393.49 220.01 392.09 223.99 389.10 226.67 C 386.42 226.32 383.13 225.58 381.65 223.11 C 381.81 219.36 383.15 215.78 383.33 212.04 C 381.91 209.73 379.30 208.48 376.95 207.34 C 372.95 208.62 370.16 212.34 366.02 213.24 C 363.87 211.99 362.03 210.17 360.81 208.00 C 361.65 203.87 365.46 201.11 366.68 197.10 C 365.60 194.71 364.27 192.25 362.10 190.70 C 358.34 190.87 354.75 192.24 350.99 192.37 C 348.61 190.93 347.28 187.48 347.58 184.74 C 350.20 181.87 354.05 180.50 356.77 177.72 C 357.20 175.19 356.43 172.59 355.54 170.24 C 352.10 167.77 346.90 169.10 343.62 166.36 C 342.88 163.96 342.97 161.25 343.71 158.85 C 347.38 156.99 351.78 157.40 355.45 155.54 C 356.45 153.20 357.01 150.62 356.91 148.07 C 354.23 145.12 350.26 143.75 347.52 140.85 C 347.46 138.12 348.48 134.66 350.97 133.21 C 354.71 133.32 358.27 134.74 362.00 134.87 C 364.32 133.35 365.95 130.71 366.65 128.06 C 365.03 124.49 362.11 121.66 360.73 117.97 C 361.70 115.55 363.75 113.70 365.95 112.40 C 369.32 112.84 371.74 115.73 374.69 117.23 C 377.77 119.55 380.97 115.90 383.25 113.97 C 383.43 109.92 381.48 106.06 381.78 102.02 C 383.64 100.09 386.41 99.17 389.03 98.93 C 391.66 101.08 392.98 104.34 395.07 106.96 C 397.04 109.90 401.23 107.99 403.86 106.98 C 406.23 103.80 406.17 99.68 406.93 95.96 M 461.43 179.81 C 460.57 180.88 461.43 182.97 462.88 182.88 C 464.92 182.24 463.26 178.27 461.43 179.81 M 390.10 214.16 C 388.31 216.97 393.42 214.57 390.10 214.16 Z" />
<path fill="#000000" opacity="1.00" d=" M 29.97 103.31 C 31.29 101.96 32.61 100.61 33.94 99.27 C 35.64 102.37 38.11 104.95 41.06 106.88 C 39.87 108.02 38.69 109.17 37.51 110.32 C 35.62 107.38 33.07 104.94 29.97 103.31 Z" />
<path fill="#000000" opacity="1.00" d=" M 154.28 99.31 C 155.56 100.64 156.84 101.97 158.12 103.31 C 155.05 104.98 152.50 107.40 150.61 110.34 C 149.42 109.18 148.24 108.02 147.05 106.86 C 150.04 104.96 152.45 102.33 154.28 99.31 Z" />
<path fill="#000000" opacity="1.00" d=" M 347.25 103.22 C 348.58 101.91 349.90 100.59 351.22 99.27 C 352.94 102.36 355.41 104.92 358.32 106.91 C 357.17 108.04 356.03 109.18 354.90 110.32 C 352.90 107.41 350.35 104.93 347.25 103.22 Z" />
<path fill="#000000" opacity="1.00" d=" M 464.26 106.98 C 467.33 105.02 469.82 102.34 471.65 99.20 C 472.88 100.57 474.14 101.93 475.40 103.28 C 472.39 104.92 470.13 107.48 467.91 110.02 C 466.62 109.09 465.45 108.01 464.26 106.98 Z" />
<path fill="#000000" opacity="1.00" d=" M 12.35 114.52 C 14.01 108.71 19.89 104.21 26.03 104.92 C 35.73 105.78 41.36 119.42 34.66 126.64 C 31.72 130.15 25.49 129.16 23.73 133.78 C 20.83 138.71 26.88 143.00 26.01 148.08 C 25.03 157.38 12.41 162.46 5.03 156.96 C 2.24 155.04 0.93 151.76 0.00 148.64 L 0.00 144.62 C 0.60 142.79 1.25 140.94 2.28 139.29 C 4.70 135.33 10.21 134.23 11.72 129.57 C 14.43 124.80 10.74 119.48 12.35 114.52 M 22.21 112.30 C 18.50 113.78 17.27 119.07 19.99 122.02 C 22.96 125.65 29.83 124.67 31.05 119.94 C 32.61 115.02 26.95 109.68 22.21 112.30 M 11.34 140.44 C 6.95 141.42 5.14 147.52 8.21 150.78 C 11.36 154.56 18.35 152.83 19.37 148.01 C 20.44 143.57 15.68 139.22 11.34 140.44 M 20.55 139.40 C 20.39 142.15 20.40 145.06 22.27 147.32 C 23.18 144.49 22.15 141.73 20.55 139.40 Z" />
<path fill="#000000" opacity="1.00" d=" M 161.10 105.05 C 168.04 103.65 175.01 109.13 176.11 115.94 C 177.09 119.98 174.09 124.06 175.83 128.01 C 176.72 130.84 178.29 133.53 181.05 134.89 C 185.46 137.19 188.23 142.05 188.05 147.01 C 188.09 152.39 184.32 157.69 178.98 158.88 C 171.79 160.62 162.88 155.78 162.12 148.03 C 161.51 143.97 164.64 140.79 165.42 137.04 C 164.93 134.97 164.24 132.80 162.73 131.24 C 159.50 129.52 155.34 129.22 152.99 126.10 C 147.28 118.93 152.23 106.74 161.10 105.05 M 160.32 112.36 C 156.81 114.22 155.55 119.62 158.58 122.46 C 161.98 126.00 168.97 123.95 169.56 118.95 C 170.53 114.09 164.63 109.68 160.32 112.36 M 173.46 140.52 C 169.47 141.55 167.04 146.86 169.81 150.24 C 172.56 154.11 179.48 153.58 181.05 148.90 C 183.05 144.33 178.24 138.80 173.46 140.52 Z" />
<path fill="#000000" opacity="1.00" d=" M 338.33 105.46 C 343.79 103.48 350.06 106.31 352.77 111.30 C 355.89 116.34 355.85 124.00 350.73 127.74 C 347.69 130.26 342.16 129.49 340.98 134.01 C 338.16 138.58 343.70 142.39 343.38 147.02 C 343.36 156.71 330.46 162.53 322.74 157.24 C 316.82 153.36 315.80 144.49 319.81 138.89 C 321.55 136.22 324.64 135.03 326.99 133.03 C 328.67 131.02 329.55 128.43 330.19 125.92 C 330.27 122.88 328.87 119.97 329.20 116.91 C 329.70 111.76 333.42 107.08 338.33 105.46 M 339.31 112.29 C 335.64 114.05 334.58 119.53 337.62 122.34 C 340.70 125.61 347.17 124.51 348.36 119.96 C 349.99 114.95 344.05 109.52 339.31 112.29 M 328.42 140.50 C 323.98 141.69 322.46 148.06 325.87 151.14 C 329.20 154.53 335.84 152.57 336.71 147.87 C 337.67 143.38 332.76 139.09 328.42 140.50 Z" />
<path fill="#000000" opacity="1.00" d=" M 478.11 105.12 C 485.20 103.47 492.43 109.13 493.47 116.13 C 494.10 119.44 492.49 122.62 492.56 125.91 C 493.46 129.05 494.48 132.71 497.59 134.38 C 500.64 136.12 503.48 138.56 504.55 142.03 C 506.39 146.68 504.97 152.08 501.76 155.75 C 499.71 157.98 496.54 158.17 493.75 158.67 C 486.88 159.78 479.29 154.21 479.38 147.00 C 479.33 143.41 481.96 140.59 482.72 137.22 C 482.19 134.72 481.38 131.47 478.66 130.57 C 475.62 129.46 472.13 128.66 470.12 125.87 C 464.77 118.74 469.52 107.01 478.11 105.12 M 476.27 122.79 C 478.97 125.13 482.74 123.59 485.93 123.71 C 486.22 121.42 486.80 119.16 486.78 116.84 C 486.25 112.99 481.62 110.34 478.08 112.15 C 474.08 113.84 472.67 119.98 476.27 122.79 M 486.35 148.88 C 487.95 152.94 493.19 153.76 496.66 151.58 C 497.91 151.94 499.15 152.30 500.44 152.61 C 498.48 148.81 499.56 143.02 495.19 140.83 C 490.41 138.34 484.18 143.84 486.35 148.88 Z" />
<path fill="#000000" opacity="1.00" d=" M 1159.97 125.51 C 1160.28 123.41 1160.74 121.12 1163.03 120.34 C 1162.78 122.50 1162.50 124.94 1159.97 125.51 Z" />
<path fill="#000000" opacity="1.00" d=" M 252.15 124.92 C 255.62 125.58 259.15 125.46 262.57 124.58 C 262.54 126.40 262.53 128.23 262.51 130.05 C 259.09 129.19 255.56 129.13 252.10 129.81 C 252.13 128.18 252.14 126.55 252.15 124.92 Z" />
<path fill="#000000" opacity="1.00" d=" M 243.44 148.72 C 239.66 138.54 252.51 127.49 262.00 132.90 C 264.61 134.00 265.41 136.85 266.47 139.21 C 269.33 141.41 269.04 145.33 268.24 148.46 C 267.31 151.70 264.41 153.93 263.53 157.17 C 262.90 160.92 263.66 164.89 266.18 167.81 C 271.26 174.41 267.85 185.37 259.89 187.85 C 252.42 190.36 244.22 184.40 242.79 177.01 C 242.08 173.61 243.18 169.88 245.75 167.53 C 247.87 165.36 251.34 163.62 250.69 160.01 C 251.51 154.67 244.72 153.29 243.44 148.72 M 253.52 138.62 C 249.48 140.06 247.71 145.93 251.19 148.88 C 254.43 152.29 261.10 150.78 261.97 145.98 C 263.34 141.25 258.05 136.45 253.52 138.62 M 253.46 169.56 C 249.07 170.75 247.63 176.91 251.15 179.85 C 254.35 183.41 260.94 181.72 261.79 176.93 C 263.21 172.21 257.95 167.65 253.46 169.56 Z" />
<path fill="#000000" opacity="1.00" d=" M 460.98 155.86 C 462.58 155.40 463.11 155.99 462.57 157.62 C 460.94 158.07 460.41 157.48 460.98 155.86 Z" />
<path fill="#000000" opacity="1.00" d=" M 468.25 159.27 C 468.86 159.69 468.86 159.69 468.25 159.27 Z" />
<path fill="#000000" opacity="1.00" d=" M 6.25 160.42 C 8.09 160.90 9.94 161.35 11.79 161.78 C 13.25 162.88 14.76 163.91 16.29 164.91 C 16.07 163.99 15.62 162.15 15.39 161.24 C 15.69 161.19 16.30 161.09 16.60 161.04 C 16.63 162.62 16.68 164.20 16.74 165.79 C 13.23 165.21 9.67 165.31 6.19 165.98 C 6.21 164.12 6.23 162.27 6.25 160.42 Z" />
<path fill="#000000" opacity="1.00" d=" M 171.51 161.09 C 175.00 161.57 178.54 161.50 181.97 160.62 C 181.93 162.47 181.91 164.33 181.89 166.20 C 178.50 165.21 174.94 165.21 171.48 165.81 C 171.50 164.24 171.51 162.66 171.51 161.09 Z" />
<path fill="#000000" opacity="1.00" d=" M 323.51 160.63 C 326.92 161.52 330.45 161.64 333.91 160.94 C 333.91 162.57 333.94 164.21 333.97 165.85 C 330.52 165.18 326.97 165.26 323.55 166.11 C 323.54 164.28 323.53 162.45 323.51 160.63 Z" />
<path fill="#000000" opacity="1.00" d=" M 488.86 161.07 C 492.18 161.48 495.53 161.20 498.87 161.21 C 499.17 162.85 499.26 164.52 499.41 166.18 C 495.95 165.27 492.35 165.16 488.84 165.85 C 488.84 164.25 488.85 162.66 488.86 161.07 Z" />
<path fill="#000000" opacity="1.00" d=" M 7.34 168.49 C 11.02 166.76 15.07 167.97 18.78 168.88 C 17.95 170.70 17.15 172.54 16.42 174.40 C 14.42 174.26 12.34 173.83 10.38 174.44 C 6.92 175.77 5.59 180.48 7.63 183.52 C 8.76 185.07 10.52 185.95 12.05 187.05 C 11.22 189.28 10.42 191.51 9.65 193.77 C 5.04 191.09 0.79 187.24 0.00 181.68 L 0.00 178.35 C 0.92 174.24 3.23 170.09 7.34 168.49 Z" />
<path fill="#000000" opacity="1.00" d=" M 162.52 183.89 C 160.09 174.82 170.02 165.38 178.97 167.99 C 184.89 169.61 188.87 176.04 187.91 182.07 C 187.75 184.94 186.24 187.45 184.94 189.93 C 183.64 189.22 182.54 187.82 180.97 187.83 C 179.91 188.39 178.89 189.02 177.91 189.70 C 179.62 191.12 181.42 192.44 183.30 193.64 C 182.88 194.73 182.50 195.85 181.97 196.91 C 179.62 196.30 177.36 195.36 175.07 194.57 C 176.11 196.65 177.13 198.74 178.06 200.88 C 179.72 200.57 181.38 200.24 183.04 199.91 C 186.14 204.08 188.45 209.19 187.35 214.47 C 186.81 216.05 185.07 218.01 183.35 216.71 C 182.59 212.95 184.80 209.38 184.94 205.63 C 183.27 206.38 181.64 207.21 180.03 208.07 C 179.16 206.72 178.30 205.36 177.47 203.99 C 174.04 205.46 168.83 206.35 168.69 211.06 C 168.10 214.47 171.23 216.59 173.81 217.99 C 173.60 219.20 173.38 220.42 173.17 221.64 C 174.63 222.13 176.19 223.49 177.78 222.63 C 180.67 221.28 183.35 219.50 186.35 218.39 C 183.24 222.13 181.73 227.08 183.21 231.84 C 184.71 234.85 187.37 237.40 187.70 240.90 C 188.68 247.02 185.02 253.76 178.97 255.59 C 169.76 258.54 159.43 248.53 162.39 239.26 C 163.47 235.43 167.40 233.71 169.58 230.68 C 170.09 228.63 170.15 226.39 169.55 224.35 C 167.40 221.54 163.81 219.82 162.67 216.26 C 161.83 213.22 161.59 209.80 162.80 206.83 C 164.12 203.63 167.38 201.99 169.51 199.45 C 170.34 196.70 170.75 192.82 168.04 190.95 C 165.81 188.96 163.25 186.95 162.52 183.89 M 168.69 181.08 C 168.95 185.23 173.83 187.89 177.57 186.39 C 179.77 185.69 180.66 183.39 181.70 181.56 C 182.59 181.55 184.38 181.51 185.27 181.49 C 182.98 179.18 180.63 176.90 178.04 174.94 C 173.97 172.46 168.25 176.46 168.69 181.08 M 171.26 197.13 C 170.94 198.54 171.47 199.02 172.84 198.56 C 173.15 197.15 172.62 196.67 171.26 197.13 M 172.31 237.39 C 167.87 238.91 167.08 245.38 170.95 248.00 C 174.48 251.21 180.71 248.78 181.16 244.05 C 182.17 239.27 176.62 235.23 172.31 237.39 Z" />
<path fill="#000000" opacity="1.00" d=" M 317.49 182.91 C 316.42 176.78 320.04 169.95 326.12 168.10 C 334.85 165.25 344.72 174.04 343.12 183.01 C 342.18 188.23 336.81 190.68 334.16 194.91 C 334.63 195.76 335.56 197.47 336.02 198.33 C 334.06 198.17 332.15 198.41 330.29 199.04 C 333.48 199.86 337.16 199.90 339.48 202.60 C 343.82 206.11 344.44 212.51 342.30 217.39 C 340.88 220.17 338.00 221.71 336.05 224.06 C 334.82 227.28 335.37 231.18 338.06 233.52 C 337.03 235.16 336.16 236.89 335.46 238.69 C 333.47 237.67 331.30 236.36 328.97 237.02 C 325.37 237.73 323.23 241.99 324.62 245.34 C 325.78 248.96 330.48 250.66 333.67 248.56 C 336.15 247.32 336.78 244.43 337.52 242.03 C 338.23 241.69 338.94 241.36 339.66 241.03 C 339.08 238.87 339.11 236.63 339.48 234.44 C 344.02 237.71 344.78 244.34 341.76 248.90 C 339.01 253.59 333.47 256.91 327.94 255.94 C 324.40 255.48 321.88 252.73 319.23 250.62 C 319.95 250.21 321.39 249.40 322.11 248.99 C 321.40 247.64 319.67 249.33 318.57 249.33 C 318.06 245.94 317.02 242.41 318.16 239.03 C 319.21 235.91 321.50 233.44 323.16 230.66 C 323.73 231.10 324.88 231.99 325.45 232.43 C 325.33 230.69 325.25 228.94 324.92 227.22 C 323.91 227.25 322.94 227.43 321.95 227.55 C 323.81 224.73 321.39 222.20 319.96 219.98 C 317.23 216.31 316.92 211.30 318.18 207.03 C 319.62 203.30 323.41 200.40 322.61 195.99 C 323.41 190.78 317.95 187.80 317.49 182.91 M 328.40 174.43 C 323.92 175.59 322.38 182.02 325.83 185.09 C 329.13 188.43 335.63 186.54 336.63 181.95 C 337.73 177.43 332.77 173.03 328.40 174.43 M 321.25 178.13 C 322.53 177.47 322.51 176.79 321.20 176.07 C 319.93 176.70 319.95 177.39 321.25 178.13 M 325.45 198.28 C 324.55 199.01 323.77 199.87 322.97 200.69 C 325.43 200.43 327.87 200.00 330.27 199.39 C 328.70 198.89 327.11 198.33 325.45 198.28 M 328.41 205.52 C 323.91 206.85 322.51 213.68 326.39 216.49 C 330.34 219.97 337.50 216.24 336.75 210.99 C 336.56 207.03 332.07 204.35 328.41 205.52 M 323.19 235.50 C 322.25 236.62 322.49 237.30 323.89 237.53 C 324.82 236.40 324.58 235.72 323.19 235.50 Z" />
<path fill="#000000" opacity="1.00" d=" M 479.72 177.07 C 481.99 168.82 493.33 164.73 500.31 169.73 C 502.35 171.04 501.34 173.98 501.95 175.96 C 498.24 175.22 496.38 171.83 493.80 169.47 C 492.69 170.61 493.46 172.29 493.40 173.68 C 490.54 174.11 487.14 175.08 486.23 178.21 C 484.50 183.08 490.24 188.18 494.90 186.07 C 498.07 184.93 498.98 181.34 498.59 178.31 C 500.83 179.55 503.24 179.46 505.59 178.51 C 505.13 181.50 505.01 184.71 503.30 187.32 C 500.91 191.65 494.72 192.46 493.57 197.70 C 491.03 201.94 494.46 206.51 493.40 210.96 C 492.27 217.54 485.66 222.88 478.92 221.80 C 469.88 220.53 464.61 208.30 470.09 200.95 C 472.33 197.74 476.45 197.29 479.73 195.71 C 482.92 193.02 483.45 188.18 480.84 184.87 C 480.03 182.37 478.81 179.73 479.72 177.07 M 499.98 182.51 C 499.17 183.63 499.93 185.49 501.20 185.93 C 503.06 185.60 501.62 181.80 499.98 182.51 M 478.21 199.06 C 478.28 202.40 481.21 197.58 478.21 199.06 M 482.25 200.32 C 482.88 200.73 482.88 200.73 482.25 200.32 M 477.25 203.32 C 472.59 205.60 473.63 212.93 478.20 214.69 C 482.46 216.76 487.66 212.53 486.89 207.97 C 486.46 203.58 480.95 201.15 477.25 203.32 Z" />
<path fill="#000000" opacity="1.00" d=" M 20.44 172.55 C 21.08 172.43 22.36 172.18 22.99 172.06 C 24.55 174.46 26.33 177.02 26.05 180.04 C 26.07 183.55 23.69 186.29 22.16 189.23 C 22.28 190.68 23.10 191.93 23.76 193.19 C 25.56 197.59 31.41 196.54 34.31 199.80 C 41.55 206.87 35.88 221.02 25.99 221.87 C 19.06 222.64 12.57 216.80 11.89 210.01 C 11.42 206.45 13.70 202.95 12.40 199.45 C 10.57 195.18 13.11 190.77 12.70 186.36 C 13.39 186.37 14.78 186.38 15.48 186.39 C 16.92 184.79 19.12 183.44 19.22 181.05 C 19.51 178.20 19.89 175.36 20.44 172.55 M 15.21 193.32 C 15.81 193.78 15.81 193.78 15.21 193.32 M 22.17 203.16 C 17.52 204.95 17.38 212.07 21.71 214.33 C 26.03 217.11 31.86 212.85 31.25 207.97 C 31.05 203.68 25.81 201.26 22.17 203.16 M 24.35 216.08 C 24.44 219.40 27.39 214.60 24.35 216.08 Z" />
<path fill="#000000" opacity="1.00" d=" M 502.94 173.81 C 504.32 173.58 504.76 174.15 504.26 175.53 C 502.85 175.76 502.41 175.18 502.94 173.81 Z" />
<path fill="#000000" opacity="1.00" d=" M 252.17 190.45 C 255.58 191.19 259.08 191.04 262.45 190.17 C 262.47 192.00 262.50 193.83 262.55 195.67 C 259.08 194.83 255.51 194.71 252.01 195.41 C 252.07 193.75 252.12 192.10 252.17 190.45 Z" />
<path fill="#000000" opacity="1.00" d=" M 253.39 197.48 C 261.51 195.07 269.53 203.01 268.66 211.08 C 268.95 216.81 262.37 220.15 263.41 226.01 C 262.90 229.55 265.47 232.18 267.11 235.00 C 270.77 241.71 267.07 251.26 259.69 253.50 C 250.78 256.38 240.77 247.15 242.83 238.06 C 243.46 234.79 246.12 232.61 248.52 230.57 C 251.28 228.76 250.84 224.92 250.18 222.13 C 247.90 219.40 244.34 217.57 243.26 213.96 C 240.90 206.86 246.55 199.27 253.39 197.48 M 249.43 211.67 C 250.70 216.49 256.96 217.57 260.53 214.54 C 261.47 214.72 262.41 214.90 263.36 215.09 C 262.86 214.19 262.36 213.29 261.86 212.40 C 261.90 210.09 262.23 207.38 260.32 205.66 C 258.49 203.37 255.38 203.84 252.83 204.14 C 252.25 203.52 251.08 202.29 250.49 201.68 C 250.75 205.08 249.35 208.33 249.43 211.67 M 253.22 235.23 C 248.75 236.55 247.65 242.95 251.39 245.72 C 254.80 249.13 261.27 246.91 261.81 242.11 C 262.91 237.41 257.57 233.23 253.22 235.23 Z" />
<path fill="#000000" opacity="1.00" d=" M 1702.26 201.72 C 1704.79 200.85 1707.45 201.01 1709.27 203.20 C 1706.95 204.11 1704.58 204.82 1702.22 205.54 C 1702.21 204.27 1702.23 202.99 1702.26 201.72 Z" />
<path fill="#000000" opacity="1.00" d=" M 147.72 219.77 C 152.35 214.37 156.52 208.59 160.83 202.94 C 158.75 208.72 157.59 215.60 161.30 221.00 C 159.09 223.07 156.87 225.13 154.65 227.19 C 152.95 224.20 150.59 221.67 147.72 219.77 Z" />
<path fill="#000000" opacity="1.00" d=" M 345.09 203.03 C 349.32 208.79 353.59 214.53 358.21 219.99 C 355.34 221.94 352.94 224.47 351.21 227.49 C 349.06 225.36 346.86 223.29 344.68 221.20 C 348.36 215.75 347.17 208.84 345.09 203.03 Z" />
<path fill="#000000" opacity="1.00" d=" M 120.06 214.65 C 123.10 215.04 122.84 218.03 123.00 220.37 C 121.94 218.50 120.94 216.61 120.06 214.65 Z" />
<path fill="#000000" opacity="1.00" d=" M 37.51 216.41 C 38.62 217.52 39.74 218.63 40.86 219.73 C 38.12 221.89 35.72 224.44 33.92 227.44 C 32.60 226.13 31.28 224.82 29.95 223.52 C 33.03 221.81 35.63 219.39 37.51 216.41 Z" />
<path fill="#000000" opacity="1.00" d=" M 464.41 219.92 C 465.57 218.75 466.73 217.59 467.90 216.43 C 469.84 219.37 472.40 221.83 475.49 223.55 C 474.16 224.85 472.84 226.17 471.54 227.50 C 469.82 224.41 467.37 221.83 464.41 219.92 Z" />
<path fill="#000000" opacity="1.00" d=" M 47.20 219.82 C 50.48 219.93 54.13 219.94 56.72 222.28 C 59.88 224.64 60.24 228.82 61.91 232.10 C 63.61 233.57 65.81 234.46 68.02 234.74 C 71.68 233.71 74.93 230.79 78.97 231.47 C 88.19 232.64 93.14 245.24 87.55 252.54 C 83.43 258.14 74.74 258.85 69.31 254.78 C 66.69 252.95 65.58 249.80 63.44 247.55 C 60.46 245.48 56.69 243.74 53.02 244.98 C 48.04 246.58 42.31 245.06 38.87 241.10 C 36.51 238.69 35.89 235.26 35.09 232.11 C 36.19 233.40 37.29 234.68 38.44 235.94 C 38.49 233.51 37.69 231.31 36.26 229.39 C 36.73 227.64 37.74 226.11 38.56 224.53 C 39.57 225.74 40.58 226.96 41.60 228.17 C 43.35 225.31 45.23 222.53 47.20 219.82 M 47.36 226.39 C 43.01 227.25 40.60 232.98 43.61 236.45 C 46.39 240.42 53.29 239.39 54.56 234.64 C 56.39 230.24 52.07 224.87 47.36 226.39 M 75.29 238.35 C 71.29 239.73 69.44 245.33 72.39 248.56 C 75.21 252.08 81.60 251.25 83.10 246.89 C 85.19 242.26 80.25 236.18 75.29 238.35 Z" />
<path fill="#000000" opacity="1.00" d=" M 137.19 219.69 C 144.03 219.60 151.62 223.81 152.50 231.13 C 153.75 239.73 144.99 247.05 136.70 245.52 C 135.85 243.50 134.54 241.76 132.91 240.34 C 133.22 241.63 133.55 242.93 133.90 244.22 C 130.65 244.80 127.22 245.54 124.58 247.66 C 122.67 249.74 121.59 252.51 119.38 254.34 C 117.59 255.77 115.38 256.50 113.29 257.37 C 112.17 255.24 111.02 253.13 109.79 251.08 C 112.73 250.60 115.31 249.13 117.82 247.59 C 117.09 244.36 116.98 240.20 113.48 238.63 C 109.32 236.17 104.00 240.39 104.67 244.92 C 105.65 249.26 107.60 253.30 109.20 257.43 C 106.95 256.59 104.71 255.68 102.41 254.97 C 103.22 254.31 104.05 253.67 104.87 253.03 C 104.27 252.08 103.67 251.14 103.07 250.20 C 102.42 251.42 101.76 252.64 101.04 253.82 C 95.91 246.90 98.22 235.84 106.21 232.25 C 110.28 230.24 114.61 232.16 118.27 234.09 C 120.23 235.47 122.51 234.17 124.41 233.35 C 126.93 232.37 127.28 229.41 128.28 227.25 C 129.46 229.11 130.74 230.91 132.11 232.64 C 132.23 234.06 132.36 235.49 132.52 236.91 C 135.12 236.96 137.12 238.21 138.02 240.67 C 141.33 238.66 146.48 236.77 145.83 231.97 C 145.38 227.24 139.97 225.28 135.88 226.60 C 136.62 224.36 137.50 222.10 137.19 219.69 M 146.05 225.55 C 145.00 226.45 146.46 228.39 147.61 227.58 C 148.57 226.66 147.20 224.71 146.05 225.55 M 113.61 234.14 C 114.33 237.75 117.27 240.10 119.75 242.53 C 119.55 241.37 119.15 239.04 118.95 237.87 C 117.38 236.35 115.43 235.31 113.61 234.14 Z" />
<path fill="#000000" opacity="1.00" d=" M 354.20 227.20 C 357.76 220.53 367.64 217.41 373.89 222.16 C 377.08 224.44 377.51 228.57 379.11 231.85 C 380.57 233.54 382.90 234.28 385.04 234.71 C 388.22 234.25 390.78 231.66 394.07 231.57 C 396.14 231.87 398.14 232.54 400.22 232.85 C 405.63 235.98 408.37 242.79 406.74 248.81 C 405.99 251.66 403.76 253.71 401.84 255.80 C 401.49 255.32 400.78 254.35 400.42 253.86 C 400.38 254.47 400.30 255.69 400.26 256.29 C 396.36 257.59 391.95 257.89 388.26 255.79 C 384.26 253.88 382.69 249.44 379.76 246.39 C 379.87 245.88 380.08 244.85 380.19 244.33 C 377.63 247.27 374.20 243.64 371.12 244.84 C 367.22 245.89 362.86 246.03 359.37 243.71 C 353.79 240.59 350.99 232.94 354.20 227.20 M 364.46 226.45 C 360.06 227.45 357.90 233.43 361.18 236.76 C 364.05 240.35 370.47 239.28 371.81 234.81 C 373.86 230.30 369.28 224.69 364.46 226.45 M 392.38 238.44 C 388.33 239.98 386.74 245.88 390.05 248.92 C 393.07 252.16 399.21 250.96 400.51 246.64 C 402.39 241.93 397.26 236.07 392.38 238.44 Z" />
<path fill="#000000" opacity="1.00" d=" M 451.42 220.67 C 458.86 217.86 468.57 222.81 469.78 230.89 C 470.83 237.27 466.09 243.61 459.97 245.18 C 455.20 246.91 450.20 242.88 445.61 245.61 C 440.43 246.77 439.64 252.91 435.36 255.30 C 430.05 258.70 422.20 257.93 418.18 252.90 C 412.25 245.77 416.94 233.02 426.11 231.52 C 430.15 230.68 433.53 233.47 437.14 234.69 C 440.09 234.45 443.78 233.15 444.49 229.90 C 445.52 226.10 447.44 222.08 451.42 220.67 M 454.43 226.53 C 449.47 228.22 449.29 235.94 453.84 238.22 C 457.66 240.45 462.99 237.40 463.17 233.03 C 463.57 228.59 458.53 224.99 454.43 226.53 M 426.08 238.29 C 421.80 239.77 420.44 246.07 423.85 249.12 C 426.86 252.11 432.60 250.86 434.08 246.87 C 436.17 242.17 430.95 236.42 426.08 238.29 Z" />
<path fill="#000000" opacity="1.00" d=" M 1148.94 233.68 C 1149.36 230.33 1147.14 225.37 1150.77 223.31 C 1150.79 224.25 1150.81 226.12 1150.83 227.06 C 1152.24 227.67 1153.66 228.27 1155.09 228.89 C 1155.07 230.20 1155.07 231.51 1155.08 232.83 C 1153.69 231.88 1152.24 230.98 1150.82 230.11 C 1150.20 231.31 1149.57 232.50 1148.94 233.68 Z" />
<path fill="#000000" opacity="1.00" d=" M 132.15 226.02 C 135.04 224.38 132.41 229.36 132.15 226.02 Z" />
<path fill="#000000" opacity="1.00" d=" M 605.65 232.46 C 607.13 231.35 608.69 230.27 610.60 230.08 C 609.13 231.40 607.73 232.82 607.14 234.76 C 606.96 235.08 606.59 235.71 606.40 236.03 C 606.21 235.14 605.84 233.35 605.65 232.46 Z" />
<path fill="#000000" opacity="1.00" d=" M 646.68 240.20 C 647.51 240.21 649.18 240.24 650.01 240.26 C 650.00 241.77 650.88 243.53 649.75 244.84 C 648.52 243.43 647.62 241.79 646.68 240.20 Z" />
<path fill="#000000" opacity="1.00" d=" M 91.61 240.86 C 93.24 240.86 94.88 240.86 96.51 240.85 C 95.86 244.30 95.95 247.82 96.84 251.21 C 95.00 251.23 93.15 251.24 91.31 251.27 C 92.16 247.85 92.30 244.32 91.61 240.86 Z" />
<path fill="#000000" opacity="1.00" d=" M 408.97 240.86 C 410.59 240.86 412.21 240.86 413.84 240.86 C 413.18 244.29 413.21 247.83 414.14 251.22 C 412.29 251.22 410.45 251.23 408.61 251.25 C 409.51 247.85 409.61 244.32 408.97 240.86 Z" />
<path fill="#000000" opacity="1.00" d=" M 326.86 258.06 C 330.31 258.67 333.83 258.59 337.23 257.67 C 337.22 259.52 337.22 261.38 337.22 263.25 C 333.84 262.27 330.30 262.26 326.86 262.89 C 326.86 261.27 326.86 259.66 326.86 258.06 Z" />
<path fill="#000000" opacity="1.00" d=" M 317.88 281.04 C 315.25 271.71 325.87 261.95 334.97 265.26 C 341.24 267.39 344.71 274.77 343.06 281.05 C 342.39 284.25 339.72 286.45 338.52 289.39 C 337.79 293.17 337.79 297.47 340.58 300.46 C 344.27 304.99 343.89 311.63 340.89 316.41 C 340.02 316.26 338.28 315.96 337.41 315.81 C 337.61 316.61 338.02 318.21 338.22 319.00 C 329.53 326.27 315.50 316.67 317.46 306.09 C 318.04 301.78 322.00 299.49 324.72 296.61 C 325.73 294.60 325.43 292.16 325.10 290.01 C 322.89 286.87 318.80 285.07 317.88 281.04 M 328.47 271.63 C 324.51 272.88 322.42 278.41 325.48 281.57 C 328.43 285.22 335.17 284.32 336.52 279.64 C 338.34 274.94 333.22 269.60 328.47 271.63 M 323.83 307.93 C 323.56 310.71 325.89 312.65 327.38 314.69 C 329.53 314.63 331.96 315.24 333.84 313.88 C 337.07 311.82 337.66 306.75 334.86 304.09 C 332.73 301.73 329.37 302.57 326.58 302.55 C 325.57 304.28 324.24 305.91 323.83 307.93 Z" />
</g>
</svg>
