<?xml version="1.0" encoding="UTF-8" ?>
<!DOCTYPE svg PUBLIC "-//W3C//DTD SVG 1.1//EN" "http://www.w3.org/Graphics/SVG/1.1/DTD/svg11.dtd">
<svg width="1701pt" height="314pt" viewBox="0 0 1701 314" version="1.1" xmlns="http://www.w3.org/2000/svg">
<g id="#000000ff">
<path fill="#000000" opacity="1.00" d=" M 1032.56 7.34 C 1042.18 5.71 1051.51 2.78 1060.93 0.26 C 1081.39 11.07 1101.71 22.55 1119.52 37.46 C 1125.92 42.66 1131.56 48.72 1138.01 53.87 C 1176.94 86.60 1224.42 107.55 1261.96 142.09 C 1265.11 145.18 1269.24 146.87 1273.04 149.01 C 1279.53 152.63 1283.59 159.37 1290.21 162.82 C 1310.48 173.73 1327.49 189.44 1345.69 203.32 C 1348.77 205.60 1351.82 208.77 1356.02 208.45 C 1364.64 208.52 1373.35 209.06 1381.90 207.49 C 1385.95 206.67 1389.83 208.46 1393.76 209.16 C 1407.92 212.06 1423.47 211.62 1436.28 204.29 C 1444.94 199.99 1450.28 191.29 1458.80 186.78 C 1463.53 184.50 1469.03 185.48 1473.99 183.95 C 1479.95 182.41 1484.47 176.65 1491.01 177.22 C 1498.27 177.08 1502.61 183.90 1508.87 186.40 C 1516.52 189.47 1524.88 191.29 1531.53 196.43 C 1535.69 199.73 1540.08 202.81 1544.98 204.93 C 1552.78 208.71 1561.69 205.21 1569.84 207.01 C 1574.25 209.66 1576.94 214.27 1580.07 218.23 C 1586.20 218.41 1592.42 217.65 1598.51 218.70 C 1604.73 220.94 1607.70 227.43 1612.71 231.33 C 1625.47 242.50 1643.89 243.98 1656.27 255.71 C 1662.56 261.86 1671.82 261.89 1679.90 263.73 C 1687.23 264.81 1694.01 267.92 1700.76 270.84 C 1699.16 280.81 1697.32 290.73 1695.84 300.72 C 1687.70 299.08 1680.80 293.89 1672.58 292.62 C 1665.71 291.35 1658.89 289.84 1652.16 287.98 C 1644.25 285.71 1638.58 279.40 1631.81 275.15 C 1623.21 270.53 1613.59 268.03 1605.30 262.80 C 1598.73 258.56 1592.25 254.06 1586.79 248.43 C 1581.08 248.97 1575.55 247.38 1570.07 246.06 C 1564.62 244.95 1560.23 241.15 1556.55 237.20 C 1550.61 237.01 1544.78 235.93 1539.07 234.37 C 1530.40 232.57 1522.96 227.49 1515.97 222.31 C 1508.21 216.34 1497.77 215.91 1489.82 210.30 C 1483.77 212.58 1477.18 213.08 1471.15 215.26 C 1464.31 221.38 1457.29 227.49 1449.02 231.63 C 1441.92 235.61 1433.93 237.40 1426.05 239.08 C 1413.61 242.10 1400.44 241.42 1388.11 238.20 C 1386.04 237.61 1383.88 237.40 1381.77 237.83 C 1375.89 238.85 1369.90 238.81 1363.96 238.77 C 1359.18 238.66 1354.32 238.94 1349.66 237.71 C 1344.79 236.35 1339.46 235.91 1335.27 232.85 C 1319.28 221.66 1304.74 208.56 1288.88 197.20 C 1281.11 191.83 1272.34 187.99 1265.07 181.89 C 1261.74 179.25 1259.16 175.68 1255.33 173.70 C 1249.79 170.80 1244.74 167.04 1239.99 162.99 C 1219.17 143.81 1194.67 129.36 1170.93 114.18 C 1151.68 101.60 1132.47 88.81 1114.95 73.87 C 1108.77 68.40 1102.53 63.00 1096.43 57.45 C 1084.22 47.55 1070.44 39.87 1056.78 32.20 C 1046.21 34.62 1035.75 37.78 1024.89 38.60 C 1014.41 39.90 1004.31 43.29 993.77 44.25 C 993.28 43.85 992.30 43.04 991.81 42.63 C 991.35 43.02 990.43 43.78 989.97 44.16 C 986.84 43.71 983.71 43.27 980.64 42.56 C 982.17 42.17 983.71 41.78 985.27 41.40 C 985.98 41.55 986.70 41.70 987.45 41.85 C 989.22 40.86 991.03 39.96 992.90 39.11 C 993.11 31.62 992.96 24.13 992.99 16.64 C 985.07 16.57 977.09 16.16 969.20 16.76 C 966.92 20.02 965.55 23.92 965.71 27.93 C 964.87 28.38 964.04 28.82 963.22 29.27 C 961.23 33.16 958.93 36.89 956.07 40.21 C 955.08 39.72 954.11 39.23 953.14 38.74 C 953.60 37.88 954.06 37.01 954.54 36.14 C 954.30 34.83 954.06 33.52 953.85 32.21 C 953.12 31.43 952.40 30.65 951.69 29.87 C 951.00 29.86 949.63 29.84 948.94 29.83 C 948.49 28.80 948.10 27.78 947.68 26.76 C 947.85 27.28 948.17 28.33 948.34 28.86 C 945.49 30.86 944.42 34.05 944.67 37.44 C 943.82 37.95 942.98 38.47 942.15 39.00 C 942.54 39.44 943.32 40.32 943.71 40.76 C 943.34 42.15 943.05 43.55 942.73 44.95 C 937.89 43.90 935.25 48.43 932.17 51.18 C 924.98 57.88 917.37 64.10 909.74 70.28 C 909.68 69.88 909.55 69.07 909.49 68.67 C 905.65 72.08 902.55 76.23 898.48 79.38 C 890.23 85.41 883.88 93.73 874.97 98.91 C 868.23 102.31 864.35 108.98 859.43 114.38 C 853.67 118.15 847.27 121.35 842.77 126.69 C 837.83 130.06 834.70 135.33 830.59 139.58 C 816.91 154.93 800.92 167.92 785.90 181.88 C 772.42 194.37 757.19 205.33 740.11 212.32 C 735.17 214.55 729.96 216.45 725.68 219.87 C 721.10 223.58 716.50 227.31 711.52 230.47 C 705.44 233.15 698.61 233.45 692.34 235.55 C 688.18 237.66 684.53 240.80 679.94 242.00 C 673.04 243.92 666.04 245.55 658.93 246.41 C 655.66 246.68 653.19 249.03 650.60 250.76 C 646.37 253.79 641.52 255.75 636.84 257.96 C 632.61 259.85 630.39 264.17 627.48 267.52 C 621.86 274.84 613.69 279.45 606.08 284.39 C 601.13 287.41 599.02 293.14 595.41 297.44 C 592.35 301.75 587.96 304.81 583.67 307.79 C 579.05 311.04 573.24 311.52 567.92 312.92 C 559.87 314.87 551.74 312.59 543.96 310.57 C 538.64 309.16 534.55 305.31 530.11 302.29 C 524.55 304.39 518.71 305.60 512.94 306.95 C 506.24 308.60 499.54 306.31 493.06 304.76 C 492.21 301.87 489.52 302.80 487.34 303.34 C 487.78 300.98 487.52 298.07 484.32 298.58 C 484.37 295.73 483.68 292.95 482.55 290.36 C 481.78 288.64 481.14 286.33 478.85 286.28 C 477.28 289.86 479.61 293.52 480.90 296.80 L 479.19 297.67 C 479.90 298.37 480.62 299.07 481.36 299.77 L 481.16 298.06 C 481.90 298.41 483.37 299.10 484.11 299.45 C 484.06 299.74 483.96 300.34 483.91 300.64 C 482.18 300.28 480.45 299.97 478.73 299.69 L 478.75 298.10 C 475.28 295.59 471.72 293.10 467.90 291.16 C 461.95 292.54 456.37 295.36 450.19 295.83 C 449.62 295.16 448.47 293.81 447.89 293.14 C 448.07 294.02 448.44 295.78 448.62 296.66 C 444.77 297.41 440.90 298.15 436.97 298.29 C 427.92 298.64 418.86 300.15 410.40 303.48 C 404.09 305.99 397.45 307.49 390.83 308.97 C 386.39 309.93 381.77 309.55 377.40 308.43 C 371.21 306.81 364.77 305.92 358.95 303.14 C 353.16 300.53 348.08 296.69 342.96 292.99 C 336.28 288.32 329.61 283.62 322.54 279.55 C 310.35 271.95 297.31 265.63 285.96 256.72 C 284.91 255.96 284.46 254.72 283.86 253.64 C 280.34 253.44 278.02 250.56 275.54 248.44 C 273.18 246.14 270.32 244.01 269.43 240.67 C 264.79 237.56 262.19 232.11 257.23 229.27 C 259.49 229.97 261.87 230.36 264.23 229.95 C 264.28 229.48 264.39 228.52 264.44 228.04 C 260.93 225.74 256.78 225.13 252.80 224.26 C 246.85 219.21 240.93 214.08 235.21 208.76 C 230.34 204.32 224.85 200.68 219.60 196.73 C 219.06 195.01 218.14 193.56 216.09 193.48 C 216.48 194.13 217.26 195.42 217.65 196.07 C 214.88 193.27 211.81 190.79 208.96 188.09 C 204.02 183.26 197.96 179.79 192.94 175.06 C 190.16 172.51 188.00 169.04 184.19 167.91 C 180.11 166.50 176.02 162.83 171.50 164.72 C 167.71 166.37 163.85 168.09 160.62 170.73 C 151.31 178.67 142.38 187.17 134.99 196.97 C 131.12 202.67 128.06 208.88 125.32 215.19 C 121.67 223.44 116.59 230.95 111.02 238.01 C 106.02 244.27 99.51 249.09 92.74 253.28 C 87.66 256.53 81.59 257.38 75.85 258.82 C 68.44 260.82 61.18 257.46 53.99 256.08 C 48.02 254.91 42.41 251.13 36.13 252.42 C 27.72 254.58 20.05 258.77 12.61 263.12 C 8.62 253.93 4.55 244.78 0.41 235.67 L 0.00 236.89 L 0.00 235.93 C 7.12 230.76 15.48 227.70 23.73 224.86 C 30.22 222.63 37.17 221.20 44.04 222.16 C 53.05 223.17 60.98 228.44 70.04 229.23 C 73.13 229.63 76.01 228.12 78.60 226.63 C 85.45 222.59 90.43 216.10 94.41 209.35 C 98.38 202.74 100.72 195.32 104.69 188.72 C 114.30 171.75 128.60 158.10 143.46 145.75 C 148.79 141.61 155.12 139.12 161.14 136.19 C 170.63 131.54 181.88 133.65 191.08 138.00 C 195.15 140.07 199.48 141.57 203.65 143.44 C 206.75 144.78 208.77 147.58 210.89 150.08 C 216.23 156.53 223.91 160.36 229.82 166.21 C 235.76 172.07 242.88 176.47 249.53 181.45 C 254.50 185.08 258.79 189.51 263.42 193.55 C 270.43 199.75 277.61 205.78 284.10 212.54 C 283.11 212.61 281.12 212.76 280.13 212.84 C 281.92 214.62 284.44 215.02 286.81 215.53 C 290.77 220.34 294.67 225.26 299.47 229.28 C 297.53 233.06 294.09 235.70 291.23 238.75 C 292.13 238.20 293.03 237.65 293.94 237.10 C 296.81 237.09 299.68 237.07 302.55 237.03 C 302.27 235.26 301.51 233.72 299.65 233.15 C 300.08 232.70 300.92 231.80 301.34 231.35 C 306.87 234.45 311.76 238.63 317.41 241.61 C 332.33 250.10 347.18 258.80 360.97 269.07 C 367.95 274.36 376.02 279.09 385.01 279.31 C 390.11 279.52 394.74 277.15 399.45 275.55 C 411.86 271.26 424.84 268.50 437.98 267.94 C 445.83 267.76 452.97 264.22 460.20 261.56 C 460.46 261.61 461.00 261.71 461.26 261.76 C 465.05 259.89 469.51 259.73 473.61 260.54 C 480.47 262.55 486.28 266.94 492.12 270.91 C 496.86 274.75 502.80 277.67 509.05 277.28 C 515.01 276.98 519.77 272.89 525.37 271.31 C 526.78 273.81 528.09 276.37 529.29 279.00 C 531.79 279.60 534.39 280.49 536.99 279.92 C 539.44 278.77 540.86 276.33 542.35 274.21 C 546.47 276.79 550.06 280.19 554.35 282.50 C 558.29 283.87 562.78 283.77 566.78 282.70 C 572.21 280.26 574.70 274.51 577.80 269.83 C 582.76 262.56 590.84 258.57 598.01 253.90 C 605.11 249.42 608.59 241.30 615.04 236.10 C 621.49 230.67 630.17 229.04 636.76 223.79 C 641.38 220.04 647.11 218.00 652.94 217.07 C 659.00 215.82 665.54 216.12 671.12 213.12 C 675.22 211.03 678.60 207.80 682.68 205.67 C 687.18 203.71 692.36 205.72 696.93 204.00 C 700.89 201.82 703.95 198.40 707.58 195.75 C 714.46 190.34 722.68 187.10 730.61 183.58 C 736.69 180.90 742.50 177.63 748.04 173.97 C 757.85 167.36 766.07 158.78 774.89 150.98 C 786.56 140.66 798.31 130.36 808.71 118.73 C 813.64 113.36 817.88 107.31 823.60 102.70 C 829.35 97.59 836.42 94.19 841.86 88.69 C 841.90 91.47 841.96 94.24 842.01 97.02 L 842.85 97.06 C 842.99 96.37 843.27 95.01 843.42 94.33 C 844.78 95.88 845.44 97.83 846.22 99.72 C 845.72 99.75 844.72 99.83 844.22 99.86 C 847.08 100.58 847.73 103.41 848.18 105.95 C 852.80 107.57 848.48 114.38 853.26 115.72 C 855.31 117.31 857.59 115.48 858.86 113.81 C 859.19 111.90 858.14 110.15 857.57 108.40 C 856.33 107.87 855.11 107.34 853.89 106.81 C 855.12 104.94 855.88 102.39 858.30 101.75 C 857.04 100.89 855.77 100.07 854.57 99.16 C 855.32 98.43 856.08 97.70 856.86 96.97 C 856.50 95.61 856.15 94.24 855.85 92.88 C 855.01 93.30 854.18 93.72 853.37 94.15 C 853.15 90.83 852.83 86.93 849.33 85.41 C 849.75 83.17 849.97 80.87 850.70 78.71 C 852.54 76.75 855.17 75.83 857.43 74.43 C 864.55 70.46 869.39 63.63 875.86 58.79 C 885.22 50.42 895.78 43.54 904.97 34.96 C 913.02 28.84 918.92 19.74 928.55 15.85 C 938.85 13.03 949.56 16.45 960.00 14.90 C 965.74 14.17 971.19 11.87 977.00 11.61 C 981.05 11.72 984.87 13.43 988.93 13.66 C 998.19 14.40 1007.16 11.55 1016.13 9.72 C 1021.54 8.51 1027.10 8.26 1032.56 7.34 M 925.75 18.10 C 928.02 18.86 932.37 20.31 932.51 16.48 C 930.26 16.71 927.12 15.66 925.75 18.10 M 932.52 26.46 C 930.49 28.34 933.44 30.34 935.05 31.15 C 937.53 30.66 937.19 27.79 937.18 25.89 C 935.52 25.31 933.51 24.40 932.52 26.46 M 1090.99 46.00 C 1090.88 49.83 1093.71 54.61 1098.02 54.02 C 1100.44 53.25 1102.43 51.45 1103.65 49.23 C 1105.67 49.41 1107.72 49.55 1109.78 49.38 C 1110.25 48.79 1111.21 47.61 1111.69 47.02 C 1110.92 44.92 1109.19 43.59 1107.19 42.77 C 1105.72 43.60 1104.41 44.66 1103.42 46.03 C 1101.05 44.55 1098.65 43.02 1095.96 42.25 C 1093.56 41.54 1090.62 43.31 1090.99 46.00 M 909.78 52.34 C 912.05 50.89 913.25 48.39 914.04 45.90 C 912.15 47.68 909.91 49.54 909.78 52.34 M 1114.45 51.00 C 1115.66 55.10 1120.41 55.61 1124.04 55.58 C 1127.59 55.92 1131.44 54.50 1133.25 51.27 C 1132.52 50.56 1131.80 49.85 1131.09 49.14 C 1127.15 49.99 1125.66 45.18 1121.88 45.64 C 1118.27 45.01 1115.75 48.07 1114.45 51.00 M 1100.73 61.00 C 1102.15 62.33 1103.46 63.82 1105.10 64.93 C 1108.70 65.40 1112.42 66.95 1115.87 65.00 C 1116.29 64.00 1116.73 63.01 1117.18 62.01 C 1113.39 59.50 1110.11 54.69 1105.01 55.69 C 1102.31 56.02 1100.76 58.44 1100.73 61.00 M 908.50 60.41 C 907.40 60.75 906.44 62.85 907.97 63.27 C 909.89 63.70 910.94 59.59 908.50 60.41 M 1118.47 65.04 C 1119.40 66.62 1120.26 68.41 1121.99 69.30 C 1125.30 70.38 1128.46 68.42 1131.65 67.80 C 1131.07 72.40 1134.97 75.17 1138.93 76.18 C 1140.86 75.46 1142.89 75.14 1144.96 75.03 C 1152.27 80.10 1160.61 84.13 1166.28 91.19 C 1167.15 88.25 1167.25 85.13 1166.83 82.10 C 1161.80 78.77 1157.03 74.92 1151.49 72.44 C 1148.26 70.84 1146.86 67.16 1144.02 65.07 C 1141.89 62.85 1138.64 63.48 1135.92 63.61 C 1135.26 63.16 1134.61 62.71 1133.98 62.27 C 1130.61 61.54 1127.54 59.19 1123.98 59.78 C 1121.27 60.36 1119.65 62.74 1118.47 65.04 M 883.83 72.25 C 885.38 74.08 887.82 73.41 889.87 73.10 C 890.17 70.83 890.87 68.05 888.67 66.47 C 885.50 63.46 880.15 69.73 883.83 72.25 M 876.23 73.12 C 871.90 75.59 870.76 82.76 874.97 85.90 C 876.56 87.42 878.92 87.37 880.98 87.54 C 883.10 86.53 884.41 84.45 886.01 82.81 C 885.81 80.33 886.76 77.22 884.52 75.42 C 882.29 73.50 879.16 72.19 876.23 73.12 M 858.22 85.33 C 857.40 86.43 857.55 88.72 859.08 89.11 C 861.02 88.71 860.08 84.64 858.22 85.33 M 838.13 112.08 C 834.86 116.49 836.29 122.30 835.99 127.39 C 838.23 127.21 841.21 127.94 842.88 126.11 C 843.24 122.29 845.51 117.70 842.39 114.45 C 841.34 113.29 839.91 111.25 838.13 112.08 M 215.04 183.38 C 216.77 185.38 215.20 187.90 214.78 190.08 C 215.64 190.12 217.35 190.19 218.20 190.23 C 218.20 189.52 218.19 188.10 218.19 187.40 C 219.99 186.82 223.13 185.43 221.87 183.01 C 220.70 179.74 216.30 180.65 215.04 183.38 M 226.24 193.37 C 224.83 194.32 226.21 197.11 227.77 195.89 C 229.08 194.94 227.73 192.27 226.24 193.37 M 235.28 195.59 C 235.30 196.00 235.35 196.83 235.38 197.24 C 237.12 197.54 238.91 198.49 240.67 197.71 C 241.35 195.89 239.10 195.65 238.05 194.88 C 237.35 195.06 235.97 195.41 235.28 195.59 M 241.76 200.76 C 242.46 202.23 243.63 203.22 245.27 203.51 C 244.61 205.09 243.74 206.56 242.96 208.09 C 243.16 210.15 246.33 211.21 247.87 209.93 C 249.40 209.16 248.88 207.25 249.22 205.89 C 252.61 206.14 255.95 206.85 259.35 207.07 C 256.95 204.88 253.64 204.44 250.72 203.29 C 247.77 202.34 244.94 200.77 241.76 200.76 M 234.59 207.12 C 235.92 207.08 237.48 207.69 238.67 206.82 C 240.21 205.00 238.37 204.14 236.89 203.33 C 235.61 204.25 234.88 205.59 234.59 207.12 M 475.99 263.73 C 474.98 265.38 474.93 267.12 475.97 268.83 C 475.41 268.84 474.29 268.86 473.74 268.87 C 474.62 270.22 475.52 271.57 476.45 272.90 C 476.33 272.00 476.07 270.19 475.95 269.29 C 477.93 269.24 480.48 269.23 481.40 267.04 C 481.50 264.05 478.38 263.22 475.99 263.73 M 456.08 266.62 C 455.30 268.71 454.79 270.88 454.60 273.10 C 455.87 274.39 457.12 275.72 458.35 277.06 C 456.69 277.78 455.03 278.51 453.41 279.30 C 454.44 281.16 456.09 280.74 457.69 279.97 C 458.30 278.54 459.02 277.17 459.81 275.83 C 460.55 276.24 462.04 277.05 462.79 277.46 C 463.02 275.53 463.32 273.57 464.45 271.94 C 463.77 267.98 459.56 266.69 456.08 266.62 M 488.32 277.97 C 489.37 278.19 490.42 278.42 491.48 278.63 C 492.26 276.04 492.86 272.94 490.06 271.40 C 488.39 273.21 488.63 275.72 488.32 277.97 M 438.32 278.31 C 435.01 279.87 432.87 283.86 434.48 287.39 C 435.36 292.46 443.38 293.03 445.66 288.80 C 446.75 285.80 446.25 282.16 444.36 279.60 C 442.68 278.45 440.31 277.11 438.32 278.31 M 463.77 284.96 C 465.79 288.03 471.31 287.31 470.58 283.00 C 469.56 278.40 462.87 280.69 463.77 284.96 M 452.01 286.94 C 453.78 286.52 455.23 285.41 456.68 284.35 C 456.48 283.95 456.09 283.15 455.90 282.74 C 454.01 283.54 452.44 284.85 452.01 286.94 M 537.17 287.01 C 536.87 288.70 536.49 290.38 535.98 292.02 C 537.33 295.53 540.29 298.26 543.86 299.37 C 545.57 298.90 547.23 298.28 548.94 297.80 C 550.84 295.36 552.49 292.19 552.03 289.04 C 550.71 286.53 549.22 283.34 545.91 283.41 C 542.47 282.18 539.43 284.73 537.17 287.01 M 556.68 290.48 C 554.77 291.97 557.00 293.82 557.86 295.16 C 560.16 294.21 561.76 292.56 561.25 289.90 C 559.69 289.73 557.69 288.71 556.68 290.48 M 487.26 290.30 C 487.78 290.84 487.78 290.84 487.26 290.30 M 584.97 301.55 C 587.16 298.54 586.99 294.25 588.00 290.68 C 585.60 293.71 585.63 297.90 584.97 301.55 M 489.30 293.97 C 490.37 294.87 491.79 296.44 493.32 295.35 C 494.66 293.98 492.91 292.35 492.09 291.29 C 491.14 292.17 490.21 293.06 489.30 293.97 Z" />
<path fill="#000000" opacity="1.00" d=" M 975.55 20.79 C 977.59 21.69 980.35 22.69 980.79 25.18 C 979.96 25.47 978.32 26.05 977.49 26.35 C 978.10 26.58 979.33 27.05 979.94 27.29 C 979.95 27.76 979.96 28.70 979.97 29.17 C 980.63 29.17 981.93 29.16 982.58 29.16 C 983.62 30.48 984.68 31.78 985.77 33.07 C 984.28 34.66 982.68 36.23 980.35 36.21 C 977.64 38.72 974.57 40.95 971.00 42.02 C 966.82 43.22 962.82 45.12 958.44 45.51 C 959.04 44.00 959.66 42.49 960.28 40.98 L 959.00 40.88 C 958.77 42.40 958.53 43.92 958.32 45.45 C 953.22 45.35 948.03 45.96 943.03 44.73 C 944.00 43.47 944.97 42.19 946.11 41.06 C 949.32 40.70 951.74 43.55 954.59 43.95 C 956.31 41.62 958.01 39.25 960.04 37.16 C 962.39 34.70 963.69 31.11 967.02 29.72 C 970.91 27.92 972.42 23.52 975.55 20.79 Z" />
</g>
</svg>
